<svg width="200" height="200" viewBox="0 0 200 200" fill="none" xmlns="http://www.w3.org/2000/svg">
<rect width="199.997" height="200" fill="white"/>
<path d="M101.114 11.4245C102.617 11.4245 104.126 11.3628 105.627 11.4388C107.6 11.5409 109.577 11.6834 111.536 11.9376C114.006 12.2558 116.481 12.6097 118.916 13.1252C121.469 13.6643 123.984 14.3864 126.502 15.0752C130.024 16.0371 133.395 17.4218 136.72 18.9087C139.539 20.1699 142.252 21.6448 144.909 23.2243C149.073 25.6992 152.971 28.5447 156.65 31.6799C159.935 34.4802 162.994 37.5227 165.856 40.7601C170.015 45.4676 173.556 50.6098 176.675 56.0489C178.546 59.3124 180.216 62.6827 181.582 66.1932C182.342 68.148 183.126 70.0932 183.817 72.0741C184.795 74.8792 185.56 77.746 186.232 80.6413C186.923 83.6126 187.455 86.6124 187.824 89.6384C188.094 91.8757 188.389 94.1108 188.406 96.3743C188.413 97.4407 188.56 98.5048 188.584 99.5712C188.648 102.659 188.46 105.737 188.18 108.813C187.916 111.694 187.515 114.551 186.966 117.39C185.988 122.456 184.548 127.391 182.672 132.194C181.651 134.811 180.546 137.4 179.233 139.887C177.627 142.932 175.943 145.932 174.038 148.808C171.651 152.411 169.062 155.862 166.195 159.085C164.174 161.358 162.094 163.582 159.816 165.624C157.072 168.085 154.267 170.458 151.291 172.629C147.736 175.225 144.012 177.555 140.102 179.571C136.088 181.642 131.955 183.45 127.656 184.861C122.754 186.466 117.757 187.656 112.648 188.369C112.021 188.457 111.391 188.53 110.762 188.59C110.529 188.611 110.287 188.597 110.059 188.552C109.764 188.492 109.579 188.283 109.51 187.991C109.439 187.694 109.581 187.3 109.854 187.169C110.099 187.053 110.372 186.979 110.641 186.937C112.085 186.699 113.536 186.502 114.978 186.248C119.823 185.39 124.547 184.098 129.164 182.393C132.513 181.155 135.774 179.733 138.929 178.07C142.399 176.241 145.745 174.213 148.949 171.942C151.374 170.225 153.709 168.394 155.956 166.458C158.623 164.156 161.124 161.684 163.49 159.064C165.671 156.651 167.716 154.14 169.632 151.521C171.903 148.419 173.955 145.174 175.777 141.79C177.183 139.175 178.511 136.517 179.641 133.769C180.967 130.546 182.118 127.261 183.045 123.898C184.087 120.114 184.926 116.288 185.406 112.395C185.676 110.198 185.771 107.982 185.992 105.778C186.192 103.804 186.218 101.825 186.154 99.8491C186.09 97.873 185.964 95.8969 185.776 93.9303C185.565 91.7261 185.277 89.5291 184.973 87.3345C184.805 86.1208 184.532 84.9213 184.299 83.7171C183.698 80.6033 182.888 77.5417 181.907 74.53C180.952 71.5943 179.857 68.7085 178.618 65.8773C176.513 61.0795 173.998 56.5097 171.114 52.1394C169.15 49.1634 166.994 46.3346 164.661 43.634C163.003 41.7149 161.315 39.8338 159.49 38.0738C156.096 34.7984 152.488 31.782 148.624 29.0696C145.216 26.6778 141.66 24.533 137.914 22.716C133.095 20.3765 128.119 18.4693 122.923 17.1202C118.928 16.0846 114.883 15.3625 110.795 14.8638C109.149 14.6619 107.477 14.6833 105.826 14.5051C103.494 14.251 101.159 14.2724 98.829 14.3579C96.183 14.4552 93.5324 14.5502 90.9055 14.9588C88.7939 15.2865 86.6801 15.5811 84.5757 15.9445C81.5283 16.4694 78.5285 17.2057 75.5881 18.1534C73.0657 18.9657 70.5575 19.8397 68.0992 20.8278C65.0495 22.051 62.0853 23.4784 59.2375 25.1244C57.2519 26.274 55.2781 27.4521 53.3614 28.7133C50.1858 30.8034 47.1812 33.1311 44.3121 35.6274C41.5308 38.0476 38.9418 40.6674 36.4527 43.3751C33.2866 46.8191 30.4982 50.5647 27.933 54.4766C25.0591 58.8587 22.615 63.4642 20.5843 68.2952C18.9407 72.2071 17.5465 76.1997 16.518 80.3183C15.7413 83.4297 15.1285 86.5768 14.7438 89.7619C14.549 91.3722 14.4208 92.9873 14.2307 94.5977C13.8483 97.835 14.0431 101.082 14.0122 104.324C13.9932 106.226 14.2521 108.11 14.4303 110.001C14.7319 113.195 15.2212 116.364 15.91 119.494C16.3684 121.579 16.8909 123.651 17.5156 125.696C18.2305 128.047 19.0167 130.37 19.943 132.643C21.4678 136.384 23.2064 140.022 25.2491 143.516C26.9283 146.39 28.7334 149.179 30.7357 151.837C32.8092 154.589 34.9825 157.254 37.417 159.701C37.9752 160.261 38.4573 160.895 39.0202 161.449C43.8679 166.201 49.098 170.467 54.8601 174.08C57.1426 175.512 59.4727 176.868 61.8739 178.075C66.8333 180.564 71.9399 182.69 77.3101 184.169C80.4429 185.032 83.5995 185.763 86.7941 186.336C87.7275 186.502 88.6752 186.585 89.6134 186.73C90.0005 186.789 90.3972 186.861 90.7582 187.005C91.2095 187.186 91.3947 187.583 91.2831 187.948C91.181 188.286 90.9007 188.49 90.4494 188.476C89.8556 188.459 89.2595 188.435 88.6752 188.343C85.274 187.803 81.8846 187.2 78.5499 186.321C74.562 185.269 70.643 184.01 66.8594 182.374C62.0972 180.312 57.4775 177.968 53.0978 175.158C49.326 172.738 45.7419 170.073 42.3288 167.178C39.519 164.793 36.904 162.195 34.4172 159.482C31.5527 156.361 28.9116 153.055 26.5293 149.54C24.4843 146.521 22.5747 143.421 20.9263 140.172C19.4062 137.175 17.9906 134.123 16.8553 130.945C15.7223 127.774 14.682 124.579 13.9006 121.302C13.1097 117.986 12.5206 114.637 12.0789 111.259C11.7915 109.062 11.6157 106.853 11.5634 104.637C11.5421 103.69 11.4162 102.744 11.4043 101.794C11.3711 98.9038 11.5539 96.0251 11.7843 93.1441C12.0313 90.0635 12.4708 87.0091 13.0598 83.9784C13.8365 79.9715 14.8602 76.024 16.214 72.1738C17.2377 69.2619 18.4039 66.4046 19.715 63.6043C21.9714 58.7851 24.698 54.2462 27.7216 49.8807C29.3011 47.6029 31.0231 45.4344 32.8044 43.311C34.6143 41.1567 36.5334 39.1117 38.5309 37.1332C40.4999 35.1808 42.5734 33.352 44.7135 31.5896C47.376 29.3973 50.1312 27.3381 53.0336 25.4783C55.9337 23.621 58.8789 21.8372 62.0212 20.405C63.7859 19.5998 65.5056 18.6901 67.3035 17.9776C69.693 17.0323 72.1251 16.1772 74.5691 15.3839C78.5285 14.0966 82.5829 13.1822 86.6896 12.51C89.1882 12.1015 91.7059 11.8497 94.2283 11.6074C96.5227 11.3889 98.8147 11.4412 101.107 11.4317L101.114 11.4245Z" fill="#45137D"/>
<path d="M85.7315 91.2909C85.0237 92.2457 84.7125 93.1886 84.4109 94.1197C83.5582 96.7728 83.0428 99.4852 83.1188 102.288C83.1307 102.685 83.1307 103.079 83.1188 103.475C83.0096 106.642 83.5915 109.708 84.5772 112.693C85.5557 115.655 87.0877 118.327 89.1755 120.66C90.0448 121.633 90.9212 122.605 91.857 123.512C92.9044 124.531 94.0208 125.481 95.111 126.46C95.5646 126.866 95.7451 127.217 95.5409 127.298C95.1703 127.445 94.9637 127.132 94.7214 126.961C92.3962 125.298 89.8951 123.935 87.368 122.617C86.1756 121.995 84.9643 121.401 83.8052 120.719C77.4303 116.964 73.2595 111.511 71.3072 104.373C70.4331 101.176 70.1053 97.9152 70.3191 94.6137C70.4996 91.8372 71.0578 89.1248 71.9413 86.486C73.0173 83.2724 74.5279 80.2726 76.6323 77.6053C77.2902 76.7716 78.0384 75.9878 78.8483 75.3014C80.2449 74.1162 81.8624 73.7623 83.62 74.4249C84.4489 74.7361 85.1424 75.2657 85.7196 75.9355C86.6554 77.0234 87.4226 78.2204 87.9617 79.5529C88.4225 80.6882 88.8738 81.8307 89.2895 82.985C90.3702 85.9872 91.8475 88.7685 93.8569 91.2576C95.1917 92.9108 96.8139 94.2195 98.6286 95.3073C99.6166 95.8987 100.652 96.3809 101.745 96.7561C102.524 97.0245 103.251 97.015 104.049 96.7181C107.034 95.6066 109.407 93.6969 111.376 91.2458C113.203 88.9704 114.511 86.4028 115.542 83.6857C116.088 82.2439 116.549 80.7642 117.309 79.4104C117.893 78.3677 118.577 77.4176 119.599 76.7336C120.77 75.9498 122.036 75.869 123.359 76.0852C123.96 76.1849 124.456 76.5412 124.914 76.9188C125.682 77.5506 126.366 78.2608 126.905 79.104C129.164 82.6287 130.501 86.4931 131.13 90.6092C131.422 92.526 131.643 94.4499 131.603 96.3975C131.486 102.076 129.99 107.337 126.822 112.076C124.66 115.311 121.929 117.985 118.587 119.995C116.858 121.033 115.081 121.997 113.305 122.952C110.998 124.192 108.759 125.524 106.721 127.177C106.63 127.251 106.531 127.339 106.424 127.365C106.326 127.388 106.16 127.365 106.12 127.303C106.072 127.232 106.094 127.061 106.153 126.987C106.324 126.773 106.528 126.581 106.725 126.386C107.88 125.246 109.063 124.132 110.186 122.961C111.253 121.847 112.307 120.714 113.279 119.52C116.169 115.957 117.839 111.855 118.461 107.328C119.102 102.647 118.917 98.0126 117.575 93.4547C117.502 93.2053 117.369 92.9749 117.231 92.6566C117.043 92.8229 116.915 92.9084 116.82 93.0224C115.366 94.7277 113.623 96.0768 111.706 97.2193C109.804 98.3546 107.723 98.984 105.566 99.326C99.8755 100.229 94.7428 98.8035 90.1113 95.4403C88.7265 94.4356 87.52 93.2409 86.4179 91.9346C86.2493 91.7351 86.0355 91.5712 85.741 91.298L85.7315 91.2909Z" fill="#45137D"/>
<path d="M77.9796 130.567C77.3359 129.653 76.5949 129.183 75.8586 128.741C74.5356 127.95 73.1865 127.199 71.8232 126.48C70.2437 125.646 68.7284 124.722 67.3104 123.634C65.8497 122.513 64.655 121.15 63.7025 119.58C63.1016 118.589 62.6836 117.523 62.5696 116.359C62.5387 116.05 62.5435 115.723 62.6147 115.421C62.8166 114.549 63.5695 114.119 64.4222 114.381C64.7191 114.473 65.0065 114.628 65.2678 114.801C65.7618 115.129 66.2345 115.49 66.7119 115.841C69.6594 118.019 72.8065 119.815 76.3455 120.858C77.5592 121.214 78.761 121.615 79.9818 121.953C82.0839 122.537 84.1312 123.285 86.0931 124.226C88.2379 125.254 90.2211 126.558 91.974 128.192C93.7197 129.822 95.2303 131.631 96.4488 133.695C97.8786 136.113 98.7622 138.716 99.2823 141.457C99.7194 143.761 99.8666 146.091 99.7384 148.426C99.66 149.844 99.4534 151.257 99.2776 152.668C99.1945 153.34 99.014 153.504 98.3655 153.516C97.5366 153.528 96.7006 153.528 95.874 153.461C92.5535 153.191 89.2853 152.611 86.0717 151.739C82.7038 150.827 79.4308 149.659 76.3027 148.096C74.0701 146.98 71.8731 145.809 69.7877 144.436C65.8331 141.833 62.2798 138.757 59.1042 135.256C55.3824 131.154 52.4063 126.544 50.0478 121.542C47.9054 116.998 46.5207 112.226 45.896 107.241C45.8224 106.657 45.8058 106.051 45.8604 105.467C45.9673 104.317 46.9577 103.814 47.9078 104.469C48.4802 104.866 48.9932 105.403 49.397 105.975C50.0787 106.942 50.7033 107.958 51.2591 109.006C52.746 111.804 54.3492 114.53 56.2042 117.1C57.0592 118.285 57.9713 119.435 58.9214 120.544C60.7003 122.625 62.7121 124.466 64.9186 126.088C67.1346 127.717 69.5383 128.993 72.1747 129.798C73.6924 130.261 75.2505 130.532 76.8371 130.629C77.1435 130.648 77.4547 130.598 77.982 130.567H77.9796Z" fill="#45137D"/>
<path d="M123.549 130.467C123.753 130.55 123.853 130.629 123.952 130.626C124.546 130.619 125.14 130.617 125.729 130.569C129.85 130.244 133.429 128.56 136.683 126.116C138.968 124.399 140.98 122.392 142.79 120.173C145.253 117.152 147.298 113.872 149.084 110.421C149.685 109.262 150.286 108.1 150.944 106.975C151.34 106.295 151.825 105.664 152.323 105.051C152.566 104.754 152.901 104.502 153.243 104.317C153.927 103.949 154.606 104.224 154.886 104.939C155.064 105.39 155.076 105.858 155.017 106.34C154.414 111.24 153.155 115.957 151.2 120.499C149.77 123.819 148.074 126.988 146.046 129.969C144.958 131.569 143.725 133.073 142.524 134.593C141.023 136.491 139.298 138.191 137.512 139.809C134.602 142.44 131.472 144.78 128.054 146.737C124.461 148.796 120.67 150.369 116.703 151.516C113.585 152.418 110.409 153.084 107.155 153.29C105.972 153.366 104.79 153.449 103.607 153.521C103.331 153.537 103.051 153.535 102.775 153.511C102.262 153.471 102.06 153.307 101.932 152.832C101.88 152.642 101.859 152.445 101.828 152.247C101.236 148.378 101.217 144.523 102.134 140.697C102.747 138.141 103.699 135.724 105.12 133.496C106.188 131.819 107.369 130.242 108.815 128.876C110.991 126.824 113.426 125.168 116.162 123.933C118.444 122.902 120.817 122.154 123.216 121.48C125.012 120.976 126.757 120.342 128.46 119.591C130.425 118.725 132.211 117.549 133.952 116.307C134.595 115.848 135.22 115.359 135.88 114.924C136.239 114.689 136.638 114.483 137.046 114.364C137.771 114.152 138.379 114.478 138.692 115.169C138.859 115.537 138.954 115.929 138.842 116.323C138.64 117.045 138.464 117.782 138.177 118.47C137.322 120.527 135.933 122.185 134.201 123.56C132.491 124.919 130.619 126.021 128.698 127.057C127.446 127.731 126.232 128.482 125.012 129.213C124.475 129.534 124.04 129.98 123.541 130.465L123.549 130.467Z" fill="#45137D"/>
<path d="M184.082 101.621C184.082 102.512 184.115 104.096 184.07 105.678C184.037 106.822 183.916 107.965 183.807 109.107C183.526 111.984 183.073 114.836 182.446 117.658C181.519 121.836 180.339 125.938 178.769 129.928C177.726 132.583 176.581 135.189 175.311 137.74C174.199 139.97 172.983 142.148 171.641 144.253C170.834 145.521 170.052 146.808 169.176 148.027C167.929 149.761 166.622 151.452 165.309 153.136C163.896 154.945 162.352 156.641 160.727 158.268C159.946 159.05 159.25 159.921 158.45 160.684C157.305 161.774 156.103 162.805 154.918 163.852C154.117 164.56 153.341 165.296 152.495 165.947C150.866 167.201 149.224 168.446 147.536 169.619C145.847 170.79 144.101 171.885 142.36 172.98C141.524 173.507 140.655 173.982 139.778 174.443C136.66 176.082 133.515 177.666 130.221 178.932C125.703 180.671 121.096 182.086 116.324 182.937C114.571 183.25 112.816 183.552 111.056 183.823C110.597 183.894 110.118 183.844 109.647 183.82C109.576 183.815 109.467 183.649 109.462 183.554C109.457 183.459 109.536 183.314 109.619 183.267C109.749 183.191 109.916 183.16 110.07 183.139C111.008 182.998 111.951 182.88 112.889 182.728C114.607 182.45 116.336 182.219 118.036 181.851C122.962 180.785 127.736 179.243 132.363 177.232C136.035 175.635 139.598 173.826 142.999 171.721C145.657 170.078 148.248 168.332 150.709 166.391C152.296 165.142 153.82 163.826 155.374 162.541C155.618 162.339 155.844 162.118 156.07 161.895C157.281 160.698 158.492 159.503 159.694 158.299C161.989 156 164.107 153.551 166.083 150.969C167.82 148.706 169.475 146.393 170.967 143.96C172.85 140.887 174.582 137.735 176.076 134.453C177.356 131.638 178.458 128.757 179.465 125.838C179.954 124.418 180.356 122.964 180.726 121.508C181.42 118.786 182.125 116.064 182.5 113.273C182.743 111.471 182.942 109.663 183.144 107.853C183.586 103.906 183.429 99.944 183.306 95.9918C183.222 93.3482 182.847 90.7142 182.415 88.0968C181.861 84.7359 181.128 81.4155 180.225 78.1306C179.289 74.7294 178.061 71.428 176.71 68.1716C174.978 63.9937 172.879 60.0082 170.518 56.1533C168.157 52.2985 165.52 48.6431 162.582 45.2063C160.523 42.7955 158.309 40.5296 155.984 38.3824C153.514 36.1023 150.897 33.9884 148.175 32.0099C144.643 29.4447 140.911 27.2073 137.007 25.2668C131.024 22.2955 124.777 20.0771 118.214 18.7565C115.573 18.2245 112.925 17.759 110.253 17.4478C108.683 17.2673 107.099 17.2198 105.519 17.1391C103.861 17.0559 102.199 16.9253 100.541 16.9609C98.4081 17.0061 96.2775 17.1889 94.1494 17.3291C93.1637 17.3932 92.1804 17.4977 91.1971 17.588C89.0666 17.7851 86.9646 18.1651 84.8673 18.576C81.4851 19.2387 78.1409 20.0463 74.8679 21.1365C70.1984 22.6898 65.6879 24.6161 61.3794 26.9888C58.6076 28.5161 55.9166 30.181 53.3205 32.0028C50.6271 33.8934 48.1189 36.0073 45.6155 38.1307C43.4375 39.9785 41.4305 42.0046 39.509 44.1042C37.6968 46.0851 35.9059 48.0992 34.3407 50.2938C33.1911 51.9042 31.9631 53.4599 30.8634 55.1011C29.3885 57.3029 28.0394 59.5854 26.7592 61.9107C24.1133 66.7156 22.0659 71.7652 20.4128 76.9834C19.2394 80.6887 18.4295 84.4794 17.8357 88.3177C17.4605 90.7427 17.2348 93.1796 17.0567 95.6284C16.9189 97.5285 16.9094 99.4215 16.888 101.319C16.8619 103.578 17.0947 105.82 17.2776 108.067C17.4771 110.518 17.8547 112.939 18.2918 115.352C18.8143 118.235 19.4817 121.085 20.3486 123.886C20.712 125.057 21.1158 126.216 21.5101 127.379C22.3746 129.93 23.3722 132.427 24.5907 134.833C25.4481 136.526 26.2818 138.234 27.1843 139.904C29.1058 143.462 31.3313 146.825 33.7683 150.05C36.5686 153.756 39.7346 157.123 43.067 160.347C44.7462 161.971 46.5323 163.47 48.3208 164.971C50.0832 166.448 51.9548 167.781 53.8502 169.068C56.0092 170.531 58.1943 171.973 60.522 173.17C62.2107 174.039 63.8733 174.961 65.5787 175.797C69.4621 177.699 73.5236 179.144 77.6611 180.383C81.3877 181.502 85.1951 182.217 89.0238 182.837C89.6485 182.939 90.2779 182.998 90.9026 183.101C91.1353 183.139 91.3776 183.224 91.4109 183.516C91.4346 183.723 91.1211 183.918 90.7577 183.87C89.5036 183.709 88.2448 183.561 86.9978 183.336C85.4017 183.048 83.8175 182.699 82.2285 182.362C78.9698 181.671 75.8014 180.666 72.6661 179.552C69.4929 178.424 66.4076 177.084 63.4054 175.557C60.5481 174.101 57.7858 172.481 55.0829 170.75C52.2113 168.911 49.5108 166.85 46.8435 164.736C46.0692 164.123 45.3258 163.465 44.6013 162.793C43.181 161.475 41.7488 160.166 40.3831 158.793C38.7656 157.166 37.2289 155.463 35.8038 153.663C34.7492 152.328 33.6352 151.041 32.6139 149.682C29.8968 146.07 27.505 142.25 25.4315 138.229C24.0705 135.588 22.8616 132.885 21.75 130.13C19.3677 124.22 17.85 118.088 16.9403 111.801C16.6529 109.81 16.4249 107.806 16.299 105.787C16.1636 103.609 16.1161 101.438 16.1565 99.2648C16.2087 96.4597 16.3323 93.6523 16.7503 90.8686C16.9973 89.2274 17.1659 87.5695 17.4771 85.9401C17.869 83.8809 18.3345 81.8335 18.8262 79.798C19.629 76.4847 20.7572 73.2687 22.0516 70.1216C22.9851 67.8557 23.9422 65.5993 25.1108 63.4332C25.7687 62.2171 26.4148 60.9939 27.0917 59.7873C28.8588 56.6426 30.8587 53.6499 33.0201 50.7665C34.5141 48.7714 36.1078 46.857 37.7538 44.983C39.8748 42.5698 42.1502 40.3158 44.4897 38.1259C46.9765 35.8007 49.6699 33.7224 52.4298 31.7249C54.7432 30.0528 57.1659 28.5541 59.6289 27.1218C61.8188 25.8488 64.099 24.7467 66.391 23.6636C69.1913 22.3407 72.0937 21.2932 75.0199 20.3242C78.1765 19.2791 81.4115 18.5048 84.6725 17.835C87.195 17.3148 89.7411 16.9562 92.2992 16.6973C93.9903 16.5263 95.698 16.5429 97.3891 16.3648C99.0113 16.1914 100.631 16.1605 102.249 16.2175C104.382 16.2911 106.51 16.4574 108.64 16.6023C109.469 16.6593 110.291 16.7757 111.118 16.8493C114.438 17.1462 117.678 17.8682 120.92 18.6117C125.414 19.6401 129.739 21.1721 133.955 23.0033C136.677 24.1838 139.299 25.5851 141.873 27.0672C145.381 29.0861 148.681 31.409 151.856 33.9029C153.502 35.195 155.058 36.6082 156.611 38.0143C157.666 38.9691 158.649 40.007 159.656 41.0141C162.407 43.7598 164.898 46.7264 167.183 49.8687C169.233 52.688 171.159 55.5881 172.807 58.6639C173.107 59.222 173.444 59.7588 173.738 60.3194C174.363 61.5093 174.988 62.7016 175.584 63.9058C177.325 67.4234 178.781 71.0598 179.985 74.7912C181.567 79.6959 182.731 84.7027 183.424 89.814C183.925 93.505 184.248 97.2055 184.085 101.626L184.082 101.621Z" fill="#CC933A"/>
<path d="M151.375 99.0911C151.349 98.5614 151.327 98.2906 151.322 98.0199C151.311 96.9914 151.334 95.9606 151.294 94.9322C151.13 90.8469 150.588 86.821 149.372 82.8973C148.845 81.1943 148.315 79.496 147.605 77.8596C146.456 75.2065 145.142 72.639 143.613 70.1783C142.166 67.8507 140.485 65.6988 138.687 63.649C137.492 62.2857 136.133 61.0577 134.796 59.825C133.839 58.9415 132.808 58.1363 131.792 57.3192C129.749 55.678 127.523 54.3147 125.236 53.044C121.474 50.9562 117.46 49.5002 113.315 48.4076C111.289 47.8732 109.232 47.4718 107.137 47.2557C104.855 47.0206 102.575 46.8187 100.276 46.8377C97.3399 46.8614 94.4375 47.1916 91.5422 47.6405C88.7965 48.068 86.1197 48.7782 83.4833 49.6356C82.2054 50.0513 80.9419 50.5287 79.7115 51.0702C77.467 52.0583 75.2154 53.044 73.1323 54.355C70.6859 55.8941 68.2894 57.4902 66.1114 59.4141C64.7742 60.5946 63.4869 61.8178 62.2494 63.1004C59.9882 65.4423 58.0121 68.0027 56.2949 70.7745C54.7487 73.2708 53.4019 75.8644 52.2951 78.5816C50.8582 82.1158 49.8867 85.7878 49.2858 89.5477C49.0554 90.987 48.9889 92.4596 48.9367 93.918C48.8773 95.6566 48.92 97.4 48.9034 99.1409C48.901 99.4758 48.9984 99.844 48.6588 100.231C48.578 100.036 48.4901 99.9152 48.4806 99.787C48.3262 97.7752 48.1624 95.7682 48.1932 93.747C48.2146 92.3171 48.3452 90.9015 48.5044 89.4883C48.9153 85.8567 49.7323 82.3153 50.9437 78.8666C52.3022 75.0046 54.0646 71.3445 56.3519 67.9409C57.8767 65.6726 59.5465 63.5255 61.373 61.4852C62.8052 59.8844 64.3894 58.4759 66.0116 57.0817C68.3322 55.0866 70.8451 53.3693 73.4839 51.8469C75.8852 50.4622 78.3719 49.2485 80.9775 48.2746C83.8039 47.2177 86.685 46.3698 89.6444 45.8069C92.1312 45.3318 94.6394 45.0136 97.176 44.89C98.3589 44.833 99.5369 44.6739 100.727 44.7072C106.529 44.8687 112.239 45.605 117.759 47.4932C122.469 49.1036 126.846 51.3505 130.91 54.2458C133.96 56.419 136.68 58.9462 139.181 61.7038C141.848 64.6442 144.102 67.891 145.926 71.4324C147.199 73.9002 148.363 76.4083 149.23 79.0471C150.208 82.0232 150.921 85.0515 151.377 88.1582C151.847 91.3504 151.816 94.5474 151.771 97.7515C151.767 98.1315 151.816 98.5376 151.365 99.0934L151.375 99.0911Z" fill="#CC933A"/>
<path d="M86.837 60.9935C87.065 60.965 87.3714 60.9318 87.6802 60.8914C88.9865 60.7251 90.2739 60.7038 91.5517 61.1265C93.5136 61.7773 94.8793 63.0813 95.7438 64.9125C97.9361 69.5488 94.4494 74.8526 89.6278 74.9689C86.0461 75.0568 83.1128 73.0759 82.2031 69.2424C82.0582 68.6368 82.0677 67.9907 82.0321 67.3613C82.0036 66.8507 81.9418 66.758 81.4715 66.6013C80.949 66.4255 80.4027 66.2854 79.9253 66.0217C78.3387 65.1453 77.6618 63.6751 77.7544 61.9602C77.8684 59.8321 79.0275 58.4165 81.0155 57.7467C83.0011 57.0793 85.2195 58.2075 86.0912 59.825C86.2789 60.1717 86.4641 60.5161 86.6565 60.8605C86.6731 60.8914 86.7183 60.908 86.837 60.9935Z" fill="#45137D"/>
<path d="M123.319 69.9074C123.297 73.8573 120.034 77.0638 116.082 77.002C112.467 76.945 109.068 73.9737 109.106 69.8647C109.149 65.4327 112.678 62.8556 116.134 62.7749C120.088 62.6822 123.34 65.9694 123.319 69.9051V69.9074Z" fill="#45137D"/>
<path d="M102.852 126.365C103.096 126.087 103.305 125.816 103.55 125.579C105.056 124.113 106.445 122.541 107.728 120.883C109.236 118.936 110.497 116.836 111.357 114.513C111.801 113.314 112.02 112.05 112.029 110.791C112.041 109.171 111.542 107.668 110.457 106.414C109.844 105.706 109.051 105.259 108.162 105.003C104.435 103.928 102.964 105.694 100.945 108.307C100.47 107.594 99.8608 106.841 99.1843 106.257C97.5359 104.827 95.65 104.371 93.5528 105.098C92.0208 105.63 91.0874 106.78 90.515 108.235C89.9995 109.551 89.9259 110.929 90.1326 112.326C90.4508 114.48 91.3154 116.42 92.4412 118.259C93.6644 120.256 95.0895 122.097 96.7379 123.769C97.4613 124.503 98.0949 125.408 98.7971 126.299C96.9073 125.052 94.7321 122.891 93.0611 121.22C91.4603 119.62 90.1159 117.803 89.0115 115.826C87.7455 113.558 87.2016 111.114 87.3988 108.516C87.603 105.82 89.5578 102.872 92.6146 102.134C93.6787 101.877 94.7237 101.856 95.7807 102.143C98.239 102.81 99.6851 104.823 100.945 106.882C101.776 105.219 102.484 104.26 103.671 103.343C105.564 101.88 108.528 101.357 110.934 102.716C112.604 103.659 113.723 104.993 114.281 106.837C114.737 108.35 114.815 109.848 114.54 111.406C114.202 113.316 113.442 115.05 112.421 116.658C111.34 118.358 110.124 119.969 108.692 121.41C107.907 122.199 104.745 125.579 102.854 126.367L102.852 126.365Z" fill="#CC933A"/>
<path d="M105.709 182.01C105.668 183.041 105.222 183.953 104.512 184.735C104.008 185.29 103.462 185.811 102.909 186.321C102.27 186.913 101.612 187.48 100.951 188.046C100.59 188.357 100.362 188.364 100.011 188.046C98.8969 187.039 97.7925 186.02 96.688 185.001C96.156 184.509 95.7926 183.901 95.5076 183.238C95.2986 182.754 95.2249 182.253 95.2606 181.73C95.4031 179.744 97.2414 178.574 99.1012 179.298C99.4313 179.426 99.7425 179.611 100.042 179.801C100.427 180.046 100.78 180.039 101.132 179.752C101.605 179.364 102.137 179.141 102.757 179.113C104.27 179.041 105.436 179.984 105.664 181.485C105.687 181.642 105.69 181.801 105.704 182.008L105.709 182.01Z" fill="#CC933A"/>
<path d="M35.4804 126.262C34.5282 126.381 33.4221 125.583 33.3188 124.649C33.2024 123.596 33.7456 122.673 35.0267 122.524C36.0175 122.408 36.906 123.117 37.0318 124.104C37.1689 125.172 36.4772 126.135 35.4804 126.262Z" fill="#CC933A"/>
<path d="M163.983 124.539C163.844 123.518 164.55 122.642 165.645 122.475C166.668 122.322 167.576 123.036 167.752 124.087C167.924 125.12 166.803 126.142 166.079 126.205C165.047 126.295 164.127 125.575 163.983 124.539Z" fill="#CC933A"/>
<path d="M40.3983 107.769C40.264 106.924 39.9561 106.259 39.4746 105.773C38.9769 105.275 38.2988 105.094 37.4403 105.231C36.807 105.332 36.3094 105.605 35.9477 106.053C35.5837 106.486 35.3371 107.203 35.208 108.205L34.9293 110.262C34.7905 111.295 34.4048 112.135 33.7722 112.784C33.1232 113.421 32.2569 113.826 31.1732 113.999C30.4554 114.113 29.7611 114.058 29.0904 113.832C28.4174 113.593 27.8371 113.166 27.3496 112.551C26.8599 111.922 26.5322 111.086 26.3664 110.045C26.185 108.905 26.2494 107.95 26.5596 107.179C26.8558 106.41 27.3122 105.832 27.9289 105.446C28.5456 105.059 29.2451 104.875 30.0275 104.895L30.8572 107.252C29.5125 107.236 28.5218 107.494 27.8853 108.028C27.2466 108.548 27.0011 109.273 27.149 110.202C27.2632 110.92 27.5661 111.463 28.0578 111.832C28.5472 112.187 29.1859 112.302 29.9741 112.177C30.6215 112.074 31.1623 111.8 31.5967 111.356C32.0288 110.897 32.3103 110.217 32.441 109.316L32.7197 107.259C32.8591 106.14 33.2029 105.263 33.7511 104.627C34.2853 103.994 35.1083 103.589 36.2201 103.412C37.0082 103.286 37.7481 103.356 38.4396 103.621C39.1149 103.875 39.6937 104.338 40.1761 105.012C40.6421 105.674 40.9614 106.546 41.1339 107.63C41.2593 108.418 41.2654 109.182 41.1522 109.921C41.0249 110.663 40.732 111.316 40.2733 111.88C39.8124 112.429 39.1346 112.84 38.24 113.112L37.5083 111.778C38.3978 111.565 39.0701 111.256 39.5253 110.851C39.9641 110.435 40.2428 109.965 40.3615 109.441C40.4779 108.903 40.4902 108.346 40.3983 107.769Z" fill="#45137D"/>
<path d="M40.8997 87.9844L28.9089 90.1606L40.1358 94.7605L39.9275 96.6085L26.9345 98.134C26.6008 98.1681 26.3678 98.1992 26.2356 98.2273C26.0892 98.2538 25.99 98.3072 25.9379 98.3874C25.8874 98.4534 25.8463 98.5635 25.8146 98.7177L25.5342 99.8692L24.9395 99.8022L25.6028 93.9182L26.1975 93.9852L26.2145 95.1703C26.2173 95.4001 26.2604 95.5268 26.3437 95.5505C26.4271 95.5743 26.7222 95.5645 27.229 95.5213L37.3767 94.428L26.0601 89.861L26.2589 88.0979L38.1198 85.9285L28.6873 82.585C28.2044 82.4158 27.9189 82.3406 27.8308 82.3594C27.7426 82.3781 27.6724 82.4921 27.6201 82.7013L27.3397 83.8529L26.7449 83.7858L27.2095 79.6649L27.8043 79.7319L27.8212 80.917C27.8178 81.0744 27.8334 81.1908 27.8679 81.2664C27.9024 81.342 27.9873 81.4161 28.1225 81.4888C28.2452 81.5456 28.4654 81.6278 28.7831 81.7353L41.1104 86.1151L40.8997 87.9844Z" fill="#45137D"/>
<path d="M29.5377 75.8887L28.9738 75.6881L30.9368 70.1698L31.5007 70.3704L31.2477 71.5282C31.1981 71.7526 31.2132 71.9016 31.2928 71.9753C31.359 72.0443 31.6204 72.16 32.0769 72.3223L42.3886 75.9905C42.8451 76.1529 43.1275 76.2307 43.2359 76.2238C43.3307 76.2122 43.4298 76.1038 43.5331 75.8985L44.0681 74.8409L44.632 75.0415L42.669 80.5599L42.1051 80.3593L42.3581 79.2015C42.4077 78.9771 42.3994 78.8304 42.3331 78.7615C42.2535 78.6878 41.9854 78.5697 41.5289 78.4073L31.2172 74.7392C30.7607 74.5768 30.485 74.5014 30.3901 74.513C30.2818 74.5198 30.176 74.6259 30.0727 74.8312L29.5377 75.8887Z" fill="#45137D"/>
<path d="M40.5813 61.2833L40.8713 60.7597L45.5277 63.3383L45.2377 63.8619L43.4951 63.4345C43.3248 63.3891 43.1947 63.374 43.1047 63.3894C43.0092 63.3853 42.9207 63.4422 42.8392 63.56C42.7452 63.6708 42.6154 63.8759 42.4497 64.1751L41.383 66.1012L45.7963 68.5452C46.2202 68.78 46.4861 68.9028 46.5941 68.9137C46.6896 68.9178 46.805 68.8269 46.9404 68.6413L47.8481 67.3112L48.3717 67.6012L45.327 73.0991L44.8034 72.8091L45.242 71.7081C45.3276 71.4948 45.3433 71.3488 45.2892 71.27C45.2227 71.1842 44.9774 71.024 44.5536 70.7893L34.979 65.487C34.5551 65.2522 34.2954 65.1328 34.1999 65.1288C34.0919 65.1179 33.9703 65.2053 33.8349 65.3909L33.1344 66.3469L32.6108 66.057L37.5195 57.193L40.736 58.9743L40.446 59.4979L38.0389 58.9468C37.8686 58.9013 37.7385 58.8863 37.6485 58.9016C37.553 58.8976 37.4645 58.9545 37.383 59.0722C37.289 59.1831 37.1592 59.3881 36.9935 59.6873L35.3054 62.7355L40.7285 65.7387L41.7952 63.8126C41.9609 63.5134 42.072 63.298 42.1286 63.1664C42.1727 63.028 42.1739 62.9228 42.1323 62.8508C42.0851 62.7595 41.9971 62.6538 41.8682 62.5335L40.5813 61.2833Z" fill="#45137D"/>
<path d="M39.711 53.9111L47.3058 44.9364L50.1124 47.3115L49.7258 47.7684L47.4726 46.7578C47.3036 46.6707 47.1735 46.6259 47.0822 46.6234C46.9893 46.6008 46.8914 46.6393 46.7885 46.7389C46.6856 46.8385 46.5236 47.0188 46.3027 47.2799L44.908 48.928L54.0623 56.6747C54.4321 56.9877 54.669 57.1601 54.7727 57.1919C54.8656 57.2145 54.9966 57.148 55.1656 56.9923L56.0393 56.1915L56.4962 56.5781L52.7126 61.0492L52.2557 60.6626L52.901 59.6684C53.0265 59.476 53.0705 59.3358 53.0328 59.2479C52.9843 59.1508 52.7751 58.9458 52.4052 58.6328L43.251 50.8861L41.8563 52.5342C41.6445 52.7844 41.4935 52.974 41.4031 53.1028C41.3219 53.2208 41.3002 53.3237 41.3378 53.4116C41.3646 53.4903 41.4303 53.6112 41.5349 53.7744L42.9043 55.8293L42.5176 56.2862L39.711 53.9111Z" fill="#45137D"/>
<path d="M69.2697 46.5364C68.1645 47.2418 67.078 47.6055 66.0102 47.6277C64.9347 47.6378 63.9227 47.3369 62.9743 46.725C62.0259 46.113 61.1837 45.2304 60.4477 44.0772L59.7232 42.942C58.9872 41.7887 58.5212 40.6745 58.3253 39.5992C58.1337 38.5043 58.2427 37.4964 58.6525 36.5756C59.0546 35.6427 59.7902 34.8351 60.8594 34.1528C61.7724 33.5701 62.6502 33.2635 63.4929 33.2329C64.3279 33.1903 65.0773 33.3713 65.7413 33.7759C66.4096 34.1609 66.9383 34.7111 67.3272 35.4265L65.5524 37.2945C64.9059 36.0166 64.1933 35.1781 63.4145 34.779C62.6402 34.3603 61.8926 34.381 61.1718 34.841C60.403 35.3316 60.0153 36.0355 60.0089 36.9525C60.0144 37.8619 60.4964 39.0674 61.4547 40.569L63.3292 43.5062C64.2798 44.9958 65.2002 45.9215 66.0904 46.2832C66.9806 46.6449 67.9062 46.5191 68.8672 45.9058C69.2637 45.6528 69.584 45.3468 69.8284 44.988C70.0848 44.6215 70.2159 44.1913 70.2219 43.6972C70.2321 43.1835 70.0603 42.5831 69.7063 41.8961L71.2223 41.4105C71.4834 42.1905 71.5581 42.9036 71.4464 43.5497C71.3346 44.1958 71.084 44.77 70.6944 45.2722C70.3092 45.7547 69.8343 46.1761 69.2697 46.5364Z" fill="#45137D"/>
<path d="M83.2196 31.5677L83.6724 32.836C84.4103 34.9028 84.5151 36.6586 83.9867 38.1031C83.467 39.5295 82.3079 40.5637 80.5095 41.2058C78.711 41.8479 77.1523 41.784 75.8334 41.0141C74.523 40.2259 73.4989 38.7984 72.761 36.7316L72.3082 35.4633C71.5702 33.3964 71.4611 31.6498 71.9809 30.2234C72.514 28.7922 73.6798 27.7556 75.4783 27.1135C77.2767 26.4715 78.8287 26.5378 80.1343 27.3125C81.4532 28.0824 82.4817 29.5008 83.2196 31.5677ZM80.2834 31.4811C79.8617 30.3 79.4304 29.4099 78.9895 28.8107C78.5438 28.1981 78.0535 27.8208 77.5186 27.6789C76.9972 27.5321 76.4009 27.5786 75.7298 27.8182C75.0722 28.0529 74.5813 28.3946 74.2573 28.8432C73.9332 29.2918 73.7927 29.8943 73.8358 30.6507C73.874 31.3936 74.104 32.3556 74.5257 33.5367L75.6972 36.8182C76.1141 37.9858 76.5454 38.8759 76.9911 39.4885C77.4368 40.1012 77.9294 40.4851 78.4691 40.6405C79.004 40.7824 79.6003 40.736 80.2579 40.5012C80.929 40.2616 81.4198 39.9199 81.7305 39.4761C82.0498 39.0141 82.1879 38.4049 82.1448 37.6486C82.1017 36.8922 81.8718 35.9302 81.4549 34.7626L80.2834 31.4811Z" fill="#45137D"/>
<path d="M105.205 36.4717L105.244 37.069L99.3993 37.4538L99.36 36.8565L100.523 36.63C100.749 36.5866 100.88 36.5208 100.917 36.4327C100.954 36.3303 100.956 36.0374 100.924 35.5539L100.202 24.5902L97.026 35.8962L94.7437 36.0465L90.1597 25.3156L90.8773 36.2153C90.9091 36.6988 90.9496 36.9889 90.9988 37.0857C91.0471 37.1682 91.186 37.2162 91.4154 37.2296L92.5984 37.3017L92.6377 37.8989L88.4996 38.1714L88.4603 37.5741L89.6236 37.3476C89.8493 37.3042 89.9806 37.2384 90.0177 37.1503C90.0538 37.0479 90.0559 36.755 90.0241 36.2715L89.3051 25.3504C89.2732 24.8669 89.2332 24.584 89.1849 24.5014C89.1357 24.4047 88.9964 24.3496 88.767 24.3361L87.584 24.2641L87.5447 23.6668L92.0453 23.3705L96.679 34.2052L99.9162 22.8523L104.289 22.5645L104.328 23.1617L103.165 23.3882C102.939 23.4317 102.808 23.5046 102.772 23.6069C102.735 23.695 102.733 23.9808 102.764 24.4643L103.483 35.3854C103.515 35.8689 103.556 36.159 103.605 36.2557C103.653 36.3382 103.792 36.3862 104.022 36.3997L105.205 36.4717Z" fill="#45137D"/>
<path d="M117.026 29.4634L117.614 29.5768L116.605 34.8031L116.017 34.6897L115.884 32.9005C115.874 32.7245 115.848 32.5961 115.806 32.5153C115.78 32.4233 115.698 32.3568 115.561 32.3158C115.427 32.2608 115.191 32.2009 114.856 32.1361L112.694 31.7189L111.738 36.6723C111.646 37.1481 111.612 37.439 111.635 37.545C111.66 37.6371 111.783 37.7187 112.001 37.7899L113.547 38.2406L113.434 38.8283L107.263 37.6375L107.376 37.0498L108.559 37.1257C108.788 37.1409 108.932 37.1106 108.99 37.0347C109.051 36.9448 109.127 36.662 109.219 36.1863L111.293 25.4398C111.385 24.9641 111.418 24.6802 111.392 24.5881C111.369 24.4821 111.248 24.3935 111.03 24.3223L109.904 23.9526L110.017 23.3649L119.966 25.2847L119.269 28.8949L118.681 28.7815L118.459 26.3221C118.45 26.146 118.424 26.0176 118.381 25.9369C118.356 25.8448 118.274 25.7783 118.137 25.7373C118.002 25.6823 117.767 25.6224 117.431 25.5576L114.01 24.8974L112.835 30.9843L114.997 31.4015C115.333 31.4663 115.572 31.5052 115.715 31.5182C115.86 31.5172 115.961 31.4858 116.016 31.4239C116.088 31.3507 116.162 31.2343 116.236 31.0745L117.026 29.4634Z" fill="#45137D"/>
<path d="M133.181 37.4507L132.647 38.6872C131.777 40.7021 130.657 42.0577 129.285 42.7539C127.932 43.4427 126.379 43.4087 124.626 42.6519C122.873 41.895 121.776 40.7853 121.337 39.3227C120.916 37.8527 121.14 36.1102 122.01 34.0953L122.544 32.8588C123.413 30.8439 124.525 29.4921 125.878 28.8033C127.244 28.1201 128.803 28.1569 130.556 28.9138C132.31 29.6706 133.399 30.7775 133.826 32.2345C134.266 33.6971 134.051 35.4358 133.181 37.4507ZM131.092 35.385C131.589 34.2336 131.881 33.2885 131.967 32.5496C132.059 31.7976 131.958 31.1873 131.663 30.7187C131.382 30.2558 130.914 29.8831 130.26 29.6007C129.619 29.3239 129.027 29.2391 128.484 29.3462C127.941 29.4533 127.427 29.7981 126.943 30.3807C126.464 30.9502 125.976 31.8106 125.479 32.962L124.098 36.161C123.607 37.2993 123.315 38.2444 123.224 38.9964C123.132 39.7484 123.23 40.3653 123.519 40.8469C123.814 41.3155 124.281 41.6882 124.922 41.965C125.577 42.2474 126.169 42.3322 126.698 42.2194C127.247 42.0992 127.764 41.7479 128.248 41.1653C128.732 40.5827 129.22 39.7223 129.711 38.584L131.092 35.385Z" fill="#45137D"/>
<path d="M140.46 34.7666L140.818 34.2867L145.995 38.1434C147.195 39.0373 147.921 39.9955 148.172 41.0179C148.423 42.0403 148.212 43.0029 147.54 43.9058L147.246 44.3C146.735 44.9857 146.112 45.4281 145.378 45.6271C144.643 45.8262 143.845 45.7646 142.983 45.4425L142.086 51.1187C142.036 51.4723 142.003 51.7317 141.986 51.8971C141.97 52.0625 141.977 52.1836 142.009 52.2604C142.06 52.3344 142.135 52.4253 142.232 52.5333L142.914 53.228L142.557 53.708L139.351 51.3199L140.721 44.0774L139.47 43.1451L136.584 47.0193C136.294 47.4079 136.137 47.6549 136.112 47.7605C136.095 47.8546 136.169 47.9812 136.335 48.1403L137.189 48.9626L136.831 49.4426L132.134 45.9435L132.492 45.4635L133.524 46.0459C133.724 46.1592 133.866 46.1944 133.952 46.1514C134.045 46.0969 134.237 45.8754 134.527 45.4869L141.065 36.7099C141.355 36.3214 141.508 36.0801 141.525 35.9859C141.55 35.8804 141.48 35.7481 141.314 35.589L140.46 34.7666ZM145.548 38.7434L143.748 37.4024L139.917 42.5452L141.717 43.8861C142.22 44.2607 142.717 44.3916 143.21 44.2789C143.723 44.1632 144.294 43.6825 144.924 42.8368L145.473 42.0997C146.103 41.254 146.396 40.5747 146.352 40.0618C146.319 39.5574 146.051 39.118 145.548 38.7434Z" fill="#45137D"/>
<path d="M153.714 44.5173L161.412 53.4034L158.633 55.8109L158.241 55.3585L159.587 53.2878C159.699 53.1342 159.763 53.0125 159.779 52.9228C159.816 52.8345 159.793 52.7318 159.711 52.6148C159.628 52.4977 159.475 52.3099 159.251 52.0514L157.837 50.4196L148.773 58.272C148.407 58.5893 148.2 58.7967 148.153 58.8943C148.116 58.9826 148.162 59.1223 148.29 59.3133L148.946 60.2999L148.494 60.6918L144.659 56.2649L145.111 55.873L145.994 56.6636C146.165 56.8173 146.297 56.8823 146.389 56.8586C146.493 56.8256 146.728 56.6505 147.094 56.3332L156.158 48.4809L154.744 46.8491C154.529 46.6013 154.365 46.4229 154.252 46.3137C154.148 46.2154 154.049 46.178 153.957 46.2017C153.875 46.216 153.745 46.2623 153.568 46.3405L151.327 47.3772L150.935 46.9248L153.714 44.5173Z" fill="#45137D"/>
<path d="M161.24 75.9628L161.486 76.5085L158.134 78.0197L153.961 68.7631L154.506 68.5171L155.126 69.5274C155.246 69.7236 155.353 69.8236 155.449 69.8274C155.557 69.8254 155.832 69.7248 156.274 69.5257L166.252 65.0273C166.693 64.8281 166.945 64.6915 167.005 64.6174C167.078 64.5374 167.081 64.3876 167.013 64.1681L166.667 63.0348L167.212 62.7888L169.62 68.1283L169.074 68.3743L168.454 67.364C168.335 67.1678 168.22 67.0708 168.112 67.0728C168.016 67.069 167.748 67.1666 167.306 67.3658L156.374 72.2947L157.815 75.4906C157.955 75.8024 158.061 76.0203 158.133 76.1444C158.217 76.2626 158.301 76.3265 158.383 76.3362C158.485 76.353 158.622 76.3458 158.796 76.3145L161.24 75.9628Z" fill="#45137D"/>
<path d="M171.824 75.5967L172.401 75.4395L173.94 81.091L173.362 81.2482L172.909 80.1531C172.822 79.9405 172.724 79.8268 172.617 79.8117C172.523 79.7929 172.243 79.8472 171.775 79.9744L161.215 82.8493C160.747 82.9766 160.471 83.074 160.386 83.1414C160.315 83.2052 160.295 83.3508 160.327 83.5783L160.492 84.752L159.914 84.9092L158.376 79.2577L158.953 79.1005L159.407 80.1956C159.494 80.4082 159.585 80.5238 159.678 80.5426C159.786 80.5577 160.073 80.5015 160.541 80.3743L171.101 77.4993C171.569 77.3721 171.838 77.2766 171.909 77.2129C171.994 77.1454 172.021 76.9979 171.988 76.7704L171.824 75.5967Z" fill="#45137D"/>
<path d="M175.223 94.9517L175.82 94.9055L176.139 99.0402L175.543 99.0864L175.303 97.9257C175.257 97.7006 175.182 97.5705 175.08 97.5356C174.991 97.4996 174.705 97.5003 174.222 97.5376L161.52 98.5204L161.429 97.3482L173.462 88.5486L162.614 89.3879C162.131 89.4253 161.842 89.4691 161.745 89.5195C161.663 89.5687 161.617 89.7081 161.606 89.9376L161.548 91.1213L160.951 91.1675L160.631 87.0328L161.228 86.9867L161.468 88.1473C161.514 88.3725 161.581 88.5031 161.669 88.5391C161.772 88.574 162.065 88.5728 162.548 88.5354L173.46 87.6912C173.943 87.6538 174.226 87.6105 174.308 87.5613C174.404 87.5109 174.458 87.371 174.468 87.1415L174.527 85.9577L175.124 85.9116L175.455 90.1954L165.738 97.3364L174.156 96.6851C174.639 96.6477 174.922 96.6044 175.004 96.5552C175.1 96.5049 175.153 96.365 175.164 96.1354L175.223 94.9517Z" fill="#45137D"/>
<path d="M163.575 112.14L163.484 112.732L159.85 112.17L161.467 101.713L162.059 101.804L162.027 102.989C162.02 103.219 162.056 103.361 162.134 103.416C162.226 103.474 162.511 103.54 162.99 103.614L173.806 105.286C174.285 105.36 174.57 105.383 174.661 105.353C174.766 105.326 174.85 105.202 174.913 104.981L175.241 103.842L175.832 103.934L174.248 114.18L170.615 113.618L170.706 113.026L173.156 112.713C173.331 112.697 173.458 112.666 173.538 112.62C173.629 112.591 173.692 112.507 173.728 112.369C173.778 112.232 173.829 111.995 173.881 111.657L174.45 107.981L168.45 107.054L168.078 109.462C168.025 109.8 167.995 110.04 167.988 110.183C167.994 110.329 168.029 110.428 168.093 110.481C168.169 110.55 168.288 110.619 168.45 110.688L170.09 111.417L169.998 112.008L164.738 111.195L164.83 110.604L166.613 110.403C166.788 110.387 166.915 110.356 166.995 110.311C167.086 110.282 167.149 110.198 167.185 110.059C167.235 109.923 167.286 109.686 167.338 109.348L167.711 106.939L161.563 105.989L160.962 109.876C160.91 110.214 160.88 110.454 160.872 110.597C160.879 110.743 160.914 110.842 160.978 110.895C161.053 110.964 161.173 111.033 161.335 111.102L163.575 112.14Z" fill="#45137D"/>
<path d="M42.8407 136.468L43.0472 136.338L43.9619 137.799L43.7554 137.929L43.4537 137.532C43.3924 137.457 43.3392 137.423 43.2939 137.43C43.2537 137.434 43.1469 137.49 42.9735 137.598L38.391 140.467L38.1564 140.092L41.1104 134.367L37.0328 136.919C36.8594 137.028 36.7596 137.101 36.7335 137.139C36.7125 137.173 36.7224 137.234 36.7633 137.322L36.9808 137.772L36.7819 137.896L35.8672 136.435L36.0661 136.311L36.3754 136.703C36.4367 136.778 36.4874 136.814 36.5276 136.81C36.5729 136.803 36.6822 136.745 36.8556 136.636L40.8184 134.156C40.9918 134.047 41.0891 133.976 41.1101 133.941C41.1362 133.904 41.1288 133.841 41.0879 133.753L40.8628 133.308L41.0693 133.179L41.8979 134.502L39.3155 139.494L42.7963 137.315C42.9697 137.207 43.0669 137.135 43.088 137.101C43.1141 137.063 43.1067 137 43.0658 136.912L42.8407 136.468Z" fill="#45137D"/>
<path d="M45.2977 144.124L44.7591 144.534C44.0602 145.066 43.3875 145.325 42.7412 145.31C42.0996 145.292 41.551 144.984 41.0953 144.385C40.636 143.782 40.4829 143.169 40.636 142.546C40.7976 141.923 41.2278 141.346 41.9268 140.814L42.4653 140.404C43.1595 139.875 43.8255 139.618 44.4634 139.631C45.1098 139.646 45.6626 139.955 46.1219 140.558C46.5775 141.156 46.7264 141.769 46.5685 142.396C46.4154 143.019 45.9918 143.595 45.2977 144.124ZM45.1373 143.168C45.7356 142.712 46.0828 142.289 46.1786 141.899C46.2829 141.509 46.1874 141.121 45.8921 140.733C45.5968 140.345 45.2458 140.147 44.839 140.139C44.4406 140.133 43.9422 140.357 43.3438 140.813L42.0872 141.77C41.4888 142.225 41.1374 142.648 41.0332 143.037C40.9325 143.432 41.0299 143.823 41.3251 144.21C41.6204 144.598 41.9696 144.794 42.3728 144.797C42.7796 144.804 43.2822 144.581 43.8806 144.125L45.1373 143.168Z" fill="#45137D"/>
<path d="M50.5593 146.329L50.7389 146.164L51.9036 147.435L51.7239 147.6L51.3553 147.264C51.2814 147.202 51.2228 147.178 51.1795 147.193C51.1407 147.204 51.0459 147.279 50.8951 147.417L46.9092 151.069L46.6104 150.743L48.4765 144.577L44.9298 147.827C44.779 147.966 44.6942 148.056 44.6753 148.097C44.6609 148.135 44.6818 148.193 44.7379 148.272L45.0334 148.675L44.8604 148.834L43.6957 147.563L43.8687 147.404L44.244 147.733C44.3179 147.796 44.3743 147.822 44.4131 147.811C44.4563 147.796 44.5534 147.719 44.7042 147.581L48.1511 144.422C48.3019 144.284 48.3845 144.196 48.3989 144.159C48.4178 144.117 48.3991 144.056 48.343 143.977L48.0409 143.581L48.2205 143.416L49.2755 144.567L47.6418 149.945L50.6695 147.171C50.8203 147.032 50.9029 146.944 50.9173 146.907C50.9362 146.865 50.9175 146.805 50.8614 146.725L50.5593 146.329Z" fill="#45137D"/>
<path d="M50.3768 150.485L50.5936 150.255L52.3267 151.89L52.1099 152.12L50.3768 150.485Z" fill="#45137D"/>
<path d="M56.8235 159.451L56.6773 159.635L54.9759 158.279L55.1221 158.096L55.5442 158.363C55.627 158.413 55.6867 158.43 55.7233 158.413C55.7636 158.391 55.8475 158.3 55.975 158.14L59.023 154.314L54.501 156.978L54.021 156.595L55.5991 151.587L52.5512 155.413C52.4237 155.573 52.3539 155.675 52.3418 155.719C52.3334 155.759 52.3631 155.813 52.4309 155.883L52.7854 156.234L52.6392 156.418L51.2909 155.344L51.4371 155.16L51.8591 155.427C51.9419 155.478 52.0016 155.494 52.0382 155.477C52.0786 155.456 52.1625 155.365 52.29 155.205L55.203 151.548C55.3304 151.388 55.3984 151.288 55.4067 151.249C55.4189 151.205 55.391 151.148 55.3232 151.078L54.9631 150.734L55.1149 150.543L56.4068 151.572L54.8734 156.409L59.2447 153.833L60.5013 154.834L60.3495 155.025L59.9331 154.751C59.8503 154.7 59.7887 154.686 59.7483 154.707C59.7117 154.724 59.6297 154.813 59.5022 154.973L56.5892 158.63C56.4617 158.79 56.3919 158.892 56.3798 158.936C56.3714 158.975 56.4011 159.03 56.4689 159.099L56.8235 159.451Z" fill="#45137D"/>
<path d="M62.3719 161.62L62.569 161.747L61.7701 162.983L58.1397 160.635L58.2672 160.438L58.7134 160.662C58.8008 160.704 58.8619 160.715 58.8966 160.695C58.9314 160.674 59.0059 160.576 59.1203 160.399L61.6589 156.473C61.7733 156.296 61.8327 156.187 61.8371 156.147C61.8416 156.107 61.8066 156.056 61.7323 155.994L61.34 155.686L61.4723 155.481L65.0042 157.765L64.2053 159.001L64.0159 158.878L64.3107 157.94C64.3347 157.87 64.3448 157.815 64.3409 157.777C64.3454 157.737 64.324 157.698 64.2767 157.66C64.2327 157.617 64.1501 157.557 64.0288 157.478L62.5585 156.528L61.1421 158.718L62.1577 159.375C62.279 159.453 62.3665 159.506 62.4203 159.534C62.4774 159.556 62.5216 159.56 62.5531 159.544C62.593 159.527 62.64 159.493 62.6944 159.442L63.206 158.967L63.403 159.094L62.2562 160.868L62.0592 160.741L62.2827 160.079C62.3068 160.009 62.3169 159.954 62.313 159.916C62.3174 159.876 62.296 159.837 62.2488 159.799C62.2048 159.756 62.1222 159.696 62.0009 159.617L60.9853 158.961L59.5395 161.196L61.1008 162.206C61.2221 162.284 61.3096 162.337 61.3634 162.365C61.4205 162.388 61.4648 162.391 61.4963 162.376C61.5361 162.358 61.5832 162.324 61.6375 162.274L62.3719 161.62Z" fill="#45137D"/>
<path d="M65.9017 158.624L66.0162 158.409L68.2787 159.614C68.9266 159.959 69.3115 160.433 69.4333 161.036C69.5551 161.64 69.4123 162.324 69.0051 163.089L68.6869 163.686C68.2768 164.456 67.7875 164.959 67.2188 165.195C66.6502 165.431 66.0419 165.376 65.394 165.031L63.1315 163.826L63.2418 163.619L63.7054 163.805C63.796 163.839 63.8578 163.845 63.8907 163.821C63.9236 163.798 63.9895 163.693 64.0885 163.508L66.286 159.381C66.385 159.195 66.435 159.082 66.436 159.042C66.4371 159.001 66.3979 158.953 66.3186 158.897L65.9017 158.624ZM68.127 159.86L67.187 159.36L64.5737 164.267L65.5138 164.768C65.8006 164.92 66.0652 164.993 66.3076 164.986C66.5501 164.979 66.7843 164.872 67.0104 164.665C67.2445 164.455 67.4804 164.128 67.718 163.682L68.4604 162.287C68.6951 161.847 68.8326 161.473 68.8727 161.167C68.9182 160.864 68.8763 160.61 68.7469 160.405C68.6204 160.195 68.4138 160.013 68.127 159.86Z" fill="#45137D"/>
<path d="M71.2582 161.404L71.3582 161.181L73.342 162.073L73.2421 162.296L72.7708 162.133C72.6781 162.105 72.6161 162.103 72.5848 162.129C72.5536 162.154 72.4948 162.263 72.4084 162.455L70.4912 166.719C70.4049 166.911 70.3625 167.028 70.3642 167.068C70.3659 167.108 70.4081 167.154 70.491 167.204L70.9215 167.457L70.8253 167.671L68.8414 166.779L68.9377 166.565L69.4126 166.719C69.5054 166.748 69.5674 166.749 69.5986 166.724C69.6299 166.698 69.6887 166.589 69.7751 166.397L71.6922 162.133C71.7786 161.941 71.8209 161.825 71.8193 161.785C71.8176 161.744 71.7753 161.699 71.6925 161.648L71.2582 161.404Z" fill="#45137D"/>
<path d="M74.4728 169.238C73.7573 168.969 73.3007 168.525 73.1029 167.904C72.9108 167.286 72.9658 166.574 73.2681 165.768L73.5059 165.135C73.7046 164.605 73.9568 164.173 74.2625 163.838C74.5739 163.504 74.9285 163.287 75.3264 163.186C75.7243 163.085 76.1515 163.12 76.6078 163.291C77.0303 163.449 77.3479 163.665 77.5605 163.937C77.7752 164.204 77.8938 164.496 77.9163 164.813C77.9409 165.125 77.8715 165.429 77.708 165.728L76.9147 165.633C77.1796 165.115 77.273 164.678 77.1949 164.321C77.1189 163.958 76.8894 163.705 76.5063 163.561C76.0782 163.401 75.6943 163.43 75.3549 163.65C75.021 163.871 74.7251 164.326 74.4672 165.013L73.9124 166.492C73.6524 167.185 73.5836 167.728 73.7061 168.121C73.8285 168.514 74.1235 168.798 74.5911 168.974C74.777 169.043 74.9661 169.079 75.1584 169.08C75.3527 169.076 75.5387 169.017 75.7162 168.904C75.8937 168.791 76.0493 168.599 76.1832 168.327L76.6564 168.659C76.3633 169.063 76.0242 169.299 75.639 169.367C75.2615 169.431 74.8727 169.388 74.4728 169.238Z" fill="#45137D"/>
<path d="M79.0645 170.455L79.0006 170.681L77.3506 170.214L77.4146 169.988L77.8982 170.069C77.9636 170.081 78.0123 170.086 78.0446 170.082C78.0784 170.073 78.1143 170.046 78.1522 170C78.1976 169.95 78.2602 169.862 78.3401 169.734L81.4894 165.007L82.0365 165.162L82.2565 170.844C82.2577 170.994 82.2617 171.102 82.2684 171.166C82.2826 171.226 82.3017 171.269 82.3258 171.295C82.3514 171.315 82.3924 171.336 82.4486 171.358L82.9115 171.545L82.8476 171.771L80.7373 171.173L80.8013 170.947L81.2937 171.031C81.3896 171.045 81.4454 171.036 81.461 171.003C81.484 170.966 81.4916 170.84 81.4837 170.625L81.4425 169.412L79.3236 168.812L78.6527 169.823C78.5333 170.002 78.4707 170.112 78.465 170.154C78.4668 170.192 78.5123 170.23 78.6016 170.268L79.0645 170.455ZM79.4891 168.559L81.4343 169.11L81.3177 165.812L79.4891 168.559Z" fill="#45137D"/>
<path d="M87.7074 171.244L87.9462 171.293L87.6504 172.752L83.6256 171.937L83.6722 171.707L84.1695 171.752C84.2662 171.76 84.327 171.747 84.3519 171.716C84.3767 171.684 84.4101 171.565 84.4519 171.358L85.3804 166.776C85.4223 166.57 85.4379 166.447 85.4274 166.408C85.4169 166.369 85.3656 166.334 85.2737 166.303L84.7961 166.16L84.8445 165.922L86.9763 166.354L86.9279 166.592L86.4325 166.538C86.3357 166.531 86.2749 166.543 86.25 166.575C86.2252 166.607 86.1918 166.726 86.15 166.932L85.1337 171.948L86.7347 172.272C86.8763 172.301 86.9771 172.318 87.0373 172.324C87.0987 172.324 87.1412 172.311 87.1648 172.286C87.1956 172.255 87.227 172.206 87.259 172.139L87.7074 171.244Z" fill="#45137D"/>
<path d="M93.4906 173.312C93.892 173.349 94.2247 173.281 94.4887 173.106C94.7587 172.931 94.9115 172.652 94.9471 172.269C94.9754 171.963 94.9062 171.7 94.7394 171.479C94.5731 171.252 94.2651 171.055 93.8155 170.886L93.2121 170.649C92.7684 170.481 92.4407 170.236 92.2288 169.914C92.017 169.592 91.931 169.215 91.9711 168.784C91.9978 168.496 92.0887 168.233 92.2439 167.994C92.405 167.755 92.6306 167.57 92.9207 167.44C93.2167 167.31 93.5805 167.266 94.0118 167.306C94.4911 167.35 94.8692 167.476 95.1461 167.683C95.4236 167.884 95.6061 168.13 95.6938 168.423C95.7815 168.715 95.7804 169.02 95.6905 169.338L94.9206 169.429C95.0502 168.879 95.033 168.446 94.8691 168.128C94.7112 167.812 94.4015 167.632 93.9402 167.589C93.5747 167.555 93.278 167.627 93.0499 167.805C92.8224 167.978 92.6915 168.25 92.657 168.621C92.6297 168.915 92.6903 169.174 92.8385 169.399C92.9874 169.619 93.2689 169.808 93.6832 169.967L94.2866 170.204C95.2616 170.573 95.7077 171.204 95.6248 172.096C95.5953 172.414 95.4937 172.694 95.32 172.938C95.1529 173.176 94.9126 173.357 94.5991 173.479C94.2917 173.601 93.9132 173.641 93.4639 173.6C93.1523 173.571 92.8572 173.495 92.5785 173.373C92.3058 173.251 92.0785 173.063 91.8965 172.811C91.7204 172.559 91.6187 172.223 91.5911 171.803L92.147 171.674C92.1403 172.072 92.1988 172.386 92.3226 172.615C92.4463 172.844 92.6119 173.013 92.8193 173.123C93.0272 173.227 93.2509 173.29 93.4906 173.312Z" fill="#45137D"/>
<path d="M100.702 167.958L100.704 167.715L102.428 167.735L102.425 167.978L101.929 168.018C101.832 168.029 101.775 168.052 101.756 168.088C101.738 168.124 101.727 168.247 101.725 168.458L101.686 171.779C101.678 172.465 101.513 172.998 101.189 173.38C100.872 173.755 100.389 173.939 99.7389 173.932C99.0289 173.923 98.4868 173.71 98.1126 173.29C97.7444 172.871 97.5645 172.297 97.5729 171.569L97.6095 168.41C97.6119 168.199 97.6043 168.076 97.5867 168.04C97.569 168.003 97.5122 167.979 97.416 167.966L96.9202 167.915L96.923 167.671L99.098 167.696L99.0952 167.94L98.5983 167.979C98.5019 167.99 98.4445 168.014 98.426 168.049C98.4075 168.085 98.3971 168.209 98.3946 168.419L98.3565 171.713C98.349 172.357 98.4638 172.837 98.7009 173.152C98.9439 173.468 99.3152 173.629 99.8145 173.635C100.32 173.641 100.701 173.485 100.957 173.17C101.214 172.854 101.345 172.392 101.352 171.784L101.391 168.454C101.393 168.243 101.386 168.12 101.368 168.084C101.351 168.047 101.294 168.022 101.198 168.009L100.702 167.958Z" fill="#45137D"/>
<path d="M103.374 167.937L103.356 167.694L105.913 167.506C106.507 167.462 106.971 167.579 107.305 167.856C107.639 168.127 107.824 168.509 107.86 169.001L107.879 169.262C107.915 169.754 107.788 170.162 107.498 170.485C107.208 170.808 106.766 170.991 106.172 171.035L105.092 171.114L105.229 172.977C105.244 173.187 105.262 173.313 105.283 173.353C105.304 173.388 105.363 173.405 105.459 173.404L106.138 173.408L106.155 173.642L103.806 173.815L103.789 173.581L104.28 173.49C104.375 173.471 104.43 173.443 104.446 173.406C104.461 173.368 104.461 173.245 104.445 173.035L104.103 168.372C104.088 168.162 104.07 168.04 104.049 168.005C104.028 167.97 103.97 167.95 103.873 167.945L103.374 167.937ZM105.934 167.794L104.854 167.873L105.071 170.826L106.151 170.746C106.817 170.698 107.12 170.265 107.06 169.449L107.022 168.936C106.963 168.126 106.6 167.745 105.934 167.794Z" fill="#45137D"/>
<path d="M108.703 167.517L108.667 167.276L111.201 166.893C111.79 166.804 112.262 166.885 112.616 167.135C112.97 167.38 113.183 167.746 113.257 168.234L113.296 168.493C113.37 168.981 113.275 169.397 113.011 169.741C112.746 170.085 112.32 170.302 111.731 170.391L110.66 170.553L110.939 172.4C110.971 172.609 110.999 172.732 111.023 172.771C111.046 172.804 111.106 172.816 111.202 172.808L111.879 172.76L111.914 172.992L109.585 173.345L109.55 173.113L110.033 172.985C110.126 172.959 110.179 172.926 110.191 172.888C110.204 172.849 110.194 172.726 110.163 172.518L109.463 167.895C109.432 167.687 109.404 167.566 109.381 167.533C109.358 167.5 109.298 167.485 109.201 167.488L108.703 167.517ZM111.244 167.178L110.174 167.341L110.617 170.268L111.687 170.106C112.348 170.006 112.617 169.551 112.494 168.742L112.417 168.233C112.296 167.43 111.905 167.079 111.244 167.178Z" fill="#45137D"/>
<path d="M119.292 167.988L119.449 168.646C119.653 169.501 119.618 170.22 119.343 170.806C119.067 171.385 118.563 171.762 117.831 171.937C117.094 172.113 116.471 172.004 115.963 171.612C115.459 171.213 115.106 170.586 114.902 169.731L114.745 169.073C114.542 168.224 114.576 167.511 114.846 166.933C115.121 166.348 115.627 165.967 116.365 165.791C117.096 165.617 117.717 165.728 118.226 166.126C118.734 166.519 119.09 167.139 119.292 167.988ZM118.353 167.748C118.179 167.016 117.932 166.528 117.614 166.282C117.3 166.029 116.906 165.959 116.432 166.072C115.958 166.185 115.635 166.426 115.463 166.795C115.296 167.157 115.299 167.703 115.474 168.435L115.841 169.971C116.015 170.703 116.259 171.195 116.573 171.448C116.893 171.7 117.29 171.769 117.764 171.656C118.238 171.543 118.558 171.302 118.724 170.935C118.896 170.566 118.895 170.016 118.72 169.284L118.353 167.748Z" fill="#45137D"/>
<path d="M119.919 165.246L119.842 165.014L122.223 164.222C122.782 164.036 123.255 164.027 123.641 164.197C124.031 164.359 124.3 164.659 124.446 165.099L124.534 165.364C124.65 165.713 124.652 166.042 124.54 166.352C124.431 166.655 124.215 166.91 123.891 167.12L125.66 168.776C125.78 168.888 125.867 168.967 125.92 169.013C125.971 169.053 126.014 169.076 126.048 169.084C126.086 169.084 126.135 169.077 126.194 169.064L126.596 168.987L126.671 169.21L125.377 169.64L123.146 167.453L122.307 167.733L122.954 169.676C123.021 169.876 123.068 169.99 123.097 170.019C123.125 170.048 123.187 170.052 123.282 170.033L123.77 169.928L123.845 170.151L121.781 170.838L121.707 170.615L122.161 170.407C122.248 170.365 122.295 170.324 122.3 170.284C122.306 170.244 122.276 170.124 122.209 169.925L120.733 165.489C120.666 165.289 120.619 165.175 120.59 165.146C120.561 165.117 120.5 165.113 120.404 165.132L119.919 165.246ZM122.314 164.496L121.338 164.821L122.216 167.459L123.192 167.134C123.489 167.035 123.689 166.864 123.792 166.62C123.898 166.369 123.887 166.049 123.758 165.661L123.647 165.327C123.517 164.939 123.336 164.679 123.102 164.548C122.874 164.414 122.611 164.397 122.314 164.496Z" fill="#45137D"/>
<path d="M124.755 163.38L129.178 161.51L129.751 162.865L129.535 162.956L128.924 162.185C128.88 162.126 128.84 162.087 128.806 162.069C128.776 162.043 128.732 162.038 128.674 162.056C128.614 162.069 128.517 162.103 128.384 162.159L127.445 162.557L129.438 167.27C129.52 167.464 129.577 167.574 129.607 167.6C129.638 167.626 129.7 167.626 129.793 167.6L130.272 167.456L130.363 167.672L128.36 168.52L128.268 168.304L128.705 168.06C128.788 168.012 128.832 167.967 128.834 167.927C128.837 167.887 128.797 167.77 128.715 167.576L126.722 162.862L125.774 163.263C125.646 163.317 125.555 163.363 125.498 163.399C125.445 163.428 125.415 163.464 125.407 163.507C125.402 163.542 125.405 163.596 125.416 163.669L125.545 164.644L125.328 164.735L124.755 163.38Z" fill="#45137D"/>
<path d="M136.819 164.247C137.17 164.049 137.405 163.804 137.523 163.51C137.646 163.213 137.613 162.897 137.425 162.561C137.275 162.293 137.068 162.116 136.805 162.029C136.54 161.936 136.174 161.948 135.708 162.065L135.077 162.212C134.616 162.326 134.207 162.311 133.85 162.166C133.493 162.022 133.208 161.76 132.996 161.383C132.855 161.131 132.78 160.862 132.772 160.577C132.769 160.289 132.85 160.009 133.014 159.737C133.184 159.462 133.458 159.219 133.836 159.007C134.256 158.771 134.639 158.66 134.984 158.673C135.326 158.681 135.617 158.78 135.855 158.971C136.093 159.161 136.265 159.413 136.372 159.726L135.79 160.239C135.585 159.712 135.324 159.365 135.009 159.197C134.699 159.026 134.342 159.054 133.938 159.281C133.618 159.46 133.415 159.688 133.328 159.964C133.239 160.235 133.286 160.534 133.468 160.859C133.612 161.116 133.81 161.295 134.06 161.396C134.307 161.492 134.646 161.488 135.077 161.384L135.709 161.237C136.721 160.986 137.446 161.252 137.885 162.034C138.041 162.312 138.116 162.6 138.112 162.9C138.11 163.191 138.014 163.475 137.826 163.754C137.642 164.029 137.354 164.278 136.96 164.498C136.687 164.652 136.401 164.757 136.102 164.814C135.809 164.869 135.515 164.844 135.222 164.739C134.934 164.632 134.659 164.413 134.398 164.084L134.782 163.661C135.003 163.993 135.229 164.218 135.461 164.336C135.693 164.454 135.926 164.499 136.159 164.472C136.389 164.44 136.609 164.364 136.819 164.247Z" fill="#45137D"/>
<path d="M142.59 159.144L142.785 159.014L143.602 160.237L140.007 162.638L139.876 162.443L140.259 162.122C140.332 162.058 140.367 162.007 140.362 161.967C140.357 161.927 140.296 161.819 140.179 161.644L137.583 157.755C137.466 157.58 137.39 157.483 137.355 157.463C137.32 157.443 137.259 157.454 137.172 157.498L136.734 157.736L136.599 157.533L140.097 155.198L140.914 156.422L140.726 156.547L139.982 155.904C139.927 155.854 139.881 155.823 139.844 155.811C139.809 155.791 139.765 155.796 139.712 155.824C139.655 155.847 139.567 155.899 139.446 155.979L137.99 156.952L139.439 159.121L140.444 158.45C140.565 158.369 140.648 158.31 140.695 158.272C140.738 158.228 140.759 158.189 140.757 158.154C140.757 158.111 140.745 158.054 140.719 157.984L140.486 157.326L140.681 157.195L141.854 158.952L141.659 159.082L141.14 158.614C141.085 158.564 141.039 158.533 141.003 158.522C140.968 158.502 140.923 158.506 140.87 158.534C140.813 158.558 140.725 158.61 140.605 158.69L139.599 159.361L141.077 161.576L142.624 160.543C142.744 160.463 142.827 160.404 142.874 160.365C142.917 160.322 142.938 160.283 142.936 160.248C142.936 160.204 142.924 160.148 142.899 160.078L142.59 159.144Z" fill="#45137D"/>
<path d="M141.19 154.737L141.039 154.545L143.007 152.989C143.47 152.623 143.911 152.454 144.332 152.482C144.754 152.502 145.109 152.693 145.396 153.056L145.569 153.276C145.797 153.564 145.911 153.873 145.911 154.203C145.912 154.524 145.796 154.838 145.563 155.145L147.79 156.099C147.941 156.164 148.05 156.209 148.115 156.234C148.177 156.254 148.225 156.262 148.26 156.257C148.296 156.244 148.339 156.221 148.39 156.189L148.742 155.979L148.888 156.163L147.819 157.009L144.976 155.712L144.282 156.261L145.553 157.868C145.684 158.033 145.767 158.125 145.804 158.142C145.84 158.159 145.9 158.142 145.983 158.092L146.406 157.827L146.552 158.011L144.845 159.36L144.7 159.176L145.056 158.825C145.124 158.756 145.154 158.702 145.145 158.662C145.137 158.623 145.068 158.52 144.937 158.355L142.037 154.688C141.907 154.523 141.823 154.431 141.787 154.414C141.75 154.397 141.69 154.414 141.607 154.464L141.19 154.737ZM143.186 153.216L142.379 153.854L144.103 156.034L144.91 155.396C145.156 155.202 145.285 154.973 145.299 154.709C145.314 154.437 145.194 154.14 144.941 153.819L144.722 153.543C144.468 153.222 144.209 153.04 143.944 152.996C143.684 152.948 143.432 153.022 143.186 153.216Z" fill="#45137D"/>
<path d="M149.264 148.387L151.719 153.569L151.277 153.983L146.26 151.2C146.097 151.106 145.994 151.058 145.952 151.056C145.909 151.046 145.849 151.07 145.771 151.127L145.41 151.403L145.244 151.225L146.792 149.775L146.958 149.953L146.653 150.3C146.591 150.375 146.568 150.429 146.584 150.464C146.604 150.494 146.694 150.555 146.853 150.645L151.136 153.039L149.026 148.609C148.951 148.441 148.897 148.347 148.863 148.329C148.834 148.307 148.778 148.326 148.695 148.388L148.328 148.669L148.162 148.491L149.354 147.375L149.521 147.552L149.216 147.9C149.176 147.946 149.151 147.985 149.142 148.019C149.132 148.044 149.137 148.085 149.157 148.141C149.176 148.188 149.212 148.27 149.264 148.387Z" fill="#45137D"/>
<path d="M149.703 147.308L149.525 147.141L151.018 145.559L151.195 145.726L150.888 146.118C150.83 146.196 150.809 146.255 150.822 146.292C150.836 146.33 150.92 146.422 151.073 146.566L154.474 149.775C154.627 149.919 154.723 149.997 154.761 150.009C154.8 150.02 154.857 149.995 154.932 149.934L155.312 149.61L155.482 149.771L153.99 151.353L153.819 151.192L154.12 150.794C154.177 150.715 154.199 150.657 154.185 150.619C154.171 150.581 154.088 150.49 153.935 150.346L150.534 147.137C150.381 146.993 150.285 146.915 150.246 146.903C150.208 146.891 150.151 146.916 150.076 146.978L149.703 147.308Z" fill="#45137D"/>
<path d="M158.081 146.927C157.592 147.514 157.022 147.799 156.371 147.782C155.724 147.76 155.069 147.473 154.408 146.922L153.888 146.489C153.454 146.127 153.128 145.747 152.913 145.348C152.701 144.944 152.612 144.538 152.648 144.129C152.683 143.719 152.857 143.328 153.169 142.953C153.457 142.606 153.766 142.378 154.093 142.267C154.416 142.152 154.73 142.136 155.037 142.219C155.339 142.298 155.604 142.464 155.832 142.717L155.481 143.435C155.08 143.014 154.697 142.782 154.335 142.738C153.967 142.69 153.652 142.824 153.391 143.138C153.098 143.489 152.999 143.862 153.095 144.254C153.194 144.643 153.526 145.072 154.09 145.542L155.304 146.552C155.873 147.026 156.363 147.27 156.774 147.284C157.185 147.297 157.551 147.112 157.87 146.729C157.998 146.576 158.093 146.409 158.158 146.228C158.218 146.043 158.224 145.848 158.175 145.643C158.127 145.439 157.996 145.228 157.785 145.013L158.254 144.675C158.539 145.085 158.65 145.483 158.587 145.869C158.523 146.246 158.354 146.599 158.081 146.927Z" fill="#45137D"/>
<path d="M161.349 139.984L161.485 139.792L162.687 140.64L160.195 144.173L160.003 144.038L160.245 143.601C160.291 143.515 160.304 143.455 160.285 143.419C160.266 143.384 160.17 143.305 159.998 143.184L156.178 140.489C156.006 140.368 155.9 140.304 155.86 140.298C155.82 140.292 155.767 140.325 155.702 140.396L155.379 140.776L155.18 140.636L157.604 137.199L158.806 138.047L158.676 138.231L157.751 137.899C157.681 137.872 157.627 137.859 157.589 137.862C157.549 137.856 157.509 137.876 157.47 137.921C157.425 137.963 157.361 138.044 157.278 138.162L156.269 139.592L158.4 141.096L159.098 140.108C159.181 139.99 159.237 139.904 159.267 139.852C159.292 139.795 159.297 139.751 159.283 139.719C159.267 139.679 159.235 139.63 159.187 139.574L158.732 139.044L158.868 138.852L160.593 140.069L160.458 140.261L159.806 140.011C159.737 139.984 159.683 139.972 159.644 139.974C159.605 139.968 159.565 139.988 159.525 140.034C159.481 140.076 159.417 140.156 159.334 140.274L158.636 141.262L160.812 142.797L161.884 141.278C161.967 141.16 162.024 141.074 162.053 141.022C162.078 140.965 162.084 140.921 162.069 140.889C162.054 140.849 162.022 140.8 161.973 140.744L161.349 139.984Z" fill="#45137D"/>
<path d="M164.476 137.393C164.682 137.047 164.763 136.717 164.719 136.403C164.678 136.085 164.492 135.827 164.161 135.63C163.897 135.473 163.63 135.422 163.358 135.478C163.082 135.53 162.771 135.723 162.425 136.056L161.951 136.499C161.609 136.827 161.247 137.018 160.865 137.07C160.483 137.123 160.107 137.039 159.734 136.817C159.486 136.669 159.288 136.474 159.138 136.231C158.992 135.982 158.922 135.699 158.93 135.382C158.94 135.059 159.056 134.711 159.278 134.339C159.524 133.925 159.8 133.638 160.106 133.477C160.407 133.313 160.708 133.254 161.01 133.301C161.311 133.347 161.586 133.48 161.834 133.698L161.586 134.432C161.145 134.078 160.746 133.907 160.389 133.919C160.035 133.925 159.74 134.127 159.503 134.525C159.315 134.841 159.252 135.14 159.315 135.422C159.373 135.702 159.562 135.937 159.882 136.128C160.136 136.279 160.396 136.336 160.663 136.299C160.925 136.259 161.217 136.086 161.539 135.78L162.013 135.338C162.765 134.616 163.526 134.485 164.296 134.944C164.57 135.107 164.78 135.319 164.925 135.581C165.068 135.834 165.128 136.129 165.103 136.464C165.081 136.794 164.955 137.153 164.724 137.541C164.564 137.81 164.368 138.044 164.138 138.243C163.911 138.436 163.644 138.561 163.337 138.617C163.034 138.667 162.687 138.615 162.297 138.459L162.419 137.901C162.775 138.079 163.084 138.161 163.344 138.148C163.604 138.134 163.828 138.058 164.016 137.918C164.199 137.775 164.353 137.6 164.476 137.393Z" fill="#45137D"/>
</svg>
