<svg width="862" height="913" viewBox="0 0 862 913" fill="none" xmlns="http://www.w3.org/2000/svg">
<path d="M435.697 48.0996C442.027 48.0996 448.377 47.8396 454.697 48.1596C463.007 48.5896 471.327 49.1896 479.577 50.2596C489.977 51.5996 500.397 53.0896 510.647 55.2596C521.397 57.5296 531.987 60.5696 542.587 63.4696C557.417 67.5196 571.607 73.3496 585.607 79.6096C597.477 84.9196 608.897 91.1296 620.087 97.7796C637.617 108.2 654.027 120.18 669.517 133.38C683.347 145.17 696.227 157.98 708.277 171.61C725.787 191.43 740.697 213.08 753.827 235.98C761.707 249.72 768.737 263.91 774.487 278.69C777.687 286.92 780.987 295.11 783.897 303.45C788.017 315.26 791.237 327.33 794.067 339.52C796.977 352.03 799.217 364.66 800.767 377.4C801.907 386.82 803.147 396.23 803.217 405.76C803.247 410.25 803.867 414.73 803.967 419.22C804.237 432.22 803.447 445.18 802.267 458.13C801.157 470.26 799.467 482.29 797.157 494.24C793.037 515.57 786.977 536.35 779.077 556.57C774.777 567.59 770.127 578.49 764.597 588.96C757.837 601.78 750.747 614.41 742.727 626.52C732.677 641.69 721.777 656.22 709.707 669.79C701.197 679.36 692.437 688.72 682.847 697.32C671.297 707.68 659.487 717.67 646.957 726.81C631.987 737.74 616.307 747.55 599.847 756.04C582.947 764.76 565.547 772.37 547.447 778.31C526.807 785.07 505.767 790.08 484.257 793.08C481.617 793.45 478.967 793.76 476.317 794.01C475.337 794.1 474.317 794.04 473.357 793.85C472.117 793.6 471.337 792.72 471.047 791.49C470.747 790.24 471.347 788.58 472.497 788.03C473.527 787.54 474.677 787.23 475.807 787.05C481.887 786.05 487.997 785.22 494.067 784.15C514.467 780.54 534.357 775.1 553.797 767.92C567.897 762.71 581.627 756.72 594.907 749.72C609.517 742.02 623.607 733.48 637.097 723.92C647.307 716.69 657.137 708.98 666.597 700.83C677.827 691.14 688.357 680.73 698.317 669.7C707.497 659.54 716.107 648.97 724.177 637.94C733.737 624.88 742.377 611.22 750.047 596.97C755.967 585.96 761.557 574.77 766.317 563.2C771.897 549.63 776.747 535.8 780.647 521.64C785.037 505.71 788.567 489.6 790.587 473.21C791.727 463.96 792.127 454.63 793.057 445.35C793.897 437.04 794.007 428.71 793.737 420.39C793.467 412.07 792.937 403.75 792.147 395.47C791.257 386.19 790.047 376.94 788.767 367.7C788.057 362.59 786.907 357.54 785.927 352.47C783.397 339.36 779.987 326.47 775.857 313.79C771.837 301.43 767.227 289.28 762.007 277.36C753.147 257.16 742.557 237.92 730.417 219.52C722.147 206.99 713.067 195.08 703.247 183.71C696.267 175.63 689.157 167.71 681.477 160.3C667.187 146.51 651.997 133.81 635.727 122.39C621.377 112.32 606.407 103.29 590.637 95.6396C570.347 85.7896 549.397 77.7596 527.517 72.0796C510.697 67.7196 493.667 64.6796 476.457 62.5796C469.527 61.7296 462.487 61.8196 455.537 61.0696C445.717 59.9996 435.887 60.0896 426.077 60.4496C414.937 60.8596 403.777 61.2596 392.717 62.9796C383.827 64.3596 374.927 65.5996 366.067 67.1296C353.237 69.3396 340.607 72.4396 328.227 76.4296C317.607 79.8496 307.047 83.5296 296.697 87.6896C283.857 92.8396 271.377 98.8496 259.387 105.78C251.027 110.62 242.717 115.58 234.647 120.89C221.277 129.69 208.627 139.49 196.547 150C184.837 160.19 173.937 171.22 163.457 182.62C150.127 197.12 138.387 212.89 127.587 229.36C115.487 247.81 105.197 267.2 96.647 287.54C89.727 304.01 83.857 320.82 79.527 338.16C76.257 351.26 73.677 364.51 72.057 377.92C71.237 384.7 70.697 391.5 69.897 398.28C68.287 411.91 69.107 425.58 68.977 439.23C68.897 447.24 69.987 455.17 70.737 463.13C72.007 476.58 74.067 489.92 76.967 503.1C78.897 511.88 81.097 520.6 83.727 529.21C86.737 539.11 90.047 548.89 93.947 558.46C100.367 574.21 107.687 589.53 116.287 604.24C123.357 616.34 130.957 628.08 139.387 639.27C148.117 650.86 157.267 662.08 167.517 672.38C169.867 674.74 171.897 677.41 174.267 679.74C194.677 699.75 216.697 717.71 240.957 732.92C250.567 738.95 260.377 744.66 270.487 749.74C291.367 760.22 312.867 769.17 335.477 775.4C348.667 779.03 361.957 782.11 375.407 784.52C379.337 785.22 383.327 785.57 387.277 786.18C388.907 786.43 390.577 786.73 392.097 787.34C393.997 788.1 394.777 789.77 394.307 791.31C393.877 792.73 392.697 793.59 390.797 793.53C388.297 793.46 385.787 793.36 383.327 792.97C369.007 790.7 354.737 788.16 340.697 784.46C323.907 780.03 307.407 774.73 291.477 767.84C271.427 759.16 251.977 749.29 233.537 737.46C217.657 727.27 202.567 716.05 188.197 703.86C176.367 693.82 165.357 682.88 154.887 671.46C142.827 658.32 131.707 644.4 121.677 629.6C113.067 616.89 105.027 603.84 98.087 590.16C91.687 577.54 85.727 564.69 80.947 551.31C76.177 537.96 71.797 524.51 68.507 510.71C65.177 496.75 62.697 482.65 60.837 468.43C59.627 459.18 58.887 449.88 58.667 440.55C58.577 436.56 58.047 432.58 57.997 428.58C57.857 416.41 58.627 404.29 59.597 392.16C60.637 379.19 62.487 366.33 64.967 353.57C68.237 336.7 72.547 320.08 78.247 303.87C82.557 291.61 87.467 279.58 92.987 267.79C102.487 247.5 113.967 228.39 126.697 210.01C133.347 200.42 140.597 191.29 148.097 182.35C155.717 173.28 163.797 164.67 172.207 156.34C180.497 148.12 189.227 140.42 198.237 133C209.447 123.77 221.047 115.1 233.267 107.27C245.477 99.4496 257.877 91.9396 271.107 85.9096C278.537 82.5196 285.777 78.6896 293.347 75.6896C303.407 71.7096 313.647 68.1096 323.937 64.7696C340.607 59.3496 357.677 55.4996 374.967 52.6696C385.487 50.9496 396.087 49.8896 406.707 48.8696C416.367 47.9496 426.017 48.1696 435.667 48.1296L435.697 48.0996Z" fill="#350E61"/>
<path d="M370.928 384.36C367.948 388.38 366.638 392.35 365.368 396.27C361.778 407.44 359.608 418.86 359.928 430.66C359.978 432.33 359.978 433.99 359.928 435.66C359.468 448.99 361.918 461.9 366.068 474.47C370.188 486.94 376.638 498.19 385.428 508.01C389.088 512.11 392.778 516.2 396.718 520.02C401.128 524.31 405.828 528.31 410.418 532.43C412.328 534.14 413.088 535.62 412.228 535.96C410.668 536.58 409.798 535.26 408.778 534.54C398.988 527.54 388.458 521.8 377.818 516.25C372.798 513.63 367.698 511.13 362.818 508.26C335.978 492.45 318.418 469.49 310.198 439.44C306.518 425.98 305.138 412.25 306.038 398.35C306.798 386.66 309.148 375.24 312.868 364.13C317.398 350.6 323.758 337.97 332.618 326.74C335.388 323.23 338.538 319.93 341.948 317.04C347.828 312.05 354.638 310.56 362.038 313.35C365.528 314.66 368.448 316.89 370.878 319.71C374.818 324.29 378.048 329.33 380.318 334.94C382.258 339.72 384.158 344.53 385.908 349.39C390.458 362.03 396.678 373.74 405.138 384.22C410.758 391.18 417.588 396.69 425.228 401.27C429.388 403.76 433.748 405.79 438.348 407.37C441.628 408.5 444.688 408.46 448.048 407.21C460.618 402.53 470.608 394.49 478.898 384.17C486.588 374.59 492.098 363.78 496.438 352.34C498.738 346.27 500.678 340.04 503.878 334.34C506.338 329.95 509.218 325.95 513.518 323.07C518.448 319.77 523.778 319.43 529.348 320.34C531.878 320.76 533.968 322.26 535.898 323.85C539.128 326.51 542.008 329.5 544.278 333.05C553.788 347.89 559.418 364.16 562.068 381.49C563.298 389.56 564.228 397.66 564.058 405.86C563.568 429.77 557.268 451.92 543.928 471.87C534.828 485.49 523.328 496.75 509.258 505.21C501.978 509.58 494.498 513.64 487.018 517.66C477.308 522.88 467.878 528.49 459.298 535.45C458.918 535.76 458.498 536.13 458.048 536.24C457.638 536.34 456.938 536.24 456.768 535.98C456.568 535.68 456.658 534.96 456.908 534.65C457.628 533.75 458.488 532.94 459.318 532.12C464.178 527.32 469.158 522.63 473.888 517.7C478.378 513.01 482.818 508.24 486.908 503.21C499.078 488.21 506.108 470.94 508.728 451.88C511.428 432.17 510.648 412.66 504.998 393.47C504.688 392.42 504.128 391.45 503.548 390.11C502.758 390.81 502.218 391.17 501.818 391.65C495.698 398.83 488.358 404.51 480.288 409.32C472.278 414.1 463.518 416.75 454.438 418.19C430.478 421.99 408.868 415.99 389.368 401.83C383.538 397.6 378.458 392.57 373.818 387.07C373.108 386.23 372.208 385.54 370.968 384.39L370.928 384.36Z" fill="#350E61"/>
<path d="M338.288 549.72C335.578 545.87 332.458 543.89 329.358 542.03C323.788 538.7 318.108 535.54 312.368 532.51C305.718 529 299.338 525.11 293.368 520.53C287.218 515.81 282.188 510.07 278.178 503.46C275.648 499.29 273.888 494.8 273.408 489.9C273.278 488.6 273.298 487.22 273.598 485.95C274.448 482.28 277.618 480.47 281.208 481.57C282.458 481.96 283.668 482.61 284.768 483.34C286.848 484.72 288.838 486.24 290.848 487.72C303.258 496.89 316.508 504.45 331.408 508.84C336.518 510.34 341.578 512.03 346.718 513.45C355.568 515.91 364.188 519.06 372.448 523.02C381.478 527.35 389.828 532.84 397.208 539.72C404.558 546.58 410.918 554.2 416.048 562.89C422.068 573.07 425.788 584.03 427.978 595.57C429.818 605.27 430.438 615.08 429.898 624.91C429.568 630.88 428.698 636.83 427.958 642.77C427.608 645.6 426.848 646.29 424.118 646.34C420.628 646.39 417.108 646.39 413.628 646.11C399.648 644.97 385.888 642.53 372.358 638.86C358.178 635.02 344.398 630.1 331.228 623.52C321.828 618.82 312.578 613.89 303.798 608.11C287.148 597.15 272.188 584.2 258.818 569.46C243.148 552.19 230.618 532.78 220.688 511.72C211.668 492.59 205.838 472.5 203.208 451.51C202.898 449.05 202.828 446.5 203.058 444.04C203.508 439.2 207.678 437.08 211.678 439.84C214.088 441.51 216.248 443.77 217.948 446.18C220.818 450.25 223.448 454.53 225.788 458.94C232.048 470.72 238.798 482.2 246.608 493.02C250.208 498.01 254.048 502.85 258.048 507.52C265.538 516.28 274.008 524.03 283.298 530.86C292.628 537.72 302.748 543.09 313.848 546.48C320.238 548.43 326.798 549.57 333.478 549.98C334.768 550.06 336.078 549.85 338.298 549.72H338.288Z" fill="#350E61"/>
<path d="M530.147 549.299C531.007 549.649 531.427 549.979 531.847 549.969C534.347 549.939 536.847 549.929 539.327 549.729C556.677 548.359 571.747 541.269 585.447 530.979C595.067 523.749 603.538 515.299 611.158 505.959C621.528 493.239 630.138 479.429 637.658 464.899C640.188 460.019 642.717 455.129 645.487 450.389C647.157 447.529 649.197 444.869 651.297 442.289C652.317 441.039 653.727 439.979 655.167 439.199C658.047 437.649 660.907 438.809 662.087 441.819C662.837 443.719 662.887 445.689 662.637 447.719C660.097 468.349 654.797 488.209 646.567 507.329C640.547 521.309 633.407 534.649 624.867 547.199C620.287 553.939 615.098 560.269 610.038 566.669C603.718 574.659 596.457 581.819 588.937 588.629C576.687 599.709 563.507 609.559 549.117 617.799C533.987 626.469 518.027 633.089 501.327 637.919C488.197 641.719 474.827 644.519 461.127 645.389C456.147 645.709 451.167 646.059 446.187 646.359C445.027 646.429 443.847 646.419 442.687 646.319C440.527 646.149 439.677 645.459 439.137 643.459C438.917 642.659 438.827 641.829 438.697 640.999C436.207 624.709 436.127 608.479 439.987 592.369C442.567 581.609 446.577 571.429 452.557 562.049C457.057 554.989 462.027 548.349 468.117 542.599C477.277 533.959 487.527 526.989 499.047 521.789C508.657 517.449 518.647 514.299 528.747 511.459C536.307 509.339 543.657 506.669 550.827 503.509C559.097 499.859 566.617 494.909 573.947 489.679C576.657 487.749 579.287 485.689 582.067 483.859C583.577 482.869 585.257 481.999 586.977 481.499C590.027 480.609 592.588 481.979 593.908 484.889C594.608 486.439 595.008 488.089 594.538 489.749C593.688 492.789 592.947 495.889 591.737 498.789C588.137 507.449 582.287 514.429 574.997 520.219C567.797 525.939 559.917 530.579 551.827 534.939C546.557 537.779 541.447 540.939 536.307 544.019C534.047 545.369 532.217 547.249 530.117 549.289L530.147 549.299Z" fill="#350E61"/>
<path d="M785.006 427.85C785.006 431.6 785.146 438.27 784.956 444.93C784.816 449.75 784.306 454.56 783.846 459.37C782.666 471.48 780.756 483.49 778.116 495.37C774.216 512.96 769.246 530.23 762.636 547.03C758.246 558.21 753.426 569.18 748.076 579.92C743.396 589.31 738.276 598.48 732.626 607.34C729.226 612.68 725.936 618.1 722.246 623.23C716.996 630.53 711.496 637.65 705.966 644.74C700.016 652.36 693.516 659.5 686.676 666.35C683.386 669.64 680.456 673.31 677.086 676.52C672.266 681.11 667.206 685.45 662.216 689.86C658.846 692.84 655.576 695.94 652.016 698.68C645.156 703.96 638.246 709.2 631.136 714.14C624.026 719.07 616.676 723.68 609.346 728.29C605.826 730.51 602.166 732.51 598.476 734.45C585.346 741.35 572.106 748.02 558.236 753.35C539.216 760.67 519.816 766.63 499.726 770.21C492.346 771.53 484.956 772.8 477.546 773.94C475.616 774.24 473.596 774.03 471.616 773.93C471.316 773.91 470.856 773.21 470.836 772.81C470.816 772.41 471.146 771.8 471.496 771.6C472.046 771.28 472.746 771.15 473.396 771.06C477.346 770.47 481.316 769.97 485.266 769.33C492.496 768.16 499.776 767.19 506.936 765.64C527.676 761.15 547.776 754.66 567.256 746.19C582.716 739.47 597.716 731.85 612.036 722.99C623.226 716.07 634.136 708.72 644.496 700.55C651.176 695.29 657.596 689.75 664.136 684.34C665.166 683.49 666.116 682.56 667.066 681.62C672.166 676.58 677.266 671.55 682.326 666.48C691.986 656.8 700.906 646.49 709.226 635.62C716.536 626.09 723.506 616.35 729.786 606.11C737.716 593.17 745.006 579.9 751.296 566.08C756.686 554.23 761.326 542.1 765.566 529.81C767.626 523.83 769.316 517.71 770.876 511.58C773.796 500.12 776.766 488.66 778.346 476.91C779.366 469.32 780.206 461.71 781.056 454.09C782.916 437.47 782.256 420.79 781.736 404.15C781.386 393.02 779.806 381.93 777.986 370.91C775.656 356.76 772.566 342.78 768.766 328.95C764.826 314.63 759.656 300.73 753.966 287.02C746.676 269.43 737.836 252.65 727.896 236.42C717.956 220.19 706.856 204.8 694.486 190.33C685.816 180.18 676.496 170.64 666.706 161.6C656.306 152 645.286 143.1 633.826 134.77C618.956 123.97 603.246 114.55 586.806 106.38C561.616 93.8698 535.316 84.5298 507.686 78.9698C496.566 76.7298 485.416 74.7698 474.166 73.4598C467.556 72.6998 460.886 72.4998 454.236 72.1598C447.256 71.8098 440.256 71.2598 433.276 71.4098C424.296 71.5998 415.326 72.3698 406.366 72.9598C402.216 73.2298 398.076 73.6698 393.936 74.0498C384.966 74.8798 376.116 76.4798 367.286 78.2098C353.046 80.9998 338.966 84.3998 325.186 88.9898C305.526 95.5298 286.536 103.64 268.396 113.63C256.726 120.06 245.396 127.07 234.466 134.74C223.126 142.7 212.566 151.6 202.026 160.54C192.856 168.32 184.406 176.85 176.316 185.69C168.686 194.03 161.146 202.51 154.556 211.75C149.716 218.53 144.546 225.08 139.916 231.99C133.706 241.26 128.026 250.87 122.636 260.66C111.496 280.89 102.876 302.15 95.9161 324.12C90.9761 339.72 87.5661 355.68 85.0661 371.84C83.4861 382.05 82.5361 392.31 81.7861 402.62C81.2061 410.62 81.1661 418.59 81.0761 426.58C80.9661 436.09 81.9461 445.53 82.7161 454.99C83.5561 465.31 85.1461 475.5 86.9861 485.66C89.1861 497.8 91.9961 509.8 95.6461 521.59C97.1761 526.52 98.8761 531.4 100.536 536.3C104.176 547.04 108.376 557.55 113.506 567.68C117.116 574.81 120.626 582 124.426 589.03C132.516 604.01 141.886 618.17 152.146 631.75C163.936 647.35 177.266 661.53 191.296 675.1C198.366 681.94 205.886 688.25 213.416 694.57C220.836 700.79 228.716 706.4 236.696 711.82C245.786 717.98 254.986 724.05 264.786 729.09C271.896 732.75 278.896 736.63 286.076 740.15C302.426 748.16 319.526 754.24 336.946 759.46C352.636 764.17 368.666 767.18 384.786 769.79C387.416 770.22 390.066 770.47 392.696 770.9C393.676 771.06 394.696 771.42 394.836 772.65C394.936 773.52 393.616 774.34 392.086 774.14C386.806 773.46 381.506 772.84 376.256 771.89C369.536 770.68 362.866 769.21 356.176 767.79C342.456 764.88 329.116 760.65 315.916 755.96C302.556 751.21 289.566 745.57 276.926 739.14C264.896 733.01 253.266 726.19 241.886 718.9C229.796 711.16 218.426 702.48 207.196 693.58C203.936 691 200.806 688.23 197.756 685.4C191.776 679.85 185.746 674.34 179.996 668.56C173.186 661.71 166.716 654.54 160.716 646.96C156.276 641.34 151.586 635.92 147.286 630.2C135.846 614.99 125.776 598.91 117.046 581.98C111.316 570.86 106.226 559.48 101.546 547.88C91.5161 523 85.1261 497.18 81.2961 470.71C80.0861 462.33 79.1261 453.89 78.5961 445.39C78.0261 436.22 77.8261 427.08 77.9961 417.93C78.2161 406.12 78.7361 394.3 80.4961 382.58C81.5361 375.67 82.2461 368.69 83.5561 361.83C85.2061 353.16 87.1661 344.54 89.2361 335.97C92.6161 322.02 97.3661 308.48 102.816 295.23C106.746 285.69 110.776 276.19 115.696 267.07C118.466 261.95 121.186 256.8 124.036 251.72C131.476 238.48 139.896 225.88 148.996 213.74C155.286 205.34 161.996 197.28 168.926 189.39C177.856 179.23 187.436 169.74 197.286 160.52C207.756 150.73 219.096 141.98 230.716 133.57C240.456 126.53 250.656 120.22 261.026 114.19C270.246 108.83 279.846 104.19 289.496 99.6298C301.286 94.0598 313.506 89.6498 325.826 85.5698C339.116 81.1698 352.736 77.9098 366.466 75.0898C377.086 72.8998 387.806 71.3898 398.576 70.2998C405.696 69.5798 412.886 69.6498 420.006 68.8998C426.836 68.1698 433.656 68.0398 440.466 68.2798C449.446 68.5898 458.406 69.2898 467.376 69.8998C470.866 70.1398 474.326 70.6298 477.806 70.9398C491.786 72.1898 505.426 75.2298 519.076 78.3598C537.996 82.6898 556.206 89.1398 573.956 96.8498C585.416 101.82 596.456 107.72 607.296 113.96C622.066 122.46 635.956 132.24 649.326 142.74C656.256 148.18 662.806 154.13 669.346 160.05C673.786 164.07 677.926 168.44 682.166 172.68C693.746 184.24 704.236 196.73 713.856 209.96C722.486 221.83 730.596 234.04 737.536 246.99C738.796 249.34 740.216 251.6 741.456 253.96C744.086 258.97 746.716 263.99 749.226 269.06C756.556 283.87 762.686 299.18 767.756 314.89C774.416 335.54 779.316 356.62 782.236 378.14C784.346 393.68 785.706 409.26 785.016 427.87L785.006 427.85Z" fill="#CC933A"/>
<path d="M647.297 417.2C647.187 414.97 647.097 413.829 647.077 412.689C647.027 408.359 647.127 404.019 646.957 399.689C646.267 382.489 643.987 365.539 638.867 349.019C636.647 341.849 634.417 334.699 631.427 327.809C626.587 316.639 621.057 305.829 614.617 295.469C608.527 285.669 601.447 276.609 593.877 267.979C588.847 262.239 583.127 257.069 577.497 251.879C573.467 248.159 569.127 244.769 564.847 241.329C556.247 234.419 546.877 228.679 537.247 223.329C521.407 214.539 504.507 208.409 487.057 203.809C478.527 201.559 469.867 199.87 461.047 198.96C451.437 197.97 441.837 197.119 432.157 197.199C419.797 197.299 407.577 198.689 395.387 200.579C383.827 202.379 372.557 205.369 361.457 208.979C356.077 210.729 350.757 212.739 345.577 215.019C336.127 219.179 326.647 223.329 317.877 228.849C307.577 235.329 297.487 242.049 288.317 250.149C282.687 255.119 277.267 260.269 272.057 265.669C262.537 275.529 254.217 286.309 246.987 297.979C240.477 308.489 234.807 319.41 230.147 330.85C224.097 345.73 220.007 361.189 217.477 377.019C216.507 383.079 216.227 389.28 216.007 395.42C215.757 402.74 215.937 410.08 215.867 417.41C215.857 418.82 216.267 420.369 214.837 421.999C214.497 421.179 214.127 420.67 214.087 420.13C213.437 411.66 212.747 403.21 212.877 394.7C212.967 388.68 213.517 382.719 214.187 376.769C215.917 361.479 219.357 346.569 224.457 332.049C230.177 315.789 237.597 300.379 247.227 286.049C253.647 276.499 260.677 267.459 268.367 258.869C274.397 252.129 281.067 246.199 287.897 240.329C297.667 231.929 308.247 224.699 319.357 218.289C329.467 212.459 339.937 207.349 350.907 203.249C362.807 198.799 374.937 195.229 387.397 192.859C397.867 190.859 408.427 189.519 419.107 188.999C424.087 188.759 429.047 188.089 434.057 188.229C458.487 188.909 482.527 192.01 505.767 199.96C525.597 206.74 544.027 216.199 561.137 228.389C573.977 237.539 585.427 248.179 595.957 259.789C607.187 272.169 616.677 285.839 624.357 300.749C629.717 311.139 634.617 321.699 638.267 332.809C642.387 345.339 645.387 358.09 647.307 371.17C649.287 384.61 649.157 398.069 648.967 411.559C648.947 413.159 649.157 414.869 647.257 417.209L647.297 417.2Z" fill="#CC933A"/>
<path d="M375.578 256.799C376.538 256.679 377.828 256.539 379.128 256.369C384.628 255.669 390.048 255.579 395.428 257.359C403.688 260.099 409.438 265.589 413.078 273.299C422.308 292.819 407.628 315.149 387.328 315.639C372.248 316.009 359.898 307.669 356.068 291.529C355.458 288.979 355.498 286.259 355.348 283.609C355.228 281.459 354.968 281.069 352.988 280.409C350.788 279.669 348.488 279.079 346.478 277.969C339.798 274.279 336.948 268.089 337.338 260.869C337.818 251.909 342.698 245.949 351.068 243.129C359.428 240.319 368.768 245.069 372.438 251.879C373.228 253.339 374.008 254.789 374.818 256.239C374.888 256.369 375.078 256.439 375.578 256.799Z" fill="#350E61"/>
<path d="M529.167 294.33C529.077 310.96 515.337 324.46 498.697 324.2C483.477 323.96 469.168 311.45 469.328 294.15C469.508 275.49 484.367 264.64 498.917 264.3C515.567 263.91 529.257 277.75 529.167 294.32V294.33Z" fill="#350E61"/>
<path d="M443.007 532.03C444.037 530.86 444.917 529.72 445.947 528.72C452.287 522.55 458.137 515.93 463.537 508.95C469.887 500.75 475.197 491.91 478.817 482.13C480.687 477.08 481.607 471.76 481.647 466.46C481.697 459.64 479.597 453.31 475.027 448.03C472.447 445.05 469.107 443.17 465.367 442.09C449.676 437.564 443.48 445 434.98 456C432.98 453 430.415 449.829 427.567 447.37C420.627 441.35 412.687 439.43 403.857 442.49C397.407 444.73 393.477 449.57 391.067 455.7C388.897 461.24 388.587 467.04 389.457 472.92C390.797 481.99 394.437 490.16 399.177 497.9C404.327 506.31 410.327 514.06 417.267 521.1C420.313 524.189 422.98 528 425.937 531.75C417.98 526.5 408.822 517.405 401.787 510.37C395.047 503.63 389.387 495.98 384.737 487.66C379.407 478.11 377.117 467.82 377.947 456.88C378.807 445.53 387.037 433.12 399.907 430.01C404.387 428.93 408.787 428.84 413.237 430.05C423.587 432.859 429.676 441.334 434.98 450C438.48 443 441.459 438.961 446.457 435.1C454.429 428.942 466.907 426.74 477.037 432.46C484.067 436.43 488.777 442.05 491.127 449.81C493.047 456.18 493.377 462.49 492.217 469.05C490.797 477.09 487.597 484.39 483.297 491.16C478.747 498.32 473.627 505.1 467.597 511.17C464.291 514.49 450.98 528.72 443.017 532.04L443.007 532.03Z" fill="#CC933A"/>
<path d="M455.038 766.309C454.868 770.649 452.988 774.489 449.998 777.779C447.878 780.119 445.578 782.309 443.248 784.459C440.558 786.949 437.788 789.339 435.008 791.719C433.488 793.029 432.528 793.059 431.048 791.719C426.358 787.479 421.708 783.189 417.058 778.899C414.818 776.829 413.288 774.269 412.088 771.479C411.208 769.439 410.898 767.329 411.048 765.129C411.648 756.769 419.388 751.839 427.218 754.889C428.608 755.429 429.918 756.209 431.178 757.009C432.798 758.039 434.288 758.009 435.768 756.799C437.758 755.169 439.998 754.229 442.608 754.109C448.978 753.809 453.888 757.779 454.848 764.099C454.948 764.759 454.958 765.429 455.018 766.299L455.038 766.309Z" fill="#CC933A"/>
<path d="M159.346 531.594C155.337 532.097 150.68 528.738 150.245 524.802C149.755 520.369 152.042 516.484 157.436 515.858C161.608 515.367 165.348 518.354 165.878 522.511C166.455 527.005 163.543 531.059 159.346 531.594Z" fill="#CC933A"/>
<path d="M700.391 524.342C699.805 520.04 702.778 516.351 707.389 515.651C711.694 515.004 715.517 518.012 716.258 522.437C716.98 526.784 712.264 531.088 709.215 531.355C704.87 531.735 700.994 528.702 700.391 524.342Z" fill="#CC933A"/>
<path d="M180.066 453.731C179.501 450.176 178.204 447.375 176.177 445.328C174.082 443.231 171.227 442.471 167.612 443.046C164.946 443.47 162.851 444.624 161.328 446.507C159.796 448.33 158.757 451.351 158.213 455.569L157.04 464.231C156.456 468.577 154.832 472.116 152.168 474.848C149.436 477.531 145.789 479.236 141.226 479.962C138.204 480.443 135.281 480.209 132.457 479.261C129.623 478.254 127.18 476.455 125.128 473.866C123.066 471.217 121.686 467.7 120.988 463.315C120.225 458.516 120.496 454.493 121.802 451.247C123.049 448.011 124.97 445.579 127.567 443.951C130.163 442.323 133.108 441.55 136.402 441.633L139.895 451.558C134.234 451.487 130.063 452.576 127.383 454.825C124.694 457.015 123.661 460.065 124.283 463.976C124.764 466.998 126.039 469.286 128.109 470.84C130.17 472.334 132.859 472.818 136.178 472.29C138.903 471.856 141.18 470.704 143.009 468.833C144.828 466.903 146.013 464.041 146.564 460.248L147.737 451.586C148.324 446.875 149.772 443.181 152.08 440.505C154.329 437.839 157.794 436.133 162.475 435.388C165.793 434.86 168.908 435.154 171.82 436.27C174.663 437.337 177.1 439.288 179.131 442.124C181.093 444.91 182.437 448.585 183.163 453.147C183.691 456.466 183.717 459.682 183.24 462.795C182.704 465.918 181.471 468.666 179.54 471.039C177.599 473.353 174.746 475.083 170.979 476.229L167.898 470.614C171.643 469.714 174.474 468.413 176.39 466.71C178.238 464.958 179.412 462.979 179.911 460.773C180.401 458.508 180.453 456.161 180.066 453.731Z" fill="#350E61"/>
<path d="M182.177 370.434L131.693 379.597L178.961 398.964L178.084 406.744L123.38 413.167C121.975 413.311 120.994 413.441 120.438 413.56C119.821 413.672 119.403 413.896 119.184 414.234C118.972 414.512 118.799 414.975 118.665 415.624L117.485 420.473L114.98 420.19L117.773 395.417L120.277 395.699L120.349 400.689C120.36 401.656 120.542 402.19 120.893 402.29C121.244 402.39 122.486 402.349 124.62 402.167L167.345 397.564L119.699 378.335L120.535 370.912L170.473 361.779L130.76 347.702C128.727 346.989 127.525 346.673 127.154 346.752C126.782 346.831 126.487 347.311 126.267 348.191L125.086 353.04L122.582 352.757L124.538 335.407L127.042 335.69L127.114 340.679C127.099 341.342 127.165 341.832 127.31 342.15C127.455 342.469 127.813 342.781 128.382 343.086C128.898 343.326 129.825 343.672 131.163 344.124L183.064 362.564L182.177 370.434Z" fill="#350E61"/>
<path d="M134.34 319.509L131.966 318.664L140.231 295.43L142.605 296.275L141.54 301.15C141.331 302.095 141.394 302.722 141.73 303.032C142.009 303.323 143.109 303.81 145.031 304.493L188.446 319.937C190.368 320.621 191.557 320.948 192.013 320.92C192.412 320.871 192.83 320.414 193.264 319.55L195.517 315.097L197.891 315.942L189.626 339.176L187.252 338.331L188.318 333.456C188.526 332.511 188.491 331.894 188.212 331.604C187.877 331.293 186.748 330.796 184.826 330.113L141.411 314.669C139.489 313.985 138.329 313.668 137.929 313.717C137.473 313.745 137.028 314.192 136.593 315.056L134.34 319.509Z" fill="#350E61"/>
<path d="M180.837 258.016L182.058 255.812L201.662 266.668L200.441 268.873L193.105 267.073C192.388 266.882 191.84 266.819 191.461 266.883C191.059 266.866 190.686 267.106 190.343 267.602C189.947 268.068 189.401 268.931 188.703 270.191L184.212 278.301L202.793 288.591C204.578 289.579 205.697 290.096 206.152 290.142C206.554 290.159 207.04 289.777 207.61 288.995L211.432 283.395L213.636 284.616L200.817 307.764L198.613 306.543L200.46 301.907C200.82 301.009 200.886 300.394 200.658 300.063C200.378 299.702 199.345 299.027 197.561 298.039L157.25 275.715C155.465 274.726 154.372 274.224 153.969 274.207C153.515 274.161 153.002 274.529 152.432 275.31L149.483 279.335L147.279 278.115L167.946 240.795L181.488 248.295L180.267 250.499L170.132 248.179C169.415 247.987 168.868 247.924 168.489 247.989C168.087 247.972 167.714 248.211 167.371 248.707C166.975 249.174 166.429 250.037 165.731 251.297L158.624 264.13L181.456 276.775L185.947 268.665C186.645 267.405 187.113 266.499 187.351 265.945C187.537 265.362 187.542 264.919 187.367 264.616C187.168 264.232 186.797 263.786 186.255 263.28L180.837 258.016Z" fill="#350E61"/>
<path d="M177.172 226.977L209.148 189.191L220.965 199.191L219.337 201.115L209.851 196.86C209.139 196.493 208.591 196.305 208.207 196.294C207.816 196.199 207.404 196.361 206.971 196.781C206.537 197.2 205.855 197.959 204.925 199.058L199.053 205.997L237.595 238.613C239.152 239.93 240.149 240.656 240.586 240.79C240.977 240.885 241.529 240.605 242.24 239.95L245.919 236.578L247.843 238.206L231.913 257.031L229.989 255.403L232.706 251.217C233.234 250.407 233.419 249.817 233.261 249.447C233.056 249.038 232.176 248.175 230.618 246.857L192.077 214.241L186.205 221.18C185.313 222.234 184.677 223.032 184.297 223.574C183.955 224.071 183.863 224.504 184.022 224.874C184.134 225.206 184.411 225.715 184.851 226.402L190.617 235.054L188.989 236.977L177.172 226.977Z" fill="#350E61"/>
<path d="M301.622 195.928C296.969 198.898 292.395 200.429 287.899 200.522C283.371 200.565 279.11 199.298 275.117 196.722C271.124 194.146 267.578 190.43 264.479 185.574L261.429 180.795C258.33 175.939 256.368 171.248 255.543 166.721C254.736 162.111 255.196 157.867 256.921 153.99C258.614 150.063 261.711 146.663 266.213 143.79C270.056 141.337 273.752 140.046 277.3 139.917C280.816 139.737 283.971 140.499 286.767 142.203C289.58 143.824 291.806 146.14 293.444 149.152L285.971 157.017C283.249 151.637 280.249 148.106 276.97 146.426C273.71 144.664 270.562 144.751 267.528 146.687C264.291 148.753 262.659 151.716 262.632 155.577C262.655 159.406 264.684 164.482 268.719 170.804L276.611 183.17C280.613 189.442 284.489 193.339 288.236 194.862C291.984 196.385 295.881 195.855 299.928 193.273C301.597 192.208 302.946 190.92 303.974 189.409C305.054 187.866 305.606 186.054 305.631 183.974C305.674 181.811 304.951 179.284 303.46 176.391L309.843 174.347C310.942 177.631 311.257 180.633 310.786 183.353C310.316 186.074 309.261 188.491 307.621 190.605C305.999 192.637 303.999 194.411 301.622 195.928Z" fill="#350E61"/>
<path d="M360.355 132.906L362.261 138.246C365.368 146.948 365.809 154.34 363.585 160.422C361.396 166.427 356.516 170.782 348.944 173.485C341.373 176.188 334.81 175.919 329.257 172.678C323.74 169.359 319.428 163.349 316.321 154.647L314.415 149.307C311.308 140.605 310.849 133.252 313.037 127.246C315.282 121.221 320.19 116.856 327.762 114.153C335.334 111.45 341.868 111.729 347.365 114.99C352.918 118.232 357.248 124.204 360.355 132.906ZM347.992 132.541C346.217 127.569 344.401 123.821 342.545 121.298C340.668 118.719 338.604 117.131 336.352 116.533C334.157 115.915 331.646 116.111 328.821 117.119C326.052 118.108 323.985 119.547 322.621 121.435C321.257 123.324 320.665 125.861 320.846 129.045C321.007 132.173 321.976 136.223 323.751 141.196L328.684 155.012C330.439 159.928 332.254 163.676 334.131 166.255C336.007 168.834 338.082 170.451 340.354 171.105C342.606 171.702 345.116 171.507 347.885 170.518C350.711 169.51 352.777 168.071 354.085 166.202C355.429 164.257 356.011 161.692 355.83 158.508C355.648 155.323 354.68 151.273 352.925 146.357L347.992 132.541Z" fill="#350E61"/>
<path d="M452.917 153.553L453.082 156.068L428.476 157.688L428.31 155.173L433.208 154.219C434.158 154.037 434.711 153.76 434.867 153.389C435.019 152.958 435.028 151.724 434.894 149.689L431.855 103.529L418.483 151.13L408.874 151.763L389.574 106.583L392.595 152.474C392.73 154.509 392.9 155.731 393.107 156.138C393.311 156.485 393.895 156.687 394.861 156.744L399.842 157.048L400.007 159.562L382.585 160.709L382.419 158.195L387.317 157.241C388.267 157.058 388.82 156.781 388.976 156.41C389.128 155.979 389.137 154.746 389.003 152.71L385.976 106.73C385.842 104.694 385.673 103.503 385.47 103.155C385.263 102.748 384.676 102.516 383.711 102.459L378.73 102.156L378.564 99.6413L397.513 98.3938L417.022 144.011L430.652 96.212L449.062 95L449.227 97.5146L444.329 98.4684C443.379 98.6512 442.828 98.9581 442.676 99.389C442.52 99.76 442.509 100.963 442.643 102.999L445.671 148.979C445.805 151.015 445.975 152.236 446.182 152.644C446.386 152.991 446.97 153.193 447.936 153.25L452.917 153.553Z" fill="#350E61"/>
<path d="M502.688 124.046L505.162 124.524L500.916 146.528L498.442 146.051L497.879 138.517C497.838 137.776 497.729 137.236 497.55 136.896C497.442 136.508 497.098 136.228 496.521 136.055C495.954 135.824 494.964 135.572 493.55 135.299L484.448 133.543L480.424 154.398C480.037 156.401 479.892 157.626 479.99 158.072C480.098 158.46 480.612 158.803 481.532 159.103L488.041 161.001L487.563 163.475L461.582 158.461L462.06 155.987L467.04 156.306C468.005 156.37 468.61 156.243 468.855 155.923C469.111 155.545 469.433 154.354 469.819 152.351L478.55 107.106C478.937 105.103 479.076 103.908 478.967 103.52C478.87 103.074 478.362 102.701 477.442 102.401L472.701 100.844L473.178 98.37L515.066 106.453L512.132 121.653L509.658 121.175L508.723 110.82C508.683 110.079 508.573 109.539 508.394 109.199C508.286 108.811 507.943 108.531 507.365 108.359C506.799 108.127 505.808 107.875 504.395 107.602L489.99 104.822L485.045 130.45L494.147 132.206C495.561 132.479 496.568 132.643 497.169 132.697C497.781 132.693 498.203 132.561 498.437 132.301C498.741 131.993 499.049 131.502 499.362 130.829L502.688 124.046Z" fill="#350E61"/>
<path d="M570.704 157.675L568.457 162.881C564.795 171.364 560.076 177.071 554.302 180.003C548.606 182.903 542.067 182.76 534.686 179.573C527.304 176.387 522.688 171.714 520.837 165.556C519.065 159.367 520.01 152.031 523.672 143.548L525.919 138.342C529.581 129.859 534.26 124.167 539.956 121.267C545.707 118.391 552.273 118.546 559.654 121.732C567.036 124.919 571.625 129.579 573.421 135.713C575.272 141.871 574.366 149.192 570.704 157.675ZM561.911 148.978C564.004 144.13 565.231 140.151 565.594 137.04C565.98 133.874 565.554 131.304 564.314 129.331C563.13 127.382 561.16 125.813 558.406 124.624C555.707 123.459 553.214 123.102 550.928 123.553C548.642 124.004 546.48 125.456 544.441 127.908C542.425 130.306 540.371 133.929 538.279 138.776L532.465 152.245C530.396 157.037 529.168 161.017 528.782 164.183C528.395 167.349 528.81 169.946 530.026 171.974C531.265 173.947 533.235 175.516 535.934 176.681C538.688 177.87 541.181 178.227 543.412 177.752C545.722 177.246 547.896 175.767 549.935 173.314C551.974 170.862 554.028 167.239 556.097 162.446L561.911 148.978Z" fill="#350E61"/>
<path d="M601.353 146.374L602.858 144.353L624.655 160.591C629.707 164.355 632.762 168.389 633.82 172.694C634.878 176.998 633.991 181.051 631.159 184.852L629.922 186.512C627.772 189.399 625.15 191.262 622.056 192.1C618.963 192.938 615.602 192.679 611.974 191.322L608.199 215.221C607.988 216.709 607.847 217.802 607.777 218.498C607.708 219.194 607.739 219.704 607.872 220.028C608.089 220.339 608.403 220.722 608.812 221.177L611.684 224.101L610.178 226.122L596.682 216.068L602.451 185.575L597.183 181.65L585.031 197.961C583.812 199.597 583.15 200.637 583.043 201.082C582.972 201.478 583.286 202.011 583.984 202.681L587.578 206.143L586.072 208.164L566.296 193.432L567.802 191.411L572.148 193.863C572.989 194.34 573.59 194.488 573.949 194.307C574.345 194.078 575.152 193.145 576.37 191.509L603.899 154.556C605.118 152.92 605.763 151.904 605.833 151.508C605.94 151.064 605.644 150.506 604.946 149.837L601.353 146.374ZM622.773 163.117L615.195 157.472L599.064 179.124L606.643 184.769C608.76 186.347 610.856 186.898 612.93 186.423C615.088 185.936 617.494 183.912 620.147 180.352L622.458 177.248C625.111 173.688 626.344 170.828 626.157 168.668C626.018 166.545 624.89 164.694 622.773 163.117Z" fill="#350E61"/>
<path d="M657.152 187.427L689.565 224.84L677.865 234.976L676.215 233.071L681.879 224.353C682.351 223.706 682.622 223.194 682.691 222.816C682.846 222.444 682.749 222.012 682.401 221.519C682.054 221.027 681.409 220.236 680.466 219.148L674.514 212.277L636.353 245.338C634.811 246.674 633.94 247.547 633.741 247.958C633.586 248.33 633.778 248.918 634.316 249.722L637.081 253.876L635.177 255.526L619.029 236.888L620.934 235.237L624.651 238.566C625.371 239.213 625.925 239.487 626.315 239.387C626.751 239.248 627.739 238.511 629.281 237.175L667.442 204.115L661.49 197.244C660.586 196.201 659.896 195.45 659.418 194.991C658.98 194.576 658.566 194.419 658.176 194.519C657.831 194.579 657.286 194.774 656.539 195.103L647.103 199.468L645.453 197.563L657.152 187.427Z" fill="#350E61"/>
<path d="M688.84 319.821L689.876 322.118L675.764 328.48L658.193 289.508L660.49 288.472L663.099 292.726C663.603 293.552 664.056 293.973 664.458 293.989C664.915 293.981 666.073 293.557 667.933 292.719L709.941 273.779C711.801 272.941 712.858 272.366 713.112 272.054C713.421 271.717 713.433 271.086 713.148 270.162L711.688 265.39L713.985 264.354L724.12 286.835L721.823 287.871L719.214 283.617C718.71 282.792 718.23 282.383 717.773 282.391C717.371 282.375 716.24 282.786 714.38 283.625L668.352 304.377L674.418 317.832C675.01 319.145 675.457 320.063 675.758 320.585C676.114 321.083 676.466 321.352 676.813 321.393C677.24 321.464 677.819 321.433 678.549 321.301L688.84 319.821Z" fill="#350E61"/>
<path d="M733.401 318.279L735.833 317.617L742.31 341.411L739.879 342.073L737.971 337.463C737.603 336.568 737.192 336.089 736.74 336.025C736.345 335.946 735.164 336.175 733.195 336.711L688.734 348.815C686.765 349.351 685.602 349.76 685.244 350.044C684.944 350.313 684.862 350.926 684.999 351.884L685.691 356.825L683.259 357.487L676.782 333.693L679.213 333.031L681.121 337.642C681.489 338.537 681.871 339.024 682.265 339.103C682.718 339.166 683.928 338.93 685.897 338.394L730.359 326.29C732.327 325.754 733.461 325.352 733.761 325.084C734.119 324.8 734.23 324.179 734.094 323.221L733.401 318.279Z" fill="#350E61"/>
<path d="M747.711 399.769L750.224 399.574L751.571 416.982L749.058 417.177L748.048 412.29C747.855 411.342 747.541 410.795 747.109 410.648C746.736 410.496 745.533 410.499 743.499 410.656L690.018 414.794L689.637 409.858L740.3 372.81L694.626 376.344C692.592 376.501 691.373 376.686 690.968 376.898C690.623 377.105 690.428 377.692 690.382 378.658L690.136 383.642L687.623 383.836L686.276 366.428L688.789 366.234L689.799 371.121C689.993 372.068 690.276 372.618 690.649 372.77C691.081 372.917 692.315 372.912 694.349 372.754L740.291 369.2C742.325 369.043 743.515 368.86 743.86 368.653C744.265 368.441 744.49 367.852 744.535 366.886L744.782 361.902L747.294 361.707L748.69 379.744L707.777 409.809L743.221 407.067C745.255 406.909 746.444 406.727 746.789 406.52C747.194 406.308 747.419 405.719 747.465 404.753L747.711 399.769Z" fill="#350E61"/>
<path d="M698.673 472.136L698.288 474.627L682.99 472.261L689.797 428.234L692.287 428.619L692.153 433.608C692.125 434.575 692.275 435.175 692.604 435.407C692.991 435.65 694.193 435.926 696.209 436.238L741.748 443.279C743.764 443.591 744.964 443.685 745.347 443.562C745.79 443.448 746.143 442.926 746.409 441.996L747.788 437.2L750.278 437.585L743.609 480.723L728.31 478.358L728.695 475.867L739.008 474.547C739.747 474.48 740.283 474.35 740.616 474.159C741 474.036 741.267 473.682 741.418 473.099C741.628 472.524 741.843 471.525 742.063 470.102L744.456 454.626L719.196 450.72L717.628 460.86C717.408 462.283 717.282 463.296 717.25 463.898C717.277 464.509 717.425 464.927 717.694 465.15C718.013 465.443 718.514 465.733 719.198 466.021L726.1 469.091L725.715 471.582L703.568 468.157L703.953 465.667L711.46 464.824C712.199 464.756 712.736 464.627 713.069 464.435C713.452 464.312 713.719 463.959 713.87 463.375C714.08 462.801 714.295 461.802 714.516 460.379L716.083 450.239L690.201 446.237L687.67 462.603C687.45 464.026 687.324 465.039 687.292 465.641C687.319 466.252 687.467 466.67 687.736 466.893C688.055 467.186 688.556 467.476 689.24 467.764L698.673 472.136Z" fill="#350E61"/>
<path d="M190.341 574.562L191.21 574.017L195.061 580.169L194.192 580.714L192.922 579.043C192.664 578.726 192.439 578.583 192.249 578.613C192.08 578.629 191.63 578.865 190.9 579.322L171.606 591.4L170.618 589.822L183.056 565.717L165.888 576.464C165.158 576.921 164.738 577.229 164.628 577.388C164.539 577.533 164.581 577.791 164.753 578.161L165.669 580.054L164.832 580.578L160.98 574.426L161.818 573.902L163.12 575.552C163.378 575.869 163.592 576.019 163.761 576.003C163.952 575.973 164.412 575.73 165.142 575.273L181.826 564.828C182.557 564.371 182.966 564.07 183.054 563.925C183.164 563.767 183.133 563.502 182.961 563.132L182.013 561.259L182.883 560.715L186.371 566.287L175.499 587.305L190.154 578.131C190.884 577.674 191.293 577.373 191.382 577.228C191.492 577.069 191.461 576.805 191.289 576.434L190.341 574.562Z" fill="#350E61"/>
<path d="M200.685 606.796L198.418 608.522C195.475 610.763 192.643 611.853 189.922 611.792C187.221 611.715 184.911 610.417 182.992 607.898C181.059 605.358 180.414 602.776 181.059 600.152C181.739 597.532 183.55 595.102 186.493 592.862L188.76 591.135C191.683 588.91 194.487 587.825 197.173 587.882C199.894 587.943 202.222 589.243 204.155 591.783C206.074 594.302 206.701 596.882 206.036 599.521C205.391 602.146 203.608 604.57 200.685 606.796ZM200.01 602.773C202.529 600.854 203.991 599.073 204.394 597.428C204.833 595.788 204.431 594.152 203.188 592.52C201.945 590.887 200.467 590.054 198.754 590.021C197.077 589.993 194.978 590.938 192.459 592.856L187.168 596.885C184.649 598.803 183.17 600.582 182.731 602.222C182.307 603.882 182.717 605.528 183.96 607.161C185.203 608.793 186.673 609.616 188.371 609.629C190.083 609.662 192.2 608.72 194.719 606.801L200.01 602.773Z" fill="#350E61"/>
<path d="M222.838 616.081L223.594 615.388L228.498 620.739L227.741 621.432L226.189 620.019C225.878 619.755 225.631 619.654 225.449 619.718C225.286 619.765 224.887 620.079 224.252 620.661L207.47 636.039L206.212 634.666L214.069 608.705L199.136 622.389C198.501 622.971 198.144 623.35 198.065 623.526C198.004 623.684 198.092 623.93 198.329 624.263L199.572 625.958L198.844 626.626L193.94 621.275L194.669 620.607L196.249 621.994C196.56 622.259 196.797 622.368 196.961 622.321C197.143 622.257 197.552 621.934 198.187 621.353L212.699 608.054C213.334 607.472 213.682 607.102 213.742 606.943C213.822 606.767 213.743 606.513 213.507 606.179L212.235 604.51L212.991 603.817L217.433 608.664L210.555 631.306L223.302 619.624C223.937 619.042 224.285 618.672 224.345 618.513C224.425 618.337 224.346 618.083 224.11 617.75L222.838 616.081Z" fill="#350E61"/>
<path d="M222.07 633.578L222.982 632.611L230.279 639.496L229.366 640.463L222.07 633.578Z" fill="#350E61"/>
<path d="M249.212 671.328L248.596 672.101L241.433 666.394L242.049 665.622L243.825 666.746C244.174 666.958 244.425 667.029 244.58 666.958C244.75 666.866 245.103 666.484 245.64 665.81L258.472 649.701L239.434 660.915L237.413 659.305L244.057 638.217L231.224 654.327C230.688 655.001 230.394 655.43 230.343 655.616C230.307 655.783 230.433 656.012 230.718 656.304L232.211 657.785L231.595 658.557L225.918 654.035L226.534 653.262L228.31 654.386C228.659 654.599 228.91 654.67 229.065 654.598C229.235 654.507 229.588 654.124 230.125 653.451L242.389 638.055C242.926 637.381 243.212 636.961 243.247 636.795C243.298 636.609 243.181 636.37 242.895 636.077L241.379 634.627L242.018 633.824L247.457 638.157L241.001 658.52L259.406 647.675L264.696 651.889L264.057 652.692L262.304 651.538C261.955 651.325 261.696 651.265 261.526 651.356C261.372 651.427 261.027 651.8 260.49 652.474L248.225 667.87C247.689 668.544 247.395 668.973 247.344 669.16C247.309 669.326 247.434 669.555 247.719 669.847L249.212 671.328Z" fill="#350E61"/>
<path d="M272.572 680.459L273.402 680.996L270.038 686.197L254.754 676.314L255.29 675.484L257.169 676.427C257.537 676.605 257.794 676.651 257.94 676.564C258.087 676.478 258.401 676.062 258.882 675.318L269.57 658.788C270.052 658.044 270.302 657.587 270.321 657.418C270.339 657.249 270.192 657.034 269.879 656.771L268.227 655.476L268.785 654.615L283.655 664.23L280.291 669.432L279.494 668.916L280.735 664.967C280.836 664.67 280.878 664.441 280.862 664.28C280.881 664.111 280.791 663.947 280.592 663.788C280.406 663.608 280.059 663.353 279.548 663.023L273.357 659.02L267.394 668.242L271.67 671.007C272.181 671.337 272.549 671.56 272.776 671.677C273.016 671.772 273.203 671.787 273.335 671.721C273.503 671.649 273.701 671.505 273.93 671.291L276.084 669.29L276.913 669.827L272.085 677.294L271.255 676.757L272.197 673.972C272.298 673.675 272.34 673.446 272.324 673.285C272.343 673.116 272.253 672.952 272.054 672.793C271.868 672.613 271.521 672.358 271.01 672.028L266.734 669.263L260.647 678.677L267.221 682.927C267.731 683.257 268.1 683.48 268.326 683.597C268.566 683.692 268.753 683.707 268.885 683.642C269.053 683.569 269.251 683.426 269.48 683.212L272.572 680.459Z" fill="#350E61"/>
<path d="M287.433 667.846L287.916 666.941L297.441 672.013C300.169 673.466 301.789 675.463 302.302 678.003C302.815 680.544 302.214 683.424 300.499 686.644L299.16 689.159C297.433 692.401 295.373 694.519 292.979 695.511C290.585 696.504 288.024 696.274 285.296 694.821L275.77 689.749L276.234 688.877L278.186 689.658C278.568 689.803 278.828 689.827 278.967 689.729C279.105 689.63 279.383 689.19 279.799 688.407L289.051 671.033C289.468 670.25 289.679 669.774 289.683 669.604C289.687 669.434 289.523 669.232 289.189 668.996L287.433 667.846ZM296.802 673.051L292.845 670.943L281.842 691.604L285.8 693.712C287.008 694.355 288.122 694.661 289.143 694.631C290.163 694.6 291.15 694.15 292.101 693.279C293.087 692.398 294.08 691.018 295.08 689.139L298.206 683.27C299.194 681.414 299.773 679.842 299.942 678.554C300.134 677.279 299.957 676.209 299.413 675.345C298.88 674.459 298.01 673.694 296.802 673.051Z" fill="#350E61"/>
<path d="M309.986 679.549L310.406 678.614L318.759 682.369L318.338 683.305L316.354 682.621C315.964 682.501 315.703 682.495 315.571 682.602C315.439 682.71 315.192 683.168 314.828 683.976L306.757 701.929C306.393 702.738 306.215 703.227 306.222 703.397C306.229 703.567 306.407 703.758 306.755 703.97L308.568 705.035L308.163 705.936L299.81 702.181L300.216 701.28L302.215 701.929C302.606 702.049 302.867 702.055 302.998 701.948C303.13 701.84 303.378 701.382 303.741 700.574L311.813 682.621C312.177 681.812 312.355 681.323 312.348 681.153C312.341 680.983 312.163 680.792 311.814 680.58L309.986 679.549Z" fill="#350E61"/>
<path d="M323.52 712.532C320.507 711.402 318.585 709.531 317.752 706.918C316.943 704.315 317.175 701.317 318.448 697.925L319.449 695.257C320.286 693.028 321.348 691.207 322.635 689.796C323.945 688.394 325.439 687.479 327.114 687.053C328.789 686.626 330.587 686.773 332.509 687.494C334.288 688.162 335.625 689.069 336.52 690.217C337.424 691.341 337.923 692.57 338.018 693.904C338.121 695.215 337.829 696.499 337.141 697.756L333.801 697.355C334.916 695.176 335.31 693.334 334.981 691.831C334.661 690.304 333.694 689.238 332.082 688.633C330.279 687.956 328.663 688.081 327.234 689.005C325.828 689.939 324.582 691.853 323.497 694.746L321.16 700.973C320.066 703.89 319.776 706.176 320.292 707.831C320.807 709.485 322.049 710.682 324.018 711.42C324.801 711.714 325.597 711.864 326.406 711.87C327.225 711.853 328.007 711.605 328.755 711.128C329.502 710.651 330.158 709.841 330.721 708.7L332.713 710.097C331.48 711.798 330.052 712.791 328.43 713.076C326.84 713.345 325.204 713.164 323.52 712.532Z" fill="#350E61"/>
<path d="M342.852 717.66L342.583 718.61L335.636 716.643L335.905 715.692L337.942 716.032C338.217 716.083 338.422 716.102 338.558 716.088C338.701 716.049 338.852 715.934 339.011 715.742C339.202 715.533 339.466 715.16 339.802 714.623L353.062 694.722L355.365 695.374L356.291 719.294C356.296 719.927 356.313 720.38 356.342 720.651C356.401 720.905 356.482 721.086 356.583 721.193C356.691 721.276 356.863 721.365 357.1 721.458L359.049 722.247L358.78 723.198L349.895 720.681L350.164 719.731L352.238 720.081C352.641 720.143 352.876 720.104 352.942 719.964C353.039 719.808 353.071 719.277 353.037 718.372L352.864 713.268L343.943 710.741L341.118 714.996C340.615 715.749 340.352 716.214 340.328 716.392C340.335 716.552 340.527 716.711 340.903 716.871L342.852 717.66ZM344.64 709.675L352.83 711.994L352.339 698.111L344.64 709.675Z" fill="#350E61"/>
<path d="M379.241 720.981L380.246 721.185L379.001 727.33L362.055 723.896L362.252 722.928L364.345 723.119C364.753 723.15 365.009 723.099 365.113 722.965C365.218 722.831 365.358 722.329 365.534 721.46L369.444 702.169C369.62 701.3 369.686 700.783 369.642 700.619C369.597 700.455 369.381 700.308 368.994 700.178L366.984 699.576L367.187 698.571L376.163 700.39L375.959 701.395L373.873 701.166C373.466 701.135 373.21 701.187 373.105 701.321C373 701.455 372.86 701.956 372.684 702.825L368.405 723.942L375.146 725.308C375.742 725.429 376.166 725.502 376.42 725.527C376.678 725.528 376.857 725.474 376.957 725.365C377.086 725.236 377.218 725.03 377.353 724.747L379.241 720.981Z" fill="#350E61"/>
<path d="M403.59 729.687C405.28 729.844 406.68 729.554 407.792 728.818C408.929 728.084 409.572 726.909 409.722 725.295C409.841 724.008 409.55 722.9 408.847 721.97C408.147 721.014 406.851 720.182 404.958 719.472L402.417 718.473C400.549 717.765 399.169 716.734 398.277 715.379C397.385 714.024 397.024 712.438 397.192 710.622C397.305 709.411 397.687 708.302 398.341 707.294C399.019 706.289 399.969 705.512 401.19 704.963C402.437 704.418 403.968 704.229 405.784 704.398C407.802 704.585 409.394 705.114 410.56 705.986C411.728 706.832 412.497 707.87 412.866 709.1C413.235 710.33 413.23 711.615 412.852 712.953L409.61 713.339C410.156 711.024 410.084 709.198 409.393 707.862C408.729 706.528 407.425 705.771 405.483 705.591C403.944 705.448 402.694 705.752 401.734 706.502C400.777 707.228 400.225 708.372 400.08 709.936C399.965 711.172 400.22 712.264 400.844 713.213C401.471 714.136 402.656 714.933 404.401 715.604L406.941 716.603C411.046 718.154 412.924 720.809 412.575 724.568C412.451 725.904 412.023 727.086 411.292 728.112C410.588 729.115 409.577 729.874 408.257 730.387C406.962 730.903 405.369 731.073 403.477 730.898C402.166 730.776 400.923 730.457 399.75 729.941C398.602 729.428 397.644 728.639 396.878 727.576C396.137 726.515 395.708 725.101 395.592 723.335L397.933 722.789C397.905 724.465 398.151 725.786 398.672 726.75C399.193 727.714 399.89 728.428 400.763 728.89C401.638 729.328 402.581 729.593 403.59 729.687Z" fill="#350E61"/>
<path d="M433.95 707.146L433.962 706.121L441.219 706.205L441.208 707.23L439.116 707.396C438.71 707.442 438.468 707.541 438.39 707.692C438.312 707.843 438.268 708.362 438.258 709.248L438.096 723.232C438.063 726.119 437.365 728.366 436.004 729.972C434.668 731.552 432.632 732.327 429.897 732.295C426.907 732.261 424.625 731.36 423.049 729.594C421.499 727.828 420.742 725.412 420.777 722.347L420.931 709.048C420.941 708.161 420.909 707.641 420.835 707.489C420.761 707.336 420.522 707.232 420.117 707.176L418.029 706.962L418.041 705.936L427.198 706.042L427.187 707.068L425.094 707.234C424.689 707.28 424.447 707.378 424.369 707.53C424.291 707.681 424.247 708.199 424.237 709.086L424.076 722.955C424.045 725.666 424.528 727.685 425.526 729.014C426.55 730.344 428.113 731.02 430.215 731.045C432.343 731.069 433.947 730.417 435.026 729.086C436.106 727.756 436.66 725.812 436.69 723.253L436.852 709.232C436.862 708.346 436.83 707.826 436.756 707.673C436.682 707.52 436.442 707.416 436.038 707.361L433.95 707.146Z" fill="#350E61"/>
<path d="M445.203 707.055L445.128 706.032L455.891 705.242C458.392 705.058 460.346 705.549 461.752 706.716C463.157 707.858 463.935 709.464 464.088 711.536L464.168 712.635C464.32 714.707 463.786 716.423 462.565 717.782C461.344 719.142 459.483 719.914 456.981 720.098L452.434 720.431L453.01 728.276C453.075 729.161 453.151 729.688 453.24 729.86C453.327 730.006 453.574 730.076 453.98 730.072L456.839 730.091L456.911 731.076L447.02 731.802L446.947 730.817L449.015 730.437C449.416 730.356 449.648 730.238 449.713 730.081C449.778 729.923 449.777 729.403 449.713 728.518L448.271 708.887C448.206 708.003 448.13 707.488 448.043 707.342C447.956 707.196 447.709 707.112 447.301 707.091L445.203 707.055ZM455.98 706.454L451.432 706.788L452.345 719.219L456.892 718.885C459.697 718.679 460.973 716.858 460.721 713.422L460.562 711.262C460.312 707.851 458.784 706.248 455.98 706.454Z" fill="#350E61"/>
<path d="M467.639 705.289L467.486 704.275L478.156 702.66C480.636 702.285 482.622 702.625 484.114 703.68C485.602 704.71 486.501 706.253 486.812 708.307L486.977 709.396C487.288 711.45 486.887 713.202 485.774 714.651C484.661 716.101 482.865 717.013 480.385 717.388L475.876 718.071L477.053 725.848C477.186 726.725 477.303 727.245 477.405 727.409C477.502 727.548 477.754 727.6 478.158 727.564L481.01 727.363L481.158 728.34L471.352 729.824L471.204 728.847L473.236 728.309C473.629 728.198 473.852 728.062 473.905 727.9C473.957 727.739 473.917 727.22 473.784 726.343L470.839 706.88C470.706 706.004 470.591 705.496 470.493 705.357C470.395 705.218 470.142 705.154 469.734 705.164L467.639 705.289ZM478.338 703.862L473.829 704.545L475.694 716.868L480.203 716.186C482.983 715.765 484.116 713.852 483.6 710.445L483.276 708.304C482.764 704.922 481.118 703.442 478.338 703.862Z" fill="#350E61"/>
<path d="M512.221 707.27L512.882 710.042C513.741 713.639 513.592 716.67 512.435 719.134C511.272 721.573 509.15 723.16 506.07 723.895C502.965 724.636 500.343 724.181 498.204 722.53C496.084 720.848 494.595 718.208 493.736 714.61L493.075 711.838C492.222 708.265 492.365 705.262 493.503 702.829C494.66 700.365 496.791 698.763 499.896 698.022C502.976 697.287 505.589 697.757 507.734 699.433C509.873 701.084 511.368 703.697 512.221 707.27ZM508.269 706.259C507.534 703.179 506.496 701.122 505.155 700.087C503.833 699.023 502.174 698.728 500.178 699.204C498.182 699.681 496.823 700.695 496.099 702.248C495.395 703.771 495.41 706.072 496.145 709.152L497.688 715.621C498.423 718.701 499.452 720.773 500.774 721.838C502.12 722.897 503.792 723.189 505.788 722.712C507.784 722.236 509.131 721.225 509.83 719.677C510.553 718.124 510.547 715.808 509.812 712.728L508.269 706.259Z" fill="#350E61"/>
<path d="M514.861 695.725L514.537 694.751L524.56 691.415C526.916 690.631 528.906 690.595 530.532 691.309C532.174 691.99 533.303 693.257 533.92 695.107L534.292 696.225C534.78 697.691 534.787 699.077 534.314 700.383C533.857 701.657 532.947 702.734 531.585 703.614L539.033 710.587C539.537 711.06 539.902 711.392 540.126 711.585C540.342 711.753 540.522 711.853 540.666 711.885C540.827 711.885 541.031 711.857 541.279 711.801L542.974 711.478L543.286 712.415L537.842 714.228L528.448 705.019L524.915 706.195L527.639 714.38C527.919 715.221 528.12 715.702 528.24 715.822C528.36 715.942 528.62 715.962 529.021 715.882L531.076 715.439L531.388 716.376L522.699 719.269L522.387 718.331L524.298 717.455C524.666 717.279 524.862 717.106 524.887 716.938C524.911 716.77 524.783 716.265 524.503 715.424L518.285 696.748C518.005 695.906 517.805 695.426 517.685 695.305C517.565 695.185 517.305 695.165 516.904 695.245L514.861 695.725ZM524.944 692.568L520.834 693.937L524.531 705.042L528.641 703.673C529.891 703.257 530.732 702.537 531.165 701.511C531.614 700.454 531.567 699.108 531.023 697.474L530.555 696.067C530.01 694.433 529.246 693.339 528.261 692.786C527.3 692.225 526.194 692.152 524.944 692.568Z" fill="#350E61"/>
<path d="M535.222 687.872L553.841 679.997L556.254 685.701L555.344 686.086L552.775 682.841C552.587 682.59 552.421 682.427 552.278 682.349C552.149 682.239 551.963 682.221 551.72 682.297C551.467 682.349 551.06 682.493 550.5 682.73L546.545 684.403L554.939 704.247C555.284 705.063 555.521 705.527 555.651 705.637C555.78 705.748 556.041 705.747 556.434 705.636L558.448 705.032L558.833 705.942L550.398 709.509L550.013 708.599L551.849 707.575C552.203 707.371 552.385 707.184 552.396 707.014C552.407 706.844 552.239 706.351 551.894 705.535L543.501 685.691L539.511 687.378C538.974 687.605 538.587 687.796 538.35 687.952C538.127 688.074 537.998 688.224 537.964 688.404C537.943 688.55 537.957 688.778 538.006 689.088L538.545 693.192L537.635 693.577L535.222 687.872Z" fill="#350E61"/>
<path d="M586.012 691.518C587.492 690.687 588.48 689.653 588.977 688.416C589.495 687.166 589.358 685.834 588.564 684.421C587.932 683.294 587.063 682.547 585.956 682.18C584.837 681.792 583.297 681.843 581.336 682.334L578.677 682.954C576.738 683.433 575.017 683.368 573.513 682.759C572.009 682.15 570.811 681.051 569.918 679.46C569.323 678.4 569.008 677.269 568.973 676.069C568.961 674.856 569.301 673.677 569.995 672.532C570.711 671.375 571.864 670.35 573.455 669.457C575.222 668.465 576.833 667.997 578.287 668.052C579.729 668.085 580.952 668.503 581.954 669.306C582.957 670.108 583.682 671.168 584.131 672.485L581.682 674.644C580.816 672.428 579.72 670.966 578.393 670.259C577.088 669.539 575.585 669.656 573.884 670.611C572.537 671.367 571.681 672.327 571.317 673.49C570.94 674.631 571.137 675.886 571.905 677.256C572.513 678.338 573.343 679.092 574.396 679.518C575.436 679.922 576.864 679.905 578.681 679.466L581.339 678.846C585.599 677.791 588.652 678.91 590.5 682.201C591.157 683.372 591.476 684.587 591.457 685.847C591.448 687.073 591.046 688.272 590.251 689.444C589.478 690.604 588.264 691.649 586.607 692.579C585.458 693.223 584.254 693.667 582.996 693.908C581.759 694.138 580.523 694.032 579.289 693.592C578.076 693.14 576.92 692.22 575.822 690.832L577.438 689.053C578.367 690.449 579.32 691.396 580.296 691.894C581.273 692.392 582.252 692.583 583.233 692.468C584.202 692.331 585.128 692.014 586.012 691.518Z" fill="#350E61"/>
<path d="M610.311 670.035L611.133 669.487L614.572 674.638L599.434 684.745L598.885 683.923L600.497 682.573C600.806 682.306 600.95 682.088 600.928 681.919C600.907 681.751 600.651 681.298 600.158 680.56L589.229 664.189C588.736 663.452 588.416 663.041 588.269 662.957C588.121 662.873 587.865 662.922 587.5 663.105L585.656 664.107L585.086 663.254L599.814 653.422L603.253 658.573L602.463 659.101L599.331 656.394C599.099 656.183 598.906 656.054 598.751 656.005C598.603 655.92 598.417 655.938 598.192 656.058C597.954 656.156 597.581 656.374 597.076 656.712L590.944 660.805L597.042 669.939L601.277 667.111C601.783 666.774 602.134 666.524 602.331 666.362C602.513 666.18 602.601 666.014 602.594 665.867C602.594 665.684 602.541 665.445 602.435 665.15L601.453 662.379L602.275 661.83L607.212 669.226L606.39 669.774L604.207 667.805C603.975 667.594 603.782 667.464 603.628 667.415C603.48 667.331 603.294 667.349 603.069 667.468C602.83 667.567 602.458 667.785 601.952 668.123L597.717 670.95L603.942 680.273L610.452 675.927C610.958 675.589 611.309 675.339 611.506 675.178C611.688 674.995 611.776 674.83 611.769 674.682C611.769 674.499 611.716 674.261 611.61 673.966L610.311 670.035Z" fill="#350E61"/>
<path d="M604.416 651.479L603.78 650.674L612.067 644.122C614.014 642.582 615.874 641.871 617.646 641.988C619.422 642.069 620.914 642.875 622.124 644.405L622.855 645.329C623.813 646.541 624.293 647.842 624.293 649.23C624.297 650.583 623.808 651.906 622.828 653.198L632.205 657.216C632.841 657.489 633.297 657.677 633.573 657.782C633.834 657.867 634.037 657.899 634.184 657.88C634.334 657.826 634.517 657.73 634.731 657.593L636.214 656.711L636.827 657.486L632.326 661.045L620.357 655.588L617.436 657.897L622.786 664.664C623.336 665.359 623.688 665.743 623.842 665.815C623.996 665.887 624.247 665.818 624.596 665.606L626.377 664.489L626.99 665.264L619.806 670.943L619.194 670.168L620.692 668.693C620.978 668.402 621.104 668.173 621.069 668.007C621.035 667.841 620.742 667.41 620.193 666.714L607.984 651.274C607.434 650.578 607.082 650.194 606.928 650.122C606.775 650.05 606.523 650.12 606.174 650.331L604.416 651.479ZM612.821 645.076L609.423 647.762L616.682 656.943L620.08 654.257C621.113 653.44 621.659 652.475 621.717 651.364C621.779 650.217 621.275 648.968 620.207 647.616L619.288 646.454C618.219 645.103 617.128 644.335 616.013 644.15C614.918 643.95 613.854 644.259 612.821 645.076Z" fill="#350E61"/>
<path d="M638.408 624.745L648.744 646.564L646.886 648.305L625.761 636.591C625.075 636.192 624.643 635.99 624.464 635.984C624.286 635.942 624.032 636.042 623.701 636.282L622.185 637.442L621.483 636.693L628.001 630.588L628.702 631.337L627.418 632.801C627.157 633.115 627.06 633.345 627.126 633.49C627.212 633.618 627.589 633.873 628.258 634.253L646.29 644.333L637.41 625.681C637.092 624.971 636.863 624.578 636.722 624.502C636.6 624.408 636.364 624.49 636.015 624.748L634.471 625.934L633.77 625.185L638.79 620.483L639.491 621.232L638.206 622.696C638.039 622.887 637.935 623.054 637.894 623.196C637.855 623.302 637.876 623.473 637.958 623.709C638.041 623.909 638.191 624.254 638.408 624.745Z" fill="#350E61"/>
<path d="M640.257 620.204L639.511 619.5L645.795 612.839L646.542 613.543L645.246 615.193C645.004 615.523 644.913 615.768 644.971 615.927C645.03 616.087 645.381 616.471 646.026 617.079L660.343 630.587C660.988 631.196 661.392 631.525 661.555 631.574C661.718 631.623 661.956 631.517 662.272 631.257L663.872 629.894L664.59 630.572L658.306 637.233L657.587 636.555L658.855 634.878C659.097 634.548 659.188 634.304 659.13 634.144C659.071 633.985 658.72 633.601 658.075 632.992L643.757 619.484C643.112 618.875 642.709 618.547 642.546 618.498C642.383 618.449 642.144 618.554 641.829 618.814L640.257 620.204Z" fill="#350E61"/>
<path d="M675.531 618.6C673.472 621.072 671.072 622.271 668.331 622.197C665.606 622.104 662.852 620.898 660.069 618.579L657.879 616.755C656.049 615.231 654.68 613.629 653.771 611.949C652.879 610.25 652.507 608.539 652.656 606.816C652.805 605.094 653.536 603.444 654.849 601.868C656.065 600.408 657.363 599.444 658.741 598.977C660.1 598.493 661.425 598.426 662.716 598.776C663.988 599.11 665.103 599.809 666.064 600.873L664.585 603.894C662.895 602.124 661.286 601.146 659.758 600.962C658.211 600.761 656.886 601.322 655.784 602.646C654.551 604.125 654.137 605.692 654.539 607.346C654.958 608.981 656.355 610.787 658.73 612.765L663.839 617.021C666.233 619.016 668.297 620.042 670.029 620.1C671.761 620.158 673.3 619.379 674.645 617.763C675.18 617.121 675.584 616.419 675.856 615.656C676.109 614.878 676.133 614.057 675.929 613.195C675.724 612.332 675.176 611.446 674.284 610.538L676.259 609.117C677.459 610.843 677.927 612.518 677.661 614.143C677.392 615.732 676.682 617.218 675.531 618.6Z" fill="#350E61"/>
<path d="M689.293 589.367L689.862 588.559L694.924 592.129L684.433 607.004L683.626 606.434L684.644 604.595C684.836 604.234 684.892 603.979 684.812 603.83C684.731 603.68 684.329 603.35 683.604 602.839L667.518 591.493C666.794 590.982 666.348 590.714 666.18 590.688C666.012 590.663 665.79 590.801 665.515 591.103L664.155 592.702L663.317 592.11L673.523 577.64L678.585 581.21L678.037 581.986L674.141 580.587C673.849 580.474 673.622 580.422 673.46 580.432C673.292 580.406 673.125 580.49 672.958 580.682C672.771 580.86 672.502 581.197 672.151 581.694L667.902 587.718L676.877 594.048L679.812 589.887C680.162 589.39 680.4 589.031 680.525 588.809C680.63 588.573 680.652 588.387 680.593 588.252C680.527 588.082 680.392 587.878 680.187 587.641L678.274 585.408L678.844 584.601L686.11 589.726L685.54 590.533L682.795 589.48C682.503 589.367 682.276 589.316 682.114 589.325C681.946 589.3 681.779 589.383 681.612 589.576C681.425 589.754 681.156 590.091 680.805 590.588L677.87 594.749L687.031 601.21L691.543 594.813C691.893 594.316 692.131 593.957 692.257 593.735C692.361 593.499 692.384 593.314 692.324 593.178C692.258 593.008 692.123 592.804 691.918 592.567L689.293 589.367Z" fill="#350E61"/>
<path d="M702.455 578.46C703.324 577.001 703.665 575.612 703.479 574.292C703.305 572.95 702.522 571.864 701.129 571.034C700.019 570.373 698.893 570.159 697.751 570.393C696.587 570.614 695.278 571.426 693.822 572.83L691.827 574.694C690.385 576.075 688.86 576.878 687.254 577.1C685.647 577.322 684.06 576.967 682.493 576.033C681.448 575.411 680.611 574.588 679.982 573.565C679.367 572.519 679.074 571.328 679.104 569.989C679.148 568.629 679.636 567.166 680.57 565.599C681.607 563.858 682.77 562.648 684.058 561.971C685.325 561.281 686.592 561.033 687.862 561.229C689.131 561.425 690.288 561.982 691.334 562.9L690.288 565.992C688.433 564.503 686.753 563.783 685.25 563.831C683.76 563.858 682.516 564.709 681.517 566.384C680.727 567.712 680.463 568.971 680.728 570.16C680.97 571.337 681.766 572.327 683.116 573.131C684.182 573.766 685.278 574.006 686.403 573.851C687.506 573.682 688.735 572.955 690.091 571.669L692.086 569.805C695.252 566.767 698.457 566.214 701.7 568.146C702.853 568.833 703.736 569.727 704.347 570.829C704.95 571.896 705.2 573.135 705.096 574.548C705.004 575.938 704.473 577.45 703.5 579.082C702.826 580.214 702.004 581.198 701.033 582.035C700.075 582.851 698.952 583.376 697.662 583.61C696.386 583.823 694.925 583.601 693.281 582.946L693.795 580.598C695.296 581.345 696.594 581.691 697.689 581.635C698.783 581.58 699.727 581.257 700.52 580.668C701.292 580.066 701.937 579.33 702.455 578.46Z" fill="#350E61"/>
<path d="M48 853.051H148" stroke="#CC933A" stroke-width="3"/>
<path d="M188.8 863.251C190.08 863.251 191.136 862.952 191.968 862.355C192.821 861.736 193.248 860.776 193.248 859.475C193.248 858.515 192.96 857.715 192.384 857.075C191.829 856.435 190.827 855.901 189.376 855.475L186.4 854.579C184.907 854.131 183.755 853.363 182.944 852.275C182.155 851.165 181.76 849.789 181.76 848.147C181.76 847.059 182.005 846.045 182.496 845.107C183.008 844.168 183.776 843.411 184.8 842.835C185.845 842.259 187.157 841.971 188.736 841.971C190.464 841.971 191.861 842.291 192.928 842.931C193.995 843.549 194.741 844.36 195.168 845.363C195.595 846.365 195.701 847.443 195.488 848.595L191.808 849.267C192.149 847.283 192 845.757 191.36 844.691C190.741 843.624 189.728 843.091 188.32 843.091C187.232 843.091 186.357 843.411 185.696 844.051C185.056 844.691 184.736 845.608 184.736 846.803C184.736 847.784 185.013 848.648 185.568 849.395C186.144 850.141 187.083 850.717 188.384 851.123L191.36 852.019C192.981 852.488 194.197 853.203 195.008 854.163C195.819 855.101 196.224 856.413 196.224 858.099C196.224 859.293 195.947 860.371 195.392 861.331C194.859 862.269 194.037 863.016 192.928 863.571C191.84 864.104 190.475 864.371 188.832 864.371C187.637 864.371 186.507 864.2 185.44 863.859C184.373 863.496 183.477 862.909 182.752 862.099C182.048 861.288 181.6 860.189 181.408 858.803L183.552 858.035C183.659 859.4 183.957 860.467 184.448 861.235C184.96 861.981 185.589 862.504 186.336 862.803C187.104 863.101 187.925 863.251 188.8 863.251ZM212.721 843.187V842.291H218.929V843.187L217.169 843.411C216.827 843.453 216.625 843.549 216.561 843.699C216.497 843.827 216.465 844.253 216.465 844.979V856.659C216.465 859.219 215.921 861.149 214.833 862.451C213.766 863.731 212.123 864.371 209.905 864.371C207.323 864.371 205.243 863.667 203.665 862.259C202.086 860.851 201.297 858.824 201.297 856.179V844.979C201.297 844.253 201.265 843.827 201.201 843.699C201.137 843.549 200.934 843.453 200.593 843.411L198.833 843.187V842.291H207.601V843.187L205.841 843.411C205.499 843.453 205.297 843.549 205.233 843.699C205.169 843.827 205.137 844.253 205.137 844.979V856.403C205.137 858.792 205.574 860.52 206.449 861.587C207.323 862.653 208.571 863.187 210.193 863.187C211.771 863.187 212.998 862.685 213.873 861.683C214.747 860.659 215.185 859.005 215.185 856.723V844.979C215.185 844.253 215.153 843.827 215.089 843.699C215.025 843.549 214.822 843.453 214.481 843.411L212.721 843.187ZM221.22 843.187V842.291H230.852C233.198 842.291 234.948 842.835 236.1 843.923C237.273 844.989 237.86 846.419 237.86 848.211V848.947C237.86 850.739 237.273 852.179 236.1 853.267C234.948 854.355 233.198 854.899 230.852 854.899H227.524V861.363C227.524 862.088 227.556 862.525 227.62 862.675C227.684 862.803 227.886 862.888 228.228 862.931L230.628 863.155V864.051H221.22V863.155L222.98 862.931C223.321 862.888 223.524 862.803 223.588 862.675C223.652 862.525 223.684 862.088 223.684 861.363V844.979C223.684 844.253 223.652 843.827 223.588 843.699C223.524 843.549 223.321 843.453 222.98 843.411L221.22 843.187ZM230.852 843.411H227.524V853.779H230.852C231.79 853.779 232.505 853.405 232.996 852.659C233.508 851.912 233.764 850.888 233.764 849.587V847.571C233.764 846.269 233.508 845.256 232.996 844.531C232.505 843.784 231.79 843.411 230.852 843.411ZM240.345 843.187V842.291H249.977C252.323 842.291 254.073 842.835 255.225 843.923C256.398 844.989 256.985 846.419 256.985 848.211V848.947C256.985 850.739 256.398 852.179 255.225 853.267C254.073 854.355 252.323 854.899 249.977 854.899H246.649V861.363C246.649 862.088 246.681 862.525 246.745 862.675C246.809 862.803 247.011 862.888 247.353 862.931L249.753 863.155V864.051H240.345V863.155L242.105 862.931C242.446 862.888 242.649 862.803 242.713 862.675C242.777 862.525 242.809 862.088 242.809 861.363V844.979C242.809 844.253 242.777 843.827 242.713 843.699C242.649 843.549 242.446 843.453 242.105 843.411L240.345 843.187ZM249.977 843.411H246.649V853.779H249.977C250.915 853.779 251.63 853.405 252.121 852.659C252.633 851.912 252.889 850.888 252.889 849.587V847.571C252.889 846.269 252.633 845.256 252.121 844.531C251.63 843.784 250.915 843.411 249.977 843.411ZM277.237 852.147V854.163C277.237 857.448 276.501 859.976 275.029 861.747C273.579 863.496 271.424 864.371 268.565 864.371C265.707 864.371 263.541 863.496 262.069 861.747C260.619 859.976 259.893 857.448 259.893 854.163V852.147C259.893 848.861 260.619 846.344 262.069 844.595C263.541 842.845 265.707 841.971 268.565 841.971C271.424 841.971 273.579 842.845 275.029 844.595C276.501 846.344 277.237 848.861 277.237 852.147ZM273.141 850.547C273.141 848.669 272.981 847.197 272.661 846.131C272.341 845.043 271.84 844.264 271.157 843.795C270.496 843.325 269.632 843.091 268.565 843.091C267.52 843.091 266.656 843.325 265.973 843.795C265.291 844.264 264.789 845.043 264.469 846.131C264.149 847.197 263.989 848.669 263.989 850.547V855.763C263.989 857.619 264.149 859.091 264.469 860.179C264.789 861.267 265.291 862.056 265.973 862.547C266.656 863.016 267.52 863.251 268.565 863.251C269.632 863.251 270.496 863.016 271.157 862.547C271.84 862.056 272.341 861.267 272.661 860.179C272.981 859.091 273.141 857.619 273.141 855.763V850.547ZM280.72 843.187V842.291H290.384C292.624 842.291 294.352 842.792 295.568 843.795C296.784 844.797 297.392 846.141 297.392 847.827V848.563C297.392 849.843 297.04 850.931 296.336 851.827C295.632 852.723 294.618 853.363 293.296 853.747L297.296 861.363C297.552 861.832 297.744 862.173 297.872 862.387C298 862.6 298.117 862.739 298.224 862.803C298.352 862.845 298.522 862.888 298.736 862.931L300.176 863.155V864.051H294.192L289.36 854.131H287.024V861.363C287.024 862.088 287.056 862.525 287.12 862.675C287.184 862.803 287.386 862.888 287.728 862.931L289.488 863.155V864.051H280.72V863.155L282.48 862.931C282.821 862.888 283.024 862.803 283.088 862.675C283.152 862.525 283.184 862.088 283.184 861.363V844.979C283.184 844.253 283.152 843.827 283.088 843.699C283.024 843.549 282.821 843.453 282.48 843.411L280.72 843.187ZM290.384 843.411H287.024V853.011H290.384C291.322 853.011 292.037 852.723 292.528 852.147C293.04 851.549 293.296 850.461 293.296 848.883V847.507C293.296 845.928 293.04 844.851 292.528 844.275C292.037 843.699 291.322 843.411 290.384 843.411ZM300.415 842.291H318.015V847.795H317.119L316.095 844.243C316.031 843.965 315.957 843.773 315.871 843.667C315.807 843.539 315.669 843.464 315.455 843.443C315.242 843.421 314.879 843.411 314.367 843.411H311.135V861.363C311.135 862.088 311.167 862.525 311.231 862.675C311.295 862.803 311.498 862.888 311.839 862.931L313.599 863.155V864.051H304.831V863.155L306.591 862.931C306.933 862.888 307.135 862.803 307.199 862.675C307.263 862.525 307.295 862.088 307.295 861.363V843.411H304.063C303.573 843.411 303.21 843.421 302.975 843.443C302.762 843.464 302.623 843.539 302.559 843.667C302.495 843.773 302.421 843.965 302.335 844.243L301.311 847.795H300.415V842.291ZM346.127 849.267H347.023V857.235H346.127L345.423 854.643C345.359 854.387 345.284 854.205 345.199 854.099C345.135 853.971 344.996 853.896 344.783 853.875C344.569 853.832 344.207 853.811 343.695 853.811H340.399V861.363C340.399 862.088 340.431 862.525 340.495 862.675C340.559 862.803 340.761 862.888 341.103 862.931L343.503 863.155V864.051H334.095V863.155L335.855 862.931C336.196 862.888 336.399 862.803 336.463 862.675C336.527 862.525 336.559 862.088 336.559 861.363V844.979C336.559 844.253 336.527 843.827 336.463 843.699C336.399 843.549 336.196 843.453 335.855 843.411L334.095 843.187V842.291H349.263V847.795H348.367L347.343 844.243C347.279 843.987 347.204 843.805 347.119 843.699C347.055 843.571 346.916 843.496 346.703 843.475C346.489 843.432 346.127 843.411 345.615 843.411H340.399V852.691H343.695C344.207 852.691 344.569 852.68 344.783 852.659C344.996 852.616 345.135 852.541 345.199 852.435C345.284 852.307 345.359 852.115 345.423 851.859L346.127 849.267ZM369.894 852.147V854.163C369.894 857.448 369.158 859.976 367.686 861.747C366.235 863.496 364.08 864.371 361.222 864.371C358.363 864.371 356.198 863.496 354.726 861.747C353.275 859.976 352.549 857.448 352.549 854.163V852.147C352.549 848.861 353.275 846.344 354.726 844.595C356.198 842.845 358.363 841.971 361.222 841.971C364.08 841.971 366.235 842.845 367.686 844.595C369.158 846.344 369.894 848.861 369.894 852.147ZM365.798 850.547C365.798 848.669 365.638 847.197 365.318 846.131C364.998 845.043 364.496 844.264 363.814 843.795C363.152 843.325 362.288 843.091 361.222 843.091C360.176 843.091 359.312 843.325 358.63 843.795C357.947 844.264 357.446 845.043 357.126 846.131C356.806 847.197 356.646 848.669 356.646 850.547V855.763C356.646 857.619 356.806 859.091 357.126 860.179C357.446 861.267 357.947 862.056 358.63 862.547C359.312 863.016 360.176 863.251 361.222 863.251C362.288 863.251 363.152 863.016 363.814 862.547C364.496 862.056 364.998 861.267 365.318 860.179C365.638 859.091 365.798 857.619 365.798 855.763V850.547ZM373.376 843.187V842.291H383.04C385.28 842.291 387.008 842.792 388.224 843.795C389.44 844.797 390.048 846.141 390.048 847.827V848.563C390.048 849.843 389.696 850.931 388.992 851.827C388.288 852.723 387.275 853.363 385.952 853.747L389.952 861.363C390.208 861.832 390.4 862.173 390.528 862.387C390.656 862.6 390.773 862.739 390.88 862.803C391.008 862.845 391.179 862.888 391.392 862.931L392.832 863.155V864.051H386.848L382.016 854.131H379.68V861.363C379.68 862.088 379.712 862.525 379.776 862.675C379.84 862.803 380.043 862.888 380.384 862.931L382.144 863.155V864.051H373.376V863.155L375.136 862.931C375.477 862.888 375.68 862.803 375.744 862.675C375.808 862.525 375.84 862.088 375.84 861.363V844.979C375.84 844.253 375.808 843.827 375.744 843.699C375.68 843.549 375.477 843.453 375.136 843.411L373.376 843.187ZM383.04 843.411H379.68V853.011H383.04C383.979 853.011 384.693 852.723 385.184 852.147C385.696 851.549 385.952 850.461 385.952 848.883V847.507C385.952 845.928 385.696 844.851 385.184 844.275C384.693 843.699 383.979 843.411 383.04 843.411ZM423.476 858.547H424.372V864.051H408.532V863.155L410.292 862.931C410.634 862.888 410.836 862.803 410.9 862.675C410.964 862.525 410.996 862.088 410.996 861.363V844.979C410.996 844.253 410.964 843.827 410.9 843.699C410.836 843.549 410.634 843.453 410.292 843.411L408.532 843.187V842.291H424.052V847.795H423.156L422.132 844.243C422.068 843.987 421.994 843.805 421.908 843.699C421.844 843.571 421.706 843.496 421.492 843.475C421.279 843.432 420.916 843.411 420.404 843.411H414.836V852.499H418.484C418.996 852.499 419.359 852.488 419.572 852.467C419.786 852.424 419.924 852.349 419.988 852.243C420.074 852.115 420.148 851.923 420.212 851.667L420.916 849.075H421.812V857.043H420.916L420.212 854.451C420.148 854.195 420.074 854.013 419.988 853.907C419.924 853.779 419.786 853.704 419.572 853.683C419.359 853.64 418.996 853.619 418.484 853.619H414.836V862.931H420.724C421.236 862.931 421.599 862.92 421.812 862.899C422.026 862.856 422.164 862.781 422.228 862.675C422.314 862.547 422.388 862.355 422.452 862.099L423.476 858.547ZM444.006 844.979L437.958 864.051H435.206L429.126 844.979C428.976 844.488 428.859 844.147 428.774 843.955C428.688 843.741 428.592 843.603 428.486 843.539C428.379 843.475 428.208 843.432 427.974 843.411L426.213 843.187V842.291H435.11V843.187L433.35 843.411C433.008 843.453 432.827 843.549 432.806 843.699C432.784 843.827 432.88 844.253 433.094 844.979L437.958 860.243L442.758 844.979C442.992 844.253 443.088 843.827 443.046 843.699C443.024 843.549 442.843 843.453 442.502 843.411L440.742 843.187V842.291H446.886V843.187L445.126 843.411C444.912 843.432 444.752 843.475 444.646 843.539C444.539 843.603 444.443 843.741 444.358 843.955C444.272 844.147 444.155 844.488 444.006 844.979ZM462.976 858.547H463.872V864.051H448.032V863.155L449.792 862.931C450.134 862.888 450.336 862.803 450.4 862.675C450.464 862.525 450.496 862.088 450.496 861.363V844.979C450.496 844.253 450.464 843.827 450.4 843.699C450.336 843.549 450.134 843.453 449.792 843.411L448.032 843.187V842.291H463.552V847.795H462.656L461.632 844.243C461.568 843.987 461.494 843.805 461.408 843.699C461.344 843.571 461.206 843.496 460.992 843.475C460.779 843.432 460.416 843.411 459.904 843.411H454.336V852.499H457.984C458.496 852.499 458.859 852.488 459.072 852.467C459.286 852.424 459.424 852.349 459.488 852.243C459.574 852.115 459.648 851.923 459.712 851.667L460.416 849.075H461.312V857.043H460.416L459.712 854.451C459.648 854.195 459.574 854.013 459.488 853.907C459.424 853.779 459.286 853.704 459.072 853.683C458.859 853.64 458.496 853.619 457.984 853.619H454.336V862.931H460.224C460.736 862.931 461.099 862.92 461.312 862.899C461.526 862.856 461.664 862.781 461.728 862.675C461.814 862.547 461.888 862.355 461.952 862.099L462.976 858.547ZM467.314 843.187V842.291H476.978C479.218 842.291 480.946 842.792 482.162 843.795C483.378 844.797 483.986 846.141 483.986 847.827V848.563C483.986 849.843 483.634 850.931 482.93 851.827C482.226 852.723 481.212 853.363 479.89 853.747L483.89 861.363C484.146 861.832 484.338 862.173 484.466 862.387C484.594 862.6 484.711 862.739 484.818 862.803C484.946 862.845 485.116 862.888 485.33 862.931L486.77 863.155V864.051H480.786L475.954 854.131H473.618V861.363C473.618 862.088 473.65 862.525 473.714 862.675C473.778 862.803 473.98 862.888 474.322 862.931L476.082 863.155V864.051H467.314V863.155L469.074 862.931C469.415 862.888 469.618 862.803 469.682 862.675C469.746 862.525 469.778 862.088 469.778 861.363V844.979C469.778 844.253 469.746 843.827 469.682 843.699C469.618 843.549 469.415 843.453 469.074 843.411L467.314 843.187ZM476.978 843.411H473.618V853.011H476.978C477.916 853.011 478.631 852.723 479.122 852.147C479.634 851.549 479.89 850.461 479.89 848.883V847.507C479.89 845.928 479.634 844.851 479.122 844.275C478.631 843.699 477.916 843.411 476.978 843.411ZM500.428 863.155V864.051H491.66V863.155L493.42 862.931C493.762 862.888 493.964 862.803 494.028 862.675C494.092 862.525 494.124 862.088 494.124 861.363V854.739L489.036 844.979C488.78 844.488 488.588 844.147 488.46 843.955C488.332 843.741 488.204 843.603 488.076 843.539C487.97 843.475 487.81 843.432 487.596 843.411L485.836 843.187V842.291H494.956V843.187L493.196 843.411C492.876 843.453 492.716 843.549 492.716 843.699C492.716 843.827 492.887 844.253 493.228 844.979L497.356 853.235L501.644 844.979C502.007 844.275 502.178 843.848 502.156 843.699C502.156 843.549 501.996 843.453 501.676 843.411L499.916 843.187V842.291H506.156V843.187L504.396 843.411C504.183 843.432 504.012 843.475 503.884 843.539C503.778 843.603 503.66 843.741 503.532 843.955C503.426 844.147 503.244 844.488 502.988 844.979L497.964 854.675V861.363C497.964 862.088 497.996 862.525 498.06 862.675C498.124 862.803 498.327 862.888 498.668 862.931L500.428 863.155ZM507.22 843.187V842.291H516.66C519.39 842.291 521.481 843.091 522.932 844.691C524.404 846.291 525.14 848.776 525.14 852.147V854.163C525.14 857.533 524.404 860.029 522.932 861.651C521.481 863.251 519.39 864.051 516.66 864.051H507.22V863.155L508.98 862.931C509.321 862.888 509.524 862.803 509.588 862.675C509.652 862.525 509.684 862.088 509.684 861.363V844.979C509.684 844.253 509.652 843.827 509.588 843.699C509.524 843.549 509.321 843.453 508.98 843.411L507.22 843.187ZM516.5 843.411H513.524V862.931H516.5C517.588 862.931 518.462 862.749 519.124 862.387C519.785 862.003 520.265 861.299 520.564 860.275C520.884 859.229 521.044 857.725 521.044 855.763V850.547C521.044 848.584 520.884 847.091 520.564 846.067C520.265 845.043 519.785 844.349 519.124 843.987C518.462 843.603 517.588 843.411 516.5 843.411ZM532.265 863.155V864.051H526.089V863.155L527.849 862.931C528.084 862.888 528.255 862.845 528.361 862.803C528.468 862.739 528.564 862.6 528.649 862.387C528.735 862.173 528.852 861.832 529.001 861.363L535.113 842.291H537.865L544.009 861.363C544.159 861.832 544.276 862.173 544.361 862.387C544.447 862.6 544.543 862.739 544.649 862.803C544.777 862.845 544.948 862.888 545.161 862.931L546.921 863.155V864.051H538.089V863.155L539.849 862.931C540.191 862.888 540.372 862.803 540.393 862.675C540.436 862.525 540.34 862.088 540.105 861.363L538.889 857.395H531.497L530.249 861.363C530.036 862.088 529.94 862.525 529.961 862.675C529.983 862.803 530.164 862.888 530.505 862.931L532.265 863.155ZM531.881 856.275H538.537L535.241 845.651L531.881 856.275ZM558.741 863.155V864.051H549.973V863.155L551.733 862.931C552.074 862.888 552.277 862.803 552.341 862.675C552.405 862.525 552.437 862.088 552.437 861.363V854.739L547.349 844.979C547.093 844.488 546.901 844.147 546.773 843.955C546.645 843.741 546.517 843.603 546.389 843.539C546.282 843.475 546.122 843.432 545.909 843.411L544.149 843.187V842.291H553.269V843.187L551.509 843.411C551.189 843.453 551.029 843.549 551.029 843.699C551.029 843.827 551.199 844.253 551.541 844.979L555.669 853.235L559.957 844.979C560.319 844.275 560.49 843.848 560.469 843.699C560.469 843.549 560.309 843.453 559.989 843.411L558.229 843.187V842.291H564.469V843.187L562.709 843.411C562.495 843.432 562.325 843.475 562.197 843.539C562.09 843.603 561.973 843.741 561.845 843.955C561.738 844.147 561.557 844.488 561.301 844.979L556.277 854.675V861.363C556.277 862.088 556.309 862.525 556.373 862.675C556.437 862.803 556.639 862.888 556.981 862.931L558.741 863.155ZM594.149 858.547H595.045V864.051H579.845V863.155L581.605 862.931C581.946 862.888 582.149 862.803 582.213 862.675C582.277 862.525 582.309 862.088 582.309 861.363V844.979C582.309 844.253 582.277 843.827 582.213 843.699C582.149 843.549 581.946 843.453 581.605 843.411L579.845 843.187V842.291H588.613V843.187L586.853 843.411C586.511 843.453 586.309 843.549 586.245 843.699C586.181 843.827 586.149 844.253 586.149 844.979V862.931H591.397C591.909 862.931 592.271 862.92 592.485 862.899C592.698 862.856 592.837 862.781 592.901 862.675C592.986 862.547 593.061 862.355 593.125 862.099L594.149 858.547ZM596.876 843.187V842.291H605.644V843.187L603.884 843.411C603.543 843.453 603.34 843.549 603.276 843.699C603.212 843.827 603.18 844.253 603.18 844.979V861.363C603.18 862.088 603.212 862.525 603.276 862.675C603.34 862.803 603.543 862.888 603.884 862.931L605.644 863.155V864.051H596.876V863.155L598.636 862.931C598.977 862.888 599.18 862.803 599.244 862.675C599.308 862.525 599.34 862.088 599.34 861.363V844.979C599.34 844.253 599.308 843.827 599.244 843.699C599.18 843.549 598.977 843.453 598.636 843.411L596.876 843.187ZM624.599 844.979L618.551 864.051H615.799L609.719 844.979C609.57 844.488 609.453 844.147 609.367 843.955C609.282 843.741 609.186 843.603 609.079 843.539C608.973 843.475 608.802 843.432 608.567 843.411L606.807 843.187V842.291H615.703V843.187L613.943 843.411C613.602 843.453 613.421 843.549 613.399 843.699C613.378 843.827 613.474 844.253 613.687 844.979L618.551 860.243L623.351 844.979C623.586 844.253 623.682 843.827 623.639 843.699C623.618 843.549 623.437 843.453 623.095 843.411L621.335 843.187V842.291H627.479V843.187L625.719 843.411C625.506 843.432 625.346 843.475 625.239 843.539C625.133 843.603 625.037 843.741 624.951 843.955C624.866 844.147 624.749 844.488 624.599 844.979ZM628.626 843.187V842.291H637.394V843.187L635.634 843.411C635.293 843.453 635.09 843.549 635.026 843.699C634.962 843.827 634.93 844.253 634.93 844.979V861.363C634.93 862.088 634.962 862.525 635.026 862.675C635.09 862.803 635.293 862.888 635.634 862.931L637.394 863.155V864.051H628.626V863.155L630.386 862.931C630.727 862.888 630.93 862.803 630.994 862.675C631.058 862.525 631.09 862.088 631.09 861.363V844.979C631.09 844.253 631.058 843.827 630.994 843.699C630.93 843.549 630.727 843.453 630.386 843.411L628.626 843.187ZM653.661 843.187V842.291H659.869V843.187L658.109 843.411C657.768 843.453 657.565 843.549 657.501 843.699C657.437 843.827 657.405 844.253 657.405 844.979V864.051H655.645L643.901 845.075V861.363C643.901 862.088 643.933 862.525 643.997 862.675C644.061 862.803 644.264 862.888 644.605 862.931L646.365 863.155V864.051H640.157V863.155L641.917 862.931C642.259 862.888 642.461 862.803 642.525 862.675C642.589 862.525 642.621 862.088 642.621 861.363V844.979C642.621 844.253 642.589 843.827 642.525 843.699C642.461 843.549 642.259 843.453 641.917 843.411L640.157 843.187V842.291H646.589L656.125 857.619V844.979C656.125 844.253 656.093 843.827 656.029 843.699C655.965 843.549 655.763 843.453 655.421 843.411L653.661 843.187ZM672.302 855.091V854.195H681.39V855.091L679.63 855.315C679.289 855.357 679.086 855.453 679.022 855.603C678.958 855.731 678.926 856.157 678.926 856.883V864.051H678.062C677.486 863.453 676.846 862.952 676.142 862.547C675.566 863.059 674.883 863.496 674.094 863.859C673.305 864.2 672.345 864.371 671.214 864.371C669.465 864.371 667.961 863.933 666.702 863.059C665.465 862.163 664.515 860.936 663.854 859.379C663.193 857.8 662.862 856.008 662.862 854.003V851.987C662.862 850.045 663.193 848.328 663.854 846.835C664.515 845.32 665.486 844.136 666.766 843.283C668.046 842.408 669.614 841.971 671.47 841.971C673.219 841.971 674.659 842.291 675.79 842.931C676.942 843.549 677.785 844.381 678.318 845.427C678.851 846.451 679.054 847.571 678.926 848.787L675.182 849.715C675.417 847.581 675.182 845.949 674.478 844.819C673.774 843.667 672.729 843.091 671.342 843.091C668.419 843.091 666.958 845.683 666.958 850.867V855.443C666.958 860.648 668.505 863.251 671.598 863.251C672.281 863.251 672.963 863.112 673.646 862.835C674.35 862.557 674.937 862.152 675.406 861.619V856.883C675.406 856.157 675.374 855.72 675.31 855.571C675.246 855.421 675.043 855.336 674.702 855.315L672.302 855.091Z" fill="#350E61"/>
<path d="M714 853.051H814" stroke="#CC933A" stroke-width="3"/>
</svg>
