<svg width="285" height="301" viewBox="0 0 285 301" fill="none" xmlns="http://www.w3.org/2000/svg">
<path d="M143.815 15.8377C145.899 15.8377 147.99 15.7521 150.071 15.8575C152.807 15.9991 155.547 16.1966 158.263 16.549C161.688 16.9902 165.119 17.4808 168.494 18.1953C172.033 18.9428 175.52 19.9438 179.011 20.8986C183.894 22.2322 188.566 24.1518 193.176 26.2131C197.084 27.9615 200.845 30.0063 204.529 32.196C210.301 35.627 215.705 39.5716 220.805 43.918C225.359 47.8001 229.6 52.0181 233.568 56.5061C239.333 63.0322 244.243 70.161 248.566 77.7013C251.16 82.2255 253.475 86.8978 255.369 91.7645C256.422 94.4744 257.509 97.1711 258.467 99.9172C259.824 103.806 260.884 107.78 261.816 111.794C262.774 115.913 263.511 120.072 264.022 124.267C264.397 127.369 264.806 130.467 264.829 133.605C264.838 135.083 265.043 136.559 265.076 138.037C265.164 142.318 264.904 146.585 264.516 150.849C264.15 154.843 263.594 158.804 262.833 162.739C261.477 169.762 259.481 176.605 256.88 183.262C255.464 186.891 253.933 190.48 252.112 193.928C249.886 198.149 247.552 202.308 244.911 206.295C241.602 211.29 238.013 216.074 234.038 220.543C231.236 223.694 228.352 226.776 225.194 229.607C221.391 233.019 217.502 236.308 213.377 239.318C208.447 242.917 203.284 246.147 197.865 248.942C192.3 251.814 186.571 254.319 180.611 256.275C173.815 258.501 166.887 260.151 159.804 261.138C158.935 261.26 158.062 261.362 157.19 261.445C156.867 261.474 156.531 261.455 156.215 261.392C155.807 261.31 155.55 261.02 155.454 260.615C155.356 260.203 155.553 259.657 155.932 259.476C156.271 259.314 156.65 259.212 157.022 259.153C159.024 258.824 161.036 258.55 163.034 258.198C169.751 257.009 176.301 255.218 182.702 252.854C187.344 251.138 191.865 249.166 196.238 246.861C201.049 244.326 205.688 241.514 210.13 238.366C213.492 235.985 216.729 233.447 219.843 230.763C223.541 227.573 227.008 224.145 230.288 220.513C233.311 217.168 236.146 213.687 238.803 210.055C241.951 205.755 244.796 201.257 247.321 196.565C249.27 192.94 251.111 189.255 252.678 185.446C254.516 180.977 256.113 176.423 257.397 171.761C258.842 166.516 260.005 161.211 260.67 155.814C261.045 152.769 261.177 149.697 261.483 146.641C261.76 143.905 261.796 141.162 261.707 138.422C261.618 135.683 261.444 132.943 261.184 130.217C260.89 127.161 260.492 124.115 260.071 121.073C259.837 119.39 259.458 117.728 259.135 116.058C258.302 111.741 257.18 107.497 255.82 103.322C254.496 99.2521 252.978 95.2515 251.259 91.3265C248.342 84.6753 244.855 78.3401 240.858 72.2815C238.135 68.1557 235.145 64.2341 231.911 60.4903C229.613 57.8297 227.272 55.2219 224.743 52.782C220.038 48.2414 215.036 44.0596 209.679 40.2993C204.954 36.9836 200.025 34.0102 194.832 31.4913C188.151 28.248 181.253 25.6039 174.048 23.7337C168.51 22.298 162.903 21.2971 157.236 20.6056C154.954 20.3257 152.636 20.3553 150.347 20.1084C147.114 19.7561 143.877 19.7857 140.647 19.9042C136.979 20.0392 133.304 20.171 129.663 20.7373C126.735 21.1917 123.805 21.6 120.887 22.1038C116.663 22.8315 112.504 23.8522 108.428 25.166C104.931 26.2921 101.454 27.5038 98.0459 28.8736C93.8181 30.5693 89.7088 32.5483 85.7608 34.8301C83.0081 36.4238 80.2718 38.057 77.6146 39.8054C73.2123 42.703 69.047 45.9299 65.0694 49.3905C61.2136 52.7458 57.6245 56.3777 54.1738 60.1314C49.7846 64.9058 45.9189 70.0984 42.3628 75.5215C38.3786 81.5966 34.9904 87.9811 32.1751 94.6785C29.8966 100.102 27.9638 105.637 26.538 111.346C25.4613 115.66 24.6118 120.023 24.0783 124.438C23.8083 126.671 23.6305 128.91 23.3671 131.142C22.837 135.63 23.107 140.131 23.0642 144.626C23.0379 147.263 23.3968 149.874 23.6437 152.495C24.0619 156.924 24.7402 161.317 25.6951 165.656C26.3306 168.547 27.055 171.419 27.9209 174.254C28.9121 177.513 30.0019 180.734 31.2861 183.885C33.4 189.071 35.8103 194.115 38.642 198.959C40.97 202.943 43.4724 206.809 46.2482 210.493C49.1227 214.309 52.1356 218.004 55.5106 221.395C56.2844 222.172 56.9528 223.052 57.7332 223.819C64.4536 230.408 71.7042 236.321 79.6923 241.329C82.8566 243.315 86.0868 245.195 89.4157 246.868C96.2909 250.319 103.37 253.266 110.815 255.317C115.158 256.512 119.534 257.526 123.963 258.32C125.257 258.55 126.571 258.666 127.871 258.867C128.408 258.949 128.958 259.048 129.458 259.248C130.084 259.499 130.341 260.049 130.186 260.556C130.045 261.023 129.656 261.306 129.03 261.287C128.207 261.264 127.381 261.231 126.571 261.102C121.856 260.355 117.157 259.518 112.534 258.3C107.005 256.841 101.572 255.096 96.3271 252.828C89.7252 249.97 83.3209 246.72 77.2491 242.824C72.0203 239.469 67.0516 235.775 62.3199 231.761C58.4247 228.455 54.7994 224.853 51.3519 221.092C47.3809 216.766 43.7194 212.182 40.4168 207.309C37.5818 203.124 34.9344 198.827 32.6493 194.323C30.542 190.167 28.5795 185.936 27.0056 181.53C25.4349 177.135 23.9927 172.706 22.9094 168.162C21.813 163.565 20.9964 158.923 20.3839 154.24C19.9855 151.195 19.7418 148.132 19.6694 145.06C19.6398 143.747 19.4653 142.436 19.4488 141.119C19.4027 137.112 19.6562 133.121 19.9756 129.127C20.3181 124.856 20.9272 120.622 21.7438 116.42C22.8205 110.866 24.2397 105.393 26.1165 100.056C27.5357 96.0187 29.1524 92.0575 30.97 88.1754C34.0981 81.4945 37.8781 75.2021 42.0697 69.1501C44.2594 65.9924 46.6466 62.9861 49.1162 60.0425C51.6252 57.056 54.2857 54.2209 57.0549 51.4781C59.7846 48.7715 62.6591 46.2361 65.6258 43.7929C69.317 40.7537 73.1365 37.8989 77.1602 35.3207C81.1806 32.7458 85.2636 30.273 89.6199 28.2875C92.0663 27.1713 94.4503 25.9102 96.9429 24.9223C100.255 23.6118 103.627 22.4265 107.015 21.3267C112.504 19.542 118.125 18.2743 123.818 17.3425C127.282 16.7762 130.772 16.4271 134.269 16.0913C137.45 15.7883 140.627 15.8608 143.805 15.8476L143.815 15.8377Z" fill="#45137D"/>
<path d="M122.489 126.558C121.508 127.881 121.077 129.189 120.659 130.479C119.476 134.157 118.762 137.918 118.867 141.803C118.884 142.353 118.884 142.9 118.867 143.449C118.716 147.839 119.523 152.09 120.889 156.228C122.246 160.334 124.369 164.039 127.264 167.272C128.469 168.622 129.684 169.969 130.981 171.227C132.433 172.639 133.981 173.956 135.492 175.313C136.121 175.876 136.371 176.363 136.088 176.475C135.575 176.68 135.288 176.245 134.952 176.008C131.729 173.703 128.261 171.813 124.758 169.985C123.105 169.123 121.426 168.3 119.819 167.355C110.981 162.149 105.199 154.589 102.493 144.694C101.281 140.262 100.826 135.741 101.123 131.164C101.373 127.315 102.147 123.555 103.372 119.897C104.863 115.442 106.958 111.283 109.875 107.585C110.787 106.429 111.824 105.343 112.947 104.391C114.883 102.748 117.125 102.258 119.562 103.176C120.711 103.608 121.673 104.342 122.473 105.27C123.77 106.778 124.834 108.438 125.581 110.285C126.22 111.859 126.846 113.443 127.422 115.043C128.92 119.205 130.968 123.061 133.754 126.512C135.604 128.803 137.853 130.618 140.369 132.126C141.738 132.946 143.174 133.614 144.689 134.134C145.769 134.506 146.776 134.493 147.883 134.082C152.022 132.541 155.311 129.893 158.041 126.495C160.573 123.341 162.387 119.781 163.816 116.015C164.573 114.016 165.212 111.964 166.266 110.088C167.076 108.642 168.024 107.325 169.44 106.377C171.063 105.29 172.818 105.178 174.652 105.478C175.486 105.616 176.174 106.11 176.809 106.634C177.873 107.509 178.821 108.494 179.568 109.663C182.7 114.549 184.554 119.907 185.426 125.613C185.831 128.27 186.137 130.937 186.081 133.637C185.92 141.51 183.846 148.803 179.453 155.372C176.457 159.857 172.67 163.565 168.037 166.35C165.64 167.789 163.177 169.126 160.714 170.45C157.517 172.168 154.412 174.016 151.587 176.307C151.462 176.41 151.324 176.531 151.175 176.568C151.04 176.6 150.81 176.568 150.754 176.482C150.688 176.383 150.718 176.146 150.8 176.044C151.037 175.748 151.32 175.481 151.594 175.211C153.194 173.63 154.834 172.086 156.391 170.463C157.87 168.919 159.331 167.348 160.678 165.692C164.685 160.753 167 155.066 167.863 148.79C168.752 142.3 168.495 135.876 166.635 129.557C166.533 129.212 166.348 128.892 166.157 128.451C165.897 128.682 165.719 128.8 165.588 128.958C163.572 131.322 161.156 133.193 158.498 134.776C155.861 136.35 152.977 137.223 149.987 137.697C142.097 138.948 134.982 136.973 128.561 132.31C126.641 130.917 124.969 129.261 123.441 127.45C123.207 127.174 122.911 126.946 122.502 126.568L122.489 126.558Z" fill="#45137D"/>
<path d="M111.742 181.007C110.85 179.74 109.822 179.088 108.802 178.475C106.968 177.379 105.097 176.338 103.207 175.341C101.018 174.185 98.9169 172.904 96.9512 171.396C94.9261 169.842 93.2699 167.952 91.9495 165.775C91.1165 164.402 90.537 162.924 90.3789 161.31C90.3361 160.882 90.3427 160.428 90.4415 160.01C90.7213 158.801 91.7651 158.205 92.9472 158.568C93.3588 158.696 93.7572 158.91 94.1194 159.15C94.8043 159.605 95.4596 160.105 96.1214 160.593C100.208 163.612 104.571 166.101 109.477 167.547C111.159 168.041 112.825 168.597 114.518 169.065C117.432 169.875 120.27 170.912 122.99 172.216C125.963 173.642 128.713 175.449 131.143 177.715C133.563 179.974 135.657 182.483 137.346 185.344C139.328 188.696 140.553 192.305 141.274 196.105C141.88 199.299 142.084 202.529 141.907 205.765C141.798 207.731 141.511 209.69 141.268 211.646C141.153 212.578 140.902 212.805 140.003 212.822C138.854 212.838 137.695 212.838 136.549 212.746C131.946 212.371 127.415 211.567 122.96 210.359C118.291 209.094 113.754 207.474 109.417 205.308C106.322 203.76 103.276 202.137 100.385 200.234C94.9031 196.625 89.9772 192.361 85.5748 187.507C80.4151 181.821 76.2894 175.43 73.0197 168.495C70.0497 162.196 68.13 155.581 67.264 148.67C67.162 147.86 67.1389 147.02 67.2147 146.21C67.3628 144.616 68.7359 143.918 70.053 144.827C70.8465 145.377 71.5577 146.121 72.1175 146.915C73.0625 148.255 73.9285 149.664 74.699 151.116C76.7602 154.995 78.9828 158.775 81.5544 162.338C82.7398 163.981 84.0042 165.575 85.3213 167.112C87.7875 169.997 90.5765 172.549 93.6354 174.797C96.7075 177.056 100.04 178.824 103.695 179.941C105.799 180.583 107.959 180.958 110.158 181.093C110.583 181.119 111.014 181.05 111.745 181.007H111.742Z" fill="#45137D"/>
<path d="M174.915 180.869C175.199 180.984 175.337 181.093 175.475 181.089C176.298 181.079 177.121 181.076 177.938 181.01C183.651 180.559 188.613 178.225 193.124 174.836C196.292 172.456 199.081 169.674 201.59 166.598C205.004 162.41 207.839 157.863 210.315 153.078C211.148 151.471 211.981 149.861 212.894 148.3C213.443 147.359 214.115 146.483 214.807 145.633C215.142 145.222 215.607 144.873 216.081 144.616C217.029 144.106 217.971 144.488 218.359 145.479C218.606 146.104 218.623 146.753 218.541 147.421C217.704 154.214 215.959 160.754 213.249 167.049C211.267 171.652 208.916 176.045 206.104 180.177C204.596 182.397 202.887 184.481 201.221 186.588C199.14 189.219 196.749 191.577 194.273 193.819C190.24 197.467 185.9 200.711 181.162 203.424C176.18 206.279 170.925 208.458 165.426 210.049C161.102 211.3 156.7 212.222 152.189 212.508C150.549 212.614 148.909 212.729 147.27 212.828C146.888 212.851 146.499 212.848 146.117 212.815C145.406 212.759 145.126 212.532 144.948 211.873C144.876 211.61 144.846 211.336 144.803 211.063C143.984 205.699 143.957 200.355 145.228 195.05C146.078 191.508 147.398 188.156 149.367 185.067C150.849 182.742 152.485 180.556 154.491 178.663C157.507 175.818 160.882 173.523 164.675 171.81C167.839 170.381 171.129 169.344 174.454 168.409C176.944 167.711 179.364 166.832 181.725 165.791C184.448 164.59 186.924 162.96 189.337 161.238C190.23 160.602 191.096 159.924 192.011 159.321C192.508 158.995 193.062 158.709 193.628 158.544C194.632 158.251 195.475 158.702 195.91 159.66C196.14 160.171 196.272 160.714 196.117 161.261C195.837 162.262 195.594 163.282 195.195 164.237C194.01 167.089 192.084 169.387 189.683 171.294C187.312 173.177 184.718 174.705 182.054 176.14C180.319 177.076 178.636 178.116 176.944 179.13C176.2 179.575 175.597 180.194 174.905 180.865L174.915 180.869Z" fill="#45137D"/>
<path d="M258.835 140.878C258.835 142.113 258.881 144.309 258.819 146.502C258.773 148.089 258.605 149.673 258.453 151.257C258.065 155.245 257.436 159.199 256.566 163.111C255.282 168.903 253.646 174.589 251.469 180.121C250.024 183.802 248.437 187.414 246.675 190.951C245.134 194.043 243.448 197.062 241.588 199.979C240.468 201.738 239.385 203.522 238.17 205.211C236.441 207.615 234.63 209.96 232.81 212.294C230.85 214.803 228.71 217.154 226.458 219.41C225.375 220.493 224.41 221.701 223.3 222.758C221.713 224.27 220.047 225.699 218.404 227.151C217.294 228.132 216.218 229.153 215.045 230.055C212.787 231.794 210.511 233.519 208.17 235.146C205.829 236.769 203.409 238.287 200.995 239.805C199.836 240.536 198.631 241.194 197.416 241.833C193.093 244.105 188.733 246.301 184.166 248.056C177.904 250.467 171.516 252.429 164.901 253.608C162.471 254.042 160.037 254.461 157.597 254.836C156.962 254.935 156.297 254.866 155.645 254.833C155.546 254.826 155.394 254.596 155.388 254.464C155.381 254.332 155.49 254.131 155.605 254.065C155.786 253.96 156.017 253.917 156.231 253.888C157.531 253.693 158.839 253.529 160.139 253.318C162.52 252.933 164.917 252.613 167.275 252.103C174.104 250.625 180.722 248.488 187.136 245.699C192.227 243.486 197.166 240.977 201.881 238.06C205.566 235.781 209.158 233.361 212.569 230.671C214.769 228.939 216.883 227.115 219.036 225.333C219.375 225.053 219.688 224.747 220.001 224.438C221.68 222.778 223.359 221.122 225.026 219.452C228.206 216.265 231.143 212.87 233.883 209.291C236.29 206.153 238.585 202.946 240.653 199.574C243.264 195.314 245.664 190.944 247.735 186.394C249.51 182.492 251.038 178.498 252.434 174.451C253.112 172.482 253.669 170.467 254.183 168.448C255.144 164.675 256.122 160.901 256.642 157.032C256.978 154.533 257.255 152.028 257.535 149.518C258.147 144.046 257.93 138.554 257.758 133.075C257.643 129.41 257.123 125.758 256.524 122.13C255.756 117.47 254.739 112.867 253.488 108.313C252.19 103.598 250.488 99.0214 248.615 94.5071C246.214 88.7152 243.303 83.19 240.03 77.8459C236.758 72.5019 233.103 67.4344 229.03 62.6698C226.175 59.3277 223.106 56.1865 219.882 53.2099C216.458 50.0488 212.829 47.1183 209.056 44.3755C204.16 40.8194 198.987 37.7176 193.574 35.0275C185.279 30.9083 176.619 27.8329 167.522 26.0021C163.86 25.2646 160.189 24.6192 156.484 24.1879C154.308 23.9376 152.112 23.8718 149.922 23.7598C147.624 23.6446 145.319 23.4635 143.02 23.5129C140.064 23.5754 137.11 23.829 134.16 24.0232C132.793 24.1121 131.43 24.257 130.067 24.3821C127.113 24.6554 124.199 25.1823 121.292 25.7519C116.603 26.6706 111.967 27.7901 107.43 29.3014C100.956 31.4549 94.7032 34.1253 88.7302 37.4147C84.8876 39.5319 81.1569 41.8401 77.558 44.3656C73.8241 46.9866 70.3469 49.9171 66.8764 52.8608C63.857 55.4226 61.0747 58.2312 58.4108 61.142C55.8985 63.8881 53.4158 66.6804 51.2459 69.7228C49.6522 71.9553 47.9499 74.112 46.4254 76.3873C44.3806 79.4396 42.5103 82.6039 40.7355 85.8275C37.0675 92.4887 34.2291 99.489 31.9374 106.723C30.3108 111.86 29.188 117.115 28.3648 122.436C27.8446 125.798 27.5318 129.176 27.2848 132.571C27.0938 135.205 27.0807 137.829 27.051 140.46C27.0148 143.592 27.3375 146.7 27.591 149.815C27.8676 153.213 28.3912 156.568 28.997 159.914C29.7214 163.911 30.6467 167.862 31.8485 171.744C32.3523 173.368 32.9121 174.974 33.4586 176.588C34.6572 180.124 36.0401 183.585 37.7293 186.92C38.918 189.268 40.0737 191.636 41.3249 193.95C43.9888 198.883 47.074 203.545 50.4524 208.017C54.3345 213.154 58.7237 217.823 63.3433 222.291C65.6713 224.543 68.1474 226.621 70.6268 228.702C73.07 230.75 75.6647 232.597 78.2923 234.382C81.2853 236.41 84.3146 238.409 87.5415 240.068C89.8826 241.273 92.1875 242.551 94.5517 243.71C99.9353 246.347 105.566 248.349 111.302 250.068C116.468 251.619 121.746 252.61 127.054 253.47C127.92 253.611 128.793 253.693 129.659 253.835C129.981 253.888 130.317 254.006 130.363 254.411C130.396 254.698 129.962 254.968 129.458 254.902C127.719 254.678 125.974 254.474 124.245 254.161C122.033 253.763 119.836 253.279 117.634 252.811C113.116 251.853 108.724 250.46 104.377 248.916C99.9781 247.352 95.7009 245.495 91.5389 243.377C87.5777 241.359 83.7483 239.113 80.0012 236.713C76.0203 234.164 72.2765 231.306 68.5788 228.376C67.5053 227.526 66.4747 226.614 65.4704 225.682C63.5014 223.855 61.5159 222.041 59.6226 220.137C57.3802 217.882 55.2498 215.521 53.2742 213.025C51.8122 211.175 50.268 209.39 48.8521 207.507C45.0852 202.498 41.7695 197.204 38.8949 191.629C37.0082 187.968 35.3322 184.22 33.7912 180.401C30.4886 172.209 28.3846 163.707 27.1235 154.991C26.725 152.232 26.4089 149.453 26.2344 146.654C26.0467 143.634 25.9809 140.625 26.0369 137.612C26.1093 133.723 26.2805 129.831 26.86 125.972C27.2025 123.697 27.4363 121.399 27.8676 119.14C28.4109 116.285 29.0563 113.447 29.7379 110.625C30.8508 106.032 32.4149 101.573 34.2094 97.2104C35.5034 94.0692 36.8304 90.9411 38.4504 87.9381C39.3625 86.2523 40.2581 84.5565 41.1965 82.8838C43.6463 78.5242 46.4188 74.3754 49.4151 70.3781C51.4863 67.6122 53.6957 64.9583 55.9775 62.3603C58.9179 59.0149 62.0723 55.8901 65.3157 52.8542C68.7631 49.6307 72.4971 46.7495 76.3232 43.9804C79.5303 41.6623 82.8889 39.5846 86.3034 37.5991C89.3393 35.8342 92.5003 34.3064 95.6778 32.8049C99.5599 30.9709 103.584 29.5188 107.64 28.1753C112.016 26.7265 116.501 25.6531 121.022 24.7246C124.519 24.0035 128.048 23.5063 131.595 23.1474C133.939 22.9103 136.307 22.9333 138.651 22.6864C140.9 22.446 143.146 22.4032 145.388 22.4822C148.345 22.5843 151.295 22.8148 154.249 23.0157C155.398 23.0947 156.537 23.256 157.683 23.3581C162.286 23.7697 166.777 24.7707 171.272 25.8013C177.502 27.227 183.498 29.3508 189.342 31.8895C193.116 33.526 196.751 35.4687 200.32 37.5234C205.184 40.3222 209.757 43.5424 214.16 46.9998C216.441 48.791 218.598 50.7502 220.752 52.6995C222.214 54.0232 223.577 55.4621 224.973 56.8582C228.786 60.6646 232.24 64.7772 235.407 69.1334C238.249 73.0419 240.92 77.0623 243.205 81.3264C243.62 82.1001 244.087 82.8443 244.495 83.6214C245.361 85.271 246.227 86.924 247.054 88.5934C249.467 93.4699 251.486 98.511 253.155 103.684C255.348 110.483 256.962 117.424 257.923 124.51C258.618 129.627 259.066 134.757 258.838 140.885L258.835 140.878Z" fill="#CC933A"/>
<path d="M213.491 137.371C213.455 136.637 213.425 136.262 213.418 135.886C213.402 134.461 213.435 133.031 213.379 131.606C213.152 125.942 212.401 120.361 210.715 114.922C209.984 112.561 209.25 110.206 208.265 107.938C206.672 104.26 204.851 100.7 202.73 97.289C200.725 94.0622 198.394 91.079 195.901 88.2374C194.245 86.3473 192.361 84.645 190.508 82.9361C189.181 81.7112 187.752 80.595 186.342 79.4623C183.511 77.187 180.425 75.297 177.254 73.5354C172.039 70.6411 166.474 68.6227 160.728 67.108C157.92 66.3671 155.068 65.8107 152.164 65.511C149 65.1851 145.839 64.9052 142.651 64.9315C138.581 64.9644 134.558 65.4221 130.544 66.0445C126.738 66.6371 123.027 67.6217 119.372 68.8103C117.6 69.3866 115.849 70.0484 114.143 70.7991C111.031 72.1689 107.91 73.5354 105.022 75.353C101.631 77.4866 98.3083 79.6993 95.2889 82.3664C93.4351 84.0029 91.6504 85.6987 89.9349 87.4767C86.8002 90.7234 84.0607 94.2729 81.6801 98.1155C79.5365 101.576 77.6695 105.172 76.1351 108.939C74.143 113.838 72.7963 118.929 71.9633 124.141C71.6439 126.137 71.5517 128.178 71.4792 130.2C71.3969 132.61 71.4562 135.027 71.4331 137.44C71.4298 137.905 71.5648 138.415 71.094 138.952C70.982 138.682 70.8602 138.514 70.847 138.336C70.633 135.547 70.4058 132.765 70.4486 129.963C70.4782 127.98 70.6593 126.018 70.8799 124.059C71.4496 119.024 72.5823 114.115 74.2616 109.334C76.145 103.98 78.5882 98.9058 81.7591 94.1873C83.873 91.0428 86.1878 88.0661 88.7199 85.2377C90.7054 83.0184 92.9016 81.0658 95.1506 79.133C98.3675 76.3671 101.851 73.9865 105.509 71.8759C108.838 69.9562 112.286 68.2736 115.898 66.9236C119.816 65.4584 123.81 64.2829 127.913 63.5025C131.361 62.8439 134.838 62.4027 138.354 62.2315C139.994 62.1525 141.627 61.9319 143.277 61.9779C151.321 62.2019 159.237 63.2226 166.889 65.8403C173.418 68.0728 179.487 71.1877 185.121 75.2015C189.349 78.2143 193.119 81.7178 196.586 85.5406C200.284 89.617 203.408 94.1182 205.937 99.0276C207.702 102.449 209.316 105.926 210.517 109.584C211.874 113.71 212.862 117.908 213.494 122.215C214.146 126.64 214.103 131.072 214.041 135.514C214.034 136.041 214.103 136.604 213.478 137.375L213.491 137.371Z" fill="#CC933A"/>
<path d="M124.023 84.556C124.339 84.5165 124.764 84.4704 125.192 84.4144C127.003 84.1839 128.787 84.1543 130.559 84.7404C133.279 85.6426 135.172 87.4503 136.371 89.989C139.41 96.4164 134.576 103.769 127.892 103.93C122.926 104.052 118.86 101.306 117.599 95.9916C117.398 95.152 117.411 94.2563 117.362 93.3838C117.322 92.6758 117.237 92.5474 116.585 92.3301C115.86 92.0864 115.103 91.8922 114.441 91.5267C112.241 90.3117 111.303 88.2735 111.431 85.8961C111.59 82.9459 113.196 80.9834 115.952 80.0549C118.705 79.1296 121.78 80.6936 122.989 82.936C123.249 83.4167 123.506 83.8942 123.773 84.3716C123.796 84.4144 123.858 84.4375 124.023 84.556Z" fill="#45137D"/>
<path d="M174.597 96.9136C174.567 102.389 170.043 106.835 164.564 106.749C159.552 106.67 154.84 102.551 154.893 96.8544C154.952 90.7101 159.845 87.1376 164.636 87.0256C170.119 86.8972 174.626 91.4543 174.597 96.9103V96.9136Z" fill="#45137D"/>
<path d="M146.223 175.182C146.562 174.796 146.852 174.421 147.191 174.092C149.279 172.06 151.205 169.88 152.983 167.582C155.074 164.882 156.822 161.971 158.014 158.751C158.63 157.088 158.933 155.336 158.946 153.591C158.963 151.346 158.271 149.261 156.766 147.523C155.917 146.542 154.817 145.923 153.586 145.567C148.419 144.077 146.379 146.525 143.58 150.147C142.922 149.159 142.077 148.115 141.139 147.305C138.854 145.323 136.24 144.691 133.332 145.699C131.208 146.436 129.914 148.03 129.121 150.048C128.406 151.872 128.304 153.782 128.591 155.718C129.032 158.705 130.23 161.395 131.791 163.944C133.487 166.713 135.463 169.265 137.748 171.583C138.751 172.6 139.629 173.855 140.602 175.089C137.983 173.361 134.967 170.366 132.651 168.05C130.431 165.83 128.568 163.311 127.036 160.572C125.281 157.427 124.527 154.039 124.801 150.437C125.084 146.7 127.794 142.613 132.031 141.589C133.507 141.234 134.955 141.204 136.421 141.603C139.829 142.527 141.833 145.318 143.58 148.172C144.733 145.867 145.713 144.537 147.359 143.265C149.984 141.238 154.093 140.513 157.428 142.396C159.743 143.703 161.294 145.554 162.068 148.109C162.7 150.206 162.808 152.284 162.427 154.444C161.959 157.091 160.905 159.495 159.489 161.724C157.991 164.082 156.305 166.314 154.32 168.313C153.231 169.406 148.849 174.092 146.226 175.185L146.223 175.182Z" fill="#CC933A"/>
<path d="M150.184 252.324C150.128 253.753 149.509 255.017 148.525 256.1C147.826 256.871 147.069 257.592 146.302 258.3C145.416 259.12 144.504 259.907 143.589 260.691C143.088 261.122 142.772 261.132 142.285 260.691C140.741 259.294 139.209 257.882 137.678 256.469C136.941 255.788 136.437 254.945 136.042 254.026C135.752 253.354 135.65 252.66 135.699 251.935C135.897 249.182 138.446 247.559 141.024 248.563C141.481 248.741 141.913 248.998 142.328 249.262C142.861 249.601 143.352 249.591 143.839 249.192C144.494 248.656 145.232 248.346 146.091 248.307C148.189 248.208 149.805 249.515 150.122 251.596C150.154 251.813 150.158 252.034 150.177 252.32L150.184 252.324Z" fill="#CC933A"/>
<path d="M52.8249 175.038C51.5048 175.204 49.9714 174.098 49.8281 172.802C49.6668 171.342 50.4199 170.063 52.1959 169.857C53.5694 169.695 54.8012 170.679 54.9756 172.048C55.1656 173.527 54.2067 174.862 52.8249 175.038Z" fill="#CC933A"/>
<path d="M230.971 172.651C230.778 171.234 231.757 170.02 233.275 169.789C234.693 169.576 235.952 170.567 236.196 172.024C236.433 173.455 234.881 174.872 233.877 174.96C232.446 175.085 231.17 174.087 230.971 172.651Z" fill="#CC933A"/>
<path d="M59.6438 149.401C59.4575 148.23 59.0307 147.308 58.3633 146.634C57.6733 145.944 56.7332 145.693 55.543 145.883C54.665 146.022 53.9753 146.402 53.4738 147.022C52.9692 147.623 52.6274 148.617 52.4483 150.006L52.062 152.858C51.8696 154.289 51.3349 155.455 50.4578 156.354C49.5581 157.238 48.3571 157.799 46.8548 158.038C45.8597 158.196 44.8973 158.119 43.9674 157.807C43.0344 157.476 42.23 156.883 41.5542 156.031C40.8752 155.159 40.4209 154.001 40.1911 152.557C39.9396 150.976 40.0289 149.652 40.459 148.583C40.8695 147.518 41.5023 146.717 42.3572 146.181C43.2121 145.644 44.1819 145.39 45.2665 145.418L46.4167 148.685C44.5525 148.662 43.1792 149.021 42.2968 149.761C41.4113 150.482 41.071 151.487 41.276 152.774C41.4343 153.769 41.8543 154.523 42.5359 155.034C43.2143 155.527 44.0999 155.686 45.1925 155.512C46.09 155.369 46.8398 154.99 47.4419 154.374C48.041 153.738 48.4312 152.796 48.6125 151.547L48.9988 148.695C49.192 147.143 49.6687 145.927 50.4287 145.046C51.1692 144.168 52.3101 143.606 53.8514 143.361C54.944 143.187 55.9697 143.284 56.9284 143.652C57.8645 144.003 58.6669 144.645 59.3357 145.579C59.9818 146.497 60.4244 147.706 60.6635 149.209C60.8373 150.301 60.8458 151.36 60.6889 152.386C60.5124 153.414 60.1063 154.319 59.4705 155.1C58.8315 155.862 57.8919 156.432 56.6517 156.809L55.6372 154.96C56.8704 154.664 57.8025 154.235 58.4334 153.675C59.0418 153.098 59.4282 152.446 59.5927 151.72C59.7541 150.974 59.7711 150.201 59.6438 149.401Z" fill="#45137D"/>
<path d="M60.3388 121.974L43.7158 124.991L59.2798 131.368L58.991 133.93L40.9787 136.044C40.5161 136.092 40.1931 136.135 40.0098 136.174C39.8068 136.211 39.6692 136.284 39.5971 136.396C39.5271 136.487 39.4701 136.64 39.4262 136.854L39.0374 138.45L38.2129 138.357L39.1324 130.2L39.957 130.293L39.9805 131.936C39.9844 132.254 40.0441 132.43 40.1597 132.463C40.2753 132.496 40.6844 132.482 41.387 132.422L55.4549 130.907L39.7665 124.575L40.042 122.131L56.485 119.124L43.4086 114.488C42.7392 114.254 42.3434 114.15 42.2211 114.176C42.0989 114.202 42.0016 114.36 41.9291 114.65L41.5404 116.246L40.7159 116.153L41.3599 110.44L42.1844 110.533L42.208 112.176C42.2033 112.394 42.2248 112.556 42.2727 112.661C42.3205 112.765 42.4381 112.868 42.6256 112.969C42.7956 113.048 43.1009 113.162 43.5414 113.311L60.6309 119.382L60.3388 121.974Z" fill="#45137D"/>
<path d="M44.5875 105.205L43.8057 104.927L46.5271 97.2771L47.3089 97.5551L46.9581 99.1603C46.8894 99.4714 46.9102 99.678 47.0207 99.7802C47.1125 99.8757 47.4748 100.036 48.1077 100.261L62.403 105.346C63.0358 105.572 63.4273 105.679 63.5775 105.67C63.7091 105.654 63.8464 105.503 63.9896 105.219L64.7313 103.753L65.5131 104.031L62.7917 111.681L62.0099 111.403L62.3607 109.798C62.4294 109.487 62.4179 109.283 62.3261 109.188C62.2156 109.086 61.844 108.922 61.2111 108.697L46.9158 103.612C46.283 103.387 45.9008 103.282 45.7692 103.298C45.6191 103.308 45.4724 103.455 45.3292 103.739L44.5875 105.205Z" fill="#45137D"/>
<path d="M59.8975 84.9576L60.2995 84.2317L66.7547 87.8065L66.3527 88.5324L63.9369 87.9399C63.7008 87.8769 63.5204 87.856 63.3957 87.8773C63.2633 87.8717 63.1406 87.9505 63.0276 88.1138C62.8973 88.2675 62.7174 88.5517 62.4876 88.9665L61.0089 91.6367L67.1271 95.0249C67.7147 95.3504 68.0834 95.5206 68.2331 95.5358C68.3655 95.5414 68.5255 95.4155 68.7132 95.1581L69.9715 93.3142L70.6974 93.7162L66.4765 101.338L65.7506 100.936L66.3587 99.4097C66.4773 99.114 66.4991 98.9116 66.4241 98.8023C66.3318 98.6834 65.9919 98.4613 65.4043 98.1359L52.1309 90.7852C51.5433 90.4598 51.1833 90.2943 51.0508 90.2887C50.9011 90.2736 50.7324 90.3947 50.5447 90.6521L49.5736 91.9774L48.8478 91.5754L55.6529 79.2872L60.1119 81.7566L59.7099 82.4824L56.3729 81.7184C56.1368 81.6554 55.9564 81.6345 55.8317 81.6558C55.6993 81.6502 55.5765 81.7291 55.4636 81.8924C55.3333 82.046 55.1533 82.3303 54.9236 82.7451L52.5834 86.9708L60.1015 91.1342L61.5803 88.464C61.81 88.0492 61.9641 87.7506 62.0425 87.5682C62.1036 87.3763 62.1054 87.2304 62.0477 87.1307C61.9822 87.0041 61.8602 86.8575 61.6815 86.6908L59.8975 84.9576Z" fill="#45137D"/>
<path d="M58.6909 74.7374L69.2197 62.2956L73.1106 65.5882L72.5746 66.2216L69.451 64.8206C69.2167 64.6999 69.0363 64.6379 68.9098 64.6344C68.781 64.6031 68.6453 64.6564 68.5026 64.7945C68.3599 64.9325 68.1354 65.1825 67.8291 65.5444L65.8956 67.8292L78.5864 78.5686C79.0991 79.0025 79.4274 79.2415 79.5713 79.2856C79.7 79.3169 79.8816 79.2247 80.1159 79.0089L81.3272 77.8988L81.9606 78.4348L76.7153 84.6331L76.0819 84.0971L76.9765 82.7189C77.1505 82.4521 77.2114 82.2577 77.1592 82.1359C77.0919 82.0013 76.8019 81.7171 76.2892 81.2832L63.5984 70.5438L61.665 72.8286C61.3714 73.1755 61.162 73.4382 61.0367 73.6169C60.9242 73.7804 60.894 73.9231 60.9462 74.045C60.9833 74.154 61.0744 74.3217 61.2194 74.5479L63.1178 77.3967L62.5818 78.0301L58.6909 74.7374Z" fill="#45137D"/>
<path d="M99.6687 64.5138C98.1365 65.4916 96.6303 65.9958 95.1499 66.0266C93.659 66.0406 92.2561 65.6235 90.9413 64.7752C89.6264 63.9268 88.4589 62.7033 87.4385 61.1045L86.4342 59.5307C85.4138 57.9319 84.7679 56.3872 84.4962 54.8966C84.2306 53.3787 84.3818 51.9814 84.9499 50.7048C85.5073 49.4116 86.5271 48.292 88.0093 47.3461C89.275 46.5384 90.4919 46.1133 91.6601 46.0708C92.8177 46.0118 93.8567 46.2627 94.7772 46.8236C95.7037 47.3573 96.4366 48.1201 96.9758 49.1118L94.5154 51.7016C93.6191 49.9299 92.6311 48.7675 91.5516 48.2143C90.478 47.6338 89.4416 47.6625 88.4424 48.3002C87.3765 48.9804 86.8392 49.9561 86.8302 51.2274C86.8379 52.4881 87.506 54.1593 88.8346 56.241L91.4332 60.3129C92.7511 62.378 94.0271 63.6612 95.2612 64.1627C96.4952 64.6641 97.7784 64.4897 99.1107 63.6394C99.6603 63.2887 100.104 62.8646 100.443 62.3672C100.799 61.8591 100.98 61.2626 100.989 60.5777C101.003 59.8656 100.765 59.0332 100.274 58.0808L102.376 57.4076C102.738 58.489 102.841 59.4775 102.686 60.3732C102.531 61.269 102.184 62.0649 101.644 62.7611C101.11 63.43 100.451 64.0142 99.6687 64.5138Z" fill="#45137D"/>
<path d="M119.008 43.7623L119.635 45.5206C120.658 48.3859 120.804 50.8199 120.071 52.8226C119.351 54.8 117.744 56.2337 115.251 57.1239C112.757 58.014 110.596 57.9254 108.768 56.858C106.951 55.7654 105.532 53.7864 104.509 50.9211L103.881 49.1628C102.858 46.2975 102.707 43.8761 103.427 41.8987C104.166 39.9147 105.782 38.4776 108.276 37.5875C110.769 36.6974 112.92 36.7893 114.73 37.8633C116.559 38.9306 117.985 40.897 119.008 43.7623ZM114.937 43.6423C114.353 42.0049 113.755 40.7709 113.143 39.9403C112.526 39.091 111.846 38.568 111.104 38.3712C110.381 38.1678 109.555 38.2322 108.624 38.5643C107.713 38.8898 107.032 39.3635 106.583 39.9854C106.134 40.6073 105.939 41.4425 105.999 42.4911C106.052 43.521 106.371 44.8547 106.955 46.492L108.579 51.0412C109.157 52.6599 109.755 53.8939 110.373 54.7432C110.991 55.5924 111.674 56.1248 112.422 56.3401C113.164 56.5369 113.99 56.4725 114.902 56.147C115.832 55.8149 116.513 55.3412 116.943 54.726C117.386 54.0854 117.577 53.2409 117.518 52.1924C117.458 51.1438 117.139 49.8102 116.561 48.1914L114.937 43.6423Z" fill="#45137D"/>
<path d="M149.486 50.5609L149.54 51.3889L141.438 51.9223L141.383 51.0943L142.996 50.7803C143.309 50.7201 143.491 50.6289 143.542 50.5067C143.592 50.3648 143.595 49.9588 143.551 49.2885L142.551 34.0893L138.148 49.7631L134.984 49.9714L128.629 35.095L129.624 50.2055C129.668 50.8757 129.724 51.2779 129.792 51.412C129.859 51.5264 130.052 51.5929 130.37 51.6116L132.01 51.7115L132.064 52.5395L126.327 52.9171L126.273 52.0892L127.886 51.7751C128.198 51.7149 128.381 51.6237 128.432 51.5016C128.482 51.3597 128.485 50.9536 128.441 50.2833L127.444 35.1433C127.4 34.473 127.344 34.0807 127.277 33.9663C127.209 33.8322 127.016 33.7558 126.698 33.7371L125.058 33.6372L125.004 32.8093L131.243 32.3985L137.667 47.4188L142.154 31.6801L148.216 31.281L148.271 32.109L146.658 32.423C146.345 32.4832 146.164 32.5843 146.114 32.7262C146.062 32.8483 146.059 33.2446 146.103 33.9148L147.1 49.0549C147.144 49.7251 147.2 50.1273 147.268 50.2614C147.335 50.3758 147.528 50.4423 147.846 50.461L149.486 50.5609Z" fill="#45137D"/>
<path d="M165.874 40.8452L166.689 41.0024L165.29 48.2477L164.476 48.0905L164.29 45.6101C164.277 45.366 164.241 45.1881 164.182 45.0761C164.146 44.9485 164.033 44.8562 163.843 44.7994C163.657 44.7232 163.331 44.6401 162.865 44.5503L159.868 43.972L158.543 50.839C158.416 51.4986 158.368 51.9018 158.4 52.0488C158.436 52.1765 158.605 52.2896 158.908 52.3883L161.051 53.0131L160.894 53.8279L152.339 52.177L152.496 51.3623L154.136 51.4674C154.454 51.4885 154.653 51.4465 154.734 51.3414C154.818 51.2168 154.924 50.8247 155.051 50.1652L157.926 35.2672C158.053 34.6077 158.099 34.2141 158.063 34.0865C158.031 33.9394 157.864 33.8166 157.561 33.7179L156 33.2054L156.157 32.3907L169.95 35.0522L168.984 40.057L168.169 39.8997L167.861 36.4902C167.848 36.2462 167.812 36.0682 167.753 35.9563C167.717 35.8286 167.604 35.7364 167.414 35.6796C167.227 35.6034 166.901 35.5203 166.436 35.4305L161.693 34.5152L160.065 42.9535L163.062 43.5319C163.527 43.6217 163.859 43.6757 164.057 43.6937C164.258 43.6923 164.397 43.6488 164.474 43.563C164.574 43.4616 164.676 43.3001 164.779 43.0786L165.874 40.8452Z" fill="#45137D"/>
<path d="M188.27 51.9181L187.53 53.6322C186.324 56.4255 184.77 58.3048 182.869 59.27C180.993 60.2249 178.84 60.1777 176.41 59.1285C173.979 58.0793 172.459 56.5409 171.85 54.5133C171.266 52.4753 171.577 50.0597 172.783 47.2664L173.523 45.5523C174.729 42.759 176.27 40.8849 178.145 39.93C180.039 38.9829 182.201 39.034 184.631 40.0832C187.062 41.1324 188.573 42.6669 189.164 44.6867C189.774 46.7143 189.476 49.1248 188.27 51.9181ZM185.374 49.0544C186.063 47.4582 186.468 46.1479 186.587 45.1235C186.714 44.081 186.574 43.235 186.166 42.5854C185.776 41.9436 185.127 41.4269 184.22 41.0354C183.332 40.6518 182.511 40.5342 181.758 40.6827C181.005 40.8312 180.293 41.3092 179.622 42.1168C178.958 42.9063 178.282 44.0991 177.593 45.6953L175.679 50.1301C174.997 51.7082 174.593 53.0184 174.466 54.061C174.339 55.1035 174.475 55.9586 174.876 56.6263C175.284 57.2759 175.932 57.7926 176.821 58.1763C177.728 58.5678 178.549 58.6853 179.283 58.529C180.044 58.3624 180.76 57.8753 181.431 57.0677C182.102 56.2601 182.779 55.0673 183.46 53.4892L185.374 49.0544Z" fill="#45137D"/>
<path d="M198.361 48.1971L198.857 47.5317L206.034 52.8783C207.698 54.1176 208.704 55.4459 209.052 56.8633C209.4 58.2807 209.108 59.6152 208.176 60.8668L207.769 61.4134C207.06 62.364 206.197 62.9773 205.179 63.2532C204.16 63.5291 203.053 63.4438 201.859 62.9972L200.616 70.8662C200.546 71.3564 200.5 71.7161 200.477 71.9454C200.454 72.1746 200.464 72.3425 200.508 72.4491C200.58 72.5516 200.683 72.6777 200.818 72.8274L201.763 73.7904L201.267 74.4558L196.823 71.1452L198.723 61.1048L196.988 59.8124L192.987 65.1832C192.586 65.7219 192.368 66.0644 192.333 66.2107C192.309 66.3412 192.413 66.5167 192.643 66.7372L193.826 67.8773L193.33 68.5427L186.818 63.6918L187.314 63.0263L188.745 63.8337C189.022 63.9909 189.22 64.0396 189.338 63.98C189.468 63.9045 189.734 63.5974 190.135 63.0587L199.2 50.8911C199.601 50.3525 199.814 50.0179 199.837 49.8874C199.872 49.7411 199.774 49.5577 199.545 49.3372L198.361 48.1971ZM205.415 53.7101L202.919 51.8512L197.608 58.9806L200.103 60.8395C200.8 61.3589 201.49 61.5404 202.174 61.3841C202.884 61.2237 203.676 60.5573 204.55 59.3849L205.311 58.3631C206.184 57.1907 206.59 56.2489 206.529 55.5379C206.483 54.8387 206.112 54.2294 205.415 53.7101Z" fill="#45137D"/>
<path d="M216.735 61.7146L227.407 74.0335L223.555 77.3711L223.011 76.744L224.877 73.8733C225.032 73.6604 225.121 73.4917 225.144 73.3673C225.195 73.2449 225.163 73.1025 225.048 72.9403C224.934 72.778 224.722 72.5177 224.411 72.1593L222.451 69.8971L209.886 80.783C209.378 81.2228 209.092 81.5104 209.026 81.6458C208.975 81.7682 209.038 81.9618 209.215 82.2266L210.126 83.5943L209.499 84.1376L204.182 78.0006L204.809 77.4572L206.033 78.5533C206.27 78.7663 206.453 78.8564 206.581 78.8236C206.724 78.7779 207.05 78.5351 207.557 78.0952L220.123 67.2094L218.163 64.9472C217.865 64.6037 217.638 64.3564 217.481 64.205C217.336 64.0687 217.2 64.0169 217.072 64.0497C216.958 64.0696 216.779 64.1337 216.533 64.2422L213.426 65.6793L212.882 65.0522L216.735 61.7146Z" fill="#45137D"/>
<path d="M227.168 105.308L227.51 106.065L222.863 108.16L217.077 95.327L217.834 94.986L218.693 96.3866C218.859 96.6585 219.008 96.7971 219.14 96.8025C219.291 96.7997 219.672 96.6602 220.284 96.3841L234.117 90.148C234.729 89.8719 235.077 89.6825 235.161 89.5797C235.262 89.4689 235.266 89.2612 235.172 88.9568L234.692 87.3857L235.448 87.0446L238.785 94.4469L238.029 94.788L237.17 93.3874C237.004 93.1155 236.846 92.9809 236.695 92.9837C236.563 92.9784 236.19 93.1138 235.578 93.3899L220.422 100.223L222.42 104.653C222.615 105.086 222.762 105.388 222.861 105.56C222.978 105.724 223.094 105.812 223.208 105.826C223.349 105.849 223.54 105.839 223.78 105.796L227.168 105.308Z" fill="#CC933A"/>
<path d="M241.841 104.801L242.642 104.583L244.775 112.417L243.974 112.635L243.346 111.117C243.225 110.822 243.09 110.665 242.941 110.644C242.811 110.618 242.422 110.693 241.774 110.869L227.133 114.855C226.485 115.031 226.102 115.166 225.984 115.26C225.886 115.348 225.859 115.55 225.904 115.865L226.132 117.493L225.331 117.711L223.198 109.876L223.999 109.658L224.627 111.176C224.748 111.471 224.874 111.631 225.004 111.657C225.153 111.678 225.551 111.6 226.199 111.424L240.839 107.438C241.488 107.262 241.861 107.129 241.96 107.041C242.078 106.948 242.114 106.743 242.069 106.428L241.841 104.801Z" fill="#CC933A"/>
<path d="M246.553 131.633L247.38 131.569L247.824 137.301L246.997 137.365L246.664 135.756C246.6 135.443 246.497 135.263 246.355 135.215C246.232 135.165 245.836 135.166 245.166 135.218L227.557 136.58L227.431 134.955L244.113 122.756L229.074 123.92C228.404 123.971 228.003 124.032 227.869 124.102C227.756 124.17 227.691 124.363 227.676 124.682L227.595 126.323L226.768 126.387L226.324 120.655L227.152 120.591L227.484 122.2C227.548 122.512 227.641 122.693 227.764 122.743C227.907 122.791 228.313 122.789 228.982 122.738L244.11 121.567C244.78 121.515 245.171 121.455 245.285 121.387C245.418 121.317 245.492 121.123 245.507 120.805L245.589 119.164L246.416 119.1L246.875 125.039L233.404 134.939L245.075 134.036C245.744 133.984 246.136 133.924 246.25 133.856C246.383 133.786 246.457 133.592 246.472 133.274L246.553 131.633Z" fill="#CC933A"/>
<path d="M230.406 155.461L230.279 156.281L225.242 155.502L227.484 141.006L228.304 141.132L228.26 142.775C228.25 143.093 228.3 143.291 228.408 143.368C228.535 143.447 228.931 143.538 229.595 143.641L244.59 145.959C245.253 146.062 245.648 146.093 245.775 146.053C245.92 146.015 246.037 145.843 246.124 145.537L246.578 143.958L247.398 144.085L245.202 158.289L240.165 157.51L240.292 156.69L243.687 156.255C243.931 156.233 244.107 156.19 244.217 156.127C244.343 156.087 244.431 155.97 244.481 155.778C244.55 155.589 244.621 155.26 244.693 154.791L245.481 149.696L237.164 148.41L236.648 151.748C236.575 152.217 236.534 152.55 236.523 152.749C236.532 152.95 236.581 153.087 236.669 153.161C236.774 153.257 236.939 153.353 237.165 153.448L239.437 154.459L239.31 155.279L232.018 154.151L232.145 153.331L234.617 153.054C234.86 153.031 235.037 152.989 235.146 152.926C235.273 152.885 235.36 152.769 235.41 152.577C235.479 152.387 235.55 152.058 235.623 151.59L236.139 148.251L227.617 146.934L226.783 152.322C226.711 152.791 226.669 153.124 226.659 153.323C226.668 153.524 226.716 153.661 226.805 153.735C226.91 153.831 227.075 153.927 227.3 154.021L230.406 155.461Z" fill="#CC933A"/>
<path d="M63.0288 189.187L63.3151 189.008L64.5832 191.033L64.2969 191.213L63.8787 190.662C63.7937 190.558 63.7199 190.511 63.6571 190.521C63.6014 190.526 63.4533 190.604 63.2129 190.754L56.8602 194.731L56.5348 194.212L60.6301 186.275L54.9772 189.813C54.7369 189.964 54.5985 190.065 54.5623 190.117C54.5332 190.165 54.547 190.25 54.6036 190.372L54.9052 190.995L54.6294 191.168L53.3613 189.142L53.6371 188.969L54.0659 189.513C54.1508 189.617 54.2212 189.667 54.2769 189.661C54.3396 189.652 54.4912 189.571 54.7316 189.421L60.2253 185.982C60.4657 185.831 60.6005 185.732 60.6296 185.684C60.6659 185.632 60.6556 185.545 60.5989 185.423L60.2868 184.807L60.5732 184.627L61.7217 186.462L58.1417 193.383L62.9673 190.362C63.2077 190.211 63.3425 190.112 63.3716 190.065C63.4078 190.012 63.3976 189.925 63.3409 189.803L63.0288 189.187Z" fill="#45137D"/>
<path d="M66.4349 199.801L65.6883 200.369C64.7194 201.107 63.7869 201.466 62.8908 201.446C62.0014 201.42 61.2409 200.993 60.6092 200.163C59.9725 199.327 59.7602 198.477 59.9725 197.613C60.1964 196.75 60.7929 195.95 61.7618 195.212L62.5084 194.644C63.4707 193.911 64.3941 193.554 65.2784 193.573C66.1745 193.593 66.9409 194.021 67.5776 194.857C68.2093 195.687 68.4157 196.536 68.1968 197.405C67.9845 198.269 67.3973 199.068 66.4349 199.801ZM66.2126 198.476C67.0421 197.844 67.5234 197.258 67.6562 196.716C67.8008 196.176 67.6684 195.637 67.259 195.1C66.8497 194.562 66.3631 194.288 65.7991 194.277C65.2468 194.268 64.5559 194.579 63.7263 195.211L61.9842 196.537C61.1546 197.169 60.6675 197.755 60.523 198.295C60.3835 198.841 60.5184 199.383 60.9278 199.921C61.3371 200.458 61.8212 200.729 62.3801 200.734C62.9441 200.744 63.6409 200.434 64.4705 199.802L66.2126 198.476Z" fill="#45137D"/>
<path d="M73.7292 202.858L73.9783 202.63L75.5929 204.392L75.3438 204.62L74.8327 204.155C74.7303 204.068 74.6491 204.035 74.5891 204.056C74.5353 204.071 74.4038 204.174 74.1947 204.366L68.6691 209.43L68.2549 208.978L70.8418 200.429L65.925 204.935C65.7159 205.127 65.5983 205.251 65.5722 205.309C65.5522 205.362 65.5811 205.443 65.659 205.552L66.0686 206.11L65.8287 206.33L64.2141 204.568L64.454 204.348L64.9742 204.805C65.0767 204.892 65.1549 204.928 65.2087 204.913C65.2686 204.892 65.4031 204.785 65.6122 204.594L70.3907 200.215C70.5998 200.023 70.7143 199.901 70.7343 199.849C70.7605 199.791 70.7346 199.707 70.6567 199.598L70.2379 199.048L70.487 198.82L71.9494 200.416L69.6847 207.871L73.882 204.025C74.0911 203.833 74.2056 203.711 74.2256 203.659C74.2517 203.601 74.2259 203.517 74.148 203.407L73.7292 202.858Z" fill="#45137D"/>
<path d="M73.4762 208.619L73.7768 208.301L76.1794 210.568L75.8789 210.886L73.4762 208.619Z" fill="#45137D"/>
<path d="M82.4134 221.049L82.2107 221.304L79.8521 219.425L80.0548 219.17L80.6398 219.54C80.7546 219.61 80.8374 219.634 80.8882 219.61C80.9441 219.58 81.0604 219.454 81.2372 219.232L85.4626 213.928L79.1937 217.621L78.5282 217.09L80.7161 210.147L76.4906 215.451C76.3139 215.673 76.2171 215.815 76.2003 215.876C76.1887 215.931 76.2299 216.006 76.3239 216.102L76.8154 216.59L76.6127 216.844L74.7434 215.355L74.9461 215.101L75.5312 215.471C75.646 215.541 75.7287 215.564 75.7795 215.541C75.8355 215.511 75.9518 215.385 76.1285 215.163L80.1669 210.093C80.3436 209.871 80.4377 209.733 80.4493 209.678C80.4662 209.617 80.4276 209.538 80.3336 209.442L79.8343 208.964L80.0448 208.7L81.8357 210.127L79.7099 216.832L85.77 213.261L87.512 214.649L87.3015 214.913L86.7243 214.533C86.6095 214.463 86.5241 214.443 86.4682 214.473C86.4174 214.497 86.3037 214.619 86.127 214.841L82.0886 219.911C81.9119 220.132 81.8151 220.274 81.7983 220.335C81.7867 220.39 81.8279 220.465 81.9219 220.562L82.4134 221.049Z" fill="#45137D"/>
<path d="M90.1053 224.056L90.3785 224.233L89.271 225.945L84.2381 222.691L84.4148 222.418L85.0334 222.728C85.1546 222.787 85.2392 222.802 85.2874 222.773C85.3356 222.745 85.439 222.608 85.5975 222.363L89.1169 216.92C89.2754 216.675 89.3577 216.525 89.3639 216.469C89.3701 216.413 89.3216 216.342 89.2186 216.256L88.6747 215.83L88.8581 215.546L93.7544 218.712L92.647 220.425L92.3843 220.255L92.793 218.955C92.8263 218.857 92.8403 218.782 92.8349 218.728C92.8411 218.673 92.8114 218.619 92.7459 218.567C92.6849 218.507 92.5704 218.423 92.4023 218.315L90.3639 216.997L88.4004 220.033L89.8083 220.943C89.9764 221.052 90.0978 221.126 90.1724 221.164C90.2515 221.195 90.3129 221.2 90.3565 221.179C90.4117 221.155 90.477 221.108 90.5524 221.037L91.2616 220.378L91.5347 220.555L89.9449 223.014L89.6717 222.837L89.9817 221.92C90.015 221.822 90.029 221.747 90.0236 221.694C90.0298 221.638 90.0001 221.584 89.9346 221.532C89.8736 221.472 89.759 221.388 89.5909 221.28L88.183 220.369L86.1787 223.469L88.3432 224.868C88.5113 224.977 88.6326 225.051 88.7072 225.089C88.7863 225.12 88.8477 225.125 88.8914 225.104C88.9465 225.08 89.0118 225.033 89.0872 224.962L90.1053 224.056Z" fill="#45137D"/>
<path d="M94.9986 219.903L95.1574 219.605L98.2939 221.275C99.1922 221.753 99.7257 222.411 99.8946 223.247C100.063 224.084 99.8655 225.032 99.3009 226.092L98.8599 226.921C98.2914 227.988 97.613 228.685 96.8246 229.012C96.0363 229.339 95.1931 229.263 94.2948 228.785L91.1583 227.115L91.3112 226.827L91.9539 227.085C92.0796 227.133 92.1652 227.14 92.2108 227.108C92.2564 227.076 92.3478 226.931 92.4851 226.673L95.5315 220.952C95.6687 220.694 95.738 220.538 95.7394 220.482C95.7409 220.426 95.6866 220.359 95.5767 220.282L94.9986 219.903ZM98.0837 221.617L96.7805 220.923L93.1577 227.726L94.4609 228.42C94.8585 228.631 95.2253 228.732 95.5614 228.722C95.8976 228.712 96.2223 228.564 96.5357 228.277C96.8603 227.987 97.1873 227.532 97.5166 226.914L98.5458 224.981C98.8712 224.37 99.0618 223.853 99.1175 223.429C99.1805 223.009 99.1224 222.656 98.9431 222.372C98.7677 222.08 98.4812 221.828 98.0837 221.617Z" fill="#45137D"/>
<path d="M102.425 223.756L102.563 223.448L105.313 224.685L105.175 224.993L104.521 224.768C104.393 224.728 104.307 224.726 104.264 224.761C104.22 224.797 104.139 224.948 104.019 225.214L101.361 231.125C101.242 231.392 101.183 231.553 101.185 231.609C101.187 231.665 101.246 231.727 101.361 231.797L101.958 232.148L101.824 232.445L99.0741 231.208L99.2075 230.912L99.8659 231.125C99.9945 231.165 100.08 231.167 100.124 231.131C100.167 231.096 100.249 230.945 100.368 230.679L103.026 224.768C103.146 224.501 103.205 224.34 103.202 224.284C103.2 224.228 103.141 224.165 103.027 224.096L102.425 223.756Z" fill="#45137D"/>
<path d="M106.881 234.617C105.889 234.244 105.256 233.628 104.982 232.768C104.715 231.911 104.792 230.924 105.211 229.807L105.541 228.928C105.816 228.194 106.166 227.595 106.589 227.13C107.021 226.669 107.513 226.367 108.064 226.227C108.616 226.086 109.208 226.135 109.841 226.372C110.426 226.592 110.867 226.891 111.161 227.269C111.459 227.639 111.624 228.044 111.655 228.483C111.689 228.914 111.593 229.337 111.366 229.751L110.266 229.619C110.633 228.902 110.763 228.295 110.655 227.8C110.549 227.297 110.231 226.946 109.7 226.747C109.106 226.524 108.574 226.565 108.104 226.87C107.641 227.177 107.231 227.807 106.873 228.76L106.104 230.81C105.744 231.771 105.648 232.524 105.818 233.068C105.988 233.613 106.397 234.007 107.045 234.251C107.303 234.347 107.565 234.397 107.831 234.399C108.101 234.393 108.359 234.311 108.605 234.154C108.851 233.997 109.067 233.731 109.252 233.355L109.908 233.815C109.502 234.375 109.032 234.702 108.498 234.796C107.974 234.884 107.435 234.825 106.881 234.617Z" fill="#45137D"/>
<path d="M113.247 236.305L113.158 236.618L110.87 235.97L110.959 235.657L111.63 235.769C111.72 235.786 111.788 235.792 111.833 235.787C111.879 235.775 111.929 235.737 111.982 235.674C112.045 235.605 112.131 235.482 112.242 235.305L116.608 228.752L117.367 228.967L117.672 236.843C117.673 237.052 117.679 237.2 117.688 237.29C117.708 237.373 117.734 237.433 117.768 237.468C117.803 237.496 117.86 237.525 117.938 237.556L118.58 237.815L118.491 238.128L115.566 237.3L115.654 236.987L116.337 237.102C116.47 237.122 116.547 237.11 116.569 237.064C116.601 237.012 116.611 236.837 116.6 236.54L116.543 234.859L113.606 234.027L112.676 235.428C112.51 235.676 112.423 235.829 112.415 235.887C112.418 235.94 112.481 235.993 112.605 236.045L113.247 236.305ZM113.835 233.676L116.532 234.439L116.37 229.868L113.835 233.676Z" fill="#45137D"/>
<path d="M125.228 237.399L125.559 237.466L125.149 239.489L119.57 238.358L119.634 238.04L120.324 238.103C120.458 238.113 120.542 238.096 120.576 238.052C120.611 238.008 120.657 237.843 120.715 237.556L122.002 231.204C122.06 230.918 122.082 230.748 122.067 230.694C122.053 230.64 121.982 230.591 121.854 230.549L121.192 230.351L121.259 230.019L124.215 230.618L124.148 230.949L123.461 230.874C123.327 230.864 123.242 230.881 123.208 230.925C123.173 230.969 123.127 231.134 123.069 231.42L121.66 238.373L123.88 238.823C124.076 238.863 124.216 238.887 124.299 238.895C124.384 238.896 124.443 238.878 124.476 238.842C124.519 238.8 124.562 238.732 124.607 238.639L125.228 237.399Z" fill="#45137D"/>
<path d="M133.246 240.265C133.802 240.317 134.263 240.221 134.629 239.979C135.004 239.737 135.215 239.351 135.265 238.819C135.304 238.395 135.208 238.03 134.977 237.724C134.746 237.41 134.319 237.135 133.696 236.902L132.86 236.573C132.244 236.34 131.79 236 131.496 235.554C131.203 235.108 131.084 234.586 131.139 233.988C131.176 233.589 131.302 233.224 131.517 232.892C131.741 232.561 132.053 232.305 132.456 232.124C132.866 231.945 133.37 231.883 133.968 231.938C134.633 232 135.157 232.174 135.541 232.461C135.925 232.74 136.178 233.082 136.3 233.487C136.422 233.892 136.42 234.314 136.295 234.755L135.228 234.882C135.408 234.12 135.384 233.519 135.157 233.079C134.938 232.64 134.508 232.39 133.869 232.331C133.362 232.284 132.951 232.384 132.635 232.631C132.319 232.87 132.138 233.247 132.09 233.762C132.052 234.169 132.136 234.528 132.342 234.841C132.548 235.145 132.938 235.407 133.513 235.628L134.349 235.957C135.701 236.468 136.319 237.342 136.204 238.579C136.163 239.02 136.023 239.409 135.782 239.747C135.55 240.077 135.217 240.327 134.782 240.496C134.356 240.666 133.832 240.722 133.209 240.664C132.777 240.624 132.368 240.519 131.981 240.349C131.603 240.18 131.288 239.92 131.036 239.57C130.792 239.221 130.651 238.755 130.612 238.174L131.383 237.994C131.374 238.546 131.455 238.981 131.626 239.298C131.798 239.616 132.027 239.851 132.315 240.003C132.603 240.147 132.913 240.234 133.246 240.265Z" fill="#45137D"/>
<path d="M143.242 232.843L143.246 232.505L145.636 232.533L145.632 232.871L144.943 232.925C144.81 232.941 144.73 232.973 144.704 233.023C144.679 233.073 144.664 233.243 144.661 233.535L144.608 238.14C144.597 239.09 144.367 239.83 143.919 240.359C143.479 240.879 142.809 241.134 141.908 241.124C140.924 241.113 140.172 240.816 139.653 240.234C139.143 239.653 138.893 238.858 138.905 237.848L138.956 233.469C138.959 233.177 138.949 233.006 138.924 232.956C138.9 232.906 138.821 232.871 138.688 232.853L138 232.782L138.004 232.445L141.019 232.48L141.015 232.817L140.327 232.872C140.193 232.887 140.113 232.92 140.088 232.969C140.062 233.019 140.048 233.19 140.044 233.482L139.991 238.049C139.981 238.941 140.14 239.606 140.469 240.044C140.806 240.481 141.32 240.704 142.013 240.712C142.713 240.72 143.241 240.505 143.597 240.067C143.952 239.629 144.135 238.989 144.145 238.147L144.198 233.53C144.201 233.238 144.191 233.067 144.166 233.017C144.142 232.966 144.063 232.932 143.93 232.914L143.242 232.843Z" fill="#45137D"/>
<path d="M146.948 232.813L146.923 232.476L150.467 232.216C151.29 232.155 151.934 232.317 152.397 232.702C152.859 233.077 153.116 233.606 153.166 234.289L153.192 234.65C153.243 235.333 153.067 235.898 152.665 236.345C152.262 236.793 151.65 237.047 150.826 237.108L149.329 237.218L149.518 239.801C149.54 240.092 149.565 240.266 149.594 240.322C149.623 240.37 149.704 240.393 149.838 240.392L150.779 240.398L150.803 240.723L147.546 240.962L147.522 240.637L148.203 240.512C148.335 240.486 148.411 240.447 148.433 240.395C148.454 240.343 148.454 240.172 148.433 239.88L147.958 233.416C147.937 233.125 147.912 232.956 147.883 232.908C147.854 232.859 147.773 232.832 147.639 232.825L146.948 232.813ZM150.496 232.615L148.999 232.725L149.299 236.818L150.797 236.708C151.72 236.64 152.14 236.041 152.057 234.909L152.005 234.198C151.923 233.075 151.42 232.547 150.496 232.615Z" fill="#45137D"/>
<path d="M154.335 232.232L154.285 231.898L157.798 231.366C158.615 231.242 159.269 231.354 159.76 231.702C160.25 232.041 160.546 232.549 160.648 233.225L160.703 233.584C160.805 234.26 160.673 234.837 160.307 235.314C159.94 235.792 159.349 236.092 158.532 236.216L157.048 236.44L157.435 239.001C157.479 239.29 157.517 239.461 157.551 239.515C157.583 239.561 157.666 239.578 157.799 239.566L158.738 239.5L158.787 239.822L155.558 240.31L155.509 239.989L156.178 239.811C156.308 239.775 156.381 239.73 156.398 239.677C156.416 239.624 156.402 239.453 156.359 239.164L155.389 232.756C155.345 232.467 155.307 232.3 155.275 232.254C155.243 232.208 155.16 232.187 155.025 232.191L154.335 232.232ZM157.858 231.762L156.374 231.987L156.988 236.044L158.472 235.82C159.388 235.681 159.761 235.051 159.591 233.929L159.484 233.224C159.316 232.111 158.774 231.623 157.858 231.762Z" fill="#45137D"/>
<path d="M169.015 232.884L169.233 233.797C169.515 234.981 169.466 235.979 169.085 236.79C168.702 237.594 168.004 238.116 166.989 238.358C165.967 238.602 165.104 238.452 164.4 237.908C163.701 237.355 163.211 236.486 162.928 235.301L162.71 234.388C162.43 233.212 162.477 232.223 162.852 231.422C163.233 230.61 163.934 230.083 164.957 229.839C165.971 229.597 166.831 229.752 167.537 230.303C168.242 230.847 168.734 231.707 169.015 232.884ZM167.713 232.551C167.471 231.537 167.13 230.859 166.688 230.519C166.253 230.168 165.707 230.071 165.049 230.228C164.392 230.385 163.945 230.719 163.706 231.23C163.474 231.732 163.479 232.489 163.721 233.504L164.23 235.634C164.472 236.648 164.81 237.33 165.246 237.681C165.689 238.03 166.239 238.125 166.897 237.969C167.554 237.812 167.997 237.479 168.227 236.969C168.466 236.458 168.464 235.695 168.222 234.681L167.713 232.551Z" fill="#45137D"/>
<path d="M169.884 229.082L169.777 228.762L173.078 227.663C173.853 227.405 174.509 227.393 175.044 227.628C175.585 227.853 175.957 228.27 176.16 228.879L176.282 229.247C176.443 229.73 176.445 230.186 176.289 230.616C176.139 231.036 175.839 231.39 175.391 231.68L177.843 233.976C178.009 234.132 178.129 234.241 178.203 234.305C178.274 234.36 178.334 234.393 178.381 234.404C178.434 234.404 178.501 234.394 178.583 234.376L179.141 234.269L179.244 234.578L177.451 235.175L174.358 232.143L173.195 232.53L174.092 235.225C174.184 235.502 174.25 235.66 174.289 235.7C174.329 235.739 174.415 235.746 174.547 235.72L175.223 235.574L175.326 235.882L172.465 236.835L172.362 236.526L172.991 236.237C173.113 236.179 173.177 236.123 173.185 236.067C173.193 236.012 173.151 235.846 173.059 235.569L171.012 229.419C170.919 229.142 170.854 228.984 170.814 228.944C170.774 228.905 170.689 228.898 170.557 228.924L169.884 229.082ZM173.204 228.043L171.851 228.494L173.068 232.15L174.421 231.7C174.833 231.563 175.11 231.325 175.253 230.988C175.401 230.64 175.385 230.196 175.206 229.658L175.052 229.195C174.872 228.657 174.621 228.297 174.296 228.115C173.98 227.93 173.616 227.906 173.204 228.043Z" fill="#45137D"/>
<path d="M176.589 226.497L182.719 223.904L183.514 225.782L183.214 225.909L182.368 224.84C182.306 224.758 182.252 224.704 182.205 224.678C182.162 224.642 182.101 224.636 182.021 224.661C181.937 224.678 181.803 224.726 181.619 224.804L180.317 225.354L183.081 231.888C183.194 232.157 183.272 232.31 183.315 232.346C183.358 232.383 183.444 232.383 183.573 232.346L184.236 232.147L184.363 232.447L181.585 233.621L181.459 233.322L182.063 232.984C182.18 232.917 182.24 232.855 182.243 232.8C182.247 232.744 182.192 232.581 182.078 232.312L179.314 225.778L178.001 226.334C177.824 226.409 177.697 226.472 177.619 226.523C177.545 226.563 177.503 226.613 177.491 226.672C177.485 226.72 177.489 226.795 177.505 226.897L177.683 228.248L177.383 228.375L176.589 226.497Z" fill="#45137D"/>
<path d="M193.312 227.697C193.799 227.424 194.125 227.083 194.288 226.676C194.459 226.264 194.414 225.826 194.153 225.36C193.944 224.989 193.658 224.743 193.294 224.623C192.925 224.495 192.418 224.511 191.772 224.673L190.897 224.877C190.258 225.035 189.692 225.014 189.197 224.813C188.701 224.613 188.307 224.251 188.013 223.727C187.817 223.378 187.713 223.006 187.702 222.61C187.698 222.211 187.81 221.823 188.038 221.446C188.274 221.065 188.654 220.727 189.177 220.433C189.759 220.107 190.29 219.952 190.769 219.971C191.243 219.981 191.646 220.119 191.976 220.383C192.306 220.648 192.545 220.997 192.693 221.43L191.886 222.141C191.601 221.411 191.24 220.93 190.803 220.697C190.374 220.46 189.879 220.499 189.319 220.813C188.875 221.062 188.593 221.378 188.473 221.761C188.349 222.137 188.414 222.55 188.667 223.001C188.867 223.357 189.141 223.606 189.487 223.746C189.83 223.879 190.3 223.873 190.898 223.729L191.773 223.525C193.176 223.177 194.181 223.546 194.79 224.629C195.006 225.015 195.111 225.415 195.105 225.83C195.102 226.234 194.97 226.628 194.708 227.014C194.454 227.396 194.054 227.74 193.508 228.046C193.13 228.259 192.733 228.405 192.319 228.484C191.912 228.56 191.505 228.525 191.098 228.38C190.699 228.231 190.319 227.928 189.957 227.471L190.489 226.886C190.795 227.345 191.109 227.657 191.43 227.821C191.752 227.985 192.074 228.048 192.397 228.01C192.716 227.965 193.021 227.861 193.312 227.697Z" fill="#45137D"/>
<path d="M201.313 220.624L201.584 220.443L202.716 222.139L197.732 225.467L197.551 225.196L198.082 224.752C198.183 224.664 198.231 224.592 198.224 224.537C198.217 224.481 198.132 224.332 197.97 224.089L194.371 218.699C194.209 218.456 194.104 218.321 194.055 218.293C194.007 218.265 193.922 218.281 193.802 218.342L193.195 218.672L193.007 218.391L197.857 215.153L198.989 216.849L198.729 217.023L197.698 216.132C197.621 216.063 197.558 216.02 197.507 216.004C197.458 215.976 197.397 215.982 197.323 216.021C197.244 216.054 197.122 216.125 196.955 216.236L194.936 217.584L196.944 220.592L198.338 219.661C198.505 219.55 198.621 219.467 198.685 219.414C198.745 219.354 198.774 219.3 198.772 219.251C198.772 219.191 198.755 219.112 198.72 219.015L198.396 218.103L198.667 217.922L200.293 220.357L200.022 220.538L199.303 219.889C199.227 219.82 199.163 219.777 199.112 219.761C199.064 219.733 199.003 219.739 198.929 219.778C198.85 219.811 198.727 219.883 198.561 219.994L197.166 220.925L199.216 223.995L201.36 222.563C201.526 222.452 201.642 222.37 201.706 222.317C201.767 222.257 201.795 222.202 201.793 222.154C201.793 222.093 201.776 222.015 201.741 221.918L201.313 220.624Z" fill="#45137D"/>
<path d="M199.372 214.513L199.163 214.248L201.891 212.091C202.532 211.584 203.145 211.35 203.728 211.388C204.313 211.415 204.805 211.68 205.203 212.184L205.443 212.488C205.759 212.888 205.917 213.316 205.917 213.773C205.918 214.219 205.757 214.654 205.435 215.08L208.522 216.403C208.732 216.492 208.882 216.554 208.973 216.589C209.058 216.617 209.125 216.628 209.174 216.621C209.223 216.603 209.283 216.572 209.354 216.527L209.842 216.236L210.044 216.491L208.562 217.663L204.621 215.866L203.659 216.627L205.421 218.855C205.602 219.084 205.718 219.21 205.768 219.234C205.819 219.258 205.902 219.235 206.017 219.165L206.603 218.797L206.805 219.052L204.44 220.923L204.238 220.667L204.731 220.182C204.825 220.086 204.867 220.011 204.856 219.956C204.844 219.901 204.748 219.759 204.567 219.53L200.547 214.446C200.366 214.217 200.25 214.09 200.199 214.067C200.149 214.043 200.066 214.066 199.951 214.136L199.372 214.513ZM202.14 212.405L201.021 213.29L203.411 216.313L204.53 215.428C204.87 215.159 205.05 214.842 205.069 214.476C205.089 214.098 204.923 213.687 204.572 213.242L204.269 212.859C203.917 212.414 203.558 212.161 203.191 212.1C202.83 212.034 202.48 212.136 202.14 212.405Z" fill="#45137D"/>
<path d="M210.565 205.711L213.968 212.895L213.356 213.468L206.4 209.611C206.175 209.48 206.032 209.413 205.973 209.411C205.915 209.398 205.831 209.43 205.722 209.509L205.223 209.891L204.992 209.645L207.138 207.635L207.369 207.881L206.946 208.363C206.86 208.467 206.828 208.542 206.85 208.59C206.878 208.633 207.002 208.716 207.222 208.841L213.16 212.161L210.236 206.019C210.131 205.785 210.056 205.656 210.01 205.631C209.969 205.6 209.892 205.627 209.777 205.712L209.268 206.102L209.037 205.856L210.69 204.307L210.921 204.554L210.498 205.036C210.443 205.099 210.409 205.154 210.396 205.201C210.383 205.236 210.39 205.292 210.417 205.37C210.444 205.435 210.493 205.549 210.565 205.711Z" fill="#45137D"/>
<path d="M211.173 204.215L210.928 203.984L212.997 201.79L213.243 202.022L212.816 202.566C212.737 202.674 212.706 202.755 212.726 202.807C212.745 202.86 212.861 202.986 213.073 203.187L217.787 207.635C218 207.835 218.133 207.943 218.186 207.959C218.24 207.975 218.318 207.941 218.422 207.855L218.949 207.406L219.186 207.629L217.116 209.823L216.88 209.599L217.297 209.047C217.377 208.939 217.407 208.858 217.388 208.806C217.368 208.753 217.253 208.627 217.04 208.426L212.326 203.978C212.114 203.778 211.981 203.67 211.927 203.654C211.874 203.638 211.795 203.672 211.691 203.758L211.173 204.215Z" fill="#45137D"/>
<path d="M222.788 203.687C222.11 204.501 221.32 204.896 220.417 204.872C219.52 204.841 218.613 204.444 217.697 203.681L216.976 203.08C216.373 202.578 215.923 202.051 215.623 201.497C215.33 200.938 215.207 200.374 215.256 199.807C215.305 199.24 215.546 198.697 215.978 198.178C216.379 197.697 216.806 197.38 217.26 197.226C217.707 197.067 218.143 197.045 218.569 197.16C218.987 197.27 219.355 197.5 219.671 197.85L219.184 198.845C218.628 198.262 218.098 197.94 217.595 197.88C217.085 197.813 216.649 197.998 216.286 198.434C215.88 198.921 215.744 199.437 215.876 199.982C216.014 200.52 216.474 201.115 217.256 201.766L218.938 203.168C219.727 203.824 220.406 204.162 220.976 204.181C221.547 204.2 222.053 203.944 222.497 203.412C222.673 203.2 222.806 202.969 222.895 202.718C222.979 202.462 222.987 202.192 222.919 201.908C222.852 201.623 222.671 201.332 222.377 201.033L223.028 200.565C223.423 201.133 223.577 201.685 223.49 202.22C223.401 202.743 223.167 203.232 222.788 203.687Z" fill="#45137D"/>
<path d="M227.32 194.062L227.507 193.796L229.174 194.971L225.719 199.869L225.454 199.682L225.789 199.076C225.852 198.957 225.87 198.873 225.844 198.824C225.818 198.775 225.685 198.666 225.446 198.498L220.15 194.762C219.911 194.594 219.764 194.505 219.709 194.497C219.654 194.489 219.581 194.534 219.49 194.633L219.042 195.16L218.766 194.965L222.127 190.2L223.794 191.376L223.613 191.631L222.331 191.171C222.234 191.133 222.16 191.116 222.106 191.12C222.051 191.111 221.996 191.139 221.941 191.202C221.879 191.261 221.791 191.372 221.675 191.535L220.276 193.519L223.231 195.603L224.198 194.233C224.313 194.069 224.391 193.951 224.433 193.878C224.467 193.8 224.474 193.739 224.455 193.695C224.433 193.639 224.389 193.571 224.321 193.493L223.691 192.758L223.879 192.492L226.272 194.18L226.084 194.446L225.18 194.099C225.084 194.062 225.009 194.045 224.956 194.048C224.901 194.04 224.845 194.067 224.791 194.131C224.729 194.189 224.64 194.3 224.525 194.464L223.559 195.834L226.575 197.961L228.06 195.855C228.176 195.691 228.254 195.573 228.295 195.5C228.33 195.422 228.337 195.361 228.318 195.317C228.296 195.261 228.251 195.194 228.184 195.115L227.32 194.062Z" fill="#45137D"/>
<path d="M231.654 190.47C231.94 189.99 232.052 189.533 231.991 189.098C231.933 188.656 231.675 188.299 231.217 188.025C230.851 187.808 230.481 187.737 230.105 187.814C229.721 187.887 229.29 188.154 228.811 188.617L228.154 189.23C227.679 189.685 227.177 189.949 226.648 190.023C226.119 190.096 225.596 189.979 225.081 189.671C224.737 189.466 224.461 189.195 224.254 188.858C224.051 188.514 223.955 188.122 223.965 187.681C223.979 187.233 224.14 186.752 224.447 186.236C224.789 185.662 225.172 185.264 225.596 185.041C226.013 184.814 226.43 184.732 226.848 184.797C227.266 184.861 227.647 185.045 227.992 185.347L227.647 186.365C227.036 185.875 226.483 185.638 225.988 185.654C225.498 185.662 225.088 185.942 224.759 186.494C224.499 186.931 224.412 187.346 224.499 187.738C224.579 188.125 224.841 188.451 225.286 188.716C225.637 188.925 225.998 189.004 226.368 188.953C226.731 188.897 227.136 188.658 227.582 188.234L228.239 187.621C229.282 186.62 230.337 186.438 231.405 187.074C231.785 187.3 232.075 187.595 232.277 187.958C232.475 188.309 232.557 188.717 232.523 189.182C232.493 189.64 232.318 190.138 231.998 190.675C231.776 191.048 231.505 191.372 231.185 191.648C230.87 191.916 230.5 192.089 230.075 192.166C229.655 192.236 229.174 192.163 228.633 191.948L228.802 191.175C229.296 191.42 229.724 191.534 230.084 191.516C230.444 191.498 230.755 191.392 231.016 191.198C231.271 190.999 231.483 190.757 231.654 190.47Z" fill="#45137D"/>
<path d="M15.8047 280.763H48.7318" stroke="#CC933A" stroke-width="0.987815"/>
<path d="M62.1652 284C62.5866 284 62.9343 283.902 63.2083 283.705C63.4893 283.501 63.6298 283.185 63.6298 282.757C63.6298 282.441 63.5349 282.177 63.3453 281.966C63.1626 281.756 62.8325 281.58 62.3548 281.44L61.3749 281.145C60.8832 280.997 60.5039 280.744 60.237 280.386C59.977 280.021 59.8471 279.568 59.8471 279.027C59.8471 278.668 59.9279 278.335 60.0894 278.026C60.258 277.717 60.5109 277.467 60.8481 277.278C61.1923 277.088 61.6243 276.993 62.1441 276.993C62.7131 276.993 63.1732 277.098 63.5244 277.309C63.8756 277.513 64.1215 277.78 64.262 278.11C64.4025 278.44 64.4376 278.795 64.3673 279.174L63.1556 279.395C63.268 278.742 63.2188 278.24 63.0081 277.889C62.8044 277.538 62.4707 277.362 62.0071 277.362C61.6489 277.362 61.3609 277.467 61.1431 277.678C60.9324 277.889 60.827 278.191 60.827 278.584C60.827 278.907 60.9183 279.192 61.101 279.438C61.2906 279.683 61.5997 279.873 62.0282 280.007L63.0081 280.302C63.542 280.456 63.9424 280.691 64.2093 281.008C64.4762 281.317 64.6097 281.749 64.6097 282.304C64.6097 282.697 64.5184 283.052 64.3357 283.368C64.1601 283.677 63.8897 283.923 63.5244 284.105C63.1662 284.281 62.7166 284.369 62.1757 284.369C61.7823 284.369 61.41 284.313 61.0588 284.2C60.7076 284.081 60.4126 283.888 60.1737 283.621C59.9419 283.354 59.7944 282.992 59.7312 282.535L60.4372 282.283C60.4723 282.732 60.5706 283.083 60.7322 283.336C60.9008 283.582 61.108 283.754 61.3538 283.852C61.6067 283.951 61.8772 284 62.1652 284ZM70.0416 277.394V277.098H72.0857V277.394L71.5062 277.467C71.3938 277.481 71.3271 277.513 71.306 277.562C71.2849 277.604 71.2744 277.745 71.2744 277.984V281.829C71.2744 282.672 71.0953 283.308 70.737 283.737C70.3858 284.158 69.8449 284.369 69.1144 284.369C68.2644 284.369 67.5795 284.137 67.0597 283.673C66.5399 283.21 66.28 282.542 66.28 281.671V277.984C66.28 277.745 66.2695 277.604 66.2484 277.562C66.2273 277.513 66.1606 277.481 66.0482 277.467L65.4687 277.394V277.098H68.3557V277.394L67.7762 277.467C67.6638 277.481 67.5971 277.513 67.576 277.562C67.5549 277.604 67.5444 277.745 67.5444 277.984V281.745C67.5444 282.532 67.6884 283.101 67.9764 283.452C68.2644 283.803 68.6753 283.979 69.2092 283.979C69.729 283.979 70.1329 283.814 70.4209 283.484C70.7089 283.147 70.8529 282.602 70.8529 281.851V277.984C70.8529 277.745 70.8424 277.604 70.8213 277.562C70.8002 277.513 70.7335 277.481 70.6211 277.467L70.0416 277.394ZM72.8401 277.394V277.098H76.0116C76.7843 277.098 77.3603 277.278 77.7396 277.636C78.126 277.987 78.3192 278.458 78.3192 279.048V279.29C78.3192 279.88 78.126 280.354 77.7396 280.713C77.3603 281.071 76.7843 281.25 76.0116 281.25H74.9158V283.378C74.9158 283.617 74.9263 283.761 74.9474 283.81C74.9685 283.852 75.0352 283.881 75.1476 283.895L75.9379 283.968V284.263H72.8401V283.968L73.4196 283.895C73.532 283.881 73.5987 283.852 73.6198 283.81C73.6409 283.761 73.6514 283.617 73.6514 283.378V277.984C73.6514 277.745 73.6409 277.604 73.6198 277.562C73.5987 277.513 73.532 277.481 73.4196 277.467L72.8401 277.394ZM76.0116 277.467H74.9158V280.881H76.0116C76.3207 280.881 76.556 280.758 76.7176 280.512C76.8862 280.267 76.9705 279.929 76.9705 279.501V278.837C76.9705 278.409 76.8862 278.075 76.7176 277.836C76.556 277.59 76.3207 277.467 76.0116 277.467ZM79.1374 277.394V277.098H82.3089C83.0816 277.098 83.6576 277.278 84.0369 277.636C84.4233 277.987 84.6165 278.458 84.6165 279.048V279.29C84.6165 279.88 84.4233 280.354 84.0369 280.713C83.6576 281.071 83.0816 281.25 82.3089 281.25H81.2131V283.378C81.2131 283.617 81.2237 283.761 81.2447 283.81C81.2658 283.852 81.3325 283.881 81.4449 283.895L82.2352 283.968V284.263H79.1374V283.968L79.7169 283.895C79.8293 283.881 79.896 283.852 79.9171 283.81C79.9382 283.761 79.9487 283.617 79.9487 283.378V277.984C79.9487 277.745 79.9382 277.604 79.9171 277.562C79.896 277.513 79.8293 277.481 79.7169 277.467L79.1374 277.394ZM82.3089 277.467H81.2131V280.881H82.3089C82.618 280.881 82.8533 280.758 83.0149 280.512C83.1835 280.267 83.2678 279.929 83.2678 279.501V278.837C83.2678 278.409 83.1835 278.075 83.0149 277.836C82.8533 277.59 82.618 277.467 82.3089 277.467ZM91.285 280.344V281.008C91.285 282.089 91.0427 282.922 90.558 283.505C90.0803 284.081 89.3709 284.369 88.4296 284.369C87.4883 284.369 86.7753 284.081 86.2907 283.505C85.813 282.922 85.5742 282.089 85.5742 281.008V280.344C85.5742 279.262 85.813 278.433 86.2907 277.857C86.7753 277.281 87.4883 276.993 88.4296 276.993C89.3709 276.993 90.0803 277.281 90.558 277.857C91.0427 278.433 91.285 279.262 91.285 280.344ZM89.9363 279.817C89.9363 279.199 89.8837 278.714 89.7783 278.363C89.6729 278.005 89.5079 277.748 89.2831 277.594C89.0653 277.439 88.7808 277.362 88.4296 277.362C88.0854 277.362 87.8009 277.439 87.5761 277.594C87.3513 277.748 87.1863 278.005 87.0809 278.363C86.9755 278.714 86.9229 279.199 86.9229 279.817V281.534C86.9229 282.146 86.9755 282.63 87.0809 282.988C87.1863 283.347 87.3513 283.607 87.5761 283.768C87.8009 283.923 88.0854 284 88.4296 284C88.7808 284 89.0653 283.923 89.2831 283.768C89.5079 283.607 89.6729 283.347 89.7783 282.988C89.8837 282.63 89.9363 282.146 89.9363 281.534V279.817ZM92.4317 277.394V277.098H95.6138C96.3514 277.098 96.9204 277.264 97.3208 277.594C97.7211 277.924 97.9213 278.366 97.9213 278.921V279.164C97.9213 279.585 97.8054 279.943 97.5736 280.238C97.3418 280.533 97.0082 280.744 96.5727 280.871L97.8897 283.378C97.974 283.533 98.0373 283.645 98.0794 283.716C98.1215 283.786 98.1602 283.831 98.1953 283.852C98.2374 283.867 98.2936 283.881 98.3639 283.895L98.838 283.968V284.263H96.8677L95.2766 280.997H94.5075V283.378C94.5075 283.617 94.518 283.761 94.5391 283.81C94.5601 283.852 94.6269 283.881 94.7393 283.895L95.3188 283.968V284.263H92.4317V283.968L93.0112 283.895C93.1236 283.881 93.1904 283.852 93.2114 283.81C93.2325 283.761 93.2431 283.617 93.2431 283.378V277.984C93.2431 277.745 93.2325 277.604 93.2114 277.562C93.1904 277.513 93.1236 277.481 93.0112 277.467L92.4317 277.394ZM95.6138 277.467H94.5075V280.628H95.6138C95.9229 280.628 96.1582 280.533 96.3198 280.344C96.4884 280.147 96.5727 279.789 96.5727 279.269V278.816C96.5727 278.296 96.4884 277.941 96.3198 277.752C96.1582 277.562 95.9229 277.467 95.6138 277.467ZM98.9169 277.098H104.712V278.911H104.417L104.08 277.741C104.059 277.65 104.034 277.587 104.006 277.552C103.985 277.509 103.939 277.485 103.869 277.478C103.799 277.471 103.679 277.467 103.511 277.467H102.447V283.378C102.447 283.617 102.457 283.761 102.478 283.81C102.499 283.852 102.566 283.881 102.678 283.895L103.258 283.968V284.263H100.371V283.968L100.95 283.895C101.063 283.881 101.13 283.852 101.151 283.81C101.172 283.761 101.182 283.617 101.182 283.378V277.467H100.118C99.9565 277.467 99.8371 277.471 99.7598 277.478C99.6896 277.485 99.6439 277.509 99.6229 277.552C99.6018 277.587 99.5772 277.65 99.5491 277.741L99.2119 278.911H98.9169V277.098ZM113.968 279.395H114.263V282.019H113.968L113.737 281.166C113.716 281.081 113.691 281.022 113.663 280.987C113.642 280.944 113.596 280.92 113.526 280.913C113.456 280.899 113.336 280.892 113.168 280.892H112.082V283.378C112.082 283.617 112.093 283.761 112.114 283.81C112.135 283.852 112.202 283.881 112.314 283.895L113.104 283.968V284.263H110.007V283.968L110.586 283.895C110.699 283.881 110.765 283.852 110.786 283.81C110.807 283.761 110.818 283.617 110.818 283.378V277.984C110.818 277.745 110.807 277.604 110.786 277.562C110.765 277.513 110.699 277.481 110.586 277.467L110.007 277.394V277.098H115.001V278.911H114.706L114.369 277.741C114.348 277.657 114.323 277.597 114.295 277.562C114.274 277.52 114.228 277.495 114.158 277.488C114.088 277.474 113.968 277.467 113.8 277.467H112.082V280.523H113.168C113.336 280.523 113.456 280.519 113.526 280.512C113.596 280.498 113.642 280.474 113.663 280.439C113.691 280.396 113.716 280.333 113.737 280.249L113.968 279.395ZM121.794 280.344V281.008C121.794 282.089 121.552 282.922 121.067 283.505C120.589 284.081 119.88 284.369 118.939 284.369C117.997 284.369 117.284 284.081 116.8 283.505C116.322 282.922 116.083 282.089 116.083 281.008V280.344C116.083 279.262 116.322 278.433 116.8 277.857C117.284 277.281 117.997 276.993 118.939 276.993C119.88 276.993 120.589 277.281 121.067 277.857C121.552 278.433 121.794 279.262 121.794 280.344ZM120.445 279.817C120.445 279.199 120.393 278.714 120.287 278.363C120.182 278.005 120.017 277.748 119.792 277.594C119.574 277.439 119.29 277.362 118.939 277.362C118.594 277.362 118.31 277.439 118.085 277.594C117.86 277.748 117.695 278.005 117.59 278.363C117.485 278.714 117.432 279.199 117.432 279.817V281.534C117.432 282.146 117.485 282.63 117.59 282.988C117.695 283.347 117.86 283.607 118.085 283.768C118.31 283.923 118.594 284 118.939 284C119.29 284 119.574 283.923 119.792 283.768C120.017 283.607 120.182 283.347 120.287 282.988C120.393 282.63 120.445 282.146 120.445 281.534V279.817ZM122.941 277.394V277.098H126.123C126.86 277.098 127.429 277.264 127.83 277.594C128.23 277.924 128.43 278.366 128.43 278.921V279.164C128.43 279.585 128.315 279.943 128.083 280.238C127.851 280.533 127.517 280.744 127.082 280.871L128.399 283.378C128.483 283.533 128.546 283.645 128.588 283.716C128.631 283.786 128.669 283.831 128.704 283.852C128.747 283.867 128.803 283.881 128.873 283.895L129.347 283.968V284.263H127.377L125.786 280.997H125.017V283.378C125.017 283.617 125.027 283.761 125.048 283.81C125.069 283.852 125.136 283.881 125.248 283.895L125.828 283.968V284.263H122.941V283.968L123.52 283.895C123.633 283.881 123.699 283.852 123.721 283.81C123.742 283.761 123.752 283.617 123.752 283.378V277.984C123.752 277.745 123.742 277.604 123.721 277.562C123.699 277.513 123.633 277.481 123.52 277.467L122.941 277.394ZM126.123 277.467H125.017V280.628H126.123C126.432 280.628 126.667 280.533 126.829 280.344C126.997 280.147 127.082 279.789 127.082 279.269V278.816C127.082 278.296 126.997 277.941 126.829 277.752C126.667 277.562 126.432 277.467 126.123 277.467ZM139.437 282.451H139.732V284.263H134.517V283.968L135.096 283.895C135.209 283.881 135.275 283.852 135.296 283.81C135.318 283.761 135.328 283.617 135.328 283.378V277.984C135.328 277.745 135.318 277.604 135.296 277.562C135.275 277.513 135.209 277.481 135.096 277.467L134.517 277.394V277.098H139.627V278.911H139.332L138.995 277.741C138.974 277.657 138.949 277.597 138.921 277.562C138.9 277.52 138.854 277.495 138.784 277.488C138.714 277.474 138.594 277.467 138.426 277.467H136.592V280.46H137.794C137.962 280.46 138.082 280.456 138.152 280.449C138.222 280.435 138.268 280.411 138.289 280.375C138.317 280.333 138.342 280.27 138.363 280.186L138.594 279.332H138.889V281.956H138.594L138.363 281.102C138.342 281.018 138.317 280.958 138.289 280.923C138.268 280.881 138.222 280.857 138.152 280.85C138.082 280.835 137.962 280.828 137.794 280.828H136.592V283.895H138.531C138.7 283.895 138.819 283.891 138.889 283.884C138.96 283.87 139.005 283.845 139.026 283.81C139.055 283.768 139.079 283.705 139.1 283.621L139.437 282.451ZM146.197 277.984L144.206 284.263H143.299L141.298 277.984C141.248 277.822 141.21 277.71 141.182 277.646C141.154 277.576 141.122 277.53 141.087 277.509C141.052 277.488 140.995 277.474 140.918 277.467L140.339 277.394V277.098H143.268V277.394L142.688 277.467C142.576 277.481 142.516 277.513 142.509 277.562C142.502 277.604 142.534 277.745 142.604 277.984L144.206 283.01L145.786 277.984C145.863 277.745 145.895 277.604 145.881 277.562C145.874 277.513 145.814 277.481 145.702 277.467L145.122 277.394V277.098H147.145V277.394L146.566 277.467C146.496 277.474 146.443 277.488 146.408 277.509C146.373 277.53 146.341 277.576 146.313 277.646C146.285 277.71 146.246 277.822 146.197 277.984ZM152.444 282.451H152.739V284.263H147.523V283.968L148.102 283.895C148.215 283.881 148.282 283.852 148.303 283.81C148.324 283.761 148.334 283.617 148.334 283.378V277.984C148.334 277.745 148.324 277.604 148.303 277.562C148.282 277.513 148.215 277.481 148.102 277.467L147.523 277.394V277.098H152.633V278.911H152.338L152.001 277.741C151.98 277.657 151.955 277.597 151.927 277.562C151.906 277.52 151.861 277.495 151.79 277.488C151.72 277.474 151.601 277.467 151.432 277.467H149.599V280.46H150.8C150.968 280.46 151.088 280.456 151.158 280.449C151.228 280.435 151.274 280.411 151.295 280.375C151.323 280.333 151.348 280.27 151.369 280.186L151.601 279.332H151.896V281.956H151.601L151.369 281.102C151.348 281.018 151.323 280.958 151.295 280.923C151.274 280.881 151.228 280.857 151.158 280.85C151.088 280.835 150.968 280.828 150.8 280.828H149.599V283.895H151.537C151.706 283.895 151.825 283.891 151.896 283.884C151.966 283.87 152.012 283.845 152.033 283.81C152.061 283.768 152.085 283.705 152.106 283.621L152.444 282.451ZM153.872 277.394V277.098H157.054C157.791 277.098 158.36 277.264 158.761 277.594C159.161 277.924 159.361 278.366 159.361 278.921V279.164C159.361 279.585 159.245 279.943 159.014 280.238C158.782 280.533 158.448 280.744 158.013 280.871L159.33 283.378C159.414 283.533 159.477 283.645 159.519 283.716C159.562 283.786 159.6 283.831 159.635 283.852C159.677 283.867 159.734 283.881 159.804 283.895L160.278 283.968V284.263H158.308L156.717 280.997H155.947V283.378C155.947 283.617 155.958 283.761 155.979 283.81C156 283.852 156.067 283.881 156.179 283.895L156.759 283.968V284.263H153.872V283.968L154.451 283.895C154.564 283.881 154.63 283.852 154.651 283.81C154.673 283.761 154.683 283.617 154.683 283.378V277.984C154.683 277.745 154.673 277.604 154.651 277.562C154.63 277.513 154.564 277.481 154.451 277.467L153.872 277.394ZM157.054 277.467H155.947V280.628H157.054C157.363 280.628 157.598 280.533 157.76 280.344C157.928 280.147 158.013 279.789 158.013 279.269V278.816C158.013 278.296 157.928 277.941 157.76 277.752C157.598 277.562 157.363 277.467 157.054 277.467ZM164.775 283.968V284.263H161.888V283.968L162.468 283.895C162.58 283.881 162.647 283.852 162.668 283.81C162.689 283.761 162.7 283.617 162.7 283.378V281.197L161.024 277.984C160.94 277.822 160.877 277.71 160.835 277.646C160.793 277.576 160.75 277.53 160.708 277.509C160.673 277.488 160.621 277.474 160.55 277.467L159.971 277.394V277.098H162.974V277.394L162.394 277.467C162.289 277.481 162.236 277.513 162.236 277.562C162.236 277.604 162.292 277.745 162.405 277.984L163.764 280.702L165.176 277.984C165.295 277.752 165.352 277.611 165.344 277.562C165.344 277.513 165.292 277.481 165.186 277.467L164.607 277.394V277.098H166.662V277.394L166.082 277.467C166.012 277.474 165.956 277.488 165.913 277.509C165.878 277.53 165.84 277.576 165.798 277.646C165.762 277.71 165.703 277.822 165.618 277.984L163.964 281.176V283.378C163.964 283.617 163.975 283.761 163.996 283.81C164.017 283.852 164.084 283.881 164.196 283.895L164.775 283.968ZM167.012 277.394V277.098H170.12C171.019 277.098 171.708 277.362 172.185 277.889C172.67 278.416 172.912 279.234 172.912 280.344V281.008C172.912 282.117 172.67 282.939 172.185 283.473C171.708 284 171.019 284.263 170.12 284.263H167.012V283.968L167.591 283.895C167.704 283.881 167.77 283.852 167.791 283.81C167.813 283.761 167.823 283.617 167.823 283.378V277.984C167.823 277.745 167.813 277.604 167.791 277.562C167.77 277.513 167.704 277.481 167.591 277.467L167.012 277.394ZM170.067 277.467H169.087V283.895H170.067C170.426 283.895 170.714 283.835 170.931 283.716C171.149 283.589 171.307 283.357 171.406 283.02C171.511 282.676 171.564 282.181 171.564 281.534V279.817C171.564 279.171 171.511 278.679 171.406 278.342C171.307 278.005 171.149 277.776 170.931 277.657C170.714 277.53 170.426 277.467 170.067 277.467ZM175.259 283.968V284.263H173.225V283.968L173.804 283.895C173.882 283.881 173.938 283.867 173.973 283.852C174.008 283.831 174.04 283.786 174.068 283.716C174.096 283.645 174.135 283.533 174.184 283.378L176.196 277.098H177.102L179.125 283.378C179.175 283.533 179.213 283.645 179.241 283.716C179.269 283.786 179.301 283.831 179.336 283.852C179.378 283.867 179.435 283.881 179.505 283.895L180.084 283.968V284.263H177.176V283.968L177.756 283.895C177.868 283.881 177.928 283.852 177.935 283.81C177.949 283.761 177.917 283.617 177.84 283.378L177.44 282.072H175.006L174.595 283.378C174.524 283.617 174.493 283.761 174.5 283.81C174.507 283.852 174.567 283.881 174.679 283.895L175.259 283.968ZM175.132 281.703H177.324L176.238 278.205L175.132 281.703ZM183.976 283.968V284.263H181.089V283.968L181.669 283.895C181.781 283.881 181.848 283.852 181.869 283.81C181.89 283.761 181.9 283.617 181.9 283.378V281.197L180.225 277.984C180.141 277.822 180.078 277.71 180.035 277.646C179.993 277.576 179.951 277.53 179.909 277.509C179.874 277.488 179.821 277.474 179.751 277.467L179.171 277.394V277.098H182.174V277.394L181.595 277.467C181.489 277.481 181.437 277.513 181.437 277.562C181.437 277.604 181.493 277.745 181.605 277.984L182.965 280.702L184.377 277.984C184.496 277.752 184.552 277.611 184.545 277.562C184.545 277.513 184.492 277.481 184.387 277.467L183.808 277.394V277.098H185.862V277.394L185.283 277.467C185.212 277.474 185.156 277.488 185.114 277.509C185.079 277.53 185.04 277.576 184.998 277.646C184.963 277.71 184.903 277.822 184.819 277.984L183.165 281.176V283.378C183.165 283.617 183.175 283.761 183.196 283.81C183.218 283.852 183.284 283.881 183.397 283.895L183.976 283.968ZM195.635 282.451H195.93V284.263H190.925V283.968L191.505 283.895C191.617 283.881 191.684 283.852 191.705 283.81C191.726 283.761 191.736 283.617 191.736 283.378V277.984C191.736 277.745 191.726 277.604 191.705 277.562C191.684 277.513 191.617 277.481 191.505 277.467L190.925 277.394V277.098H193.812V277.394L193.233 277.467C193.12 277.481 193.054 277.513 193.032 277.562C193.011 277.604 193.001 277.745 193.001 277.984V283.895H194.729C194.897 283.895 195.017 283.891 195.087 283.884C195.157 283.87 195.203 283.845 195.224 283.81C195.252 283.768 195.277 283.705 195.298 283.621L195.635 282.451ZM196.533 277.394V277.098H199.42V277.394L198.841 277.467C198.728 277.481 198.661 277.513 198.64 277.562C198.619 277.604 198.609 277.745 198.609 277.984V283.378C198.609 283.617 198.619 283.761 198.64 283.81C198.661 283.852 198.728 283.881 198.841 283.895L199.42 283.968V284.263H196.533V283.968L197.113 283.895C197.225 283.881 197.292 283.852 197.313 283.81C197.334 283.761 197.344 283.617 197.344 283.378V277.984C197.344 277.745 197.334 277.604 197.313 277.562C197.292 277.513 197.225 277.481 197.113 277.467L196.533 277.394ZM205.661 277.984L203.67 284.263H202.764L200.762 277.984C200.713 277.822 200.674 277.71 200.646 277.646C200.618 277.576 200.586 277.53 200.551 277.509C200.516 277.488 200.46 277.474 200.383 277.467L199.803 277.394V277.098H202.732V277.394L202.153 277.467C202.04 277.481 201.981 277.513 201.974 277.562C201.967 277.604 201.998 277.745 202.068 277.984L203.67 283.01L205.251 277.984C205.328 277.745 205.359 277.604 205.345 277.562C205.338 277.513 205.279 277.481 205.166 277.467L204.587 277.394V277.098H206.61V277.394L206.03 277.467C205.96 277.474 205.907 277.488 205.872 277.509C205.837 277.53 205.805 277.576 205.777 277.646C205.749 277.71 205.711 277.822 205.661 277.984ZM206.987 277.394V277.098H209.874V277.394L209.295 277.467C209.183 277.481 209.116 277.513 209.095 277.562C209.074 277.604 209.063 277.745 209.063 277.984V283.378C209.063 283.617 209.074 283.761 209.095 283.81C209.116 283.852 209.183 283.881 209.295 283.895L209.874 283.968V284.263H206.987V283.968L207.567 283.895C207.679 283.881 207.746 283.852 207.767 283.81C207.788 283.761 207.799 283.617 207.799 283.378V277.984C207.799 277.745 207.788 277.604 207.767 277.562C207.746 277.513 207.679 277.481 207.567 277.467L206.987 277.394ZM215.231 277.394V277.098H217.275V277.394L216.695 277.467C216.583 277.481 216.516 277.513 216.495 277.562C216.474 277.604 216.464 277.745 216.464 277.984V284.263H215.884L212.017 278.015V283.378C212.017 283.617 212.028 283.761 212.049 283.81C212.07 283.852 212.136 283.881 212.249 283.895L212.828 283.968V284.263H210.784V283.968L211.364 283.895C211.476 283.881 211.543 283.852 211.564 283.81C211.585 283.761 211.596 283.617 211.596 283.378V277.984C211.596 277.745 211.585 277.604 211.564 277.562C211.543 277.513 211.476 277.481 211.364 277.467L210.784 277.394V277.098H212.902L216.042 282.146V277.984C216.042 277.745 216.032 277.604 216.01 277.562C215.989 277.513 215.923 277.481 215.81 277.467L215.231 277.394ZM221.369 281.313V281.018H224.361V281.313L223.782 281.387C223.669 281.401 223.602 281.433 223.581 281.482C223.56 281.524 223.55 281.664 223.55 281.903V284.263H223.265C223.076 284.067 222.865 283.902 222.633 283.768C222.443 283.937 222.219 284.081 221.959 284.2C221.699 284.313 221.383 284.369 221.01 284.369C220.434 284.369 219.939 284.225 219.525 283.937C219.117 283.642 218.805 283.238 218.587 282.725C218.369 282.205 218.26 281.615 218.26 280.955V280.291C218.26 279.652 218.369 279.086 218.587 278.595C218.805 278.096 219.124 277.706 219.546 277.425C219.967 277.137 220.484 276.993 221.095 276.993C221.671 276.993 222.145 277.098 222.517 277.309C222.896 277.513 223.174 277.787 223.35 278.131C223.525 278.468 223.592 278.837 223.55 279.237L222.317 279.543C222.394 278.841 222.317 278.303 222.085 277.931C221.853 277.552 221.509 277.362 221.053 277.362C220.09 277.362 219.609 278.215 219.609 279.922V281.429C219.609 283.143 220.118 284 221.137 284C221.362 284 221.586 283.954 221.811 283.863C222.043 283.772 222.236 283.638 222.391 283.463V281.903C222.391 281.664 222.38 281.52 222.359 281.471C222.338 281.422 222.271 281.394 222.159 281.387L221.369 281.313Z" fill="#45137D"/>
<path d="M235.805 280.763H268.732" stroke="#CC933A" stroke-width="0.987815"/>
</svg>
