<?xml version="1.0" encoding="UTF-8"?>
<svg id="Layer_2" data-name="Layer 2" xmlns="http://www.w3.org/2000/svg" viewBox="0 0 168.95 179.22">
  <defs>
    <style>
      .cls-1 {
        fill: #cc933a;
      }

      .cls-1, .cls-2 {
        stroke-width: 0px;
      }

      .cls-2 {
        fill: #fff;
      }
    </style>
  </defs>
  <g id="Layer_1-2" data-name="Layer 1">
    <path class="cls-2" d="M85.51.02c1.39,0,2.78-.06,4.17.01,1.82.09,3.65.23,5.46.46,2.28.29,4.57.62,6.82,1.1,2.36.5,4.68,1.17,7.01,1.8,3.25.89,6.37,2.17,9.44,3.54,2.61,1.17,5.11,2.53,7.57,3.99,3.85,2.29,7.45,4.92,10.85,7.81,3.04,2.59,5.86,5.4,8.51,8.39,3.84,4.35,7.12,9.1,10,14.13,1.73,3.02,3.27,6.13,4.54,9.38.7,1.81,1.43,3.6,2.07,5.44.9,2.59,1.61,5.24,2.23,7.92.64,2.75,1.13,5.52,1.47,8.32.25,2.07.52,4.13.54,6.23,0,.99.14,1.97.16,2.95.06,2.85-.11,5.7-.37,8.54-.24,2.66-.62,5.3-1.12,7.93-.9,4.68-2.23,9.24-3.97,13.68-.94,2.42-1.96,4.81-3.18,7.11-1.48,2.82-3.04,5.59-4.8,8.24-2.21,3.33-4.6,6.52-7.25,9.5-1.87,2.1-3.79,4.15-5.9,6.04-2.54,2.27-5.13,4.47-7.88,6.47-3.29,2.4-6.73,4.55-10.34,6.42-3.71,1.91-7.53,3.58-11.5,4.89-4.53,1.48-9.15,2.58-13.87,3.24-.58.08-1.16.15-1.74.2-.22.02-.44,0-.65-.03-.27-.06-.44-.25-.51-.52-.07-.27.07-.64.32-.76.23-.11.48-.18.73-.22,1.33-.22,2.68-.4,4.01-.64,4.48-.79,8.84-1.99,13.11-3.56,3.1-1.14,6.11-2.46,9.03-4,3.21-1.69,6.3-3.56,9.26-5.66,2.24-1.59,4.4-3.28,6.48-5.07,2.47-2.13,4.78-4.41,6.96-6.83,2.02-2.23,3.91-4.55,5.68-6.97,2.1-2.87,3.99-5.86,5.68-8.99,1.3-2.42,2.53-4.87,3.57-7.41,1.23-2.98,2.29-6.01,3.15-9.12.96-3.5,1.74-7.03,2.18-10.63.25-2.03.34-4.08.54-6.12.18-1.82.21-3.65.15-5.48-.06-1.83-.18-3.65-.35-5.47-.2-2.04-.46-4.07-.74-6.1-.16-1.12-.41-2.23-.62-3.34-.55-2.88-1.3-5.71-2.21-8.49-.88-2.71-1.9-5.38-3.04-8-1.95-4.43-4.27-8.66-6.93-12.7-1.82-2.75-3.81-5.36-5.96-7.86-1.53-1.77-3.09-3.51-4.78-5.14-3.14-3.03-6.47-5.81-10.04-8.32-3.15-2.21-6.44-4.19-9.9-5.87-4.45-2.16-9.05-3.92-13.86-5.17-3.69-.96-7.43-1.62-11.21-2.09-1.52-.19-3.07-.17-4.59-.33-2.16-.23-4.31-.22-6.47-.14-2.45.09-4.9.18-7.32.56-1.95.3-3.91.58-5.85.91-2.82.49-5.59,1.17-8.31,2.04-2.33.75-4.65,1.56-6.92,2.47-2.82,1.13-5.56,2.45-8.19,3.97-1.84,1.06-3.66,2.15-5.43,3.32-2.93,1.93-5.71,4.08-8.36,6.39-2.57,2.24-4.96,4.66-7.26,7.16-2.93,3.18-5.5,6.64-7.87,10.26-2.66,4.05-4.91,8.31-6.79,12.77-1.52,3.62-2.81,7.31-3.76,11.11-.72,2.88-1.28,5.78-1.64,8.73-.18,1.49-.3,2.98-.47,4.47-.35,2.99-.17,5.99-.2,8.99-.02,1.76.22,3.5.39,5.25.28,2.95.73,5.88,1.37,8.77.42,1.93.91,3.84,1.48,5.73.66,2.17,1.39,4.32,2.24,6.42,1.41,3.46,3.02,6.82,4.9,10.05,1.55,2.66,3.22,5.23,5.07,7.69,1.92,2.54,3.92,5.01,6.18,7.27.52.52.96,1.1,1.48,1.62,4.48,4.39,9.31,8.34,14.64,11.67,2.11,1.32,4.26,2.58,6.48,3.69,4.58,2.3,9.3,4.26,14.27,5.63,2.9.8,5.81,1.47,8.77,2,.86.15,1.74.23,2.61.36.36.05.72.12,1.06.26.42.17.59.53.49.87-.09.31-.35.5-.77.49-.55-.01-1.1-.04-1.64-.12-3.14-.5-6.28-1.06-9.36-1.87-3.69-.97-7.31-2.13-10.8-3.65-4.4-1.9-8.67-4.07-12.72-6.67-3.49-2.24-6.8-4.7-9.95-7.38-2.6-2.2-5.01-4.61-7.31-7.11-2.65-2.88-5.09-5.94-7.29-9.19-1.89-2.79-3.65-5.65-5.18-8.66-1.4-2.77-2.71-5.59-3.76-8.53-1.05-2.93-2.01-5.88-2.73-8.91-.73-3.06-1.28-6.16-1.68-9.28-.27-2.03-.43-4.07-.48-6.12-.02-.88-.14-1.75-.15-2.63-.03-2.67.14-5.33.35-7.99.23-2.85.63-5.67,1.18-8.47.72-3.7,1.66-7.35,2.92-10.91.95-2.69,2.02-5.33,3.24-7.92,2.09-4.45,4.61-8.65,7.4-12.68,1.46-2.11,3.05-4.11,4.7-6.07,1.67-1.99,3.45-3.88,5.29-5.71,1.82-1.8,3.74-3.49,5.71-5.12,2.46-2.03,5.01-3.93,7.69-5.65,2.68-1.72,5.4-3.37,8.31-4.69,1.63-.74,3.22-1.58,4.88-2.24,2.21-.87,4.46-1.66,6.71-2.4,3.66-1.19,7.41-2.03,11.2-2.66,2.31-.38,4.64-.61,6.97-.83,2.12-.2,4.24-.15,6.36-.16h0Z"/>
    <path class="cls-2" d="M71.29,73.83c-.65.88-.94,1.75-1.22,2.61-.79,2.45-1.26,4.96-1.19,7.55.01.37.01.73,0,1.1-.1,2.93.44,5.76,1.35,8.52.9,2.74,2.32,5.21,4.25,7.36.8.9,1.61,1.8,2.48,2.64.97.94,2,1.82,3.01,2.72.42.38.59.7.4.77-.34.14-.53-.15-.76-.31-2.15-1.54-4.46-2.8-6.8-4.01-1.1-.58-2.22-1.12-3.29-1.75-5.89-3.47-9.75-8.51-11.55-15.11-.81-2.95-1.11-5.97-.91-9.02.17-2.57.68-5.07,1.5-7.51.99-2.97,2.39-5.74,4.34-8.21.61-.77,1.3-1.49,2.05-2.13,1.29-1.1,2.79-1.42,4.41-.81.77.29,1.41.78,1.94,1.4.86,1.01,1.57,2.11,2.07,3.34.43,1.05.84,2.11,1.23,3.17,1,2.77,2.36,5.35,4.22,7.65,1.23,1.53,2.73,2.74,4.41,3.74.91.55,1.87.99,2.88,1.34.72.25,1.39.24,2.13-.04,2.76-1.03,4.95-2.79,6.77-5.06,1.69-2.1,2.9-4.48,3.85-6.99.5-1.33.93-2.7,1.63-3.95.54-.96,1.17-1.84,2.12-2.47,1.08-.72,2.25-.8,3.47-.6.56.09,1.01.42,1.44.77.71.58,1.34,1.24,1.84,2.02,2.09,3.26,3.32,6.83,3.9,10.63.27,1.77.47,3.55.44,5.35-.11,5.25-1.49,10.11-4.42,14.49-2,2.99-4.52,5.46-7.61,7.32-1.6.96-3.24,1.85-4.88,2.73-2.13,1.15-4.2,2.38-6.08,3.9-.08.07-.18.15-.27.17-.09.02-.24,0-.28-.06-.04-.07-.02-.22.03-.29.16-.2.35-.38.53-.56,1.07-1.05,2.16-2.08,3.2-3.16.99-1.03,1.96-2.08,2.86-3.18,2.67-3.29,4.21-7.08,4.79-11.27.59-4.33.42-8.61-.82-12.82-.07-.23-.19-.44-.32-.74-.17.15-.29.23-.38.34-1.34,1.58-2.95,2.82-4.73,3.88-1.76,1.05-3.68,1.63-5.67,1.95-5.26.83-10-.48-14.28-3.59-1.28-.93-2.39-2.03-3.41-3.24-.16-.18-.35-.34-.63-.59h0Z"/>
    <path class="cls-2" d="M64.13,110.14c-.59-.85-1.28-1.28-1.96-1.69-1.22-.73-2.47-1.42-3.73-2.09-1.46-.77-2.86-1.62-4.17-2.63-1.35-1.04-2.45-2.3-3.33-3.75-.56-.92-.94-1.9-1.05-2.98-.03-.29-.02-.59.04-.87.19-.81.88-1.2,1.67-.96.27.09.54.23.78.39.46.3.89.64,1.33.96,2.72,2.01,5.63,3.67,8.9,4.64,1.12.33,2.23.7,3.36,1.01,1.94.54,3.83,1.23,5.65,2.1,1.98.95,3.82,2.16,5.44,3.67,1.61,1.51,3.01,3.18,4.14,5.09,1.32,2.23,2.14,4.64,2.62,7.17.4,2.13.54,4.28.42,6.44-.07,1.31-.26,2.62-.43,3.92-.08.62-.24.77-.84.78-.77.01-1.54.01-2.3-.05-3.07-.25-6.09-.79-9.06-1.59-3.11-.84-6.14-1.92-9.03-3.37-2.06-1.03-4.09-2.11-6.02-3.38-3.65-2.41-6.94-5.25-9.87-8.48-3.44-3.79-6.19-8.05-8.37-12.68-1.98-4.2-3.26-8.61-3.84-13.22-.07-.54-.08-1.1-.03-1.64.1-1.06,1.01-1.53,1.89-.92.53.37,1,.86,1.38,1.39.63.89,1.21,1.83,1.72,2.8,1.37,2.59,2.86,5.11,4.57,7.48.79,1.1,1.63,2.16,2.51,3.18,1.64,1.92,3.5,3.62,5.54,5.12,2.05,1.51,4.27,2.68,6.71,3.43,1.4.43,2.84.68,4.31.77.28.02.57-.03,1.06-.06h0Z"/>
    <path class="cls-2" d="M106.24,110.04c.19.08.28.15.37.15.55,0,1.1,0,1.64-.05,3.81-.3,7.12-1.86,10.12-4.12,2.11-1.59,3.97-3.44,5.64-5.49,2.28-2.79,4.17-5.82,5.82-9.01.55-1.07,1.11-2.14,1.72-3.19.37-.63.81-1.21,1.28-1.78.22-.27.53-.51.85-.68.63-.34,1.26-.09,1.52.58.16.42.18.85.12,1.3-.56,4.53-1.72,8.89-3.53,13.08-1.32,3.07-2.89,6-4.76,8.75-1,1.48-2.14,2.87-3.25,4.27-1.39,1.75-2.98,3.33-4.63,4.82-2.69,2.43-5.58,4.59-8.74,6.4-3.32,1.9-6.82,3.36-10.49,4.42-2.88.83-5.82,1.45-8.82,1.64-1.09.07-2.19.15-3.28.21-.25.02-.51.01-.77,0-.47-.04-.66-.19-.78-.63-.05-.18-.07-.36-.1-.54-.55-3.58-.56-7.14.28-10.67.57-2.36,1.45-4.6,2.76-6.66.99-1.55,2.08-3.01,3.42-4.27,2.01-1.9,4.26-3.43,6.79-4.57,2.11-.95,4.3-1.64,6.52-2.27,1.66-.46,3.27-1.05,4.85-1.75,1.82-.8,3.47-1.89,5.08-3.04.59-.42,1.17-.88,1.78-1.28.33-.22.7-.41,1.08-.52.67-.2,1.23.11,1.52.74.15.34.24.7.14,1.07-.19.67-.35,1.35-.61,1.98-.79,1.9-2.08,3.43-3.68,4.7-1.58,1.26-3.31,2.27-5.09,3.23-1.16.62-2.28,1.32-3.41,1.99-.5.3-.9.71-1.36,1.16h0Z"/>
    <path class="cls-1" d="M162.19,83.38c0,.82.03,2.29-.01,3.75-.03,1.06-.14,2.11-.24,3.17-.26,2.66-.68,5.29-1.26,7.9-.86,3.86-1.95,7.65-3.4,11.34-.96,2.45-2.02,4.86-3.2,7.22-1.03,2.06-2.15,4.07-3.39,6.02-.75,1.17-1.47,2.36-2.28,3.49-1.15,1.6-2.36,3.17-3.57,4.72-1.31,1.67-2.73,3.24-4.24,4.74-.72.72-1.37,1.53-2.11,2.23-1.06,1.01-2.17,1.96-3.26,2.93-.74.65-1.46,1.33-2.24,1.94-1.51,1.16-3.02,2.31-4.58,3.39-1.56,1.08-3.17,2.09-4.78,3.11-.77.49-1.58.93-2.39,1.35-2.88,1.51-5.79,2.98-8.83,4.15-4.18,1.61-8.43,2.91-12.84,3.7-1.62.29-3.24.57-4.87.82-.42.07-.87.02-1.3,0-.07,0-.17-.16-.17-.25s.07-.22.14-.27c.12-.07.27-.1.42-.12.87-.13,1.74-.24,2.61-.38,1.59-.26,3.19-.47,4.76-.81,4.55-.99,8.96-2.41,13.24-4.27,3.39-1.47,6.69-3.15,9.83-5.09,2.46-1.52,4.85-3.13,7.12-4.93,1.47-1.15,2.88-2.37,4.31-3.56.23-.19.43-.39.64-.6,1.12-1.11,2.24-2.21,3.35-3.32,2.12-2.12,4.08-4.39,5.9-6.77,1.6-2.09,3.13-4.23,4.51-6.48,1.74-2.84,3.34-5.75,4.72-8.79,1.18-2.6,2.2-5.26,3.13-7.96.45-1.31.82-2.66,1.17-4,.64-2.52,1.29-5.03,1.64-7.61.22-1.67.41-3.34.6-5.01.41-3.65.26-7.31.15-10.96-.08-2.44-.42-4.88-.82-7.3-.51-3.11-1.19-6.17-2.02-9.21-.86-3.14-2-6.19-3.25-9.2-1.6-3.86-3.54-7.54-5.72-11.11-2.18-3.56-4.62-6.94-7.33-10.12-1.9-2.23-3.95-4.32-6.1-6.31-2.28-2.11-4.7-4.06-7.22-5.89-3.26-2.37-6.71-4.44-10.32-6.23-5.53-2.75-11.3-4.8-17.37-6.02-2.44-.49-4.89-.92-7.36-1.21-1.45-.17-2.92-.21-4.37-.29-1.53-.08-3.07-.2-4.6-.16-1.97.04-3.94.21-5.91.34-.91.06-1.82.16-2.73.24-1.97.18-3.91.53-5.85.91-3.13.61-6.22,1.36-9.24,2.37-4.32,1.44-8.48,3.22-12.47,5.41-2.56,1.41-5.05,2.95-7.45,4.63-2.49,1.75-4.81,3.7-7.12,5.66-2.01,1.71-3.87,3.58-5.64,5.52-1.67,1.83-3.33,3.69-4.78,5.72-1.06,1.49-2.2,2.93-3.21,4.44-1.36,2.03-2.61,4.14-3.79,6.29-2.45,4.44-4.34,9.11-5.87,13.93-1.08,3.42-1.83,6.93-2.38,10.48-.35,2.24-.56,4.49-.72,6.76-.13,1.76-.14,3.51-.16,5.26-.02,2.09.19,4.16.36,6.24.18,2.27.53,4.5.94,6.73.48,2.66,1.1,5.3,1.9,7.89.34,1.08.71,2.15,1.07,3.23.8,2.36,1.72,4.66,2.85,6.89.79,1.56,1.56,3.14,2.4,4.69,1.78,3.29,3.83,6.4,6.09,9.38,2.59,3.42,5.51,6.54,8.59,9.52,1.55,1.5,3.2,2.89,4.86,4.27,1.63,1.37,3.36,2.6,5.11,3.79,2,1.35,4.01,2.68,6.17,3.79,1.56.8,3.1,1.65,4.67,2.43,3.59,1.76,7.34,3.09,11.17,4.24,3.44,1.03,6.96,1.69,10.5,2.27.58.09,1.16.15,1.74.24.22.04.44.11.47.38.02.19-.27.37-.6.33-1.16-.15-2.32-.29-3.47-.49-1.48-.27-2.94-.59-4.41-.9-3.01-.64-5.94-1.57-8.84-2.6-2.93-1.04-5.78-2.28-8.56-3.69-2.64-1.35-5.19-2.84-7.69-4.44-2.65-1.7-5.15-3.6-7.61-5.56-.72-.57-1.4-1.18-2.07-1.8-1.31-1.22-2.64-2.43-3.9-3.7-1.49-1.5-2.92-3.08-4.23-4.74-.97-1.23-2-2.42-2.95-3.68-2.51-3.34-4.72-6.87-6.64-10.58-1.26-2.44-2.38-4.94-3.4-7.49-2.2-5.46-3.6-11.13-4.45-16.94-.27-1.84-.48-3.69-.59-5.56-.13-2.01-.17-4.02-.13-6.03.05-2.59.16-5.19.55-7.76.23-1.52.38-3.05.67-4.55.36-1.9.79-3.8,1.25-5.68.74-3.06,1.78-6.03,2.98-8.94.86-2.09,1.75-4.18,2.83-6.18.61-1.12,1.21-2.25,1.83-3.37,1.63-2.91,3.48-5.67,5.48-8.34,1.38-1.84,2.85-3.61,4.37-5.35,1.96-2.23,4.06-4.31,6.23-6.34,2.3-2.15,4.79-4.07,7.34-5.92,2.14-1.55,4.38-2.93,6.65-4.25,2.02-1.18,4.13-2.2,6.25-3.2,2.59-1.22,5.27-2.19,7.97-3.09,2.92-.97,5.91-1.68,8.92-2.3,2.33-.48,4.68-.81,7.05-1.05,1.56-.16,3.14-.14,4.7-.31,1.5-.16,3-.19,4.49-.14,1.97.07,3.94.22,5.91.36.77.05,1.53.16,2.29.23,3.07.27,6.06.94,9.06,1.63,4.15.95,8.15,2.37,12.05,4.06,2.52,1.09,4.94,2.39,7.32,3.76,3.24,1.87,6.29,4.01,9.23,6.32,1.52,1.19,2.96,2.5,4.4,3.8.97.88,1.88,1.84,2.81,2.77,2.54,2.54,4.85,5.28,6.96,8.18,1.9,2.61,3.68,5.29,5.2,8.13.28.52.59,1.01.86,1.53.58,1.1,1.15,2.2,1.71,3.31,1.61,3.25,2.95,6.61,4.07,10.06,1.46,4.53,2.54,9.16,3.18,13.88.46,3.41.76,6.83.61,10.92h0Z"/>
    <path class="cls-1" d="M131.96,81.04c-.02-.49-.04-.74-.05-.99-.01-.95.01-1.9-.03-2.85-.15-3.78-.65-7.5-1.78-11.12-.49-1.57-.98-3.14-1.63-4.66-1.06-2.45-2.28-4.82-3.69-7.1-1.34-2.15-2.89-4.14-4.55-6.03-1.1-1.26-2.36-2.39-3.6-3.53-.89-.82-1.84-1.56-2.78-2.32-1.89-1.52-3.94-2.78-6.06-3.95-3.48-1.93-7.19-3.28-11.02-4.28-1.87-.49-3.77-.86-5.71-1.06-2.11-.22-4.22-.4-6.34-.39-2.71.02-5.4.33-8.07.74-2.54.4-5.01,1.05-7.45,1.84-1.18.38-2.35.83-3.49,1.33-2.07.91-4.16,1.82-6.08,3.04-2.26,1.42-4.48,2.9-6.49,4.68-1.24,1.09-2.43,2.22-3.57,3.41-2.09,2.16-3.92,4.53-5.5,7.09-1.43,2.31-2.67,4.7-3.7,7.22-1.33,3.27-2.23,6.66-2.78,10.13-.21,1.33-.27,2.69-.32,4.04-.05,1.61-.02,3.22-.03,4.83,0,.31.09.65-.23,1.01-.07-.18-.16-.29-.16-.41-.14-1.86-.29-3.71-.27-5.58.02-1.32.14-2.63.29-3.94.38-3.36,1.13-6.63,2.25-9.82,1.26-3.57,2.88-6.95,5-10.1,1.41-2.1,2.95-4.08,4.64-5.97,1.32-1.48,2.79-2.78,4.29-4.07,2.14-1.84,4.47-3.43,6.91-4.84,2.22-1.28,4.52-2.4,6.93-3.3,2.61-.98,5.27-1.76,8.01-2.28,2.3-.44,4.62-.73,6.96-.85,1.09-.05,2.18-.2,3.28-.17,5.36.15,10.64.83,15.74,2.57,4.35,1.49,8.4,3.56,12.15,6.24,2.82,2.01,5.33,4.34,7.64,6.89,2.47,2.72,4.55,5.72,6.23,8.99,1.18,2.28,2.25,4.6,3.05,7.04.9,2.75,1.56,5.55,1.98,8.42.43,2.95.41,5.9.36,8.87,0,.35.04.73-.38,1.24h0Z"/>
    <path class="cls-2" d="M72.31,45.83c.21-.03.49-.06.78-.09,1.21-.15,2.4-.17,3.58.22,1.81.6,3.08,1.81,3.87,3.5,2.03,4.28-1.2,9.19-5.65,9.29-3.31.08-6.02-1.75-6.86-5.29-.13-.56-.13-1.16-.16-1.74-.03-.47-.08-.56-.52-.7-.48-.16-.99-.29-1.43-.54-1.47-.81-2.09-2.17-2.01-3.75.11-1.97,1.18-3.28,3.01-3.89,1.84-.62,3.89.43,4.69,1.92.17.32.34.64.52.96.02.03.06.04.17.12Z"/>
    <path class="cls-2" d="M106.03,54.07c-.02,3.65-3.04,6.61-6.69,6.56-3.34-.05-6.48-2.8-6.45-6.6.04-4.1,3.3-6.48,6.5-6.55,3.65-.09,6.66,2.95,6.64,6.59h0Z"/>
    <path class="cls-1" d="M87.11,106.25c.23-.26.42-.51.65-.73,1.39-1.35,2.68-2.81,3.86-4.34,1.39-1.8,2.56-3.74,3.35-5.89.41-1.11.61-2.28.62-3.44.01-1.5-.45-2.89-1.45-4.05-.57-.65-1.3-1.07-2.12-1.3-3.44-.99-4.8.64-6.67,3.05-.44-.66-1-1.35-1.63-1.89-1.52-1.32-3.27-1.74-5.2-1.07-1.42.49-2.28,1.55-2.81,2.9-.48,1.22-.54,2.49-.35,3.78.29,1.99,1.09,3.78,2.13,5.48,1.13,1.85,2.45,3.55,3.97,5.09.67.68,1.25,1.51,1.9,2.34-1.75-1.15-3.76-3.15-5.3-4.69-1.48-1.48-2.72-3.16-3.74-4.98-1.17-2.1-1.67-4.36-1.49-6.76.19-2.49,2-5.22,4.82-5.9.98-.24,1.95-.26,2.93,0,2.27.62,3.61,2.48,4.77,4.38.77-1.54,1.42-2.42,2.52-3.27,1.75-1.35,4.49-1.84,6.71-.58,1.54.87,2.58,2.11,3.09,3.81.42,1.4.49,2.78.24,4.22-.31,1.76-1.01,3.37-1.96,4.85-1,1.57-2.12,3.06-3.45,4.39-.73.73-3.65,3.85-5.4,4.58h0Z"/>
    <path class="cls-1" d="M89.75,157.68c-.04.95-.45,1.8-1.11,2.52-.47.51-.97.99-1.48,1.47-.59.55-1.2,1.07-1.81,1.59-.33.29-.54.29-.87,0-1.03-.93-2.05-1.87-3.07-2.81-.49-.45-.83-1.02-1.09-1.63-.19-.45-.26-.91-.23-1.39.13-1.83,1.83-2.92,3.55-2.25.31.12.59.29.87.46.36.23.68.22,1.01-.05.44-.36.93-.56,1.5-.59,1.4-.07,2.48.81,2.69,2.19.02.15.02.29.04.48h0Z"/>
    <path class="cls-1" d="M24.85,106.15c-.88.11-1.9-.63-2-1.49-.11-.97.39-1.83,1.58-1.96.92-.11,1.74.55,1.85,1.46.13.99-.51,1.88-1.43,1.99Z"/>
    <path class="cls-1" d="M143.61,104.56c-.13-.94.52-1.75,1.54-1.91.95-.14,1.79.52,1.95,1.49.16.95-.88,1.9-1.55,1.96-.95.08-1.8-.58-1.94-1.54Z"/>
    <path class="cls-2" d="M29.39,89.06c-.12-.78-.41-1.4-.85-1.84-.46-.46-1.09-.63-1.88-.5-.59.09-1.05.35-1.38.76-.34.4-.56,1.06-.68,1.99l-.26,1.9c-.13.95-.48,1.73-1.07,2.33-.6.59-1.4.96-2.4,1.12-.66.11-1.31.05-1.93-.15-.62-.22-1.16-.62-1.61-1.18-.45-.58-.76-1.35-.91-2.32-.17-1.05-.11-1.94.18-2.65.27-.71.7-1.24,1.27-1.6.57-.36,1.22-.53,1.94-.51l.77,2.18c-1.24-.02-2.16.22-2.75.72-.59.48-.82,1.15-.68,2.01.11.66.39,1.17.84,1.51.45.33,1.04.43,1.77.32.6-.1,1.1-.35,1.5-.76.4-.42.66-1.05.78-1.88l.26-1.9c.13-1.03.45-1.84.95-2.43.49-.59,1.25-.96,2.28-1.12.73-.12,1.41-.05,2.05.19.62.23,1.16.66,1.6,1.28.43.61.73,1.42.89,2.42.12.73.12,1.43.02,2.12-.12.69-.39,1.29-.81,1.81-.43.51-1.05.89-1.88,1.14l-.68-1.23c.82-.2,1.44-.48,1.86-.86.41-.38.66-.82.77-1.3.11-.5.12-1.01.03-1.55Z"/>
    <path class="cls-2" d="M29.86,70.78l-11.08,2.01,10.38,4.25-.19,1.71-12.01,1.41c-.31.03-.52.06-.65.09-.14.02-.23.07-.28.15-.05.06-.08.16-.11.31l-.26,1.06-.55-.06.61-5.44.55.06.02,1.1c0,.21.04.33.12.35.08.02.35.01.82-.03l9.38-1.01-10.46-4.22.18-1.63,10.96-2.01-8.72-3.09c-.45-.16-.71-.23-.79-.21-.08.02-.15.12-.19.32l-.26,1.06-.55-.06.43-3.81.55.06.02,1.1c0,.15.01.25.04.32.03.07.11.14.24.21.11.05.32.13.61.23l11.39,4.05-.19,1.73Z"/>
    <path class="cls-2" d="M19.35,59.6l-.52-.19,1.81-5.1.52.19-.23,1.07c-.05.21-.03.35.04.41.06.06.3.17.72.32l9.53,3.39c.42.15.68.22.78.22.09-.01.18-.11.27-.3l.49-.98.52.19-1.81,5.1-.52-.19.23-1.07c.05-.21.04-.34-.02-.41-.07-.07-.32-.18-.74-.33l-9.53-3.39c-.42-.15-.68-.22-.76-.21-.1,0-.2.1-.29.29l-.49.98Z"/>
    <path class="cls-2" d="M29.56,46.1l.27-.48,4.3,2.38-.27.48-1.61-.4c-.16-.04-.28-.06-.36-.04-.09,0-.17.05-.25.16-.09.1-.21.29-.36.57l-.99,1.78,4.08,2.26c.39.22.64.33.74.34.09,0,.19-.08.32-.25l.84-1.23.48.27-2.81,5.08-.48-.27.41-1.02c.08-.2.09-.33.04-.4-.06-.08-.29-.23-.68-.44l-8.85-4.9c-.39-.22-.63-.33-.72-.33-.1-.01-.21.07-.34.24l-.65.88-.48-.27,4.54-8.19,2.97,1.65-.27.48-2.22-.51c-.16-.04-.28-.06-.36-.04-.09,0-.17.05-.25.16-.09.1-.21.29-.36.57l-1.56,2.82,5.01,2.78.99-1.78c.15-.28.26-.48.31-.6.04-.13.04-.23,0-.29-.04-.08-.12-.18-.24-.29l-1.19-1.16Z"/>
    <path class="cls-2" d="M28.76,39.29l7.02-8.29,2.59,2.2-.36.42-2.08-.93c-.16-.08-.28-.12-.36-.12-.09-.02-.18.01-.27.11-.1.09-.24.26-.45.5l-1.29,1.52,8.46,7.16c.34.29.56.45.66.48.09.02.21-.04.36-.18l.81-.74.42.36-3.5,4.13-.42-.36.6-.92c.12-.18.16-.31.12-.39-.04-.09-.24-.28-.58-.57l-8.46-7.16-1.29,1.52c-.2.23-.34.41-.42.53-.08.11-.1.2-.06.29.02.07.09.18.18.34l1.27,1.9-.36.42-2.59-2.19Z"/>
    <path class="cls-2" d="M56.08,32.47c-1.02.65-2.03.99-3.01,1.01-.99,0-1.93-.27-2.81-.83-.88-.57-1.65-1.38-2.34-2.45l-.67-1.05c-.68-1.07-1.11-2.1-1.29-3.09-.18-1.01-.08-1.94.3-2.79.37-.86,1.05-1.61,2.04-2.24.84-.54,1.66-.82,2.43-.85.77-.04,1.46.13,2.08.5.62.36,1.11.86,1.47,1.53l-1.64,1.73c-.6-1.18-1.26-1.96-1.98-2.32-.72-.39-1.41-.37-2.07.06-.71.45-1.07,1.1-1.07,1.95,0,.84.45,1.95,1.34,3.34l1.73,2.71c.88,1.38,1.73,2.23,2.55,2.57.82.33,1.68.22,2.57-.35.37-.23.66-.52.89-.85.24-.34.36-.74.36-1.19,0-.47-.15-1.03-.48-1.66l1.4-.45c.24.72.31,1.38.21,1.98-.1.6-.33,1.13-.69,1.59-.36.45-.79.84-1.32,1.17Z"/>
    <path class="cls-2" d="M68.97,18.64l.42,1.17c.68,1.91.78,3.53.29,4.87-.48,1.32-1.55,2.27-3.21,2.87-1.66.59-3.1.53-4.32-.18-1.21-.73-2.16-2.05-2.84-3.96l-.42-1.17c-.68-1.91-.78-3.52-.3-4.84.49-1.32,1.57-2.28,3.23-2.87,1.66-.59,3.1-.53,4.3.18,1.22.71,2.17,2.02,2.85,3.93ZM66.25,18.56c-.39-1.09-.79-1.91-1.2-2.47-.41-.57-.87-.91-1.36-1.05-.48-.14-1.03-.09-1.65.13-.61.22-1.06.53-1.36.95-.3.41-.43.97-.39,1.67.04.69.25,1.58.64,2.67l1.08,3.03c.39,1.08.78,1.9,1.2,2.47.41.57.87.92,1.37,1.06.49.13,1.05.09,1.65-.13.62-.22,1.07-.54,1.36-.95.3-.43.42-.99.38-1.69-.04-.7-.25-1.59-.64-2.67l-1.08-3.03Z"/>
    <path class="cls-2" d="M89.29,23.17l.04.55-5.4.36-.04-.55,1.08-.21c.21-.04.33-.1.36-.18.03-.09.04-.37,0-.81l-.67-10.13-2.94,10.45-2.11.14-4.24-9.92.66,10.07c.03.45.07.72.11.8.04.08.17.12.39.13l1.09.07.04.55-3.82.25-.04-.55,1.08-.21c.21-.04.33-.1.36-.18.03-.09.04-.37,0-.81l-.66-10.09c-.03-.45-.07-.71-.11-.78-.05-.09-.17-.14-.39-.15l-1.09-.07-.04-.55,4.16-.27,4.28,10.01,2.99-10.49,4.04-.27.04.55-1.08.21c-.21.04-.33.11-.36.2-.03.08-.04.35,0,.79l.66,10.09c.03.45.07.71.11.8.04.08.17.12.38.13l1.09.07Z"/>
    <path class="cls-2" d="M100.21,16.69l.54.1-.93,4.83-.54-.1-.12-1.65c0-.16-.03-.28-.07-.36-.02-.09-.1-.15-.23-.18-.12-.05-.34-.11-.65-.17l-2-.39-.88,4.58c-.08.44-.12.71-.1.81.02.09.14.16.34.23l1.43.42-.1.54-5.7-1.1.1-.54,1.09.07c.21.01.34-.01.4-.08.06-.08.13-.34.21-.78l1.92-9.93c.08-.44.12-.7.09-.79-.02-.1-.13-.18-.33-.25l-1.04-.34.1-.54,9.19,1.77-.64,3.34-.54-.1-.2-2.27c0-.16-.03-.28-.07-.36-.02-.09-.1-.15-.23-.18-.12-.05-.34-.11-.65-.17l-3.16-.61-1.09,5.63,2,.39c.31.06.53.1.66.11.13,0,.23-.03.28-.09.07-.07.13-.18.2-.32l.73-1.49Z"/>
    <path class="cls-2" d="M115.14,24.08l-.49,1.14c-.8,1.86-1.84,3.11-3.11,3.76-1.25.64-2.68.61-4.31-.09-1.62-.7-2.63-1.73-3.04-3.08-.39-1.36-.18-2.97.62-4.83l.49-1.14c.8-1.86,1.83-3.11,3.08-3.75,1.26-.63,2.7-.6,4.32.1,1.62.7,2.63,1.72,3.02,3.07.41,1.35.21,2.96-.6,4.82ZM113.21,22.17c.46-1.06.73-1.94.81-2.62.08-.7,0-1.26-.28-1.69-.26-.43-.69-.77-1.3-1.03-.59-.26-1.14-.33-1.64-.24-.5.1-.98.42-1.42.96-.44.53-.89,1.32-1.35,2.39l-1.28,2.96c-.45,1.05-.72,1.93-.81,2.62s0,1.27.27,1.71c.27.43.71.78,1.3,1.03.6.26,1.15.34,1.64.24.51-.11.98-.44,1.43-.97.45-.54.9-1.33,1.35-2.39l1.28-2.96Z"/>
    <path class="cls-2" d="M121.87,21.59l.33-.44,4.79,3.56c1.11.83,1.78,1.71,2.01,2.66.23.94.04,1.83-.58,2.67l-.27.36c-.47.63-1.05,1.04-1.73,1.23-.68.18-1.42.13-2.21-.17l-.83,5.25c-.05.33-.08.57-.09.72-.01.15,0,.26.02.34.05.07.12.15.21.25l.63.64-.33.44-2.96-2.21,1.27-6.69-1.16-.86-2.67,3.58c-.27.36-.41.59-.44.69-.01.09.05.2.21.35l.79.76-.33.44-4.34-3.23.33-.44.95.54c.18.1.32.14.4.1.09-.05.26-.26.53-.61l6.04-8.11c.27-.36.41-.58.42-.67.02-.1-.04-.22-.19-.37l-.79-.76ZM126.57,25.27l-1.66-1.24-3.54,4.75,1.66,1.24c.47.35.93.47,1.38.36.47-.11,1-.55,1.58-1.33l.51-.68c.58-.78.85-1.41.81-1.88-.03-.47-.28-.87-.74-1.22Z"/>
    <path class="cls-2" d="M134.12,30.61l7.11,8.21-2.57,2.22-.36-.42,1.24-1.91c.1-.14.16-.25.18-.34.03-.08.01-.18-.06-.28-.08-.11-.22-.28-.43-.52l-1.31-1.51-8.38,7.26c-.34.29-.53.48-.57.58-.03.08,0,.21.13.39l.61.91-.42.36-3.55-4.09.42-.36.82.73c.16.14.28.2.36.18.1-.03.31-.19.65-.49l8.38-7.26-1.31-1.51c-.2-.23-.35-.39-.46-.49-.1-.09-.19-.13-.27-.1-.07.01-.19.06-.36.13l-2.07.96-.36-.42,2.57-2.23Z"/>
    <path class="cls-1" d="M141.07,59.67l.23.5-3.1,1.4-3.86-8.55.5-.23.57.93c.11.18.21.27.3.28.1,0,.35-.09.76-.28l9.22-4.16c.41-.18.64-.31.7-.38.07-.07.07-.21,0-.42l-.32-1.05.5-.23,2.23,4.93-.5.23-.57-.93c-.11-.18-.22-.27-.32-.27-.09,0-.34.09-.74.27l-10.1,4.56,1.33,2.95c.13.29.23.49.29.6.08.11.15.17.23.18.09.02.22,0,.38-.02l2.26-.33Z"/>
    <path class="cls-1" d="M150.86,59.33l.53-.15,1.42,5.22-.53.15-.42-1.01c-.08-.2-.17-.3-.27-.32-.09-.02-.35.03-.78.15l-9.76,2.66c-.43.12-.69.21-.77.27-.07.06-.08.19-.05.4l.15,1.08-.53.15-1.42-5.22.53-.15.42,1.01c.08.2.17.3.25.32.1.01.36-.04.8-.16l9.76-2.66c.43-.12.68-.21.75-.26.08-.06.1-.2.07-.41l-.15-1.08Z"/>
    <path class="cls-1" d="M154,77.22l.55-.04.3,3.82-.55.04-.22-1.07c-.04-.21-.11-.33-.21-.36-.08-.03-.35-.03-.79,0l-11.74.91-.08-1.08,11.12-8.13-10.03.78c-.45.03-.71.08-.8.12-.08.05-.12.17-.13.39l-.05,1.09-.55.04-.29-3.82.55-.04.22,1.07c.04.21.11.33.19.36.1.03.37.03.81,0l10.08-.78c.45-.03.71-.07.78-.12.09-.05.14-.18.15-.39l.05-1.09.55-.04.31,3.96-8.98,6.6,7.78-.6c.45-.03.71-.07.78-.12.09-.05.14-.18.15-.39l.05-1.09Z"/>
    <path class="cls-1" d="M143.23,93.1l-.08.55-3.36-.52,1.49-9.66.55.08-.03,1.09c0,.21.03.34.1.4.09.05.35.11.79.18l10,1.55c.44.07.71.09.79.06.1-.02.18-.14.23-.34l.3-1.05.55.08-1.46,9.47-3.36-.52.08-.55,2.26-.29c.16-.01.28-.04.35-.09.08-.03.14-.1.18-.23.05-.13.09-.35.14-.66l.52-3.4-5.54-.86-.34,2.23c-.05.31-.08.53-.08.67,0,.13.04.23.1.27.07.06.18.13.33.19l1.51.67-.09.55-4.86-.75.08-.55,1.65-.18c.16-.01.28-.04.35-.09.08-.03.14-.1.18-.23.05-.13.09-.35.14-.66l.34-2.23-5.68-.88-.55,3.59c-.05.31-.08.53-.08.67,0,.13.04.23.1.28.07.06.18.13.33.19l2.07.96Z"/>
    <path class="cls-2" d="M31.65,115.59l.19-.12.85,1.35-.19.12-.28-.37c-.06-.07-.11-.1-.15-.09-.04,0-.14.06-.3.16l-4.24,2.65-.22-.35,2.73-5.29-3.77,2.36c-.16.1-.25.17-.28.2-.02.03-.01.09.03.17l.2.42-.18.11-.85-1.35.18-.12.29.36c.06.07.1.1.14.1.04,0,.14-.06.3-.16l3.66-2.29c.16-.1.25-.17.27-.2.02-.03.02-.09-.02-.17l-.21-.41.19-.12.77,1.22-2.39,4.61,3.22-2.01c.16-.1.25-.17.27-.2.02-.03.02-.09-.02-.17l-.21-.41Z"/>
    <path class="cls-2" d="M33.92,122.66l-.5.38c-.65.49-1.27.73-1.86.72-.59-.02-1.1-.3-1.52-.86-.42-.56-.57-1.12-.42-1.7.15-.58.55-1.11,1.19-1.6l.5-.38c.64-.49,1.26-.73,1.85-.71.6.01,1.11.3,1.53.86.42.55.56,1.12.41,1.7-.14.58-.53,1.11-1.17,1.6ZM33.77,121.78c.55-.42.87-.81.96-1.17.1-.36,0-.72-.26-1.08-.27-.36-.6-.54-.97-.55-.37,0-.83.2-1.38.62l-1.16.89c-.55.42-.88.81-.97,1.17-.09.37,0,.73.27,1.08.27.36.6.54.97.54.38,0,.84-.2,1.39-.62l1.16-.88Z"/>
    <path class="cls-2" d="M38.78,124.7l.17-.15,1.08,1.17-.17.15-.34-.31c-.07-.06-.12-.08-.16-.07-.04.01-.12.08-.26.21l-3.68,3.38-.28-.3,1.72-5.7-3.28,3c-.14.13-.22.21-.24.25-.01.04,0,.09.06.16l.27.37-.16.15-1.08-1.17.16-.15.35.31c.07.06.12.08.16.07.04-.01.13-.08.27-.21l3.19-2.92c.14-.13.22-.21.23-.24.02-.04,0-.1-.05-.17l-.28-.37.17-.15.97,1.06-1.51,4.97,2.8-2.57c.14-.13.22-.21.23-.24.02-.04,0-.09-.05-.17l-.28-.37Z"/>
    <path class="cls-2" d="M38.61,128.54l.2-.21,1.6,1.51-.2.21-1.6-1.51Z"/>
    <path class="cls-2" d="M44.57,136.83l-.14.17-1.57-1.25.14-.17.39.25c.08.05.13.06.17.05.04-.02.11-.1.23-.25l2.82-3.54-4.18,2.46-.44-.35,1.46-4.63-2.82,3.54c-.12.15-.18.24-.19.28,0,.04.02.09.08.15l.33.32-.14.17-1.25-.99.14-.17.39.25c.08.05.13.06.17.05.04-.02.11-.1.23-.25l2.69-3.38c.12-.15.18-.24.19-.28.01-.04-.01-.09-.08-.16l-.33-.32.14-.18,1.19.95-1.42,4.47,4.04-2.38,1.16.93-.14.18-.38-.25c-.08-.05-.13-.06-.17-.04-.03.02-.11.1-.23.24l-2.69,3.38c-.12.15-.18.24-.19.28,0,.04.02.09.08.15l.33.32Z"/>
    <path class="cls-2" d="M49.7,138.83l.18.12-.74,1.14-3.36-2.17.12-.18.41.21c.08.04.14.05.17.03.03-.02.1-.11.21-.27l2.35-3.63c.11-.16.16-.26.16-.3s-.03-.09-.1-.14l-.36-.29.12-.19,3.26,2.11-.74,1.14-.18-.11.27-.87c.02-.07.03-.12.03-.15,0-.04-.02-.07-.06-.11-.04-.04-.12-.1-.23-.17l-1.36-.88-1.31,2.02.94.61c.11.07.19.12.24.15.05.02.09.02.12,0,.04-.02.08-.05.13-.09l.47-.44.18.12-1.06,1.64-.18-.12.21-.61c.02-.07.03-.11.03-.15,0-.04-.02-.07-.06-.11-.04-.04-.12-.1-.23-.17l-.94-.61-1.34,2.07,1.44.93c.11.07.19.12.24.15.05.02.09.02.12,0,.04-.02.08-.05.13-.09l.68-.61Z"/>
    <path class="cls-2" d="M52.96,136.07l.11-.2,2.09,1.11c.6.32.95.76,1.07,1.32.11.56-.02,1.19-.4,1.9l-.29.55c-.38.71-.83,1.18-1.36,1.4-.53.22-1.09.17-1.69-.15l-2.09-1.11.1-.19.43.17c.08.03.14.04.17.01.03-.02.09-.12.18-.29l2.03-3.81c.09-.17.14-.28.14-.31,0-.04-.04-.08-.11-.13l-.39-.25ZM55.02,137.21l-.87-.46-2.42,4.54.87.46c.27.14.51.21.73.2.22,0,.44-.1.65-.3.22-.19.43-.5.65-.91l.69-1.29c.22-.41.34-.75.38-1.04.04-.28,0-.51-.12-.7-.12-.19-.31-.36-.57-.5Z"/>
    <path class="cls-2" d="M57.91,138.63l.09-.21,1.83.83-.09.2-.44-.15c-.09-.03-.14-.03-.17,0-.03.02-.08.12-.16.3l-1.77,3.94c-.08.18-.12.28-.12.32,0,.04.04.08.12.12l.4.23-.09.2-1.83-.82.09-.2.44.14c.09.03.14.03.17,0,.03-.02.08-.12.16-.3l1.77-3.94c.08-.18.12-.29.12-.32,0-.04-.04-.08-.12-.13l-.4-.23Z"/>
    <path class="cls-2" d="M60.88,145.87c-.66-.25-1.08-.66-1.27-1.23-.18-.57-.13-1.23.15-1.97l.22-.59c.18-.49.42-.89.7-1.2.29-.31.62-.51.98-.6.37-.09.76-.06,1.18.1.39.15.68.35.88.6.2.25.31.52.33.81.02.29-.04.57-.19.85l-.73-.09c.24-.48.33-.88.26-1.21-.07-.34-.28-.57-.64-.7-.4-.15-.75-.12-1.06.08-.31.21-.58.62-.82,1.26l-.51,1.37c-.24.64-.3,1.14-.19,1.51.11.36.39.63.82.79.17.06.35.1.52.1.18,0,.35-.06.52-.16.16-.1.31-.28.43-.53l.44.31c-.27.37-.58.59-.94.65-.35.06-.71.02-1.08-.12Z"/>
    <path class="cls-2" d="M65.13,147l-.06.21-1.52-.43.06-.21.45.07c.06.01.11.02.14.01.03,0,.06-.03.1-.08.04-.05.1-.13.17-.25l2.91-4.37.51.14.2,5.25c0,.14,0,.24.01.3.01.06.03.1.05.12.02.02.06.04.11.06l.43.17-.06.21-1.95-.55.06-.21.46.08c.09.01.14,0,.15-.03.02-.03.03-.15.02-.35l-.04-1.12-1.96-.55-.62.93c-.11.17-.17.27-.17.31,0,.04.04.07.13.11l.43.17ZM65.52,145.25l1.8.51-.11-3.05-1.69,2.54Z"/>
    <path class="cls-2" d="M73.12,147.73l.22.04-.27,1.35-3.72-.75.04-.21.46.04c.09,0,.15,0,.17-.03.02-.03.05-.14.09-.33l.86-4.24c.04-.19.05-.3.04-.34,0-.04-.06-.07-.14-.1l-.44-.13.04-.22,1.97.4-.04.22-.46-.05c-.09,0-.15,0-.17.03-.02.03-.05.14-.09.33l-.94,4.64,1.48.3c.13.03.22.04.28.05.06,0,.1-.01.12-.04.03-.03.06-.07.09-.14l.41-.83Z"/>
    <path class="cls-2" d="M78.46,149.64c.37.03.68-.03.92-.19.25-.16.39-.42.42-.77.03-.28-.04-.53-.19-.73-.15-.21-.44-.39-.85-.55l-.56-.22c-.41-.15-.71-.38-.91-.68-.2-.3-.28-.65-.24-1.04.02-.27.11-.51.25-.73.15-.22.36-.39.63-.51.27-.12.61-.16,1.01-.12.44.04.79.16,1.05.35.26.19.43.41.51.68.08.27.08.55,0,.85l-.71.08c.12-.51.1-.91-.05-1.2-.15-.29-.43-.46-.86-.5-.34-.03-.61.04-.82.2-.21.16-.33.41-.36.75-.03.27.03.51.17.72.14.2.4.38.78.53l.56.22c.9.34,1.31.92,1.24,1.75-.03.29-.12.55-.28.78-.15.22-.38.39-.67.5-.28.11-.63.15-1.05.11-.29-.03-.56-.1-.82-.21-.25-.11-.46-.29-.63-.52-.16-.23-.26-.54-.28-.93l.51-.12c0,.37.05.66.16.87.11.21.27.37.46.47.19.1.4.15.62.18Z"/>
    <path class="cls-2" d="M85.13,144.69v-.23s1.6.02,1.6.02v.23s-.46.04-.46.04c-.09.01-.14.03-.16.06-.02.03-.03.15-.03.34l-.04,3.07c0,.63-.16,1.13-.46,1.48-.29.35-.74.52-1.34.51-.66,0-1.16-.21-1.5-.59-.34-.39-.51-.92-.5-1.59l.03-2.92c0-.19,0-.31-.02-.34-.02-.03-.07-.06-.16-.07l-.46-.05v-.23s2.01.02,2.01.02v.22s-.46.04-.46.04c-.09,0-.14.03-.16.07-.02.03-.03.15-.03.34l-.04,3.04c0,.6.1,1.04.32,1.33.22.29.57.44,1.03.45.47,0,.82-.14,1.06-.43.24-.29.36-.72.37-1.28l.04-3.08c0-.19,0-.31-.02-.34-.02-.03-.07-.06-.16-.07l-.46-.05Z"/>
    <path class="cls-2" d="M87.6,144.67l-.02-.22,2.36-.17c.55-.04.98.07,1.29.32.31.25.48.6.51,1.06l.02.24c.03.45-.08.83-.35,1.13-.27.3-.68.47-1.23.51l-1,.07.13,1.72c.01.19.03.31.05.35.02.03.07.05.16.05h.63s.02.22.02.22l-2.17.16-.02-.22.45-.08c.09-.02.14-.04.15-.08.01-.03.01-.15,0-.34l-.32-4.31c-.01-.19-.03-.31-.05-.34-.02-.03-.07-.05-.16-.06h-.46ZM89.96,144.54l-1,.07.2,2.73,1-.07c.62-.04.9-.45.84-1.2l-.03-.47c-.06-.75-.39-1.1-1.01-1.06Z"/>
    <path class="cls-2" d="M92.52,144.28l-.03-.22,2.34-.35c.54-.08.98,0,1.31.22.33.23.52.56.59,1.01l.04.24c.07.45-.02.83-.26,1.15-.24.32-.64.52-1.18.6l-.99.15.26,1.71c.03.19.05.31.08.34.02.03.08.04.17.03l.63-.04.03.21-2.15.33-.03-.21.45-.12c.09-.02.14-.05.15-.09.01-.03,0-.15-.03-.34l-.65-4.27c-.03-.19-.05-.3-.08-.33-.02-.03-.08-.04-.17-.04l-.46.03ZM94.87,143.97l-.99.15.41,2.71.99-.15c.61-.09.86-.51.75-1.26l-.07-.47c-.11-.74-.47-1.07-1.08-.98Z"/>
    <path class="cls-2" d="M102.31,144.72l.15.61c.19.79.16,1.46-.1,2-.26.54-.72.88-1.4,1.04-.68.16-1.26.06-1.73-.3-.47-.37-.79-.95-.98-1.74l-.15-.61c-.19-.79-.16-1.44.09-1.98.25-.54.72-.89,1.4-1.06.68-.16,1.25-.06,1.72.31.47.36.8.94.99,1.72ZM101.44,144.5c-.16-.68-.39-1.13-.68-1.35-.29-.23-.65-.3-1.09-.19-.44.1-.74.33-.9.67-.15.34-.15.84.01,1.52l.34,1.42c.16.68.39,1.13.68,1.37.3.23.66.3,1.1.19.44-.1.73-.33.89-.67.16-.34.16-.85,0-1.52l-.34-1.42Z"/>
    <path class="cls-2" d="M102.89,142.18l-.07-.21,2.2-.73c.52-.17.96-.18,1.31-.02.36.15.61.43.74.83l.08.25c.11.32.11.63,0,.91-.1.28-.3.52-.6.71l1.63,1.53c.11.1.19.18.24.22.05.04.09.06.12.07.03,0,.08,0,.13-.02l.37-.07.07.21-1.19.4-2.06-2.02-.78.26.6,1.8c.06.18.11.29.13.32.03.03.08.03.17.01l.45-.1.07.21-1.91.63-.07-.21.42-.19c.08-.04.12-.08.13-.11,0-.04-.02-.15-.08-.33l-1.36-4.1c-.06-.18-.11-.29-.13-.32-.03-.03-.08-.03-.17-.01l-.45.11ZM105.1,141.49l-.9.3.81,2.44.9-.3c.27-.09.46-.25.55-.47.1-.23.09-.53-.03-.89l-.1-.31c-.12-.36-.29-.6-.5-.72-.21-.12-.45-.14-.73-.05Z"/>
    <path class="cls-2" d="M107.36,140.46l4.09-1.73.53,1.25-.2.09-.56-.71c-.04-.06-.08-.09-.11-.11-.03-.02-.07-.03-.12-.01-.06.01-.14.04-.27.1l-.87.37,1.84,4.36c.08.18.13.28.16.31.03.02.09.02.17,0l.44-.13.08.2-1.85.78-.08-.2.4-.23c.08-.04.12-.09.12-.12,0-.04-.03-.15-.11-.32l-1.84-4.36-.88.37c-.12.05-.2.09-.25.13-.05.03-.08.06-.08.1,0,.03,0,.08,0,.15l.12.9-.2.08-.53-1.25Z"/>
    <path class="cls-2" d="M118.5,141.26c.33-.18.54-.41.65-.68.11-.27.08-.57-.09-.88-.14-.25-.33-.41-.57-.49-.25-.08-.58-.07-1.01.03l-.58.14c-.43.1-.8.09-1.13-.04-.33-.13-.59-.38-.79-.72-.13-.23-.2-.48-.21-.74,0-.27.07-.52.22-.78.16-.25.41-.48.76-.68.39-.22.74-.32,1.06-.31.32,0,.58.1.81.27.22.18.38.41.48.7l-.54.47c-.19-.49-.43-.81-.72-.96-.29-.16-.62-.13-.99.08-.3.17-.48.38-.56.63-.08.25-.04.53.13.83.13.24.32.4.55.5.23.09.54.09.94-.01l.58-.14c.94-.23,1.61.01,2.01.74.14.26.21.52.21.8,0,.27-.09.53-.26.79-.17.25-.44.48-.8.69-.25.14-.52.24-.79.29-.27.05-.54.03-.81-.07-.27-.1-.52-.3-.76-.61l.36-.39c.2.31.41.51.63.62.21.11.43.15.64.13.21-.03.42-.1.61-.21Z"/>
    <path class="cls-2" d="M123.84,136.54l.18-.12.76,1.13-3.32,2.22-.12-.18.35-.3c.07-.06.1-.11.09-.14,0-.04-.06-.14-.17-.3l-2.4-3.59c-.11-.16-.18-.25-.21-.27-.03-.02-.09,0-.17.03l-.4.22-.12-.19,3.23-2.16.75,1.13-.17.12-.69-.59c-.05-.05-.09-.07-.13-.09-.03-.02-.07-.01-.12.01-.05.02-.13.07-.25.14l-1.35.9,1.34,2.01.93-.62c.11-.07.19-.13.23-.16.04-.04.06-.08.06-.11,0-.04-.01-.09-.03-.16l-.22-.61.18-.12,1.08,1.62-.18.12-.48-.43c-.05-.05-.09-.07-.13-.09-.03-.02-.07-.01-.12.01-.05.02-.13.07-.25.14l-.93.62,1.37,2.05,1.43-.96c.11-.07.19-.13.23-.16.04-.04.06-.08.06-.11,0-.04-.01-.09-.03-.16l-.29-.86Z"/>
    <path class="cls-2" d="M122.54,132.47l-.14-.18,1.82-1.44c.43-.34.84-.49,1.22-.47.39.02.72.19.98.53l.16.2c.21.27.31.55.31.86,0,.3-.11.59-.32.87l2.06.88c.14.06.24.1.3.12.06.02.1.03.13.02.03-.01.07-.03.12-.06l.32-.19.14.17-.99.78-2.63-1.2-.64.51,1.17,1.49c.12.15.2.24.23.25.03.02.09,0,.17-.05l.39-.24.13.17-1.58,1.25-.13-.17.33-.32c.06-.06.09-.11.08-.15,0-.04-.07-.13-.19-.28l-2.68-3.39c-.12-.15-.2-.24-.23-.25-.03-.02-.09,0-.17.05l-.39.25ZM124.39,131.07l-.75.59,1.59,2.01.75-.59c.23-.18.35-.39.36-.63.01-.25-.1-.53-.33-.82l-.2-.25c-.24-.3-.47-.46-.72-.51-.24-.04-.47.02-.7.2Z"/>
    <path class="cls-2" d="M130.01,126.6l2.27,4.79-.41.38-4.64-2.57c-.15-.09-.25-.13-.29-.13-.04,0-.1.01-.17.07l-.33.26-.15-.17,1.43-1.34.15.16-.28.32c-.06.07-.08.12-.06.15.02.03.1.08.25.17l3.96,2.21-1.95-4.09c-.07-.16-.12-.24-.15-.26-.03-.02-.08,0-.15.05l-.34.26-.15-.16,1.1-1.03.15.16-.28.32s-.06.08-.07.11c0,.02,0,.06.01.11.02.04.05.12.1.23Z"/>
    <path class="cls-2" d="M130.41,125.61l-.16-.15,1.38-1.46.16.15-.28.36c-.05.07-.07.13-.06.16.01.04.09.12.23.25l3.14,2.97c.14.13.23.21.27.22.04.01.09-.01.16-.07l.35-.3.16.15-1.38,1.46-.16-.15.28-.37c.05-.07.07-.13.06-.16-.01-.04-.09-.12-.23-.25l-3.14-2.97c-.14-.13-.23-.21-.27-.22-.04-.01-.09.01-.16.07l-.35.31Z"/>
    <path class="cls-2" d="M138.16,125.25c-.45.54-.98.81-1.58.79-.6-.02-1.2-.28-1.81-.79l-.48-.4c-.4-.33-.7-.69-.9-1.06-.2-.37-.28-.75-.24-1.13.03-.38.19-.74.48-1.09.27-.32.55-.53.85-.63.3-.11.59-.12.87-.04.28.07.52.23.74.46l-.32.66c-.37-.39-.72-.6-1.06-.64-.34-.04-.63.08-.87.37-.27.33-.36.67-.27,1.03.09.36.4.76.92,1.19l1.12.93c.53.44.98.66,1.36.68.38.01.72-.16,1.01-.51.12-.14.21-.29.27-.46.06-.17.06-.35.02-.54-.04-.19-.16-.38-.36-.58l.43-.31c.26.38.37.75.31,1.1-.06.35-.21.67-.47.98Z"/>
    <path class="cls-2" d="M141.18,118.84l.12-.18,1.11.78-2.3,3.26-.18-.12.22-.4c.04-.08.05-.14.04-.17-.02-.03-.11-.11-.26-.22l-3.53-2.49c-.16-.11-.26-.17-.29-.18-.04,0-.09.03-.15.09l-.3.35-.18-.13,2.24-3.18,1.11.78-.12.17-.85-.31c-.06-.03-.11-.04-.15-.03-.04,0-.07.01-.11.06-.04.04-.1.11-.18.22l-.93,1.32,1.97,1.39.64-.91c.08-.11.13-.19.16-.24.02-.05.03-.09.01-.12-.01-.04-.04-.08-.09-.14l-.42-.49.12-.18,1.6,1.12-.12.18-.6-.23c-.06-.03-.11-.04-.15-.03-.04,0-.07.01-.11.06-.04.04-.1.11-.18.22l-.64.91,2.01,1.42.99-1.4c.08-.11.13-.19.16-.24.02-.05.03-.09.01-.12-.01-.04-.04-.08-.09-.13l-.58-.7Z"/>
    <path class="cls-2" d="M144.07,116.44c.19-.32.27-.62.23-.92-.04-.29-.21-.53-.52-.71-.24-.15-.49-.19-.74-.14-.26.05-.54.23-.86.54l-.44.41c-.32.3-.65.48-1,.53-.35.05-.7-.03-1.04-.23-.23-.14-.41-.32-.55-.54-.13-.23-.2-.49-.19-.79,0-.3.12-.62.32-.96.23-.38.48-.65.77-.8.28-.15.56-.21.84-.16.28.04.53.16.76.37l-.23.68c-.41-.33-.78-.49-1.11-.47-.33,0-.6.19-.82.56-.17.29-.23.57-.17.83.05.26.23.48.52.65.23.14.47.19.72.16.24-.04.51-.2.81-.48l.44-.41c.7-.67,1.4-.79,2.11-.36.25.15.45.35.58.59.13.23.19.51.16.82-.02.31-.14.64-.35,1-.15.25-.33.46-.54.65-.21.18-.46.29-.74.35-.28.05-.6,0-.96-.15l.11-.51c.33.16.61.24.86.23.24-.01.45-.08.62-.21.17-.13.31-.29.42-.49Z"/>
    <path class="cls-1" d="M21.95,176.98H0v-.66h21.95v.66Z"/>
    <path class="cls-2" d="M30.91,178.98c.28,0,.51-.07.7-.2.19-.14.28-.35.28-.63,0-.21-.06-.39-.19-.53-.12-.14-.34-.26-.66-.35l-.65-.2c-.33-.1-.58-.27-.76-.51-.17-.24-.26-.54-.26-.91,0-.24.05-.46.16-.67.11-.21.28-.37.51-.5.23-.13.52-.19.86-.19.38,0,.69.07.92.21.23.14.4.31.49.53.09.22.12.46.07.71l-.81.15c.07-.43.04-.77-.1-1-.14-.23-.36-.35-.67-.35-.24,0-.43.07-.58.21-.14.14-.21.34-.21.6,0,.22.06.4.18.57.13.16.33.29.62.38l.65.2c.36.1.62.26.8.47.18.21.27.49.27.86,0,.26-.06.5-.18.71-.12.21-.3.37-.54.49-.24.12-.54.18-.9.18-.26,0-.51-.04-.74-.11-.23-.08-.43-.21-.59-.39-.15-.18-.25-.42-.3-.72l.47-.17c.02.3.09.53.2.7.11.16.25.28.41.34.17.07.35.1.54.1Z"/>
    <path class="cls-2" d="M36.16,174.57v-.2h1.36v.2l-.39.05c-.07,0-.12.03-.13.06-.01.03-.02.12-.02.28v2.56c0,.56-.12.99-.36,1.27-.23.28-.59.42-1.08.42-.57,0-1.02-.16-1.37-.46-.35-.31-.52-.75-.52-1.34v-2.46c0-.16,0-.25-.02-.28-.01-.03-.06-.05-.13-.06l-.39-.05v-.2h1.92v.2l-.39.05c-.07,0-.12.03-.13.06-.01.03-.02.12-.02.28v2.51c0,.52.1.9.29,1.14.19.23.47.35.82.35s.62-.11.81-.33c.19-.22.29-.59.29-1.09v-2.58c0-.16,0-.25-.02-.28-.01-.03-.06-.05-.13-.06l-.39-.05Z"/>
    <path class="cls-2" d="M38.02,174.57v-.2h2.11c.52,0,.9.12,1.15.36.26.23.39.55.39.94v.16c0,.39-.13.71-.39.95-.25.24-.64.36-1.15.36h-.73v1.42c0,.16,0,.26.02.29.01.03.06.05.13.06l.53.05v.2h-2.07v-.2l.39-.05c.07,0,.12-.03.13-.06.01-.03.02-.13.02-.29v-3.6c0-.16,0-.25-.02-.28-.01-.03-.06-.05-.13-.06l-.39-.05ZM40.14,174.62h-.73v2.28h.73c.21,0,.36-.08.47-.25.11-.16.17-.39.17-.67v-.44c0-.29-.06-.51-.17-.67-.11-.16-.26-.25-.47-.25Z"/>
    <path class="cls-2" d="M42.22,174.57v-.2h2.11c.52,0,.9.12,1.15.36.26.23.39.55.39.94v.16c0,.39-.13.71-.39.95-.25.24-.64.36-1.15.36h-.73v1.42c0,.16,0,.26.02.29.01.03.06.05.13.06l.53.05v.2h-2.07v-.2l.39-.05c.07,0,.12-.03.13-.06.01-.03.02-.13.02-.29v-3.6c0-.16,0-.25-.02-.28-.01-.03-.06-.05-.13-.06l-.39-.05ZM44.34,174.62h-.73v2.28h.73c.21,0,.36-.08.47-.25.11-.16.17-.39.17-.67v-.44c0-.29-.06-.51-.17-.67-.11-.16-.26-.25-.47-.25Z"/>
    <path class="cls-2" d="M50.32,176.54v.44c0,.72-.16,1.28-.48,1.67-.32.38-.79.58-1.42.58s-1.1-.19-1.43-.58c-.32-.39-.48-.94-.48-1.67v-.44c0-.72.16-1.27.48-1.66.32-.38.8-.58,1.43-.58s1.1.19,1.42.58c.32.38.48.94.48,1.66ZM49.42,176.19c0-.41-.04-.74-.11-.97-.07-.24-.18-.41-.33-.51-.15-.1-.33-.15-.57-.15s-.42.05-.57.15c-.15.1-.26.27-.33.51-.07.23-.11.56-.11.97v1.14c0,.41.04.73.11.97.07.24.18.41.33.52.15.1.34.15.57.15s.42-.05.57-.15c.15-.11.26-.28.33-.52.07-.24.11-.56.11-.97v-1.14Z"/>
    <path class="cls-2" d="M51.09,174.57v-.2h2.12c.49,0,.87.11,1.14.33.27.22.4.51.4.89v.16c0,.28-.08.52-.23.72-.15.2-.38.34-.67.42l.88,1.67c.06.1.1.18.13.23s.05.08.08.09c.03,0,.07.02.11.03l.32.05v.2h-1.31l-1.06-2.18h-.51v1.59c0,.16,0,.26.02.29.01.03.06.05.13.06l.39.05v.2h-1.92v-.2l.39-.05c.07,0,.12-.03.13-.06.01-.03.02-.13.02-.29v-3.6c0-.16,0-.25-.02-.28-.01-.03-.06-.05-.13-.06l-.39-.05ZM53.21,174.62h-.74v2.11h.74c.21,0,.36-.06.47-.19.11-.13.17-.37.17-.72v-.3c0-.35-.06-.58-.17-.71-.11-.13-.26-.19-.47-.19Z"/>
    <path class="cls-2" d="M55.41,174.38h3.86v1.21h-.2l-.22-.78c-.01-.06-.03-.1-.05-.13-.01-.03-.04-.04-.09-.05-.05,0-.13,0-.24,0h-.71v3.94c0,.16,0,.26.02.29.01.03.06.05.13.06l.39.05v.2h-1.92v-.2l.39-.05c.08,0,.12-.03.13-.06.01-.03.02-.13.02-.29v-3.94h-.71c-.11,0-.19,0-.24,0-.05,0-.08.02-.09.05-.01.02-.03.07-.05.13l-.22.78h-.2v-1.21Z"/>
    <path class="cls-2" d="M65.44,175.91h.2v1.75h-.2l-.15-.57c-.01-.06-.03-.1-.05-.12-.01-.03-.04-.04-.09-.05-.05-.01-.13-.01-.24-.01h-.72v1.66c0,.16,0,.26.02.29.01.03.06.05.13.06l.53.05v.2h-2.07v-.2l.39-.05c.07,0,.12-.03.13-.06.01-.03.02-.13.02-.29v-3.6c0-.16,0-.25-.02-.28-.01-.03-.06-.05-.13-.06l-.39-.05v-.2h3.33v1.21h-.2l-.22-.78c-.01-.06-.03-.1-.05-.12-.01-.03-.04-.04-.09-.05-.05,0-.13-.01-.24-.01h-1.14v2.04h.72c.11,0,.19,0,.24,0,.05,0,.08-.03.09-.05.02-.03.04-.07.05-.13l.15-.57Z"/>
    <path class="cls-2" d="M70.66,176.54v.44c0,.72-.16,1.28-.48,1.67-.32.38-.79.58-1.42.58s-1.1-.19-1.43-.58c-.32-.39-.48-.94-.48-1.67v-.44c0-.72.16-1.27.48-1.66.32-.38.8-.58,1.43-.58s1.1.19,1.42.58c.32.38.48.94.48,1.66ZM69.76,176.19c0-.41-.04-.74-.11-.97-.07-.24-.18-.41-.33-.51-.15-.1-.33-.15-.57-.15s-.42.05-.57.15c-.15.1-.26.27-.33.51-.07.23-.11.56-.11.97v1.14c0,.41.04.73.11.97.07.24.18.41.33.52.15.1.34.15.57.15s.42-.05.57-.15c.15-.11.26-.28.33-.52.07-.24.11-.56.11-.97v-1.14Z"/>
    <path class="cls-2" d="M71.42,174.57v-.2h2.12c.49,0,.87.11,1.14.33s.4.51.4.89v.16c0,.28-.08.52-.23.72-.15.2-.38.34-.67.42l.88,1.67c.06.1.1.18.13.23s.05.08.08.09c.03,0,.07.02.11.03l.32.05v.2h-1.31l-1.06-2.18h-.51v1.59c0,.16,0,.26.02.29.01.03.06.05.13.06l.39.05v.2h-1.92v-.2l.39-.05c.07,0,.12-.03.13-.06.01-.03.02-.13.02-.29v-3.6c0-.16,0-.25-.02-.28-.01-.03-.06-.05-.13-.06l-.39-.05ZM73.55,174.62h-.74v2.11h.74c.21,0,.36-.06.47-.19.11-.13.17-.37.17-.72v-.3c0-.35-.06-.58-.17-.71-.11-.13-.26-.19-.47-.19Z"/>
    <path class="cls-2" d="M82.42,177.94h.2v1.21h-3.48v-.2l.39-.05c.07,0,.12-.03.13-.06.01-.03.02-.13.02-.29v-3.6c0-.16,0-.25-.02-.28-.01-.03-.06-.05-.13-.06l-.39-.05v-.2h3.41v1.21h-.2l-.22-.78c-.01-.06-.03-.1-.05-.12-.01-.03-.04-.04-.09-.05-.05,0-.13-.01-.24-.01h-1.22v2h.8c.11,0,.19,0,.24,0,.05,0,.08-.03.09-.05.02-.03.04-.07.05-.13l.15-.57h.2v1.75h-.2l-.15-.57c-.01-.06-.03-.1-.05-.12-.01-.03-.04-.04-.09-.05-.05,0-.13-.01-.24-.01h-.8v2.04h1.29c.11,0,.19,0,.24,0,.05,0,.08-.03.09-.05.02-.03.04-.07.05-.13l.22-.78Z"/>
    <path class="cls-2" d="M86.93,174.97l-1.33,4.19h-.6l-1.33-4.19c-.03-.11-.06-.18-.08-.23-.02-.05-.04-.08-.06-.09-.02-.01-.06-.02-.11-.03l-.39-.05v-.2h1.95v.2l-.39.05c-.07,0-.11.03-.12.06,0,.03.02.12.06.28l1.07,3.35,1.05-3.35c.05-.16.07-.25.06-.28,0-.03-.04-.05-.12-.06l-.39-.05v-.2h1.35v.2l-.39.05s-.08.01-.11.03c-.02.01-.04.04-.06.09-.02.04-.04.12-.08.23Z"/>
    <path class="cls-2" d="M91.09,177.94h.2v1.21h-3.48v-.2l.39-.05c.07,0,.12-.03.13-.06.01-.03.02-.13.02-.29v-3.6c0-.16,0-.25-.02-.28-.01-.03-.06-.05-.13-.06l-.39-.05v-.2h3.41v1.21h-.2l-.22-.78c-.01-.06-.03-.1-.05-.12-.01-.03-.04-.04-.09-.05-.05,0-.13-.01-.24-.01h-1.22v2h.8c.11,0,.19,0,.24,0,.05,0,.08-.03.09-.05.02-.03.04-.07.05-.13l.15-.57h.2v1.75h-.2l-.15-.57c-.01-.06-.03-.1-.05-.12-.01-.03-.04-.04-.09-.05-.05,0-.13-.01-.24-.01h-.8v2.04h1.29c.11,0,.19,0,.24,0,.05,0,.08-.03.09-.05.02-.03.04-.07.05-.13l.22-.78Z"/>
    <path class="cls-2" d="M92.05,174.57v-.2h2.12c.49,0,.87.11,1.14.33.27.22.4.51.4.89v.16c0,.28-.08.52-.23.72-.15.2-.38.34-.67.42l.88,1.67c.06.1.1.18.13.23.03.05.05.08.08.09.03,0,.07.02.11.03l.32.05v.2h-1.31l-1.06-2.18h-.51v1.59c0,.16,0,.26.02.29.01.03.06.05.13.06l.39.05v.2h-1.92v-.2l.39-.05c.08,0,.12-.03.13-.06.01-.03.02-.13.02-.29v-3.6c0-.16,0-.25-.02-.28-.01-.03-.06-.05-.13-.06l-.39-.05ZM94.17,174.62h-.74v2.11h.74c.21,0,.36-.06.47-.19.11-.13.17-.37.17-.72v-.3c0-.35-.06-.58-.17-.71-.11-.13-.26-.19-.47-.19Z"/>
    <path class="cls-2" d="M99.31,178.96v.2h-1.92v-.2l.39-.05c.07,0,.12-.03.13-.06.01-.03.02-.13.02-.29v-1.45l-1.12-2.14c-.06-.11-.1-.18-.13-.23-.03-.05-.06-.08-.08-.09-.02-.01-.06-.02-.11-.03l-.39-.05v-.2h2v.2l-.39.05c-.07,0-.11.03-.11.06,0,.03.04.12.11.28l.91,1.81.94-1.81c.08-.15.12-.25.11-.28,0-.03-.04-.05-.11-.06l-.39-.05v-.2h1.37v.2l-.39.05s-.08.01-.11.03c-.02.01-.05.04-.08.09-.02.04-.06.12-.12.23l-1.1,2.13v1.47c0,.16,0,.26.02.29.01.03.06.05.13.06l.39.05Z"/>
    <path class="cls-2" d="M100.81,174.57v-.2h2.07c.6,0,1.06.17,1.38.53.32.35.49.9.49,1.64v.44c0,.74-.16,1.29-.49,1.64-.32.35-.78.53-1.38.53h-2.07v-.2l.39-.05c.07,0,.12-.03.13-.06.01-.03.02-.13.02-.29v-3.6c0-.16,0-.25-.02-.28-.01-.03-.06-.05-.13-.06l-.39-.05ZM102.84,174.62h-.65v4.29h.65c.24,0,.43-.04.58-.12.15-.08.25-.24.32-.46.07-.23.11-.56.11-.99v-1.14c0-.43-.03-.76-.11-.98-.07-.23-.17-.38-.32-.46-.14-.08-.34-.13-.58-.13Z"/>
    <path class="cls-2" d="M106.3,178.96v.2h-1.36v-.2l.39-.05c.05,0,.09-.02.11-.03.02-.01.04-.04.06-.09.02-.05.04-.12.08-.23l1.34-4.19h.6l1.35,4.19c.03.1.06.18.08.23s.04.08.06.09c.03,0,.07.02.11.03l.39.05v.2h-1.94v-.2l.39-.05c.07,0,.11-.03.12-.06.01-.03-.01-.13-.06-.29l-.27-.87h-1.62l-.27.87c-.05.16-.07.26-.06.29,0,.03.05.05.12.06l.39.05ZM106.22,177.45h1.46l-.72-2.33-.74,2.33Z"/>
    <path class="cls-2" d="M112.11,178.96v.2h-1.92v-.2l.39-.05c.08,0,.12-.03.13-.06.01-.03.02-.13.02-.29v-1.45l-1.12-2.14c-.06-.11-.1-.18-.13-.23-.03-.05-.06-.08-.08-.09-.02-.01-.06-.02-.11-.03l-.39-.05v-.2h2v.2l-.39.05c-.07,0-.11.03-.11.06,0,.03.04.12.11.28l.91,1.81.94-1.81c.08-.15.12-.25.11-.28,0-.03-.04-.05-.11-.06l-.39-.05v-.2h1.37v.2l-.39.05s-.08.01-.11.03c-.02.01-.05.04-.08.09-.02.04-.06.12-.12.23l-1.1,2.13v1.47c0,.16,0,.26.02.29.01.03.06.05.13.06l.39.05Z"/>
    <path class="cls-2" d="M119.89,177.94h.2v1.21h-3.34v-.2l.39-.05c.07,0,.12-.03.13-.06.01-.03.02-.13.02-.29v-3.6c0-.16,0-.25-.02-.28-.01-.03-.06-.05-.13-.06l-.39-.05v-.2h1.92v.2l-.39.05c-.08,0-.12.03-.13.06-.01.03-.02.12-.02.28v3.94h1.15c.11,0,.19,0,.24,0,.05,0,.08-.03.09-.05.02-.03.04-.07.05-.13l.22-.78Z"/>
    <path class="cls-2" d="M120.49,174.57v-.2h1.93v.2l-.39.05c-.08,0-.12.03-.13.06-.01.03-.02.12-.02.28v3.6c0,.16,0,.26.02.29.01.03.06.05.13.06l.39.05v.2h-1.93v-.2l.39-.05c.07,0,.12-.03.13-.06.01-.03.02-.13.02-.29v-3.6c0-.16,0-.25-.02-.28-.01-.03-.06-.05-.13-.06l-.39-.05Z"/>
    <path class="cls-2" d="M126.57,174.97l-1.33,4.19h-.6l-1.33-4.19c-.03-.11-.06-.18-.08-.23-.02-.05-.04-.08-.06-.09-.02-.01-.06-.02-.11-.03l-.39-.05v-.2h1.95v.2l-.39.05c-.08,0-.11.03-.12.06,0,.03.02.12.06.28l1.07,3.35,1.05-3.35c.05-.16.07-.25.06-.28,0-.03-.04-.05-.12-.06l-.39-.05v-.2h1.35v.2l-.39.05s-.08.01-.11.03c-.02.01-.04.04-.06.09-.02.04-.05.12-.08.23Z"/>
    <path class="cls-2" d="M127.46,174.57v-.2h1.93v.2l-.39.05c-.07,0-.12.03-.13.06-.01.03-.02.12-.02.28v3.6c0,.16,0,.26.02.29.01.03.06.05.13.06l.39.05v.2h-1.93v-.2l.39-.05c.07,0,.12-.03.13-.06.01-.03.02-.13.02-.29v-3.6c0-.16,0-.25-.02-.28-.01-.03-.06-.05-.13-.06l-.39-.05Z"/>
    <path class="cls-2" d="M132.95,174.57v-.2h1.36v.2l-.39.05c-.07,0-.12.03-.13.06-.01.03-.02.12-.02.28v4.19h-.39l-2.58-4.16v3.57c0,.16,0,.26.02.29.01.03.06.05.13.06l.39.05v.2h-1.36v-.2l.39-.05c.07,0,.12-.03.13-.06.01-.03.02-.13.02-.29v-3.6c0-.16,0-.25-.02-.28-.01-.03-.06-.05-.13-.06l-.39-.05v-.2h1.41l2.09,3.36v-2.77c0-.16,0-.25-.02-.28-.01-.03-.06-.05-.13-.06l-.39-.05Z"/>
    <path class="cls-2" d="M137.04,177.19v-.2h1.99v.2l-.39.05c-.07,0-.12.03-.13.06-.01.03-.02.12-.02.28v1.57h-.19c-.13-.13-.27-.24-.42-.33-.13.11-.28.21-.45.29-.17.07-.38.11-.63.11-.38,0-.71-.1-.99-.29-.27-.2-.48-.47-.62-.81-.15-.35-.22-.74-.22-1.18v-.44c0-.43.07-.8.22-1.13.15-.33.36-.59.64-.78.28-.19.62-.29,1.03-.29.38,0,.7.07.95.21.25.14.44.32.55.55.12.23.16.47.13.74l-.82.2c.05-.47,0-.83-.15-1.07-.15-.25-.38-.38-.69-.38-.64,0-.96.57-.96,1.71v1.01c0,1.14.34,1.71,1.02,1.71.15,0,.3-.03.45-.09.15-.06.28-.15.39-.27v-1.04c0-.16,0-.25-.02-.29-.01-.03-.06-.05-.13-.06l-.53-.05Z"/>
    <path class="cls-1" d="M168.95,176.98h-21.95v-.66h21.95v.66Z"/>
  </g>
</svg>