<svg width="110" height="110" viewBox="0 0 110 110" fill="none" xmlns="http://www.w3.org/2000/svg">
<path d="M55.6119 6.28352C56.4389 6.28352 57.2684 6.24956 58.094 6.29136C59.1795 6.34753 60.2664 6.42591 61.3441 6.56569C62.7027 6.74074 64.0639 6.93538 65.4029 7.21886C66.8072 7.5154 68.1906 7.91252 69.5754 8.29136C71.5126 8.82043 73.3663 9.58202 75.1952 10.3998C76.7458 11.0934 78.2377 11.9047 79.6994 12.7734C81.9895 14.1346 84.1331 15.6996 86.1567 17.4239C87.9633 18.9641 89.6459 20.6375 91.22 22.4181C93.5074 25.0072 95.4551 27.8354 97.1704 30.8269C98.1998 32.6218 99.1181 34.4755 99.8692 36.4063C100.287 37.4814 100.718 38.5513 101.099 39.6408C101.637 41.1836 102.057 42.7603 102.427 44.3527C102.807 45.9869 103.1 47.6369 103.302 49.3011C103.451 50.5317 103.613 51.761 103.622 53.0059C103.626 53.5924 103.707 54.1777 103.72 54.7642C103.756 56.4624 103.652 58.1555 103.498 59.8472C103.353 61.4317 103.132 63.0033 102.831 64.5643C102.293 67.3507 101.501 70.0653 100.469 72.7067C99.9071 74.1463 99.2997 75.5702 98.5773 76.9379C97.6942 78.6127 96.768 80.2626 95.7203 81.8445C94.4075 83.8262 92.9836 85.7243 91.4068 87.497C90.2951 88.7472 89.1508 89.9699 87.898 91.0934C86.3892 92.4467 84.8464 93.7518 83.2096 94.9458C81.254 96.3736 79.2057 97.6551 77.0554 98.7642C74.8477 99.9033 72.5747 100.897 70.2102 101.673C67.514 102.556 64.7654 103.211 61.9555 103.603C61.6106 103.651 61.2645 103.692 60.9183 103.724C60.7903 103.736 60.657 103.728 60.5316 103.703C60.3696 103.671 60.2677 103.556 60.2298 103.395C60.1906 103.232 60.269 103.015 60.4193 102.943C60.5538 102.879 60.704 102.839 60.8516 102.815C61.6459 102.684 62.4441 102.576 63.237 102.436C65.9019 101.965 68.5002 101.254 71.0398 100.316C72.8817 99.6355 74.6753 98.853 76.4101 97.9386C78.3187 96.9327 80.1593 95.8171 81.9215 94.5682C83.2553 93.6237 84.5394 92.6166 85.7752 91.5519C87.2422 90.2861 88.6178 88.9262 89.9189 87.4853C91.1181 86.158 92.2429 84.7772 93.2971 83.3364C94.5459 81.6303 95.6746 79.8458 96.6766 77.9843C97.4499 76.546 98.1802 75.0842 98.802 73.5728C99.5309 71.8001 100.164 69.9935 100.674 68.1437C101.247 66.0627 101.709 63.9582 101.972 61.8171C102.121 60.6088 102.174 59.3899 102.295 58.1777C102.405 57.0921 102.419 56.0039 102.384 54.9171C102.349 53.8302 102.279 52.7433 102.176 51.6617C102.06 50.4494 101.902 49.241 101.735 48.034C101.642 47.3664 101.492 46.7067 101.364 46.0444C101.033 44.3318 100.588 42.648 100.048 40.9915C99.5231 39.3769 98.9209 37.7897 98.2389 36.2326C97.0815 33.5938 95.6981 31.0804 94.1122 28.6767C93.0319 27.0399 91.8457 25.484 90.5629 23.9987C89.6511 22.9432 88.7223 21.9086 87.719 20.9406C85.8523 19.1392 83.868 17.4801 81.7425 15.9883C79.868 14.6728 77.9124 13.4932 75.8523 12.4938C73.2017 11.2071 70.465 10.1581 67.6067 9.41611C65.4095 8.84655 63.1848 8.44943 60.9366 8.1751C60.0313 8.06406 59.1116 8.07581 58.2037 7.97784C56.9209 7.83806 55.6368 7.84982 54.3552 7.89685C52.9 7.95041 51.4421 8.00266 49.9973 8.22735C48.836 8.40762 47.6733 8.56961 46.5159 8.76948C44.8399 9.05818 43.19 9.46314 41.5728 9.98437C40.1854 10.4311 38.8059 10.9119 37.4539 11.4553C35.7766 12.1281 34.1463 12.9132 32.58 13.8185C31.4879 14.4507 30.4023 15.0987 29.3481 15.7923C27.6015 16.9419 25.949 18.2221 24.371 19.5951C22.8412 20.9262 21.4173 22.3671 20.0483 23.8563C18.3069 25.7505 16.7733 27.8106 15.3625 29.9621C13.7818 32.3723 12.4376 34.9053 11.3207 37.5624C10.4167 39.7139 9.64987 41.9099 9.08422 44.1751C8.65705 45.8864 8.32002 47.6173 8.10839 49.3691C8.00127 50.2547 7.93073 51.1431 7.82622 52.0287C7.6159 53.8093 7.72302 55.595 7.70604 57.3782C7.69559 58.4246 7.83798 59.4605 7.93596 60.5003C8.10186 62.2573 8.37097 64 8.7498 65.7217C9.00192 66.8687 9.28932 68.0078 9.63288 69.1326C10.0261 70.4259 10.4585 71.7035 10.968 72.9536C11.8066 75.0111 12.7629 77.0124 13.8863 78.934C14.8099 80.5147 15.8027 82.0483 16.9039 83.5101C18.0444 85.0241 19.2397 86.4899 20.5787 87.8354C20.8857 88.1437 21.1508 88.4925 21.4604 88.7968C24.1267 91.4108 27.0032 93.757 30.1724 95.7439C31.4278 96.5316 32.7093 97.2776 34.03 97.9412C36.7576 99.3102 39.5662 100.479 42.5199 101.293C44.2429 101.767 45.979 102.17 47.7361 102.485C48.2494 102.576 48.7707 102.622 49.2867 102.701C49.4996 102.734 49.7178 102.773 49.9163 102.853C50.1645 102.952 50.2664 103.17 50.205 103.372C50.1488 103.557 49.9947 103.669 49.7465 103.662C49.4199 103.652 49.092 103.639 48.7707 103.588C46.9 103.292 45.0359 102.96 43.2018 102.477C41.0084 101.898 38.853 101.206 36.772 100.306C34.1528 99.1718 31.612 97.8824 29.2031 96.337C27.1286 95.0059 25.1574 93.5401 23.2802 91.9477C21.7348 90.6362 20.2965 89.207 18.9288 87.7152C17.3533 85.9987 15.9007 84.1803 14.5904 82.2469C13.4657 80.5865 12.4154 78.8818 11.5088 77.0947C10.6727 75.4461 9.89415 73.7675 9.26972 72.0196C8.6466 70.2756 8.07443 68.5186 7.64464 66.7159C7.20963 64.8922 6.88566 63.0503 6.64268 61.1927C6.48462 59.9843 6.38795 58.7694 6.35921 57.5506C6.34745 57.0294 6.27822 56.5095 6.27169 55.9869C6.2534 54.3971 6.35398 52.8139 6.4807 51.2293C6.61656 49.535 6.85823 47.855 7.1822 46.1881C7.60937 43.9843 8.1724 41.8132 8.91701 39.6956C9.48004 38.0941 10.1215 36.5226 10.8426 34.9824C12.0836 32.3318 13.5832 29.8354 15.2462 27.4344C16.1149 26.1816 17.062 24.9889 18.0418 23.8211C19.0372 22.6362 20.0927 21.5115 21.1913 20.4233C22.2743 19.3495 23.4147 18.3436 24.5917 17.3743C26.0561 16.1686 27.5715 15.036 29.1678 14.0131C30.7628 12.9916 32.3827 12.0105 34.111 11.2228C35.0816 10.7799 36.0274 10.2796 37.0163 9.8877C38.3304 9.36778 39.6681 8.8975 41.0123 8.46118C43.19 7.75315 45.4199 7.25021 47.6786 6.88052C49.0528 6.65583 50.4376 6.51736 51.8249 6.38411C53.0868 6.26393 54.3474 6.29267 55.608 6.28744L55.6119 6.28352Z" fill="white"/>
<path d="M47.1522 50.2101C46.7629 50.7353 46.5918 51.2539 46.4259 51.766C45.9569 53.2251 45.6734 54.717 45.7152 56.2584C45.7218 56.4766 45.7218 56.6935 45.7152 56.9116C45.6552 58.653 45.9752 60.3394 46.5173 61.9815C47.0555 63.6105 47.8981 65.0801 49.0464 66.3629C49.5245 66.8985 50.0066 67.4328 50.5213 67.9319C51.0973 68.4923 51.7113 69.0148 52.3109 69.553C52.5604 69.7764 52.6597 69.9697 52.5474 70.0141C52.3436 70.0951 52.2299 69.9227 52.0967 69.8287C50.8178 68.9142 49.4422 68.1644 48.0523 67.4394C47.3965 67.0971 46.7303 66.7705 46.0928 66.3956C42.5866 64.3303 40.2927 61.3309 39.2188 57.4054C38.7381 55.6471 38.5578 53.8535 38.6754 52.0377C38.7747 50.5106 39.0817 49.0187 39.5676 47.5674C40.1594 45.7999 40.9902 44.15 42.1476 42.683C42.5095 42.2245 42.921 41.7934 43.3665 41.4159C44.1346 40.764 45.0242 40.5694 45.9909 40.9338C46.4468 41.105 46.8282 41.3963 47.1457 41.7647C47.6604 42.363 48.0823 43.0214 48.3789 43.7542C48.6323 44.3786 48.8805 45.007 49.1091 45.6419C49.7035 47.2931 50.516 48.8228 51.6212 50.1918C52.3553 51.101 53.2476 51.8208 54.2456 52.4191C54.789 52.7444 55.3586 53.0096 55.9595 53.216C56.388 53.3636 56.7877 53.3584 57.2267 53.1951C58.8687 52.5837 60.1738 51.5334 61.2567 50.1853C62.2613 48.9338 62.9811 47.5217 63.548 46.0272C63.8485 45.2343 64.1019 44.4204 64.5199 43.6758C64.8413 43.1024 65.2175 42.5798 65.7792 42.2036C66.4233 41.7725 67.1195 41.7281 67.8472 41.847C68.1777 41.9018 68.4507 42.0978 68.7028 42.3055C69.1248 42.653 69.501 43.0436 69.7975 43.5073C71.0398 45.4459 71.7753 47.5713 72.1215 49.8352C72.2822 50.8894 72.4037 51.9475 72.3815 53.0187C72.3174 56.1422 71.4945 59.0357 69.7518 61.6419C68.563 63.4211 67.0608 64.892 65.2227 65.9972C64.2717 66.568 63.2946 67.0984 62.3175 67.6236C61.049 68.3055 59.8171 69.0383 58.6963 69.9475C58.6467 69.988 58.5918 70.0364 58.533 70.0507C58.4794 70.0638 58.388 70.0507 58.3658 70.0168C58.3397 69.9776 58.3514 69.8835 58.3841 69.843C58.4781 69.7254 58.5905 69.6196 58.6989 69.5125C59.3338 68.8855 59.9843 68.2728 60.6022 67.6288C61.1888 67.0161 61.7688 66.393 62.3031 65.7359C63.8929 63.7764 64.8112 61.5204 65.1535 59.0305C65.5062 56.4557 65.4043 53.907 64.6662 51.4002C64.6257 51.263 64.5526 51.1363 64.4768 50.9613C64.3736 51.0527 64.3031 51.0997 64.2508 51.1624C63.4514 52.1004 62.4925 52.8424 61.4383 53.4707C60.3919 54.0952 59.2476 54.4413 58.0614 54.6294C54.9314 55.1259 52.1084 54.3421 49.5611 52.4923C48.7995 51.9397 48.1359 51.2826 47.5297 50.5641C47.437 50.4544 47.3194 50.3643 47.1574 50.214L47.1522 50.2101Z" fill="white"/>
<path d="M42.8884 71.8123C42.5344 71.3094 42.1268 71.0508 41.7218 70.8078C40.9942 70.3728 40.2522 69.96 39.5024 69.5641C38.6337 69.1056 37.8002 68.5975 37.0203 67.9992C36.2169 67.3826 35.5598 66.6327 35.036 65.7692C34.7055 65.2245 34.4756 64.638 34.4129 63.9979C34.3959 63.828 34.3985 63.6478 34.4377 63.4819C34.5487 63.0024 34.9629 62.766 35.4318 62.9097C35.5951 62.9606 35.7532 63.0455 35.8969 63.1409C36.1686 63.3212 36.4286 63.5197 36.6911 63.7131C38.3123 64.911 40.0432 65.8986 41.9896 66.4721C42.6572 66.668 43.3182 66.8888 43.9896 67.0743C45.1457 67.3956 46.2718 67.8071 47.3508 68.3244C48.5304 68.8901 49.6212 69.6073 50.5853 70.506C51.5455 71.4022 52.3763 72.3976 53.0464 73.5328C53.8329 74.8626 54.3188 76.2944 54.6049 77.8019C54.8453 79.069 54.9263 80.3505 54.8557 81.6347C54.8126 82.4146 54.699 83.1918 54.6023 83.9678C54.5566 84.3375 54.4573 84.4276 54.1007 84.4342C53.6447 84.4407 53.1849 84.4407 52.7303 84.4041C50.9041 84.2552 49.1065 83.9364 47.3391 83.457C45.4867 82.9554 43.6866 82.3127 41.9661 81.4531C40.7382 80.8391 39.5298 80.1951 38.3828 79.44C36.2078 78.0083 34.2535 76.3166 32.5069 74.3911C30.4599 72.135 28.8231 69.5994 27.5259 66.8483C26.3476 64.3493 25.586 61.7248 25.2424 58.9828C25.2019 58.6615 25.1928 58.3284 25.2228 58.007C25.2816 57.3747 25.8263 57.0978 26.3489 57.4583C26.6637 57.6765 26.9459 57.9717 27.168 58.2866C27.5429 58.8182 27.8864 59.3774 28.1921 59.9534C29.0099 61.4923 29.8917 62.992 30.9119 64.4054C31.3822 65.0573 31.8838 65.6896 32.4064 66.2996C33.3848 67.444 34.4913 68.4564 35.7049 69.3486C36.9237 70.2447 38.2457 70.9463 39.6957 71.3891C40.5305 71.6438 41.3874 71.7928 42.26 71.8463C42.4286 71.8568 42.5997 71.8293 42.8897 71.8123H42.8884Z" fill="white"/>
<path d="M67.9515 71.7578C68.0638 71.8035 68.1187 71.8467 68.1736 71.8453C68.5001 71.8414 68.8267 71.8401 69.1507 71.814C71.4172 71.635 73.3858 70.7088 75.1755 69.3646C76.4322 68.4201 77.5387 67.3163 78.5341 66.0962C79.8888 64.4345 81.0135 62.6305 81.9959 60.7324C82.3264 60.0949 82.6569 59.4561 83.0187 58.8369C83.2369 58.4633 83.5034 58.1158 83.7777 57.7787C83.911 57.6154 84.0952 57.477 84.2833 57.3751C84.6595 57.1726 85.0331 57.3241 85.1873 57.7173C85.2852 57.9655 85.2918 58.2229 85.2591 58.4881C84.9273 61.183 84.2349 63.7774 83.1598 66.2751C82.3734 68.1014 81.4407 69.844 80.3251 71.4835C79.7268 72.364 79.0488 73.1909 78.3878 74.0269C77.5622 75.0707 76.6138 76.006 75.6314 76.8956C74.0312 78.3431 72.3094 79.6298 70.4296 80.7062C68.4531 81.8388 66.3682 82.7036 64.1866 83.3346C62.4714 83.831 60.7248 84.1967 58.9352 84.3104C58.2846 84.3522 57.634 84.3979 56.9835 84.4371C56.832 84.4462 56.6778 84.4449 56.5263 84.4319C56.2441 84.4097 56.1331 84.3195 56.0625 84.0583C56.0338 83.9538 56.022 83.8453 56.005 83.7369C55.6798 81.6089 55.6693 79.4887 56.1736 77.3842C56.5106 75.9786 57.0344 74.6487 57.8156 73.4234C58.4035 72.5011 59.0527 71.6337 59.8483 70.8826C61.0449 69.7539 62.3839 68.8434 63.8888 68.1641C65.1442 67.5971 66.4492 67.1857 67.7686 66.8147C68.7562 66.5377 69.7163 66.1889 70.653 65.7761C71.7333 65.2993 72.7157 64.6527 73.6732 63.9695C74.0272 63.7173 74.3708 63.4482 74.734 63.2092C74.9312 63.0798 75.1507 62.9662 75.3754 62.9009C75.7738 62.7846 76.1082 62.9636 76.2807 63.3437C76.3721 63.5462 76.4244 63.7618 76.363 63.9786C76.2519 64.3757 76.1553 64.7807 75.9972 65.1595C75.5269 66.2908 74.7627 67.2026 73.8104 67.959C72.8698 68.7062 71.8404 69.3124 70.7836 69.8819C70.0952 70.2529 69.4276 70.6657 68.7562 71.0681C68.4609 71.2444 68.2219 71.49 67.9476 71.7565L67.9515 71.7578Z" fill="white"/>
<path d="M101.244 55.892C101.244 56.3819 101.262 57.2532 101.237 58.1232C101.219 58.7529 101.152 59.3812 101.092 60.0096C100.938 61.5915 100.689 63.1604 100.344 64.7124C99.8342 67.0102 99.185 69.2662 98.3215 71.4609C97.748 72.9214 97.1184 74.3544 96.4195 75.7574C95.8081 76.9841 95.1393 78.182 94.4012 79.3394C93.957 80.037 93.5273 80.745 93.0452 81.4151C92.3594 82.3688 91.6409 83.2989 90.9185 84.2251C90.1412 85.2205 89.2921 86.1532 88.3986 87.0481C87.9688 87.4778 87.586 87.9573 87.1458 88.3766C86.5162 88.9762 85.8552 89.5432 85.2033 90.1193C84.7631 90.5085 84.3359 90.9135 83.8708 91.2714C82.9747 91.9612 82.072 92.6457 81.1432 93.291C80.2144 93.9351 79.2542 94.5373 78.2967 95.1395C77.8369 95.4295 77.3587 95.6908 76.8767 95.9442C75.1615 96.8456 73.4319 97.7169 71.62 98.4132C69.1354 99.3694 66.6011 100.148 63.9767 100.616C63.0126 100.788 62.0472 100.954 61.0792 101.103C60.8271 101.142 60.5632 101.115 60.3045 101.102C60.2654 101.099 60.2053 101.008 60.2027 100.955C60.2 100.903 60.2431 100.823 60.2889 100.797C60.3607 100.755 60.4522 100.738 60.5371 100.727C61.0531 100.65 61.5717 100.584 62.0877 100.501C63.0322 100.348 63.9832 100.221 64.9185 100.019C67.6279 99.4321 70.2536 98.5843 72.7983 97.4778C74.8179 96.6 76.7774 95.6046 78.6481 94.4471C80.1099 93.5432 81.5351 92.583 82.8885 91.5157C83.7611 90.8286 84.5998 90.1049 85.4541 89.3982C85.5887 89.2871 85.7128 89.1656 85.8369 89.0428C86.5031 88.3844 87.1693 87.7274 87.8303 87.065C89.0922 85.8005 90.2575 84.4537 91.3444 83.0337C92.2993 81.7888 93.2098 80.5164 94.0302 79.1787C95.0661 77.4883 96.0184 75.7548 96.8401 73.9494C97.5442 72.4014 98.1504 70.8169 98.7043 69.2114C98.9734 68.4302 99.1941 67.6307 99.3979 66.8299C99.7794 65.3329 100.167 63.8358 100.374 62.3009C100.507 61.3094 100.617 60.3152 100.728 59.3198C100.971 57.1487 100.885 54.9697 100.817 52.796C100.771 51.342 100.564 49.8933 100.327 48.4537C100.022 46.6053 99.6187 44.779 99.1223 42.9723C98.6076 41.1017 97.9322 39.2859 97.1889 37.4949C96.2366 35.197 95.0818 33.005 93.7833 30.8848C92.4848 28.7646 91.0348 26.7542 89.4188 24.8639C88.2862 23.538 87.0687 22.2918 85.7898 21.1108C84.4312 19.8568 82.9917 18.6941 81.4946 17.6059C79.5521 16.1951 77.4998 14.9645 75.3522 13.8973C72.0616 12.263 68.6259 11.0429 65.0165 10.3166C63.5639 10.024 62.1073 9.76793 60.6377 9.5968C59.7742 9.49752 58.9029 9.47139 58.0341 9.42698C57.1223 9.38125 56.2079 9.30941 55.2961 9.329C54.123 9.35382 52.9512 9.45441 51.7807 9.53148C51.2386 9.56675 50.6978 9.62423 50.1569 9.67387C48.9852 9.7823 47.8291 9.99131 46.6756 10.2173C44.8153 10.5818 42.976 11.0259 41.1759 11.6255C38.6076 12.4799 36.1269 13.5393 33.7572 14.8443C32.2327 15.6843 30.7526 16.6001 29.3248 17.602C27.8434 18.6419 26.464 19.8045 25.0871 20.9724C23.8892 21.9887 22.7853 23.103 21.7285 24.2578C20.7318 25.3473 19.7468 26.455 18.8859 27.6621C18.2536 28.5478 17.5783 29.4034 16.9734 30.3061C16.1622 31.5171 15.4202 32.7725 14.7161 34.0514C13.2608 36.6941 12.1348 39.4714 11.2256 42.3414C10.5802 44.3793 10.1348 46.4642 9.80818 48.5752C9.60178 49.909 9.47768 51.2493 9.37971 52.5961C9.30394 53.6412 9.29871 54.6823 9.28696 55.7261C9.27259 56.9684 9.40061 58.2016 9.5012 59.4374C9.61093 60.7855 9.81864 62.1167 10.059 63.4439C10.3464 65.0298 10.7135 66.5974 11.1903 68.1376C11.3902 68.7816 11.6122 69.4191 11.8291 70.0592C12.3046 71.4622 12.8533 72.8351 13.5234 74.1585C13.995 75.0899 14.4535 76.0291 14.9499 76.9475C16.0067 78.9044 17.2308 80.7541 18.5711 82.5281C20.1112 84.566 21.8526 86.4184 23.6854 88.1911C24.609 89.0846 25.5913 89.9089 26.575 90.7345C27.5443 91.5471 28.5737 92.2799 29.6161 92.988C30.8036 93.7927 32.0054 94.5856 33.2856 95.244C34.2144 95.7221 35.1289 96.229 36.0668 96.6888C38.2027 97.7352 40.4365 98.5294 42.7121 99.2113C44.7618 99.8266 46.8558 100.22 48.9616 100.561C49.3052 100.617 49.6514 100.65 49.995 100.706C50.123 100.727 50.2562 100.774 50.2745 100.934C50.2876 101.048 50.1151 101.155 49.9153 101.129C49.2255 101.04 48.5332 100.959 47.8473 100.835C46.9695 100.677 46.0982 100.485 45.2242 100.3C43.4319 99.9194 41.6893 99.3668 39.9649 98.7541C38.2197 98.1336 36.5227 97.3968 34.8715 96.5569C33.3 95.7561 31.7807 94.8652 30.2941 93.9129C28.7148 92.9017 27.2295 91.7678 25.7624 90.6052C25.3366 90.2682 24.9277 89.9063 24.5293 89.5366C23.7481 88.8116 22.9604 88.0918 22.2092 87.3368C21.3196 86.4419 20.4744 85.5053 19.6906 84.5151C19.1106 83.7809 18.4979 83.0729 17.9362 82.3257C16.4418 80.3387 15.1263 78.2381 13.9858 76.0265C13.2373 74.5739 12.5724 73.0873 11.961 71.5719C10.6508 68.3218 9.81602 64.9488 9.3157 61.4909C9.15763 60.3962 9.03222 59.2937 8.96299 58.1833C8.88852 56.9854 8.8624 55.7914 8.88461 54.5961C8.91335 53.0533 8.98127 51.5092 9.21119 49.9782C9.34705 49.0755 9.4398 48.1637 9.61093 47.2676C9.82647 46.135 10.0825 45.0089 10.3529 43.8894C10.7945 42.067 11.415 40.2983 12.1269 38.5674C12.6403 37.3211 13.1668 36.0801 13.8095 34.8887C14.1713 34.2199 14.5267 33.5471 14.899 32.8835C15.8709 31.1539 16.9708 29.5079 18.1596 27.9221C18.9813 26.8247 19.8578 25.7718 20.7631 24.7411C21.9297 23.4139 23.1811 22.1742 24.4679 20.9697C25.8356 19.6908 27.317 18.5478 28.8349 17.4492C30.1073 16.5295 31.4398 15.7052 32.7944 14.9175C33.9989 14.2173 35.253 13.6112 36.5136 13.0155C38.0538 12.2878 39.6501 11.7118 41.2595 11.1788C42.9956 10.604 44.7748 10.1781 46.5684 9.80973C47.9558 9.52365 49.3562 9.32639 50.7631 9.184C51.6932 9.08994 52.6324 9.09909 53.5626 9.00111C54.4548 8.90575 55.3457 8.88877 56.2353 8.92012C57.4084 8.96062 58.5789 9.05206 59.7507 9.13174C60.2066 9.1631 60.6586 9.22711 61.1132 9.2676C62.9394 9.4309 64.7213 9.82802 66.5044 10.2369C68.976 10.8025 71.3548 11.6451 73.6736 12.6523C75.1706 13.3016 76.6128 14.0723 78.0289 14.8875C79.9584 15.9978 81.7729 17.2754 83.5194 18.6471C84.4247 19.3577 85.2804 20.135 86.1347 20.9084C86.7147 21.4335 87.2555 22.0044 87.8094 22.5583C89.3222 24.0684 90.6925 25.7 91.9492 27.4283C93.0766 28.9789 94.136 30.5739 95.0426 32.2656C95.2072 32.5726 95.3927 32.8678 95.5547 33.1761C95.8983 33.8306 96.2418 34.4864 96.5697 35.1487C97.5272 37.0834 98.328 39.0834 98.9903 41.1356C99.8604 43.8332 100.5 46.587 100.882 49.3982C101.158 51.4282 101.335 53.4635 101.245 55.8946L101.244 55.892Z" fill="#CC933A"/>
<path d="M83.2558 54.5008C83.2414 54.2095 83.2296 54.0606 83.227 53.9116C83.2205 53.346 83.2336 52.779 83.2114 52.2134C83.1212 49.9665 82.8234 47.7523 82.1545 45.5942C81.8645 44.6576 81.5732 43.7235 81.1826 42.8235C80.5503 41.3643 79.8279 39.9521 78.9867 38.5988C78.1911 37.3186 77.2662 36.135 76.2773 35.0077C75.6202 34.2578 74.873 33.5825 74.1376 32.9045C73.6111 32.4185 73.0442 31.9757 72.485 31.5263C71.3616 30.6236 70.1376 29.8738 68.8796 29.1749C66.8103 28.0266 64.6026 27.2258 62.3231 26.6249C61.2088 26.331 60.0775 26.1102 58.9253 25.9913C57.6699 25.862 56.4158 25.751 55.1513 25.7614C53.5367 25.7745 51.9403 25.9561 50.3479 26.203C48.8378 26.4381 47.3655 26.8287 45.9155 27.3003C45.2127 27.5289 44.5177 27.7915 43.841 28.0893C42.6066 28.6328 41.3682 29.1749 40.2225 29.896C38.877 30.7425 37.5589 31.6203 36.361 32.6785C35.6255 33.3277 34.9175 34.0005 34.2369 34.7059C32.9932 35.9939 31.9064 37.4022 30.9619 38.9267C30.1115 40.2996 29.3708 41.7261 28.762 43.2206C27.9717 45.1644 27.4374 47.184 27.1069 49.2519C26.9802 50.0436 26.9436 50.8535 26.9149 51.6556C26.8822 52.6118 26.9057 53.5707 26.8966 54.5282C26.8953 54.7124 26.9488 54.9149 26.762 55.1278C26.7176 55.0207 26.6693 54.9541 26.6641 54.8835C26.5791 53.7771 26.489 52.6732 26.506 51.5615C26.5177 50.7751 26.5896 49.9965 26.6771 49.2193C26.9031 47.2219 27.3525 45.2741 28.0187 43.3773C28.7659 41.2532 29.7352 39.2402 30.9932 37.3682C31.8319 36.1207 32.7503 34.9397 33.7548 33.8176C34.5426 32.9371 35.4139 32.1625 36.3061 31.3956C37.5824 30.2983 38.9645 29.3538 40.4158 28.5165C41.7365 27.7549 43.1043 27.0874 44.5373 26.5518C46.0919 25.9704 47.6764 25.5041 49.3041 25.1945C50.6719 24.9332 52.0514 24.7582 53.4465 24.6902C54.0971 24.6589 54.745 24.5714 55.3995 24.5896C58.5909 24.6785 61.7313 25.0834 64.7672 26.122C67.3577 27.0077 69.7653 28.2435 72.0004 29.8359C73.6777 31.0312 75.1735 32.4211 76.5491 33.9378C78.0161 35.555 79.2558 37.3408 80.259 39.2885C80.9592 40.6458 81.5993 42.0253 82.0762 43.4766C82.6144 45.1135 83.0063 46.779 83.2571 48.4877C83.5157 50.2434 83.4988 52.0018 83.4739 53.764C83.4713 53.973 83.4987 54.1964 83.2505 54.5021L83.2558 54.5008Z" fill="#CC933A"/>
<path d="M47.7598 33.5466C47.8852 33.5309 48.0537 33.5126 48.2235 33.4904C48.942 33.3989 49.65 33.3872 50.3528 33.6197C51.4319 33.9777 52.183 34.6948 52.6585 35.702C53.8643 38.252 51.9466 41.169 49.2947 41.233C47.3248 41.2814 45.7114 40.1919 45.2111 38.0835C45.1314 37.7503 45.1367 37.395 45.1171 37.0488C45.1014 36.768 45.0674 36.717 44.8088 36.6308C44.5214 36.5342 44.2209 36.4571 43.9583 36.3121C43.0857 35.83 42.7134 35.0214 42.7643 34.0782C42.8271 32.9078 43.4645 32.1292 44.5579 31.7608C45.65 31.3937 46.8702 32.0142 47.3496 32.9038C47.4528 33.0946 47.5547 33.284 47.6605 33.4734C47.6696 33.4904 47.6945 33.4995 47.7598 33.5466Z" fill="white"/>
<path d="M67.8251 38.4499C67.8133 40.6223 66.0184 42.3858 63.8447 42.3519C61.8564 42.3205 59.9871 40.6863 60.008 38.4263C60.0315 35.9887 61.9727 34.5713 63.8734 34.5269C66.0485 34.476 67.8368 36.284 67.8251 38.4485V38.4499Z" fill="white"/>
<path d="M56.5695 69.501C56.7041 69.3482 56.819 69.1993 56.9536 69.0686C57.7818 68.2626 58.546 67.3978 59.2514 66.486C60.0809 65.4148 60.7746 64.26 61.2475 62.9824C61.4918 62.3227 61.612 61.6278 61.6172 60.9354C61.6237 60.0445 61.3494 59.2176 60.7524 58.5278C60.4153 58.1385 59.979 57.893 59.4905 57.7519C57.4407 57.1607 56.6313 58.132 55.521 59.5691C55.2597 59.1771 54.9246 58.7628 54.5525 58.4416C53.6459 57.6552 52.6087 57.4044 51.4552 57.8041C50.6126 58.0967 50.0992 58.729 49.7844 59.5298C49.5009 60.2535 49.4604 61.0112 49.5741 61.7793C49.7491 62.9641 50.2246 64.0314 50.8438 65.0425C51.5166 66.1411 52.3004 67.1536 53.207 68.0732C53.6049 68.4768 53.9534 68.9746 54.3396 69.4645C53.3002 68.7787 52.1038 67.5905 51.1848 66.6715C50.3043 65.7911 49.5649 64.7917 48.9575 63.7048C48.2612 62.4573 47.9621 61.1131 48.0705 59.6839C48.1828 58.2012 49.2579 56.5801 50.9392 56.1738C51.5244 56.0327 52.0992 56.021 52.6805 56.179C54.0326 56.546 54.828 57.6531 55.521 58.7853C55.9782 57.8708 56.3673 57.3431 57.0202 56.8387C58.0616 56.0343 59.6916 55.7466 61.015 56.4939C61.9333 57.0125 62.5486 57.7466 62.8556 58.7604C63.1064 59.5925 63.1495 60.4168 62.998 61.2737C62.8125 62.324 62.3944 63.2777 61.8327 64.1621C61.2383 65.0974 60.5695 65.9831 59.7818 66.776C59.3499 67.2098 57.6111 69.0686 56.5708 69.5024L56.5695 69.501Z" fill="#CC933A"/>
<path d="M58.14 100.106C58.1178 100.673 57.8722 101.175 57.4816 101.605C57.2046 101.91 56.9042 102.196 56.5998 102.477C56.2484 102.802 55.8865 103.115 55.5234 103.426C55.3248 103.597 55.1994 103.601 55.0061 103.426C54.3934 102.872 53.786 102.311 53.1785 101.751C52.8859 101.48 52.686 101.146 52.5293 100.782C52.4143 100.515 52.3738 100.239 52.3934 99.952C52.4718 98.8599 53.4829 98.2159 54.5057 98.6143C54.6873 98.6849 54.8585 98.7868 55.0231 98.8913C55.2347 99.0258 55.4293 99.0219 55.6227 98.8639C55.8826 98.6509 56.1752 98.5281 56.5162 98.5124C57.3483 98.4733 57.9897 98.9919 58.1151 99.8175C58.1282 99.9037 58.1295 99.9912 58.1374 100.105L58.14 100.106Z" fill="#CC933A"/>
<path d="M19.5141 69.4443C18.9904 69.5101 18.382 69.0713 18.3252 68.5571C18.2612 67.978 18.56 67.4705 19.2646 67.3887C19.8095 67.3246 20.2982 67.7148 20.3674 68.2578C20.4428 68.8449 20.0624 69.3745 19.5141 69.4443Z" fill="#CC933A"/>
<path d="M90.1915 68.497C90.1149 67.935 90.5033 67.4532 91.1056 67.3616C91.668 67.2771 92.1675 67.6701 92.2642 68.2482C92.3585 68.8161 91.7425 69.3783 91.3442 69.4131C90.7766 69.4627 90.2702 69.0666 90.1915 68.497Z" fill="#CC933A"/>
<path d="M22.2192 59.2732C22.1453 58.8088 21.9759 58.4429 21.7112 58.1755C21.4374 57.9016 21.0644 57.8022 20.5923 57.8773C20.2439 57.9328 19.9703 58.0835 19.7713 58.3294C19.5711 58.5676 19.4355 58.9622 19.3645 59.5132L19.2112 60.6448C19.1349 61.2125 18.9227 61.6748 18.5748 62.0318C18.2179 62.3823 17.7414 62.6049 17.1453 62.6998C16.7506 62.7626 16.3687 62.7321 15.9998 62.6082C15.6297 62.4767 15.3105 62.2417 15.0424 61.9035C14.773 61.5574 14.5928 61.098 14.5016 60.5252C14.4018 59.8982 14.4373 59.3727 14.6079 58.9487C14.7708 58.526 15.0218 58.2083 15.361 57.9955C15.7002 57.7828 16.0849 57.6819 16.5152 57.6928L16.9715 58.9893C16.2319 58.98 15.6871 59.1222 15.337 59.416C14.9857 59.7021 14.8507 60.1006 14.932 60.6115C14.9949 61.0062 15.1615 61.3051 15.4319 61.5081C15.701 61.7034 16.0524 61.7665 16.4858 61.6976C16.8419 61.6409 17.1394 61.4904 17.3783 61.246C17.6159 60.9939 17.7707 60.62 17.8427 60.1245L17.9959 58.9929C18.0726 58.3775 18.2617 57.895 18.5632 57.5455C18.857 57.1971 19.3096 56.9743 19.9212 56.877C20.3546 56.808 20.7615 56.8464 21.1419 56.9922C21.5133 57.1316 21.8316 57.3865 22.0969 57.7569C22.3533 58.1209 22.5289 58.6009 22.6237 59.1969C22.6927 59.6304 22.6961 60.0505 22.6338 60.4573C22.5638 60.8652 22.4027 61.2242 22.1504 61.5342C21.8969 61.8365 21.5242 62.0624 21.0321 62.2122L20.6296 61.4786C21.1189 61.3611 21.4887 61.1911 21.739 60.9687C21.9803 60.7398 22.1337 60.4813 22.1989 60.1931C22.2629 59.8972 22.2697 59.5906 22.2192 59.2732Z" fill="white"/>
<path d="M22.4949 48.3918L15.9 49.5888L22.0748 52.1187L21.9602 53.1351L14.8141 53.9742C14.6305 53.9929 14.5024 54.01 14.4297 54.0255C14.3492 54.0401 14.2946 54.0694 14.2659 54.1135C14.2382 54.1498 14.2156 54.2104 14.1981 54.2952L14.0439 54.9285L13.7168 54.8916L14.0816 51.6554L14.4087 51.6923L14.4181 52.3441C14.4196 52.4705 14.4433 52.5402 14.4892 52.5532C14.535 52.5663 14.6973 52.5609 14.9761 52.5371L20.5573 51.9358L14.3332 49.424L14.4425 48.4543L20.966 47.2611L15.7781 45.4222C15.5125 45.3291 15.3555 45.2878 15.307 45.2981C15.2585 45.3084 15.2199 45.3711 15.1912 45.4862L15.0369 46.1195L14.7098 46.0826L14.9653 43.8161L15.2924 43.853L15.3018 44.5048C15.2999 44.5913 15.3085 44.6554 15.3274 44.697C15.3464 44.7386 15.3931 44.7793 15.4675 44.8193C15.5349 44.8505 15.656 44.8957 15.8308 44.9549L22.6108 47.3637L22.4949 48.3918Z" fill="white"/>
<path d="M16.2458 41.7392L15.9357 41.6289L17.0153 38.5938L17.3255 38.7041L17.1863 39.341C17.1591 39.4644 17.1673 39.5463 17.2111 39.5869C17.2476 39.6248 17.3913 39.6884 17.6424 39.7777L23.3138 41.7952C23.5649 41.8845 23.7202 41.9273 23.7798 41.9235C23.832 41.9172 23.8865 41.8575 23.9433 41.7446L24.2376 41.163L24.5477 41.2733L23.4681 44.3084L23.1579 44.1981L23.2971 43.5612C23.3243 43.4378 23.3198 43.3572 23.2833 43.3193C23.2395 43.2787 23.0921 43.2138 22.841 43.1245L17.1696 41.107C16.9185 41.0177 16.7668 40.9762 16.7147 40.9826C16.6551 40.9864 16.5969 41.0447 16.5401 41.1576L16.2458 41.7392Z" fill="white"/>
<path d="M22.3198 33.7062L22.4793 33.4183L25.0403 34.8365L24.8808 35.1245L23.9224 34.8894C23.8287 34.8644 23.7572 34.8561 23.7077 34.8646C23.6552 34.8624 23.6065 34.8937 23.5617 34.9584C23.51 35.0194 23.4386 35.1322 23.3474 35.2967L22.7608 36.3561L25.1881 37.7003C25.4212 37.8294 25.5674 37.897 25.6268 37.903C25.6794 37.9052 25.7429 37.8553 25.8173 37.7531L26.3165 37.0216L26.6045 37.1811L24.9299 40.2049L24.6419 40.0455L24.8832 39.4399C24.9303 39.3226 24.9389 39.2423 24.9092 39.1989C24.8726 39.1518 24.7377 39.0636 24.5046 38.9345L19.2386 36.0183C19.0054 35.8892 18.8626 35.8235 18.8101 35.8213C18.7507 35.8153 18.6837 35.8633 18.6093 35.9654L18.224 36.4913L17.936 36.3318L20.6358 31.4566L22.4049 32.4363L22.2454 32.7243L20.9215 32.4212C20.8278 32.3962 20.7562 32.3879 20.7068 32.3963C20.6542 32.3941 20.6056 32.4254 20.5607 32.4902C20.509 32.5511 20.4376 32.6639 20.3465 32.8285L19.4181 34.5049L22.4008 36.1567L22.9875 35.0974C23.0786 34.9328 23.1397 34.8143 23.1708 34.742C23.1951 34.6658 23.1958 34.608 23.1729 34.5684C23.1469 34.5182 23.0985 34.46 23.0276 34.3939L22.3198 33.7062Z" fill="white"/>
<path d="M21.8411 29.6516L26.0183 24.7154L27.5619 26.0217L27.3493 26.273L26.11 25.7172C26.0171 25.6693 25.9455 25.6447 25.8953 25.6433C25.8442 25.6309 25.7904 25.6521 25.7338 25.7068C25.6772 25.7616 25.5881 25.8608 25.4666 26.0044L24.6995 26.9108L29.7343 31.1715C29.9378 31.3437 30.068 31.4385 30.1251 31.456C30.1762 31.4684 30.2482 31.4318 30.3412 31.3462L30.8217 30.9058L31.073 31.1184L28.9921 33.5775L28.7408 33.3648L29.0956 32.8181C29.1647 32.7122 29.1889 32.6351 29.1682 32.5868C29.1415 32.5334 29.0264 32.4206 28.823 32.2485L23.7881 27.9878L23.0211 28.8943C22.9046 29.0319 22.8215 29.1361 22.7718 29.207C22.7272 29.2719 22.7152 29.3285 22.7359 29.3768C22.7506 29.4201 22.7868 29.4866 22.8443 29.5764L23.5974 30.7066L23.3848 30.9579L21.8411 29.6516Z" fill="white"/>
<path d="M38.0984 25.5955C37.4906 25.9834 36.893 26.1835 36.3057 26.1957C35.7142 26.2012 35.1576 26.0357 34.636 25.6992C34.1143 25.3626 33.6511 24.8772 33.2463 24.2429L32.8478 23.6185C32.4431 22.9842 32.1868 22.3714 32.079 21.78C31.9736 21.1778 32.0336 20.6235 32.259 20.117C32.4801 19.6039 32.8847 19.1598 33.4728 18.7845C33.9749 18.464 34.4577 18.2954 34.9212 18.2785C35.3804 18.2551 35.7926 18.3546 36.1578 18.5772C36.5254 18.7889 36.8161 19.0915 37.0301 19.485L36.0539 20.5124C35.6983 19.8095 35.3064 19.3484 34.8781 19.1289C34.4522 18.8986 34.041 18.91 33.6446 19.163C33.2217 19.4328 33.0085 19.82 33.005 20.3243C33.008 20.8245 33.2731 21.4875 33.8002 22.3134L34.8311 23.9288C35.354 24.7481 35.8602 25.2572 36.3498 25.4562C36.8394 25.6551 37.3485 25.5859 37.8771 25.2486C38.0951 25.1095 38.2713 24.9412 38.4057 24.7439C38.5467 24.5423 38.6189 24.3056 38.6221 24.0339C38.6278 23.7514 38.5333 23.4212 38.3386 23.0433L39.1723 22.7762C39.316 23.2052 39.3571 23.5974 39.2956 23.9528C39.2341 24.3081 39.0963 24.6239 38.882 24.9001C38.6702 25.1655 38.409 25.3973 38.0984 25.5955Z" fill="white"/>
<path d="M45.7709 17.3627L46.0199 18.0602C46.4258 19.197 46.4834 20.1627 46.1928 20.9572C45.907 21.7417 45.2695 22.3105 44.2803 22.6636C43.2912 23.0168 42.4339 22.9816 41.7084 22.5582C40.9877 22.1247 40.4245 21.3396 40.0186 20.2028L39.7696 19.5052C39.3637 18.3685 39.3037 17.4078 39.5896 16.6233C39.8828 15.8362 40.524 15.266 41.5131 14.9129C42.5023 14.5597 43.3559 14.5962 44.0739 15.0223C44.7994 15.4458 45.365 16.2259 45.7709 17.3627ZM44.1559 17.315C43.924 16.6654 43.6868 16.1759 43.4443 15.8463C43.1992 15.5094 42.9295 15.3019 42.6353 15.2238C42.3485 15.1431 42.0206 15.1687 41.6515 15.3004C41.2898 15.4296 41.0198 15.6175 40.8416 15.8642C40.6634 16.111 40.5861 16.4423 40.6098 16.8583C40.6308 17.2669 40.7573 17.796 40.9892 18.4456L41.6336 20.2504C41.8628 20.8926 42.1 21.3822 42.3452 21.7191C42.5903 22.0561 42.8613 22.2673 43.1581 22.3527C43.4523 22.4308 43.7803 22.4052 44.142 22.2761C44.511 22.1443 44.781 21.9564 44.9519 21.7123C45.1275 21.4582 45.2034 21.1231 45.1797 20.7071C45.1561 20.2912 45.0296 19.7621 44.8003 19.1198L44.1559 17.315Z" fill="white"/>
<path d="M57.8626 20.0599L57.8842 20.3884L54.6697 20.6L54.6481 20.2715L55.2879 20.1469C55.412 20.123 55.4843 20.0869 55.5047 20.0384C55.5245 19.9821 55.5257 19.821 55.5082 19.5551L55.1112 13.525L53.3644 19.7434L52.1091 19.826L49.5879 13.924L49.9826 19.9189C50.0001 20.1848 50.0224 20.3443 50.0495 20.3976C50.076 20.4429 50.1524 20.4693 50.2785 20.4767L50.9292 20.5164L50.9508 20.8449L48.6749 20.9947L48.6533 20.6662L49.2931 20.5416C49.4172 20.5177 49.4894 20.4816 49.5098 20.4331C49.5297 20.3768 49.5308 20.2157 49.5133 19.9498L49.1179 13.9432C49.1004 13.6773 49.0783 13.5216 49.0518 13.4762C49.0247 13.423 48.9481 13.3927 48.8219 13.3853L48.1713 13.3457L48.1497 13.0172L50.625 12.8542L53.1736 18.8133L54.954 12.5692L57.359 12.4109L57.3806 12.7394L56.7408 12.864C56.6167 12.8879 56.5447 12.9279 56.5248 12.9842C56.5045 13.0327 56.503 13.1899 56.5205 13.4558L56.916 19.4624C56.9335 19.7283 56.9558 19.8879 56.9828 19.9411C57.0094 19.9865 57.0858 20.0129 57.2119 20.0203L57.8626 20.0599Z" fill="white"/>
<path d="M64.3643 16.2053L64.6876 16.2677L64.1329 19.1422L63.8096 19.0798L63.7361 18.0957C63.7309 17.9989 63.7165 17.9283 63.6932 17.8839C63.679 17.8332 63.6342 17.7967 63.5587 17.7741C63.4847 17.7439 63.3554 17.7109 63.1707 17.6753L61.9816 17.4458L61.4559 20.1702C61.4054 20.4319 61.3865 20.5919 61.3992 20.6502C61.4134 20.7008 61.4805 20.7457 61.6007 20.7849L62.4509 21.0328L62.3885 21.356L58.9946 20.7011L59.057 20.3778L59.7075 20.4195C59.8336 20.4279 59.9126 20.4112 59.9446 20.3695C59.9781 20.3201 60.0201 20.1646 60.0706 19.9029L61.2112 13.9924C61.2617 13.7307 61.2798 13.5745 61.2657 13.5239C61.253 13.4656 61.1865 13.4168 61.0664 13.3777L60.447 13.1744L60.5094 12.8511L65.9813 13.907L65.5981 15.8926L65.2749 15.8302L65.1528 14.4776C65.1475 14.3808 65.1332 14.3101 65.1098 14.2657C65.0956 14.2151 65.0508 14.1785 64.9753 14.156C64.9013 14.1257 64.772 14.0928 64.5873 14.0571L62.7056 13.694L62.0596 17.0418L63.2486 17.2712C63.4333 17.3069 63.5649 17.3283 63.6434 17.3354C63.7233 17.3349 63.7785 17.3176 63.809 17.2836C63.8487 17.2434 63.889 17.1793 63.9299 17.0914L64.3643 16.2053Z" fill="white"/>
<path d="M73.2495 20.5983L72.956 21.2784C72.4776 22.3866 71.8612 23.1322 71.1068 23.5151C70.3628 23.8939 69.5086 23.8752 68.5443 23.459C67.58 23.0427 66.977 22.4324 66.7352 21.6279C66.5037 20.8194 66.6271 19.861 67.1055 18.7528L67.3991 18.0728C67.8775 16.9646 68.4887 16.2211 69.2328 15.8422C69.984 15.4665 70.8418 15.4868 71.8061 15.903C72.7704 16.3193 73.3698 16.9281 73.6044 17.7294C73.8462 18.5338 73.7279 19.4901 73.2495 20.5983ZM72.1009 19.4622C72.3742 18.8289 72.5346 18.3091 72.582 17.9027C72.6325 17.4891 72.5767 17.1534 72.4148 16.8957C72.2601 16.6411 72.0028 16.4361 71.643 16.2808C71.2904 16.1286 70.9648 16.0819 70.6662 16.1409C70.3675 16.1998 70.085 16.3894 69.8187 16.7098C69.5554 17.023 69.2871 17.4963 69.0137 18.1295L68.2542 19.889C67.9839 20.5151 67.8236 21.0349 67.7731 21.4485C67.7226 21.8621 67.7768 22.2013 67.9356 22.4663C68.0975 22.724 68.3548 22.9289 68.7074 23.0812C69.0672 23.2365 69.3928 23.2831 69.6843 23.2211C69.986 23.155 70.27 22.9618 70.5364 22.6414C70.8028 22.321 71.0711 21.8477 71.3413 21.2217L72.1009 19.4622Z" fill="white"/>
<path d="M77.2533 19.1221L77.45 18.8581L80.2973 20.9793C80.9573 21.471 81.3564 21.998 81.4946 22.5603C81.6328 23.1226 81.5169 23.6521 81.147 24.1486L80.9854 24.3655C80.7045 24.7426 80.362 24.9859 79.9579 25.0954C79.5538 25.2048 79.1147 25.171 78.6408 24.9938L78.1476 28.1157C78.12 28.3102 78.1017 28.4529 78.0926 28.5439C78.0835 28.6348 78.0876 28.7014 78.105 28.7437C78.1333 28.7843 78.1742 28.8344 78.2277 28.8938L78.6028 29.2758L78.4062 29.5398L76.6431 28.2264L77.3968 24.243L76.7085 23.7303L75.1211 25.8611C74.9619 26.0748 74.8754 26.2107 74.8614 26.2687C74.8522 26.3205 74.8932 26.3901 74.9844 26.4776L75.4538 26.9299L75.2571 27.1939L72.6738 25.2694L72.8704 25.0054L73.4381 25.3257C73.5481 25.388 73.6265 25.4074 73.6735 25.3837C73.7251 25.3537 73.8305 25.2319 73.9897 25.0182L77.5859 20.1909C77.7451 19.9772 77.8294 19.8445 77.8386 19.7927C77.8525 19.7347 77.8139 19.6619 77.7227 19.5744L77.2533 19.1221ZM80.0515 21.3093L79.0615 20.5718L76.9543 23.4003L77.9443 24.1378C78.2209 24.3438 78.4947 24.4158 78.7657 24.3538C79.0476 24.2902 79.3619 24.0258 79.7084 23.5607L80.0104 23.1553C80.3569 22.6901 80.5179 22.3165 80.4935 22.0344C80.4754 21.757 80.328 21.5153 80.0515 21.3093Z" fill="white"/>
<path d="M84.5426 24.485L88.7767 29.3723L87.2483 30.6964L87.0328 30.4476L87.7728 29.3087C87.8344 29.2242 87.8697 29.1573 87.8788 29.108C87.899 29.0594 87.8863 29.0029 87.8409 28.9386C87.7955 28.8742 87.7113 28.7709 87.5881 28.6287L86.8105 27.7312L81.8255 32.05C81.624 32.2245 81.5103 32.3386 81.4842 32.3923C81.4641 32.4409 81.4891 32.5177 81.5594 32.6228L81.9206 33.1654L81.6718 33.3809L79.5625 30.9462L79.8113 30.7306L80.2969 31.1654C80.3908 31.25 80.4633 31.2857 80.5142 31.2727C80.5711 31.2545 80.7002 31.1582 80.9017 30.9837L85.8867 26.6649L85.1092 25.7674C84.9912 25.6312 84.9009 25.533 84.8386 25.473C84.7813 25.4189 84.7272 25.3983 84.6763 25.4114C84.6313 25.4193 84.56 25.4447 84.4624 25.4877L83.2297 26.0579L83.0142 25.8091L84.5426 24.485Z" fill="white"/>
<path d="M88.682 41.78L88.8173 42.0801L86.9738 42.9113L84.6785 37.8202L84.9786 37.6849L85.3194 38.2405C85.3853 38.3484 85.4444 38.4034 85.497 38.4055C85.5567 38.4044 85.708 38.3491 85.9509 38.2396L91.4386 35.7655C91.6815 35.6559 91.8196 35.5808 91.8528 35.54C91.8931 35.496 91.8947 35.4136 91.8574 35.2929L91.6667 34.6696L91.9668 34.5343L93.2908 37.471L92.9907 37.6063L92.6499 37.0506C92.5841 36.9428 92.5213 36.8894 92.4616 36.8905C92.4091 36.8884 92.2614 36.9421 92.0184 37.0516L86.0056 39.7625L86.7981 41.5203C86.8754 41.6918 86.9337 41.8116 86.9731 41.8798C87.0196 41.9449 87.0656 41.98 87.1109 41.9854C87.1667 41.9946 87.2423 41.9906 87.3377 41.9734L88.682 41.78Z" fill="#CC933A"/>
<path d="M94.5032 41.5786L94.8209 41.4922L95.6671 44.6005L95.3494 44.6869L95.1002 44.0846C95.0521 43.9677 94.9985 43.9052 94.9394 43.8969C94.8878 43.8865 94.7335 43.9164 94.4763 43.9864L88.6681 45.5676C88.411 45.6376 88.2591 45.6911 88.2123 45.7282C88.1731 45.7633 88.1624 45.8434 88.1802 45.9685L88.2707 46.614L87.953 46.7005L87.1068 43.5922L87.4245 43.5057L87.6737 44.108C87.7218 44.2249 87.7716 44.2885 87.8232 44.2989C87.8823 44.3072 88.0404 44.2763 88.2975 44.2063L94.1058 42.6251C94.3629 42.5551 94.5111 42.5026 94.5503 42.4675C94.597 42.4304 94.6115 42.3493 94.5937 42.2242L94.5032 41.5786Z" fill="#CC933A"/>
<path d="M96.3726 52.2239L96.7008 52.1985L96.8768 54.4725L96.5486 54.4979L96.4166 53.8596C96.3913 53.7358 96.3504 53.6642 96.2939 53.645C96.2452 53.6252 96.088 53.6256 95.8223 53.6461L88.836 54.1867L88.7861 53.5419L95.4044 48.7022L89.4379 49.1638C89.1722 49.1844 89.0129 49.2085 88.96 49.2361C88.915 49.2632 88.8894 49.3399 88.8835 49.4661L88.8513 50.1172L88.5231 50.1426L88.3472 47.8685L88.6754 47.8431L88.8073 48.4815C88.8326 48.6053 88.8696 48.6771 88.9183 48.6969C88.9748 48.7161 89.1359 48.7155 89.4016 48.6949L95.4033 48.2306C95.669 48.21 95.8244 48.1862 95.8695 48.1591C95.9223 48.1315 95.9518 48.0545 95.9577 47.9283L95.9899 47.2772L96.3181 47.2518L96.5004 49.6079L91.1558 53.5355L95.786 53.1773C96.0517 53.1567 96.2071 53.1329 96.2522 53.1058C96.3051 53.0781 96.3345 53.0012 96.3404 52.8749L96.3726 52.2239Z" fill="#CC933A"/>
<path d="M89.9666 61.6775L89.9163 62.0028L87.9178 61.6938L88.807 55.9425L89.1324 55.9928L89.1149 56.6444C89.1112 56.7707 89.1308 56.8491 89.1737 56.8795C89.2243 56.9111 89.3813 56.9473 89.6447 56.988L95.5936 57.9078C95.857 57.9485 96.0137 57.9608 96.0637 57.9448C96.1216 57.9299 96.1678 57.8617 96.2024 57.7402L96.3826 57.1137L96.7079 57.164L95.8367 62.7992L93.8382 62.4902L93.8885 62.1649L95.2357 61.9925C95.3322 61.9836 95.4023 61.9667 95.4458 61.9417C95.4958 61.9256 95.5307 61.8795 95.5505 61.8032C95.5779 61.7282 95.606 61.5977 95.6348 61.4118L95.9474 59.3901L92.6476 58.8799L92.4428 60.2045C92.414 60.3904 92.3976 60.5226 92.3933 60.6013C92.3968 60.6812 92.4162 60.7357 92.4513 60.7649C92.493 60.8031 92.5585 60.841 92.6479 60.8786L93.5495 61.2797L93.4992 61.605L90.6061 61.1577L90.6564 60.8324L91.637 60.7223C91.7336 60.7134 91.8036 60.6965 91.8471 60.6715C91.8972 60.6554 91.9321 60.6093 91.9518 60.533C91.9793 60.458 92.0074 60.3275 92.0361 60.1416L92.2409 58.817L88.8598 58.2943L88.5293 60.4321C88.5005 60.6181 88.484 60.7503 88.4798 60.829C88.4833 60.9088 88.5026 60.9634 88.5378 60.9926C88.5795 61.0308 88.645 61.0687 88.7343 61.1063L89.9666 61.6775Z" fill="#CC933A"/>
<path d="M23.562 75.0576L23.6756 74.9865L24.1787 75.7902L24.0651 75.8613L23.8992 75.6431C23.8655 75.6017 23.8362 75.5829 23.8112 75.5868C23.7891 75.5889 23.7304 75.6198 23.635 75.6796L21.1147 77.2573L20.9856 77.0511L22.6103 73.9023L20.3677 75.3062C20.2723 75.3659 20.2174 75.4061 20.203 75.4268C20.1915 75.4458 20.1969 75.4794 20.2194 75.5278L20.3391 75.7751L20.2297 75.8435L19.7266 75.0399L19.836 74.9714L20.0061 75.187C20.0398 75.2284 20.0677 75.248 20.0898 75.2459C20.1147 75.242 20.1748 75.2102 20.2702 75.1505L22.4497 73.7861C22.5451 73.7264 22.5986 73.6871 22.6102 73.6681C22.6245 73.6474 22.6205 73.6129 22.598 73.5645L22.4741 73.3199L22.5878 73.2488L23.0434 73.9767L21.6231 76.7223L23.5376 75.5239C23.633 75.4642 23.6864 75.4248 23.698 75.4059C23.7124 75.3852 23.7083 75.3506 23.6858 75.3022L23.562 75.0576Z" fill="white"/>
<path d="M24.9133 79.2685L24.6171 79.494C24.2327 79.7867 23.8627 79.9291 23.5073 79.9211C23.1544 79.9111 22.8527 79.7415 22.602 79.4124C22.3494 79.0807 22.2652 78.7434 22.3494 78.4006C22.4383 78.0584 22.6749 77.7409 23.0593 77.4482L23.3555 77.2227C23.7373 76.932 24.1036 76.7903 24.4545 76.7977C24.81 76.8057 25.114 76.9755 25.3667 77.3073C25.6173 77.6364 25.6991 77.9734 25.6123 78.3182C25.5281 78.661 25.2951 78.9778 24.9133 79.2685ZM24.8251 78.7429C25.1542 78.4923 25.3451 78.2596 25.3978 78.0448C25.4552 77.8305 25.4027 77.6168 25.2403 77.4035C25.0779 77.1903 24.8848 77.0815 24.661 77.0771C24.4419 77.0734 24.1678 77.1969 23.8387 77.4475L23.1475 77.9738C22.8184 78.2244 22.6252 78.4568 22.5678 78.671C22.5125 78.8879 22.566 79.1029 22.7284 79.3162C22.8908 79.5295 23.0829 79.6369 23.3046 79.6386C23.5284 79.643 23.8048 79.5198 24.1339 79.2692L24.8251 78.7429Z" fill="white"/>
<path d="M27.8072 80.4814L27.906 80.3909L28.5466 81.0899L28.4478 81.1804L28.245 80.9959C28.2044 80.9614 28.1721 80.9482 28.1484 80.9566C28.127 80.9627 28.0749 81.0037 27.9919 81.0797L25.7997 83.0887L25.6353 82.9093L26.6617 79.5179L24.711 81.3055C24.6281 81.3815 24.5814 81.431 24.571 81.454C24.5631 81.4747 24.5746 81.5068 24.6055 81.5504L24.768 81.7718L24.6728 81.859L24.0322 81.1599L24.1274 81.0727L24.3338 81.2539C24.3745 81.2885 24.4055 81.3027 24.4268 81.2966C24.4506 81.2883 24.504 81.2461 24.5869 81.1701L26.4827 79.4328C26.5657 79.3568 26.6111 79.3084 26.619 79.2877C26.6294 79.2647 26.6191 79.2315 26.5882 79.188L26.4221 78.9699L26.5209 78.8794L27.1011 79.5125L26.2026 82.4703L27.8678 80.9443C27.9508 80.8683 27.9962 80.8199 28.0041 80.7992C28.0145 80.7762 28.0043 80.743 27.9734 80.6995L27.8072 80.4814Z" fill="white"/>
<path d="M27.7068 82.7672L27.8261 82.6408L28.7793 83.5402L28.6601 83.6666L27.7068 82.7672Z" fill="white"/>
<path d="M31.2525 87.6985L31.1721 87.7995L30.2364 87.0541L30.3168 86.9531L30.5489 87.0999C30.5944 87.1278 30.6273 87.137 30.6474 87.1276C30.6696 87.1157 30.7158 87.0657 30.7859 86.9777L32.4623 84.8733L29.9752 86.3383L29.7111 86.1279L30.5791 83.3732L28.9028 85.4776C28.8326 85.5656 28.7943 85.6218 28.7876 85.6461C28.783 85.6678 28.7993 85.6978 28.8366 85.7359L29.0316 85.9293L28.9512 86.0303L28.2096 85.4395L28.29 85.3386L28.5221 85.4854C28.5677 85.5132 28.6005 85.5225 28.6206 85.5131C28.6428 85.5012 28.689 85.4512 28.7591 85.3632L30.3612 83.3519C30.4314 83.2639 30.4687 83.2091 30.4733 83.1874C30.48 83.1631 30.4647 83.1318 30.4274 83.0936L30.2293 82.9041L30.3128 82.7993L31.0233 83.3653L30.18 86.0254L32.5842 84.6087L33.2753 85.1592L33.1918 85.2641L32.9628 85.1134C32.9173 85.0855 32.8834 85.0776 32.8612 85.0895C32.8411 85.0989 32.7959 85.1476 32.7258 85.2356L31.1237 87.2468C31.0536 87.3348 31.0152 87.391 31.0085 87.4153C31.0039 87.437 31.0202 87.4669 31.0575 87.5051L31.2525 87.6985Z" fill="white"/>
<path d="M34.3042 88.8914L34.4125 88.9615L33.9732 89.641L31.9765 88.3499L32.0465 88.2415L32.292 88.3647C32.34 88.3879 32.3736 88.3939 32.3928 88.3826C32.4119 88.3713 32.4529 88.317 32.5158 88.2198L33.912 86.0605C33.9749 85.9632 34.0076 85.9035 34.01 85.8815C34.0125 85.8594 33.9933 85.8312 33.9524 85.7969L33.7366 85.6278L33.8094 85.5153L35.7519 86.7714L35.3125 87.4508L35.2083 87.3834L35.3705 86.8676C35.3837 86.8288 35.3892 86.7989 35.3871 86.7778C35.3896 86.7558 35.3778 86.7344 35.3518 86.7136C35.3276 86.6901 35.2821 86.6568 35.2155 86.6136L34.4068 86.0907L33.6278 87.2954L34.1864 87.6566C34.2531 87.6997 34.3012 87.7289 34.3308 87.7441C34.3622 87.7565 34.3865 87.7585 34.4038 87.75C34.4257 87.7405 34.4516 87.7217 34.4815 87.6938L34.7629 87.4324L34.8713 87.5024L34.2405 88.4779L34.1322 88.4078L34.2551 88.0439C34.2683 88.0052 34.2739 87.9753 34.2718 87.9542C34.2742 87.9321 34.2624 87.9107 34.2364 87.89C34.2122 87.8665 34.1668 87.8331 34.1001 87.79L33.5415 87.4288L32.7464 88.6585L33.6051 89.2138C33.6718 89.2569 33.7199 89.2861 33.7495 89.3013C33.7809 89.3137 33.8052 89.3156 33.8226 89.3071C33.8445 89.2976 33.8704 89.2789 33.9003 89.251L34.3042 88.8914Z" fill="white"/>
<path d="M36.2455 87.2438L36.3085 87.1254L37.5529 87.7881C37.9093 87.9779 38.1209 88.2387 38.1879 88.5705C38.2549 88.9024 38.1764 89.2787 37.9524 89.6993L37.7774 90.0279C37.5519 90.4515 37.2827 90.7281 36.97 90.8577C36.6572 90.9874 36.3227 90.9573 35.9663 90.7675L34.7219 90.1049L34.7826 89.991L35.0376 90.093C35.0874 90.1121 35.1214 90.1152 35.1395 90.1023C35.1576 90.0894 35.1939 90.0319 35.2483 89.9297L36.4569 87.66C36.5114 87.5578 36.5389 87.4956 36.5394 87.4734C36.54 87.4512 36.5185 87.4247 36.4748 87.394L36.2455 87.2438ZM37.4695 87.9236L36.9524 87.6483L35.5152 90.3473L36.0322 90.6227C36.1899 90.7067 36.3355 90.7467 36.4688 90.7427C36.6022 90.7387 36.731 90.6798 36.8553 90.5661C36.9841 90.4509 37.1138 90.2707 37.2445 90.0253L37.6528 89.2586C37.7819 89.0161 37.8575 88.8108 37.8796 88.6426C37.9046 88.4759 37.8815 88.3362 37.8104 88.2233C37.7409 88.1075 37.6272 88.0076 37.4695 87.9236Z" fill="white"/>
<path d="M39.1916 88.7725L39.2466 88.6503L40.3377 89.1409L40.2828 89.2631L40.0236 89.1738C39.9726 89.1581 39.9385 89.1573 39.9213 89.1713C39.9041 89.1854 39.8717 89.2452 39.8242 89.3509L38.7698 91.6961C38.7223 91.8018 38.699 91.8657 38.6999 91.8878C38.7008 91.91 38.7241 91.935 38.7697 91.9627L39.0065 92.1019L38.9535 92.2196L37.8624 91.729L37.9153 91.6113L38.1766 91.6961C38.2276 91.7118 38.2617 91.7126 38.2789 91.6985C38.2961 91.6845 38.3284 91.6247 38.3759 91.519L39.4303 89.1738C39.4778 89.0681 39.5011 89.0042 39.5002 88.982C39.4993 88.9598 39.4761 88.9349 39.4305 88.9071L39.1916 88.7725Z" fill="white"/>
<path d="M40.9596 93.0812C40.5661 92.9336 40.315 92.6891 40.2062 92.3478C40.1005 92.0077 40.1308 91.6162 40.2971 91.1731L40.4279 90.8245C40.5372 90.5332 40.6759 90.2955 40.844 90.1111C41.0152 89.9279 41.2103 89.8085 41.4291 89.7528C41.648 89.697 41.8829 89.7162 42.1339 89.8104C42.3663 89.8976 42.5409 90.0162 42.6579 90.1661C42.776 90.3129 42.8412 90.4735 42.8536 90.6478C42.8671 90.819 42.8289 90.9867 42.739 91.1509L42.3027 91.0985C42.4484 90.8139 42.4998 90.5733 42.4568 90.3769C42.415 90.1775 42.2888 90.0382 42.0781 89.9591C41.8426 89.8708 41.6315 89.887 41.4448 90.0078C41.2612 90.1298 41.0984 90.3798 40.9566 90.7578L40.6514 91.5711C40.5084 91.9522 40.4706 92.2509 40.5379 92.467C40.6053 92.6832 40.7676 92.8395 41.0247 92.936C41.127 92.9743 41.231 92.9939 41.3367 92.9947C41.4436 92.9924 41.5459 92.9601 41.6435 92.8977C41.7411 92.8354 41.8267 92.7297 41.9004 92.5806L42.1606 92.7631C41.9994 92.9854 41.8129 93.1151 41.601 93.1522C41.3934 93.1874 41.1796 93.1638 40.9596 93.0812Z" fill="white"/>
<path d="M43.4851 93.751L43.4499 93.8752L42.5424 93.6182L42.5776 93.494L42.8436 93.5384C42.8796 93.5451 42.9064 93.5475 42.9241 93.5457C42.9427 93.5406 42.9625 93.5256 42.9833 93.5005C43.0083 93.4732 43.0427 93.4245 43.0867 93.3544L44.8188 90.7545L45.1197 90.8398L45.2407 93.9645C45.2414 94.0472 45.2435 94.1063 45.2473 94.1418C45.2551 94.1749 45.2656 94.1986 45.2788 94.2126C45.2929 94.2235 45.3154 94.235 45.3464 94.2472L45.6009 94.3503L45.5658 94.4745L44.4052 94.1458L44.4403 94.0216L44.7111 94.0673C44.7639 94.0754 44.7946 94.0703 44.8031 94.0521C44.8158 94.0316 44.82 93.9623 44.8156 93.8441L44.793 93.1773L43.6276 92.8472L43.2586 93.4031C43.1929 93.5014 43.1585 93.5622 43.1554 93.5854C43.1563 93.6063 43.1814 93.6272 43.2305 93.6479L43.4851 93.751ZM43.7186 92.7079L44.7885 93.0109L44.7243 91.1973L43.7186 92.7079Z" fill="white"/>
<path d="M48.2387 94.1849L48.37 94.2115L48.2073 95.0143L45.9937 94.5657L46.0193 94.4392L46.2928 94.4642C46.346 94.4683 46.3795 94.4615 46.3931 94.444C46.4068 94.4266 46.4252 94.3611 46.4482 94.2475L46.9589 91.7274C46.9819 91.6138 46.9905 91.5464 46.9847 91.5249C46.9789 91.5035 46.9507 91.4843 46.9001 91.4673L46.6375 91.3887L46.6641 91.2574L47.8366 91.495L47.81 91.6263L47.5375 91.5964C47.4843 91.5924 47.4508 91.5991 47.4371 91.6166C47.4235 91.6341 47.4051 91.6996 47.3821 91.8131L46.8231 94.5717L47.7037 94.7501C47.7816 94.7659 47.837 94.7755 47.8701 94.7788C47.9039 94.7789 47.9273 94.7718 47.9403 94.7576C47.9572 94.7407 47.9745 94.7138 47.9921 94.6769L48.2387 94.1849Z" fill="white"/>
<path d="M51.4194 95.3222C51.6402 95.3427 51.8232 95.3048 51.9684 95.2086C52.1169 95.1127 52.2009 94.9593 52.2205 94.7485C52.2361 94.5804 52.198 94.4356 52.1063 94.3141C52.0148 94.1893 51.8454 94.0805 51.5981 93.9877L51.2662 93.8572C51.0222 93.7648 50.842 93.6301 50.7255 93.4531C50.6089 93.2761 50.5617 93.069 50.5837 92.8317C50.5984 92.6735 50.6484 92.5286 50.7337 92.3969C50.8224 92.2656 50.9465 92.1641 51.106 92.0925C51.2688 92.0212 51.4689 91.9965 51.7061 92.0186C51.9697 92.043 52.1777 92.1122 52.33 92.226C52.4826 92.3366 52.583 92.4722 52.6312 92.6329C52.6795 92.7936 52.6788 92.9613 52.6294 93.1362L52.2059 93.1867C52.2772 92.8842 52.2678 92.6457 52.1776 92.4711C52.0907 92.2969 51.9205 92.198 51.6667 92.1744C51.4657 92.1558 51.3025 92.1955 51.1771 92.2935C51.052 92.3882 50.9799 92.5378 50.9609 92.7421C50.946 92.9035 50.9793 93.0462 51.0608 93.1701C51.1427 93.2907 51.2975 93.3948 51.5254 93.4824L51.8573 93.613C52.3935 93.8156 52.6388 94.1624 52.5932 94.6534C52.577 94.8281 52.5212 94.9824 52.4256 95.1165C52.3337 95.2475 52.2015 95.3466 52.0291 95.4137C51.86 95.4811 51.6519 95.5033 51.4048 95.4804C51.2334 95.4645 51.0711 95.4228 50.9178 95.3554C50.7678 95.2883 50.6428 95.1853 50.5427 95.0464C50.4459 94.9078 50.3899 94.7231 50.3747 94.4924L50.6805 94.4211C50.6768 94.6401 50.709 94.8126 50.777 94.9385C50.8451 95.0645 50.9362 95.1577 51.0502 95.2181C51.1645 95.2753 51.2876 95.31 51.4194 95.3222Z" fill="white"/>
<path d="M55.3855 92.3776L55.3871 92.2436L56.3352 92.2546L56.3336 92.3886L56.0603 92.4103C56.0073 92.4163 55.9757 92.4292 55.9655 92.4489C55.9554 92.4686 55.9496 92.5364 55.9483 92.6522L55.9271 94.4789C55.9228 94.8561 55.8317 95.1496 55.6538 95.3594C55.4793 95.5659 55.2134 95.6671 54.856 95.6629C54.4655 95.6584 54.1674 95.5408 53.9615 95.31C53.759 95.0793 53.6601 94.7637 53.6647 94.3633L53.6848 92.626C53.6862 92.5102 53.682 92.4423 53.6723 92.4223C53.6626 92.4024 53.6313 92.3888 53.5784 92.3815L53.3057 92.3536L53.3073 92.2195L54.5035 92.2334L54.502 92.3674L54.2287 92.3891C54.1757 92.3951 54.1441 92.4079 54.1339 92.4277C54.1238 92.4474 54.118 92.5152 54.1167 92.631L54.0957 94.4428C54.0916 94.7969 54.1547 95.0607 54.2851 95.2343C54.4188 95.408 54.6229 95.4964 54.8976 95.4996C55.1756 95.5028 55.3851 95.4175 55.5261 95.2437C55.6671 95.07 55.7395 94.816 55.7434 94.4817L55.7646 92.6501C55.766 92.5343 55.7618 92.4664 55.7521 92.4464C55.7424 92.4265 55.7111 92.4129 55.6582 92.4056L55.3855 92.3776Z" fill="white"/>
<path d="M56.8555 92.3657L56.8457 92.232L58.2517 92.1288C58.5784 92.1048 58.8337 92.169 59.0174 92.3214C59.2009 92.4706 59.3026 92.6804 59.3225 92.9511L59.333 93.0947C59.3529 93.3653 59.2831 93.5894 59.1236 93.7671C58.9641 93.9447 58.7209 94.0455 58.3942 94.0695L57.8001 94.1131L57.8753 95.1379C57.8838 95.2534 57.8939 95.3224 57.9055 95.3448C57.9168 95.3638 57.949 95.3731 58.0021 95.3725L58.3756 95.3749L58.385 95.5037L57.0929 95.5985L57.0834 95.4698L57.3535 95.4201C57.4059 95.4096 57.4362 95.3941 57.4447 95.3736C57.4531 95.3531 57.4531 95.2851 57.4446 95.1695L57.2563 92.6051C57.2479 92.4895 57.2379 92.4222 57.2266 92.4032C57.2152 92.3841 57.1829 92.3732 57.1296 92.3705L56.8555 92.3657ZM58.2633 92.2872L57.6692 92.3308L57.7885 93.9547L58.3826 93.9111C58.7489 93.8842 58.9156 93.6463 58.8827 93.1974L58.8619 92.9152C58.8292 92.4697 58.6297 92.2603 58.2633 92.2872Z" fill="white"/>
<path d="M59.7864 92.135L59.7664 92.0025L61.1603 91.7916C61.4842 91.7426 61.7437 91.787 61.9386 91.9248C62.133 92.0594 62.2505 92.2609 62.2911 92.5292L62.3126 92.6715C62.3532 92.9398 62.3008 93.1687 62.1555 93.358C62.0101 93.5474 61.7754 93.6666 61.4515 93.7156L60.8625 93.8047L61.0162 94.8207C61.0335 94.9352 61.0489 95.0032 61.0621 95.0246C61.0749 95.0428 61.1077 95.0495 61.1606 95.0449L61.5332 95.0186L61.5525 95.1462L60.2714 95.3401L60.2521 95.2125L60.5176 95.1422C60.569 95.1277 60.5981 95.1099 60.6049 95.0888C60.6118 95.0677 60.6065 94.9999 60.5892 94.8853L60.2045 92.3429C60.1871 92.2284 60.1721 92.162 60.1593 92.1439C60.1465 92.1257 60.1134 92.1174 60.0601 92.1187L59.7864 92.135ZM61.1841 91.9486L60.5951 92.0378L60.8387 93.6477L61.4277 93.5585C61.7909 93.5036 61.9388 93.2536 61.8715 92.8086L61.8291 92.5288C61.7623 92.0871 61.5473 91.8937 61.1841 91.9486Z" fill="white"/>
<path d="M65.6103 92.3937L65.6967 92.7559C65.8089 93.2258 65.7894 93.6218 65.6382 93.9436C65.4863 94.2623 65.2092 94.4696 64.8068 94.5656C64.4012 94.6624 64.0587 94.6029 63.7793 94.3872C63.5023 94.1675 63.3077 93.8227 63.1956 93.3527L63.1092 92.9906C62.9978 92.5238 63.0164 92.1315 63.1651 91.8136C63.3163 91.4918 63.5947 91.2824 64.0003 91.1856C64.4026 91.0896 64.7439 91.1511 65.0241 91.37C65.3035 91.5857 65.4989 91.927 65.6103 92.3937ZM65.094 92.2618C64.998 91.8594 64.8624 91.5906 64.6873 91.4555C64.5146 91.3164 64.2979 91.2779 64.0371 91.3402C63.7764 91.4024 63.5988 91.5349 63.5043 91.7378C63.4123 91.9367 63.4142 92.2373 63.5103 92.6397L63.7119 93.4847C63.8079 93.887 63.9423 94.1578 64.1149 94.2969C64.2909 94.4352 64.5092 94.4733 64.7699 94.4111C65.0307 94.3489 65.2067 94.2167 65.2979 94.0146C65.3924 93.8117 65.3917 93.5091 65.2956 93.1067L65.094 92.2618Z" fill="white"/>
<path d="M65.9552 90.8856L65.9129 90.7584L67.2222 90.3226C67.5299 90.2201 67.79 90.2155 68.0024 90.3087C68.2169 90.3978 68.3644 90.5632 68.4449 90.805L68.4935 90.951C68.5573 91.1425 68.5582 91.3235 68.4964 91.4941C68.4367 91.6605 68.3179 91.8012 68.1399 91.9162L69.1128 92.8271C69.1787 92.8889 69.2263 92.9323 69.2556 92.9574C69.2839 92.9794 69.3074 92.9925 69.3263 92.9967C69.3472 92.9967 69.3739 92.9931 69.4063 92.9858L69.6277 92.9435L69.6684 93.0659L68.9572 93.3027L67.7301 92.0997L67.2686 92.2534L67.6245 93.3226C67.6611 93.4325 67.6872 93.4953 67.7029 93.511C67.7186 93.5267 67.7526 93.5293 67.8049 93.5188L68.0734 93.4609L68.1142 93.5833L66.9791 93.9612L66.9383 93.8387L67.1879 93.7242C67.2361 93.7012 67.2617 93.6788 67.2649 93.6568C67.268 93.6348 67.2513 93.5689 67.2147 93.459L66.4025 91.0192C66.3659 90.9093 66.3398 90.8465 66.3241 90.8308C66.3084 90.8151 66.2744 90.8125 66.2221 90.8229L65.9552 90.8856ZM67.2724 90.4733L66.7355 90.652L67.2184 92.1027L67.7553 91.9239C67.9186 91.8696 68.0285 91.7754 68.0851 91.6415C68.1437 91.5034 68.1375 91.3276 68.0665 91.1141L68.0053 90.9304C67.9342 90.7168 67.8343 90.574 67.7056 90.5017C67.5801 90.4284 67.4357 90.4189 67.2724 90.4733Z" fill="white"/>
<path d="M68.6151 89.8597L71.0473 88.831L71.3625 89.5762L71.2437 89.6265L70.908 89.2025C70.8834 89.1698 70.8618 89.1484 70.8432 89.1383C70.8263 89.1239 70.802 89.1216 70.7702 89.1315C70.7371 89.1382 70.684 89.1571 70.6109 89.1881L70.0942 89.4066L71.1907 91.9989C71.2358 92.1055 71.2668 92.1661 71.2837 92.1805C71.3006 92.1949 71.3347 92.1949 71.386 92.1803L71.6491 92.1014L71.6994 92.2203L70.5975 92.6863L70.5472 92.5674L70.7871 92.4337C70.8333 92.4069 70.8571 92.3825 70.8585 92.3603C70.8599 92.3382 70.838 92.2738 70.7929 92.1671L69.6965 89.5748L69.1753 89.7953C69.1052 89.8249 69.0547 89.8499 69.0237 89.8701C68.9945 89.8861 68.9777 89.9058 68.9732 89.9292C68.9705 89.9483 68.9724 89.9781 68.9787 90.0186L69.0491 90.5547L68.9303 90.605L68.6151 89.8597Z" fill="white"/>
<path d="M75.2499 90.3361C75.4432 90.2276 75.5723 90.0925 75.6372 89.9308C75.705 89.7676 75.687 89.5936 75.5833 89.4089C75.5007 89.2617 75.3871 89.1642 75.2426 89.1163C75.0964 89.0655 74.8953 89.0721 74.639 89.1363L74.2917 89.2173C74.0384 89.2798 73.8135 89.2713 73.6171 89.1918C73.4207 89.1123 73.2641 88.9687 73.1475 88.7609C73.0698 88.6224 73.0286 88.4747 73.0241 88.3179C73.0224 88.1594 73.0669 88.0054 73.1575 87.8559C73.2511 87.7047 73.4017 87.5708 73.6095 87.4542C73.8404 87.3246 74.0508 87.2634 74.2408 87.2706C74.4292 87.2749 74.5889 87.3295 74.7198 87.4344C74.8508 87.5392 74.9456 87.6777 75.0042 87.8497L74.6843 88.1317C74.5712 87.8423 74.4279 87.6513 74.2546 87.5589C74.0841 87.4648 73.8878 87.4801 73.6656 87.6048C73.4896 87.7037 73.3778 87.829 73.3302 87.9809C73.281 88.13 73.3067 88.294 73.4071 88.4729C73.4865 88.6143 73.5949 88.7128 73.7324 88.7685C73.8683 88.8212 74.0549 88.819 74.2922 88.7617L74.6394 88.6806C75.1959 88.5429 75.5948 88.689 75.8362 89.119C75.922 89.2719 75.9637 89.4307 75.9612 89.5953C75.96 89.7554 75.9074 89.912 75.8036 90.0651C75.7027 90.2166 75.5441 90.3531 75.3276 90.4746C75.1776 90.5588 75.0203 90.6167 74.8559 90.6483C74.6943 90.6783 74.5329 90.6645 74.3716 90.607C74.2132 90.548 74.0622 90.4277 73.9187 90.2464L74.1299 90.0141C74.2512 90.1965 74.3756 90.3201 74.5032 90.3852C74.6308 90.4502 74.7587 90.4752 74.8869 90.4601C75.0134 90.4422 75.1344 90.4009 75.2499 90.3361Z" fill="white"/>
<path d="M78.4242 87.5297L78.5315 87.458L78.9808 88.131L77.0032 89.4512L76.9316 89.3439L77.1421 89.1675C77.1825 89.1326 77.2013 89.1042 77.1985 89.0821C77.1957 89.0601 77.1622 89.0009 77.0979 88.9046L75.6701 86.766C75.6058 86.6697 75.564 86.616 75.5447 86.605C75.5254 86.594 75.4919 86.6004 75.4442 86.6243L75.2034 86.7553L75.129 86.6438L77.0529 85.3594L77.5021 86.0323L77.3989 86.1013L76.9898 85.7477C76.9595 85.7202 76.9342 85.7032 76.914 85.6968C76.8947 85.6858 76.8704 85.6881 76.8411 85.7037C76.8099 85.7166 76.7612 85.7451 76.6952 85.7892L75.8942 86.3239L76.6908 87.5171L77.244 87.1477C77.3101 87.1036 77.356 87.071 77.3816 87.0499C77.4055 87.026 77.417 87.0044 77.416 86.9851C77.416 86.9613 77.4091 86.9301 77.3953 86.8915L77.267 86.5295L77.3744 86.4579L78.0193 87.4239L77.912 87.4956L77.6268 87.2383C77.5965 87.2108 77.5713 87.1939 77.5511 87.1874C77.5318 87.1764 77.5075 87.1787 77.4781 87.1944C77.4469 87.2072 77.3983 87.2357 77.3322 87.2798L76.779 87.6492L77.5921 88.8671L78.4426 88.2993C78.5087 88.2552 78.5545 88.2226 78.5802 88.2015C78.6041 88.1776 78.6155 88.156 78.6146 88.1367C78.6146 88.1129 78.6077 88.0817 78.5939 88.0431L78.4242 87.5297Z" fill="white"/>
<path d="M77.6541 85.1056L77.571 85.0004L78.6535 84.1445C78.9079 83.9434 79.1508 83.8504 79.3823 83.8657C79.6143 83.8764 79.8093 83.9816 79.9674 84.1815L80.0628 84.3022C80.188 84.4606 80.2506 84.6305 80.2506 84.8119C80.2512 84.9886 80.1874 85.1614 80.0593 85.3302L81.2843 85.8551C81.3673 85.8907 81.4269 85.9153 81.463 85.929C81.497 85.94 81.5236 85.9443 81.5427 85.9418C81.5624 85.9347 81.5863 85.9222 81.6143 85.9043L81.808 85.7891L81.888 85.8903L81.3 86.3552L79.7365 85.6423L79.3549 85.9441L80.0538 86.828C80.1256 86.9189 80.1716 86.969 80.1917 86.9784C80.2118 86.9878 80.2447 86.9787 80.2903 86.9511L80.523 86.8051L80.603 86.9063L79.6646 87.6483L79.5845 87.5471L79.7802 87.3544C79.8177 87.3164 79.8341 87.2865 79.8296 87.2647C79.825 87.243 79.7869 87.1867 79.715 87.0959L78.1202 85.0788C78.0484 84.9879 78.0024 84.9378 77.9823 84.9284C77.9622 84.9189 77.9293 84.9281 77.8837 84.9557L77.6541 85.1056ZM78.752 84.2691L78.3081 84.6201L79.2564 85.8195L79.7003 85.4685C79.8353 85.3617 79.9066 85.2358 79.9141 85.0906C79.9222 84.9407 79.8565 84.7776 79.7169 84.601L79.5968 84.4492C79.4572 84.2726 79.3147 84.1723 79.169 84.1482C79.026 84.1221 78.887 84.1624 78.752 84.2691Z" fill="white"/>
<path d="M82.0946 81.6133L83.4448 84.4636L83.2021 84.6909L80.4425 83.1607C80.3529 83.1086 80.2964 83.0822 80.273 83.0815C80.2498 83.076 80.2166 83.089 80.1734 83.1203L79.9753 83.2719L79.8837 83.1741L80.7351 82.3766L80.8267 82.4744L80.6589 82.6656C80.6248 82.7066 80.6121 82.7367 80.6208 82.7557C80.632 82.7724 80.6812 82.8057 80.7686 82.8553L83.1242 84.1721L81.9642 81.7355C81.9227 81.6428 81.8928 81.5915 81.8744 81.5815C81.8584 81.5693 81.8276 81.58 81.782 81.6136L81.5803 81.7686L81.4887 81.6708L82.1444 81.0565L82.2361 81.1544L82.0682 81.3455C82.0464 81.3706 82.0328 81.3924 82.0275 81.4109C82.0223 81.4248 82.0251 81.4472 82.0358 81.4779C82.0467 81.5041 82.0663 81.5492 82.0946 81.6133Z" fill="white"/>
<path d="M82.3361 81.02L82.2386 80.9281L83.0596 80.0579L83.1571 80.1499L82.9878 80.3655C82.9563 80.4085 82.9443 80.4405 82.9519 80.4613C82.9596 80.4822 83.0055 80.5324 83.0898 80.6119L84.9601 82.3765C85.0443 82.456 85.0971 82.4989 85.1183 82.5053C85.1396 82.5117 85.1708 82.4979 85.2119 82.464L85.421 82.2858L85.5149 82.3744L84.6939 83.2446L84.6 83.156L84.7657 82.937C84.7972 82.8939 84.8091 82.862 84.8015 82.8411C84.7939 82.8203 84.748 82.7701 84.6637 82.6906L82.7934 80.926C82.7091 80.8465 82.6564 80.8035 82.6351 80.7971C82.6139 80.7907 82.5827 80.8045 82.5415 80.8385L82.3361 81.02Z" fill="white"/>
<path d="M86.9441 80.8105C86.6751 81.1335 86.3616 81.2901 86.0035 81.2804C85.6476 81.2682 85.2878 81.1107 84.9242 80.8078L84.6381 80.5695C84.3991 80.3704 84.2202 80.1611 84.1016 79.9417C83.985 79.7197 83.9364 79.4962 83.9559 79.2712C83.9753 79.0462 84.0708 78.8307 84.2424 78.6247C84.4012 78.434 84.5707 78.3081 84.7507 78.2471C84.9283 78.1839 85.1014 78.1752 85.27 78.2209C85.4361 78.2645 85.5819 78.3558 85.7074 78.4947L85.5142 78.8895C85.2934 78.6582 85.0832 78.5305 84.8836 78.5064C84.6815 78.4801 84.5084 78.5535 84.3644 78.7264C84.2034 78.9196 84.1493 79.1243 84.2018 79.3404C84.2566 79.5539 84.439 79.7899 84.7492 80.0483L85.4167 80.6043C85.7295 80.8648 85.999 80.9989 86.2253 81.0064C86.4516 81.014 86.6526 80.9123 86.8284 80.7012C86.8983 80.6173 86.951 80.5256 86.9866 80.426C87.0196 80.3243 87.0228 80.2171 86.996 80.1044C86.9693 79.9917 86.8977 79.876 86.7811 79.7574L87.0391 79.5717C87.196 79.7971 87.257 80.016 87.2223 80.2283C87.1872 80.4359 87.0945 80.63 86.9441 80.8105Z" fill="white"/>
<path d="M88.7418 76.9916L88.8162 76.8862L89.4774 77.3525L88.107 79.2956L88.0015 79.2213L88.1345 78.981C88.1596 78.9339 88.1669 78.9006 88.1564 78.881C88.1459 78.8615 88.0933 78.8183 87.9987 78.7515L85.8974 77.2695C85.8027 77.2027 85.7444 77.1677 85.7225 77.1643C85.7005 77.161 85.6716 77.1791 85.6357 77.2185L85.458 77.4273L85.3485 77.3501L86.6818 75.4597L87.343 75.9261L87.2715 76.0275L86.7625 75.8447C86.7244 75.8299 86.6947 75.8232 86.6736 75.8245C86.6516 75.8211 86.6297 75.832 86.608 75.8572C86.5835 75.8804 86.5484 75.9245 86.5026 75.9894L85.9475 76.7764L87.1199 77.6032L87.5033 77.0596C87.549 76.9947 87.5801 76.9478 87.5965 76.9189C87.6102 76.888 87.6131 76.8637 87.6053 76.8461C87.5967 76.8238 87.579 76.7972 87.5523 76.7662L87.3024 76.4745L87.3768 76.3691L88.326 77.0386L88.2516 77.144L87.893 77.0065C87.8549 76.9918 87.8252 76.985 87.8041 76.9863C87.7821 76.983 87.7602 76.9939 87.7385 77.019C87.714 77.0422 87.6789 77.0863 87.6331 77.1512L87.2497 77.6948L88.4464 78.5388L89.0358 77.7032C89.0815 77.6382 89.1126 77.5913 89.129 77.5624C89.1427 77.5315 89.1456 77.5073 89.1378 77.4896C89.1292 77.4673 89.1115 77.4407 89.0848 77.4097L88.7418 76.9916Z" fill="white"/>
<path d="M90.4613 75.5668C90.5748 75.3763 90.6193 75.1949 90.595 75.0224C90.5723 74.8471 90.4699 74.7053 90.288 74.5969C90.143 74.5105 89.9959 74.4826 89.8467 74.5131C89.6947 74.542 89.5236 74.6481 89.3335 74.8314L89.0729 75.0749C88.8845 75.2554 88.6853 75.3602 88.4754 75.3892C88.2655 75.4182 88.0582 75.3718 87.8535 75.2498C87.7171 75.1686 87.6077 75.0611 87.5256 74.9274C87.4451 74.7908 87.4069 74.6352 87.4109 74.4604C87.4166 74.2827 87.4804 74.0915 87.6023 73.8868C87.7378 73.6594 87.8897 73.5014 88.058 73.4129C88.2234 73.3227 88.3891 73.2904 88.5549 73.316C88.7207 73.3415 88.8719 73.4143 89.0085 73.5342L88.8718 73.9381C88.6294 73.7437 88.4101 73.6496 88.2137 73.6559C88.0191 73.6593 87.8565 73.7705 87.7261 73.9894C87.6228 74.1629 87.5884 74.3273 87.6229 74.4827C87.6546 74.6364 87.7586 74.7657 87.9349 74.8707C88.0742 74.9537 88.2173 74.9851 88.3643 74.9647C88.5084 74.9427 88.669 74.8477 88.8461 74.6797L89.1067 74.4363C89.5203 74.0394 89.9389 73.9671 90.3626 74.2195C90.5132 74.3092 90.6285 74.4261 90.7085 74.57C90.7872 74.7094 90.8198 74.8713 90.8062 75.0558C90.7943 75.2375 90.7248 75.4349 90.5978 75.6481C90.5097 75.796 90.4023 75.9246 90.2755 76.034C90.1504 76.1405 90.0036 76.209 89.8351 76.2397C89.6684 76.2674 89.4776 76.2385 89.2628 76.1529L89.3299 75.8462C89.526 75.9438 89.6956 75.989 89.8386 75.9817C89.9816 75.9744 90.1049 75.9323 90.2085 75.8554C90.3093 75.7767 90.3936 75.6806 90.4613 75.5668Z" fill="white"/>
</svg>
